<svg version="1.1" id="Layer_1" xmlns="http://www.w3.org/2000/svg" xmlns:xlink="http://www.w3.org/1999/xlink" x="0px" y="0px"
	 width="100%" viewBox="0 0 460 460" enable-background="new 0 0 460 460" xml:space="preserve">
<path fill="#FF5179" opacity="1.000000" stroke="none" 
	d="
M264.000000,461.000000 
	C176.000000,461.000000 88.500000,461.000000 1.000000,461.000000 
	C1.000000,307.666656 1.000000,154.333328 1.000000,1.000000 
	C154.333328,1.000000 307.666656,1.000000 461.000000,1.000000 
	C461.000000,154.333328 461.000000,307.666656 461.000000,461.000000 
	C395.500000,461.000000 330.000000,461.000000 264.000000,461.000000 
M359.887573,30.586906 
	C355.579468,28.440859 351.446136,25.788641 346.934937,24.230679 
	C317.063263,13.914371 289.236694,19.189219 263.142883,35.965714 
	C260.437378,37.705185 257.762817,40.075539 256.114807,42.786034 
	C241.156036,67.388672 226.426926,92.130951 211.638580,116.837151 
	C210.727173,118.359795 209.883179,119.922798 208.251877,122.800621 
	C234.619568,114.400200 259.620789,106.435127 285.856659,98.076714 
	C276.107574,135.932922 266.724304,172.368546 257.277679,209.050232 
	C263.654877,210.771271 269.224396,212.274338 273.184753,213.343140 
	C259.791412,227.420273 246.141083,241.767471 231.935410,256.698395 
	C225.952408,236.873047 220.187042,217.768829 214.221954,198.002792 
	C221.909531,199.893417 228.423859,201.495499 235.245911,203.173264 
	C241.359650,179.429199 247.294479,156.379959 253.493179,132.305939 
	C223.616470,141.857468 195.044922,150.991730 165.613190,160.401001 
	C166.259079,157.947296 166.589005,156.390320 167.077011,154.884552 
	C179.127014,117.703629 191.133392,80.508286 203.344986,43.380444 
	C204.657425,39.390102 203.967987,37.297783 200.458496,34.932377 
	C182.411560,22.768644 162.496719,17.423092 140.916962,18.211664 
	C111.465187,19.287897 88.665031,31.665232 75.149757,58.586163 
	C63.063854,82.659935 61.610817,107.857727 69.741646,133.332443 
	C78.450974,160.619659 95.191628,183.286758 113.102081,205.115219 
	C142.336975,240.745422 175.352158,272.638062 210.125580,302.770721 
	C216.133347,307.976715 222.309891,312.987976 228.412674,318.092682 
	C230.378265,316.774933 231.978745,315.871124 233.388504,314.731415 
	C255.251999,297.056580 277.703613,280.047089 298.785736,261.482941 
	C327.481049,236.214813 353.058868,207.933884 373.504486,175.406281 
	C386.320435,155.016907 395.955841,133.211212 396.879791,108.774948 
	C398.087433,76.837196 387.417358,49.994915 359.887573,30.586906 
M279.831329,433.483917 
	C279.831329,437.424408 279.831329,441.364899 279.831329,445.845154 
	C289.137054,445.845154 297.762421,446.018738 306.376984,445.788239 
	C312.840881,445.615265 319.496185,445.782898 325.708405,444.299835 
	C344.137970,439.900146 354.837738,425.238586 355.612549,403.873322 
	C356.601227,376.609985 339.758057,357.872375 314.883484,357.873962 
	C304.890045,357.874603 294.896637,357.748627 284.903107,357.716675 
	C283.317688,357.711609 281.731628,357.899689 279.831482,358.018066 
	C279.831482,383.219604 279.831482,407.853607 279.831329,433.483917 
M127.770943,379.116821 
	C120.717377,401.066681 113.663803,423.016541 106.435692,445.509552 
	C113.337082,445.509552 119.415977,445.509552 125.866875,445.509552 
	C127.780457,439.654419 129.874817,433.704834 131.632263,427.657318 
	C132.404495,425.000061 133.547791,423.858063 136.457703,423.942627 
	C143.446899,424.145752 150.449097,424.129333 157.439606,423.950256 
	C160.302368,423.876923 161.513672,424.910217 162.253098,427.652313 
	C163.637360,432.785675 165.372726,437.833649 167.191925,442.833496 
	C167.615646,443.997986 168.921387,445.631042 169.888107,445.678162 
	C175.465164,445.950104 181.062286,445.810791 186.820282,445.810791 
	C186.759842,444.503174 186.870468,443.809570 186.679672,443.212250 
	C177.877594,415.658081 169.092239,388.098175 160.089371,360.609589 
	C159.664536,359.312469 157.320526,357.919128 155.799759,357.834229 
	C149.988602,357.509888 144.144562,357.830597 138.321060,357.647430 
	C135.517441,357.559265 134.121216,358.523560 133.354691,361.247864 
	C131.737244,366.996429 129.827103,372.662689 127.770943,379.116821 
M232.530029,392.673340 
	C231.031555,392.672455 229.516357,392.527283 228.037842,392.698608 
	C224.077011,393.157593 222.892929,391.500793 222.944473,387.569672 
	C223.123764,373.898041 222.991058,373.896301 236.798340,373.896240 
	C238.296844,373.896210 239.795334,373.896149 241.293839,373.896118 
	C248.210419,373.896118 255.127014,373.896118 262.113770,373.896118 
	C262.113770,368.115356 262.113770,363.079437 262.113770,357.927551 
	C242.585510,357.927551 223.490967,357.927551 204.315979,357.927551 
	C204.315979,387.245270 204.315979,416.295288 204.315979,445.567108 
	C224.030930,445.567108 243.420670,445.567108 262.975922,445.567108 
	C262.975922,440.083252 262.975922,434.892090 262.975922,429.357910 
	C250.876678,429.357910 239.233795,429.263794 227.594131,429.416199 
	C224.175583,429.460938 222.725098,428.417480 222.978699,424.859924 
	C223.238586,421.214539 223.369446,417.513641 223.038116,413.884430 
	C222.645401,409.582489 224.383179,408.505127 228.429321,408.639496 
	C236.697586,408.914185 244.981384,408.721863 253.546143,408.721863 
	C253.546143,403.155151 253.546143,398.245422 253.546143,392.673920 
	C246.759338,392.673920 240.139740,392.673920 232.530029,392.673340 
z"/>
<path fill="#FFFEFE" opacity="1.000000" stroke="none" 
	d="
M360.185913,30.792313 
	C387.417358,49.994915 398.087433,76.837196 396.879791,108.774948 
	C395.955841,133.211212 386.320435,155.016907 373.504486,175.406281 
	C353.058868,207.933884 327.481049,236.214813 298.785736,261.482941 
	C277.703613,280.047089 255.251999,297.056580 233.388504,314.731415 
	C231.978745,315.871124 230.378265,316.774933 228.412674,318.092682 
	C222.309891,312.987976 216.133347,307.976715 210.125580,302.770721 
	C175.352158,272.638062 142.336975,240.745422 113.102081,205.115219 
	C95.191628,183.286758 78.450974,160.619659 69.741646,133.332443 
	C61.610817,107.857727 63.063854,82.659935 75.149757,58.586163 
	C88.665031,31.665232 111.465187,19.287897 140.916962,18.211664 
	C162.496719,17.423092 182.411560,22.768644 200.458496,34.932377 
	C203.967987,37.297783 204.657425,39.390102 203.344986,43.380444 
	C191.133392,80.508286 179.127014,117.703629 167.077011,154.884552 
	C166.589005,156.390320 166.259079,157.947296 165.613190,160.401001 
	C195.044922,150.991730 223.616470,141.857468 253.493179,132.305939 
	C247.294479,156.379959 241.359650,179.429199 235.245911,203.173264 
	C228.423859,201.495499 221.909531,199.893417 214.221954,198.002792 
	C220.187042,217.768829 225.952408,236.873047 231.935410,256.698395 
	C246.141083,241.767471 259.791412,227.420273 273.184753,213.343140 
	C269.224396,212.274338 263.654877,210.771271 257.277679,209.050232 
	C266.724304,172.368546 276.107574,135.932922 285.856659,98.076714 
	C259.620789,106.435127 234.619568,114.400200 208.251877,122.800621 
	C209.883179,119.922798 210.727173,118.359795 211.638580,116.837151 
	C226.426926,92.130951 241.156036,67.388672 256.114807,42.786034 
	C257.762817,40.075539 260.437378,37.705185 263.142883,35.965714 
	C289.236694,19.189219 317.063263,13.914371 346.934937,24.230679 
	C351.446136,25.788641 355.579468,28.440859 360.185913,30.792313 
z"/>
<path fill="#FFFDFD" opacity="1.000000" stroke="none" 
	d="
M279.831421,432.985779 
	C279.831482,407.853607 279.831482,383.219604 279.831482,358.018066 
	C281.731628,357.899689 283.317688,357.711609 284.903107,357.716675 
	C294.896637,357.748627 304.890045,357.874603 314.883484,357.873962 
	C339.758057,357.872375 356.601227,376.609985 355.612549,403.873322 
	C354.837738,425.238586 344.137970,439.900146 325.708405,444.299835 
	C319.496185,445.782898 312.840881,445.615265 306.376984,445.788239 
	C297.762421,446.018738 289.137054,445.845154 279.831329,445.845154 
	C279.831329,441.364899 279.831329,437.424408 279.831421,432.985779 
M329.922852,383.667358 
	C322.217804,374.183014 311.661926,376.061981 301.254791,376.146149 
	C301.254791,393.371368 301.254791,410.214233 301.254791,427.784210 
	C306.914642,427.529449 312.230194,427.640167 317.445099,426.969025 
	C324.353027,426.079987 329.618164,422.213684 332.257629,415.763916 
	C336.634430,405.068909 336.684296,394.425659 329.922852,383.667358 
z"/>
<path fill="#FFFCFD" opacity="1.000000" stroke="none" 
	d="
M127.904007,378.739746 
	C129.827103,372.662689 131.737244,366.996429 133.354691,361.247864 
	C134.121216,358.523560 135.517441,357.559265 138.321060,357.647430 
	C144.144562,357.830597 149.988602,357.509888 155.799759,357.834229 
	C157.320526,357.919128 159.664536,359.312469 160.089371,360.609589 
	C169.092239,388.098175 177.877594,415.658081 186.679672,443.212250 
	C186.870468,443.809570 186.759842,444.503174 186.820282,445.810791 
	C181.062286,445.810791 175.465164,445.950104 169.888107,445.678162 
	C168.921387,445.631042 167.615646,443.997986 167.191925,442.833496 
	C165.372726,437.833649 163.637360,432.785675 162.253098,427.652313 
	C161.513672,424.910217 160.302368,423.876923 157.439606,423.950256 
	C150.449097,424.129333 143.446899,424.145752 136.457703,423.942627 
	C133.547791,423.858063 132.404495,425.000061 131.632263,427.657318 
	C129.874817,433.704834 127.780457,439.654419 125.866875,445.509552 
	C119.415977,445.509552 113.337082,445.509552 106.435692,445.509552 
	C113.663803,423.016541 120.717377,401.066681 127.904007,378.739746 
M152.175980,396.275970 
	C150.619125,391.487061 149.062271,386.698151 147.505432,381.909241 
	C147.093994,381.944000 146.682571,381.978790 146.271133,382.013550 
	C143.570404,390.510529 140.869659,399.007507 138.066193,407.827698 
	C144.369247,407.827698 149.784332,407.827698 155.788483,407.827698 
	C154.569046,403.942535 153.484955,400.488556 152.175980,396.275970 
z"/>
<path fill="#FFFCFC" opacity="1.000000" stroke="none" 
	d="
M233.025085,392.673645 
	C240.139740,392.673920 246.759338,392.673920 253.546143,392.673920 
	C253.546143,398.245422 253.546143,403.155151 253.546143,408.721863 
	C244.981384,408.721863 236.697586,408.914185 228.429321,408.639496 
	C224.383179,408.505127 222.645401,409.582489 223.038116,413.884430 
	C223.369446,417.513641 223.238586,421.214539 222.978699,424.859924 
	C222.725098,428.417480 224.175583,429.460938 227.594131,429.416199 
	C239.233795,429.263794 250.876678,429.357910 262.975922,429.357910 
	C262.975922,434.892090 262.975922,440.083252 262.975922,445.567108 
	C243.420670,445.567108 224.030930,445.567108 204.315979,445.567108 
	C204.315979,416.295288 204.315979,387.245270 204.315979,357.927551 
	C223.490967,357.927551 242.585510,357.927551 262.113770,357.927551 
	C262.113770,363.079437 262.113770,368.115356 262.113770,373.896118 
	C255.127014,373.896118 248.210419,373.896118 241.293839,373.896118 
	C239.795334,373.896149 238.296844,373.896210 236.798340,373.896240 
	C222.991058,373.896301 223.123764,373.898041 222.944473,387.569672 
	C222.892929,391.500793 224.077011,393.157593 228.037842,392.698608 
	C229.516357,392.527283 231.031555,392.672455 233.025085,392.673645 
z"/>
<path fill="#FF527A" opacity="1.000000" stroke="none" 
	d="
M330.128784,383.974518 
	C336.684296,394.425659 336.634430,405.068909 332.257629,415.763916 
	C329.618164,422.213684 324.353027,426.079987 317.445099,426.969025 
	C312.230194,427.640167 306.914642,427.529449 301.254791,427.784210 
	C301.254791,410.214233 301.254791,393.371368 301.254791,376.146149 
	C311.661926,376.061981 322.217804,374.183014 330.128784,383.974518 
z"/>
<path fill="#FF567D" opacity="1.000000" stroke="none" 
	d="
M152.288422,396.655273 
	C153.484955,400.488556 154.569046,403.942535 155.788483,407.827698 
	C149.784332,407.827698 144.369247,407.827698 138.066193,407.827698 
	C140.869659,399.007507 143.570404,390.510529 146.271133,382.013550 
	C146.682571,381.978790 147.093994,381.944000 147.505432,381.909241 
	C149.062271,386.698151 150.619125,391.487061 152.288422,396.655273 
z"/>
</svg>