<svg version="1.1" id="Layer_1" xmlns="http://www.w3.org/2000/svg" xmlns:xlink="http://www.w3.org/1999/xlink" x="0px" y="0px"
	 width="100%" viewBox="0 0 460 460" enable-background="new 0 0 460 460" xml:space="preserve">
<path fill="#BB5A65" opacity="1.000000" stroke="none" 
	d="
M302.000000,461.000000 
	C201.333328,461.000000 101.166664,461.000000 1.000000,461.000000 
	C1.000000,307.666656 1.000000,154.333328 1.000000,1.000000 
	C154.333328,1.000000 307.666656,1.000000 461.000000,1.000000 
	C461.000000,154.333328 461.000000,307.666656 461.000000,461.000000 
	C408.166656,461.000000 355.333344,461.000000 302.000000,461.000000 
M167.707184,375.832336 
	C169.321228,380.837067 170.935257,385.841766 172.594635,390.987122 
	C211.872559,383.633240 246.746811,368.446747 275.650146,340.959076 
	C303.128357,368.280670 336.074249,383.831146 373.559387,391.125641 
	C378.443359,376.487457 383.107117,362.509338 387.900177,348.143646 
	C363.326080,343.632355 339.447021,338.369049 319.125092,322.830750 
	C341.163757,322.830750 363.202423,322.830750 385.222534,322.830750 
	C385.222534,309.237244 385.222534,296.202728 385.222534,282.648071 
	C356.679596,282.648071 328.591522,282.648071 300.528809,282.648071 
	C300.528809,279.234711 300.528809,276.361267 300.528809,273.006287 
	C325.213837,273.006287 349.466766,273.006287 373.864319,273.006287 
	C373.864319,234.780426 373.864319,197.051346 373.864319,158.646286 
	C364.834473,158.646286 356.111542,158.646286 347.531830,158.646286 
	C347.531830,154.726898 347.531830,151.490585 347.531830,147.771210 
	C360.184448,147.771210 372.435944,147.771210 384.694153,147.771210 
	C384.694153,134.188507 384.694153,121.102936 384.694153,107.396088 
	C372.171417,107.396088 359.922150,107.396088 347.048096,107.396088 
	C347.048096,100.059219 347.048096,93.332382 347.048096,86.408257 
	C330.314178,86.408257 314.224274,86.408257 297.447052,86.408257 
	C297.447052,93.366745 297.447052,100.103935 297.447052,107.058990 
	C284.573669,107.058990 272.390991,107.058990 259.555603,107.058990 
	C259.555603,99.910263 259.555603,93.178596 259.555603,86.542007 
	C242.817749,86.542007 226.739212,86.542007 210.033936,86.542007 
	C210.033936,93.644943 210.033936,100.386757 210.033936,107.603897 
	C195.306610,107.603897 181.204956,107.603897 166.363678,107.603897 
	C166.363678,118.289574 166.363678,128.487076 166.363678,138.647949 
	C162.356583,138.647949 159.110458,138.647949 155.391159,138.647949 
	C155.391159,121.682083 155.391159,105.062431 155.391159,88.374252 
	C139.866623,88.374252 124.824257,88.374252 109.261353,88.374252 
	C109.261353,105.328346 109.261353,121.914139 109.261353,139.115173 
	C98.521790,139.115173 88.296211,139.115173 78.231392,139.115173 
	C78.231392,153.468277 78.231392,167.191040 78.231392,181.468185 
	C88.721077,181.468185 98.770462,181.468185 109.125008,181.468185 
	C108.886360,183.032913 108.793060,184.009628 108.584236,184.960983 
	C101.742752,216.128403 90.098495,245.366821 73.176422,272.441040 
	C71.154465,275.676025 70.596436,278.411560 72.095886,282.121613 
	C77.643570,295.848145 82.818214,309.725250 88.164070,323.533752 
	C88.647758,324.783142 89.353867,325.946411 90.661110,328.555756 
	C97.136391,315.227600 102.969093,303.222076 109.470001,289.841156 
	C109.470001,323.074585 109.470001,354.930206 109.470001,386.881317 
	C125.077950,386.881317 140.009583,386.881317 155.678040,386.881317 
	C155.678040,345.305267 155.678040,304.010803 155.678040,262.716309 
	C161.085312,273.914764 167.855988,284.432129 166.205032,297.506775 
	C165.562912,302.592041 166.100128,307.826202 166.100128,312.992554 
	C166.100128,316.247223 166.100128,319.501892 166.100128,323.166016 
	C186.629883,323.166016 206.358337,323.166016 226.086792,323.166016 
	C205.753098,337.228027 182.534195,342.395111 158.297241,346.374969 
	C161.399689,356.161407 164.400558,365.627411 167.707184,375.832336 
z"/>
<path fill="#FFFEFE" opacity="1.000000" stroke="none" 
	d="
M167.554291,375.462860 
	C164.400558,365.627411 161.399689,356.161407 158.297241,346.374969 
	C182.534195,342.395111 205.753098,337.228027 226.086792,323.166016 
	C206.358337,323.166016 186.629883,323.166016 166.100128,323.166016 
	C166.100128,319.501892 166.100128,316.247223 166.100128,312.992554 
	C166.100128,307.826202 165.562912,302.592041 166.205032,297.506775 
	C167.855988,284.432129 161.085312,273.914764 155.678040,262.716309 
	C155.678040,304.010803 155.678040,345.305267 155.678040,386.881317 
	C140.009583,386.881317 125.077950,386.881317 109.470001,386.881317 
	C109.470001,354.930206 109.470001,323.074585 109.470001,289.841156 
	C102.969093,303.222076 97.136391,315.227600 90.661110,328.555756 
	C89.353867,325.946411 88.647758,324.783142 88.164070,323.533752 
	C82.818214,309.725250 77.643570,295.848145 72.095886,282.121613 
	C70.596436,278.411560 71.154465,275.676025 73.176422,272.441040 
	C90.098495,245.366821 101.742752,216.128403 108.584236,184.960983 
	C108.793060,184.009628 108.886360,183.032913 109.125008,181.468185 
	C98.770462,181.468185 88.721077,181.468185 78.231392,181.468185 
	C78.231392,167.191040 78.231392,153.468277 78.231392,139.115173 
	C88.296211,139.115173 98.521790,139.115173 109.261353,139.115173 
	C109.261353,121.914139 109.261353,105.328346 109.261353,88.374252 
	C124.824257,88.374252 139.866623,88.374252 155.391159,88.374252 
	C155.391159,105.062431 155.391159,121.682083 155.391159,138.647949 
	C159.110458,138.647949 162.356583,138.647949 166.363678,138.647949 
	C166.363678,128.487076 166.363678,118.289574 166.363678,107.603897 
	C181.204956,107.603897 195.306610,107.603897 210.033936,107.603897 
	C210.033936,100.386757 210.033936,93.644943 210.033936,86.542007 
	C226.739212,86.542007 242.817749,86.542007 259.555603,86.542007 
	C259.555603,93.178596 259.555603,99.910263 259.555603,107.058990 
	C272.390991,107.058990 284.573669,107.058990 297.447052,107.058990 
	C297.447052,100.103935 297.447052,93.366745 297.447052,86.408257 
	C314.224274,86.408257 330.314178,86.408257 347.048096,86.408257 
	C347.048096,93.332382 347.048096,100.059219 347.048096,107.396088 
	C359.922150,107.396088 372.171417,107.396088 384.694153,107.396088 
	C384.694153,121.102936 384.694153,134.188507 384.694153,147.771210 
	C372.435944,147.771210 360.184448,147.771210 347.531830,147.771210 
	C347.531830,151.490585 347.531830,154.726898 347.531830,158.646286 
	C356.111542,158.646286 364.834473,158.646286 373.864319,158.646286 
	C373.864319,197.051346 373.864319,234.780426 373.864319,273.006287 
	C349.466766,273.006287 325.213837,273.006287 300.528809,273.006287 
	C300.528809,276.361267 300.528809,279.234711 300.528809,282.648071 
	C328.591522,282.648071 356.679596,282.648071 385.222534,282.648071 
	C385.222534,296.202728 385.222534,309.237244 385.222534,322.830750 
	C363.202423,322.830750 341.163757,322.830750 319.125092,322.830750 
	C339.447021,338.369049 363.326080,343.632355 387.900177,348.143646 
	C383.107117,362.509338 378.443359,376.487457 373.559387,391.125641 
	C336.074249,383.831146 303.128357,368.280670 275.650146,340.959076 
	C246.746811,368.446747 211.872559,383.633240 172.594635,390.987122 
	C170.935257,385.841766 169.321228,380.837067 167.554291,375.462860 
M316.298279,240.555374 
	C318.563446,240.555374 320.828613,240.555374 323.212006,240.555374 
	C323.212006,236.252930 323.212006,232.716629 323.212006,229.161728 
	C292.765411,229.161728 262.736542,229.161728 232.450653,229.161728 
	C232.450653,232.937286 232.450653,236.359787 232.450653,240.555328 
	C260.214874,240.555328 287.778839,240.555328 316.298279,240.555374 
M290.500061,191.833282 
	C271.257111,191.833282 252.014130,191.833282 232.577026,191.833282 
	C232.577026,195.860367 232.577026,199.239838 232.577026,202.722137 
	C262.966644,202.722137 292.999268,202.722137 323.240540,202.722137 
	C323.240540,199.039856 323.240540,195.640472 323.240540,191.833282 
	C312.427429,191.833282 301.963776,191.833282 290.500061,191.833282 
M175.431152,181.159012 
	C169.862747,181.159012 164.294357,181.159012 158.030807,181.159012 
	C166.637756,199.012451 174.865097,216.078476 183.092438,233.144516 
	C183.314774,233.054001 183.537094,232.963501 183.759430,232.872986 
	C183.759430,215.756210 183.759430,198.639420 183.759430,181.158859 
	C181.014282,181.158859 178.709122,181.158859 175.431152,181.159012 
M215.499954,282.865234 
	C226.246307,282.865234 236.992661,282.865234 247.607361,282.865234 
	C247.607361,279.212616 247.607361,276.325897 247.607361,273.135681 
	C230.235672,273.135681 213.277344,273.514221 196.348358,272.973541 
	C188.074860,272.709259 184.040314,278.546478 178.155258,281.749207 
	C178.311172,282.121216 178.467087,282.493225 178.622986,282.865234 
	C190.581970,282.865234 202.540955,282.865234 215.499954,282.865234 
M278.499817,158.845291 
	C284.602966,158.845291 290.706146,158.845291 297.028870,158.845291 
	C297.028870,154.973083 297.028870,151.616547 297.028870,148.391022 
	C284.423645,148.391022 272.227905,148.391022 260.211487,148.391022 
	C260.211487,152.028580 260.211487,155.251984 260.211487,158.845291 
	C266.257874,158.845291 271.879456,158.845291 278.499817,158.845291 
M194.530060,147.991257 
	C191.413254,147.991257 188.296448,147.991257 184.981689,147.991257 
	C184.981689,151.788681 184.981689,155.019058 184.981689,158.421478 
	C193.491684,158.421478 201.674759,158.421478 209.817810,158.421478 
	C209.817810,154.764587 209.817810,151.536819 209.817810,147.991257 
	C204.792725,147.991257 200.155289,147.991257 194.530060,147.991257 
z"/>
<path fill="#BE626C" opacity="1.000000" stroke="none" 
	d="
M315.820557,240.555359 
	C287.778839,240.555328 260.214874,240.555328 232.450653,240.555328 
	C232.450653,236.359787 232.450653,232.937286 232.450653,229.161728 
	C262.736542,229.161728 292.765411,229.161728 323.212006,229.161728 
	C323.212006,232.716629 323.212006,236.252930 323.212006,240.555374 
	C320.828613,240.555374 318.563446,240.555374 315.820557,240.555359 
z"/>
<path fill="#BC5B66" opacity="1.000000" stroke="none" 
	d="
M291.000092,191.833282 
	C301.963776,191.833282 312.427429,191.833282 323.240540,191.833282 
	C323.240540,195.640472 323.240540,199.039856 323.240540,202.722137 
	C292.999268,202.722137 262.966644,202.722137 232.577026,202.722137 
	C232.577026,199.239838 232.577026,195.860367 232.577026,191.833282 
	C252.014130,191.833282 271.257111,191.833282 291.000092,191.833282 
z"/>
<path fill="#BC5D68" opacity="1.000000" stroke="none" 
	d="
M175.917572,181.158936 
	C178.709122,181.158859 181.014282,181.158859 183.759430,181.158859 
	C183.759430,198.639420 183.759430,215.756210 183.759430,232.872986 
	C183.537094,232.963501 183.314774,233.054001 183.092438,233.144516 
	C174.865097,216.078476 166.637756,199.012451 158.030807,181.159012 
	C164.294357,181.159012 169.862747,181.159012 175.917572,181.158936 
z"/>
<path fill="#BF636D" opacity="1.000000" stroke="none" 
	d="
M214.999939,282.865234 
	C202.540955,282.865234 190.581970,282.865234 178.622986,282.865234 
	C178.467087,282.493225 178.311172,282.121216 178.155258,281.749207 
	C184.040314,278.546478 188.074860,272.709259 196.348358,272.973541 
	C213.277344,273.514221 230.235672,273.135681 247.607361,273.135681 
	C247.607361,276.325897 247.607361,279.212616 247.607361,282.865234 
	C236.992661,282.865234 226.246307,282.865234 214.999939,282.865234 
z"/>
<path fill="#BD5E69" opacity="1.000000" stroke="none" 
	d="
M278.000427,158.845291 
	C271.879456,158.845291 266.257874,158.845291 260.211487,158.845291 
	C260.211487,155.251984 260.211487,152.028580 260.211487,148.391022 
	C272.227905,148.391022 284.423645,148.391022 297.028870,148.391022 
	C297.028870,151.616547 297.028870,154.973083 297.028870,158.845291 
	C290.706146,158.845291 284.602966,158.845291 278.000427,158.845291 
z"/>
<path fill="#BD5E69" opacity="1.000000" stroke="none" 
	d="
M195.023956,147.991257 
	C200.155289,147.991257 204.792725,147.991257 209.817810,147.991257 
	C209.817810,151.536819 209.817810,154.764587 209.817810,158.421478 
	C201.674759,158.421478 193.491684,158.421478 184.981689,158.421478 
	C184.981689,155.019058 184.981689,151.788681 184.981689,147.991257 
	C188.296448,147.991257 191.413254,147.991257 195.023956,147.991257 
z"/>
</svg>