<svg version="1.1" id="Layer_1" xmlns="http://www.w3.org/2000/svg" xmlns:xlink="http://www.w3.org/1999/xlink" x="0px" y="0px"
	 width="100%" viewBox="0 0 460 460" enable-background="new 0 0 460 460" xml:space="preserve">
<path fill="#4CD399" opacity="1.000000" stroke="none" 
	d="
M276.000000,461.000000 
	C184.000000,461.000000 92.500000,461.000000 1.000000,461.000000 
	C1.000000,307.666656 1.000000,154.333328 1.000000,1.000000 
	C154.333328,1.000000 307.666656,1.000000 461.000000,1.000000 
	C461.000000,154.333328 461.000000,307.666656 461.000000,461.000000 
	C399.500000,461.000000 338.000000,461.000000 276.000000,461.000000 
M91.364647,371.499878 
	C91.364563,394.324097 91.356102,417.148285 91.367622,439.972504 
	C91.374306,453.219940 96.979904,458.841492 110.197746,458.842407 
	C190.165924,458.847992 270.134094,458.848297 350.102264,458.839722 
	C362.927673,458.838348 368.629639,453.095428 368.631012,440.171753 
	C368.639526,358.704163 368.640411,277.236603 368.630554,195.769012 
	C368.628967,182.720032 363.143677,177.285751 350.051697,177.285278 
	C270.250122,177.282425 190.448563,177.283234 110.646996,177.284393 
	C96.529091,177.284592 91.367554,182.439316 91.366463,196.569077 
	C91.361977,254.546005 91.364746,312.522919 91.364647,371.499878 
M183.314804,142.440002 
	C183.314804,124.416252 183.314804,106.392509 183.314804,88.368759 
	C184.009842,87.984818 184.704880,87.600876 185.399918,87.216934 
	C190.698395,93.509155 195.996887,99.801384 200.991119,105.732307 
	C208.746567,97.935059 215.245010,91.401566 221.231598,85.382721 
	C203.758545,67.838890 186.077667,50.086399 168.775528,32.714176 
	C151.253250,50.166222 133.503952,67.844360 116.376839,84.902809 
	C122.657959,91.256874 129.157761,97.832161 136.776108,105.538971 
	C142.098862,99.639412 147.710999,93.419106 154.361481,86.047928 
	C154.361481,90.426498 154.361389,93.198746 154.361481,95.971001 
	C154.362091,113.621651 154.304306,131.272842 154.463409,148.922058 
	C154.477646,150.501160 155.847229,153.402878 156.673264,153.434326 
	C165.394165,153.766357 174.132538,153.639877 183.314240,153.639877 
	C183.314240,149.687286 183.314240,146.550186 183.314804,142.440002 
M319.848328,126.348068 
	C328.259949,118.114632 336.671570,109.881195 344.540375,102.179062 
	C337.429779,94.806854 331.007843,88.148682 323.217773,80.072029 
	C317.688446,86.290298 312.127563,92.544052 306.566681,98.797806 
	C306.210327,98.638084 305.853943,98.478363 305.497589,98.318634 
	C305.497589,76.591850 305.497589,54.865067 305.497589,33.011925 
	C295.675873,33.011925 286.476929,33.011925 276.478729,33.011925 
	C276.478729,54.941792 276.478729,76.435547 276.478729,97.929306 
	C275.978699,98.158829 275.478638,98.388351 274.978607,98.617874 
	C269.524384,92.599800 264.070129,86.581734 259.016479,81.005653 
	C251.497345,88.184181 244.749374,94.626480 238.563889,100.531769 
	C256.423096,118.534729 274.075317,136.328995 292.048248,154.446579 
	C301.084900,145.315033 310.219513,136.084518 319.848328,126.348068 
z"/>
<path fill="#FDFFFE" opacity="1.000000" stroke="none" 
	d="
M91.364746,370.999878 
	C91.364746,312.522919 91.361977,254.546005 91.366463,196.569077 
	C91.367554,182.439316 96.529091,177.284592 110.646996,177.284393 
	C190.448563,177.283234 270.250122,177.282425 350.051697,177.285278 
	C363.143677,177.285751 368.628967,182.720032 368.630554,195.769012 
	C368.640411,277.236603 368.639526,358.704163 368.631012,440.171753 
	C368.629639,453.095428 362.927673,458.838348 350.102264,458.839722 
	C270.134094,458.848297 190.165924,458.847992 110.197746,458.842407 
	C96.979904,458.841492 91.374306,453.219940 91.367622,439.972504 
	C91.356102,417.148285 91.364563,394.324097 91.364746,370.999878 
M166.263565,431.009094 
	C171.795609,427.013184 174.272446,421.639618 174.352325,414.783325 
	C174.456924,405.809021 175.035400,396.839783 175.434479,387.869446 
	C176.513748,363.609985 177.747040,339.356201 178.626083,315.089569 
	C178.996552,304.862671 172.248154,298.218658 161.974976,297.960999 
	C156.983704,297.835846 151.985687,297.873810 146.992508,297.951813 
	C136.625839,298.113770 129.803192,304.973114 129.980698,315.334900 
	C130.105988,322.647888 130.687698,329.952118 130.995972,337.263153 
	C132.082169,363.022705 132.939346,388.794830 134.394196,414.533264 
	C134.648102,419.025085 136.414185,424.121490 139.151215,427.640106 
	C144.958710,435.105835 156.070587,436.168060 166.263565,431.009094 
M328.109833,357.513733 
	C328.761444,343.215942 329.616882,328.923523 329.992615,314.618500 
	C330.240875,305.168091 323.245422,298.258942 313.772339,297.976501 
	C308.945465,297.832581 304.110809,297.902893 299.280151,297.940643 
	C287.322113,298.034027 280.793854,304.951355 281.326691,316.852570 
	C282.807861,349.937347 284.273743,383.022766 285.736877,416.108337 
	C286.188843,426.328705 293.360199,433.574768 303.471802,433.991913 
	C316.358643,434.523590 324.540985,428.701965 325.286407,417.339661 
	C326.571747,397.746307 327.200836,378.109863 328.109833,357.513733 
M250.723267,303.922150 
	C246.984070,299.601410 242.188034,297.830200 236.557358,297.919006 
	C231.894272,297.992554 227.227646,297.860535 222.565216,297.952667 
	C212.155106,298.158356 205.422241,305.051147 205.822876,315.404572 
	C207.129166,349.162323 208.504166,382.917633 209.972427,416.668732 
	C210.434753,427.296448 218.521500,434.017639 230.317886,433.995178 
	C241.594437,433.973663 249.590118,427.016968 250.038422,416.532898 
	C251.474335,382.951538 252.918091,349.369446 254.031860,315.776825 
	C254.154907,312.065277 252.170288,308.283844 250.723267,303.922150 
M216.564331,283.103577 
	C217.284790,283.518707 217.990921,283.961395 218.727859,284.344849 
	C230.485657,290.462860 245.260086,285.916748 251.867111,274.154572 
	C258.417084,262.493927 254.735382,247.762238 243.552658,240.885712 
	C231.391861,233.407761 217.093689,236.496643 208.933746,248.364502 
	C201.406021,259.312897 204.404800,274.035858 216.564331,283.103577 
M175.378159,248.266861 
	C173.844803,246.531174 172.461075,244.629654 170.752655,243.087967 
	C162.508026,235.647949 150.166275,234.786118 140.731293,240.872543 
	C131.563065,246.786896 127.168922,258.343170 130.151321,268.696960 
	C133.232956,279.395203 143.200470,286.947723 154.130127,287.008118 
	C173.453079,287.114990 185.932465,266.317047 175.378159,248.266861 
M281.922455,270.156067 
	C287.033936,281.689545 295.455017,287.329071 307.067383,286.995453 
	C316.213409,286.732727 325.610199,279.978363 328.954071,271.263428 
	C332.959930,260.823303 329.999695,249.635880 321.324768,242.430420 
	C313.224243,235.702087 301.419952,234.988327 292.445312,240.684204 
	C282.614777,246.923279 278.664978,257.497894 281.922455,270.156067 
z"/>
<path fill="#FCFEFE" opacity="1.000000" stroke="none" 
	d="
M183.314514,142.926544 
	C183.314240,146.550186 183.314240,149.687286 183.314240,153.639877 
	C174.132538,153.639877 165.394165,153.766357 156.673264,153.434326 
	C155.847229,153.402878 154.477646,150.501160 154.463409,148.922058 
	C154.304306,131.272842 154.362091,113.621651 154.361481,95.971001 
	C154.361389,93.198746 154.361481,90.426498 154.361481,86.047928 
	C147.710999,93.419106 142.098862,99.639412 136.776108,105.538971 
	C129.157761,97.832161 122.657959,91.256874 116.376839,84.902809 
	C133.503952,67.844360 151.253250,50.166222 168.775528,32.714176 
	C186.077667,50.086399 203.758545,67.838890 221.231598,85.382721 
	C215.245010,91.401566 208.746567,97.935059 200.991119,105.732307 
	C195.996887,99.801384 190.698395,93.509155 185.399918,87.216934 
	C184.704880,87.600876 184.009842,87.984818 183.314804,88.368759 
	C183.314804,106.392509 183.314804,124.416252 183.314514,142.926544 
z"/>
<path fill="#FDFEFE" opacity="1.000000" stroke="none" 
	d="
M319.601196,126.601028 
	C310.219513,136.084518 301.084900,145.315033 292.048248,154.446579 
	C274.075317,136.328995 256.423096,118.534729 238.563889,100.531769 
	C244.749374,94.626480 251.497345,88.184181 259.016479,81.005653 
	C264.070129,86.581734 269.524384,92.599800 274.978607,98.617874 
	C275.478638,98.388351 275.978699,98.158829 276.478729,97.929306 
	C276.478729,76.435547 276.478729,54.941792 276.478729,33.011925 
	C286.476929,33.011925 295.675873,33.011925 305.497589,33.011925 
	C305.497589,54.865067 305.497589,76.591850 305.497589,98.318634 
	C305.853943,98.478363 306.210327,98.638084 306.566681,98.797806 
	C312.127563,92.544052 317.688446,86.290298 323.217773,80.072029 
	C331.007843,88.148682 337.429779,94.806854 344.540375,102.179062 
	C336.671570,109.881195 328.259949,118.114632 319.601196,126.601028 
z"/>
<path fill="#4DD399" opacity="1.000000" stroke="none" 
	d="
M165.914215,431.165039 
	C156.070587,436.168060 144.958710,435.105835 139.151215,427.640106 
	C136.414185,424.121490 134.648102,419.025085 134.394196,414.533264 
	C132.939346,388.794830 132.082169,363.022705 130.995972,337.263153 
	C130.687698,329.952118 130.105988,322.647888 129.980698,315.334900 
	C129.803192,304.973114 136.625839,298.113770 146.992508,297.951813 
	C151.985687,297.873810 156.983704,297.835846 161.974976,297.960999 
	C172.248154,298.218658 178.996552,304.862671 178.626083,315.089569 
	C177.747040,339.356201 176.513748,363.609985 175.434479,387.869446 
	C175.035400,396.839783 174.456924,405.809021 174.352325,414.783325 
	C174.272446,421.639618 171.795609,427.013184 165.914215,431.165039 
z"/>
<path fill="#4DD399" opacity="1.000000" stroke="none" 
	d="
M328.107605,358.002625 
	C327.200836,378.109863 326.571747,397.746307 325.286407,417.339661 
	C324.540985,428.701965 316.358643,434.523590 303.471802,433.991913 
	C293.360199,433.574768 286.188843,426.328705 285.736877,416.108337 
	C284.273743,383.022766 282.807861,349.937347 281.326691,316.852570 
	C280.793854,304.951355 287.322113,298.034027 299.280151,297.940643 
	C304.110809,297.902893 308.945465,297.832581 313.772339,297.976501 
	C323.245422,298.258942 330.240875,305.168091 329.992615,314.618500 
	C329.616882,328.923523 328.761444,343.215942 328.107605,358.002625 
z"/>
<path fill="#4DD399" opacity="1.000000" stroke="none" 
	d="
M250.943237,304.228485 
	C252.170288,308.283844 254.154907,312.065277 254.031860,315.776825 
	C252.918091,349.369446 251.474335,382.951538 250.038422,416.532898 
	C249.590118,427.016968 241.594437,433.973663 230.317886,433.995178 
	C218.521500,434.017639 210.434753,427.296448 209.972427,416.668732 
	C208.504166,382.917633 207.129166,349.162323 205.822876,315.404572 
	C205.422241,305.051147 212.155106,298.158356 222.565216,297.952667 
	C227.227646,297.860535 231.894272,297.992554 236.557358,297.919006 
	C242.188034,297.830200 246.984070,299.601410 250.943237,304.228485 
z"/>
<path fill="#4DD39A" opacity="1.000000" stroke="none" 
	d="
M216.247833,282.911865 
	C204.404800,274.035858 201.406021,259.312897 208.933746,248.364502 
	C217.093689,236.496643 231.391861,233.407761 243.552658,240.885712 
	C254.735382,247.762238 258.417084,262.493927 251.867111,274.154572 
	C245.260086,285.916748 230.485657,290.462860 218.727859,284.344849 
	C217.990921,283.961395 217.284790,283.518707 216.247833,282.911865 
z"/>
<path fill="#4DD39A" opacity="1.000000" stroke="none" 
	d="
M175.573364,248.581940 
	C185.932465,266.317047 173.453079,287.114990 154.130127,287.008118 
	C143.200470,286.947723 133.232956,279.395203 130.151321,268.696960 
	C127.168922,258.343170 131.563065,246.786896 140.731293,240.872543 
	C150.166275,234.786118 162.508026,235.647949 170.752655,243.087967 
	C172.461075,244.629654 173.844803,246.531174 175.573364,248.581940 
z"/>
<path fill="#4ED39A" opacity="1.000000" stroke="none" 
	d="
M281.829712,269.754669 
	C278.664978,257.497894 282.614777,246.923279 292.445312,240.684204 
	C301.419952,234.988327 313.224243,235.702087 321.324768,242.430420 
	C329.999695,249.635880 332.959930,260.823303 328.954071,271.263428 
	C325.610199,279.978363 316.213409,286.732727 307.067383,286.995453 
	C295.455017,287.329071 287.033936,281.689545 281.829712,269.754669 
z"/>
</svg>