<svg version="1.1" id="Layer_1" xmlns="http://www.w3.org/2000/svg" xmlns:xlink="http://www.w3.org/1999/xlink" x="0px" y="0px"
	 width="100%" viewBox="0 0 460 460" enable-background="new 0 0 460 460" xml:space="preserve">
<path fill="#5ABA4F" opacity="1.000000" stroke="none" 
	d="
M290.000000,461.000000 
	C193.333328,461.000000 97.166664,461.000000 1.000000,461.000000 
	C1.000000,307.666656 1.000000,154.333328 1.000000,1.000000 
	C154.333328,1.000000 307.666656,1.000000 461.000000,1.000000 
	C461.000000,154.333328 461.000000,307.666656 461.000000,461.000000 
	C404.166656,461.000000 347.333344,461.000000 290.000000,461.000000 
M325.247375,424.646027 
	C336.100220,427.648682 344.475098,422.468079 344.965973,412.253845 
	C345.443329,402.320587 345.554169,392.369720 346.028687,382.436279 
	C346.564697,371.215668 347.442688,360.011230 347.963196,348.790100 
	C348.738464,332.076019 349.338470,315.353760 349.997772,298.634399 
	C350.350098,289.699219 350.627655,280.760712 351.062469,271.829681 
	C351.113434,270.782776 351.950806,269.774170 352.423584,268.747803 
	C353.759979,270.366516 353.959076,271.625793 353.985291,272.888672 
	C354.336975,289.823822 354.745148,306.758362 354.980072,323.695251 
	C355.379089,352.463501 355.665405,381.233307 355.997894,410.002472 
	C356.005615,410.669067 355.974365,411.336945 356.003967,412.002289 
	C356.345093,419.664886 360.986755,425.095734 367.912537,425.947174 
	C374.596863,426.768951 380.730164,422.742645 382.127411,415.141418 
	C383.489594,407.730804 383.581024,400.066803 383.961823,392.500580 
	C384.444946,382.901520 384.554596,373.283966 385.012604,363.683289 
	C385.571655,351.963470 386.411438,340.257019 386.975891,328.537415 
	C388.042450,306.392395 389.106232,284.245941 389.900208,262.090363 
	C390.038940,258.219025 390.954834,256.853851 395.000153,256.915497 
	C409.496796,257.136292 423.998810,257.001892 438.498810,257.001770 
	C440.252930,257.001770 442.007050,257.001770 443.744629,257.001770 
	C443.744629,249.664154 443.744629,243.063980 443.744629,235.999268 
	C441.715118,235.999268 439.920135,235.999298 438.125183,235.999252 
	C423.610992,235.998993 409.096039,235.917496 394.583221,236.057648 
	C391.114471,236.091125 389.684479,234.957748 389.972168,231.443512 
	C390.416412,226.016846 390.829346,220.578415 390.967926,215.137650 
	C391.386627,198.702469 391.667084,182.263779 392.000488,165.826431 
	C392.064575,162.667694 392.002655,159.500977 392.207306,156.351486 
	C392.979065,144.474350 381.265991,132.011154 370.295349,131.147659 
	C358.396454,130.211090 346.408295,130.197083 334.458923,130.193665 
	C327.251373,130.191605 320.291382,131.614334 315.617310,138.026184 
	C303.335815,154.873688 291.138611,171.783295 278.727509,188.534561 
	C277.520142,190.164139 275.143707,191.653717 273.167328,191.863251 
	C263.984650,192.836868 254.750183,193.316193 245.537292,194.012527 
	C238.586502,194.537888 233.997223,198.951965 233.998901,205.030533 
	C234.000580,211.035431 238.302032,215.517044 245.067139,215.949081 
	C257.947968,216.771652 270.855164,217.191895 283.731110,218.074921 
	C288.524597,218.403656 291.608826,216.472458 294.652649,213.014267 
	C300.602295,206.254684 306.996887,199.886734 314.312378,192.194641 
	C314.312378,207.421768 314.312378,221.074280 314.312378,235.664261 
	C215.701874,235.664261 117.038628,235.664261 18.362984,235.664261 
	C18.362984,243.320374 18.362984,250.039200 18.362984,257.118652 
	C117.333817,257.118652 215.940292,257.118652 314.570435,257.118652 
	C315.076385,261.202362 315.832428,264.915894 315.946991,268.649109 
	C316.405243,283.581207 316.737091,298.518188 316.980408,313.455597 
	C317.375732,337.723572 317.689636,361.992981 317.984253,386.262451 
	C318.077301,393.927979 318.249451,401.606354 317.920471,409.258881 
	C317.651245,415.521271 319.384552,420.542389 325.247375,424.646027 
M147.481689,224.000824 
	C151.797974,224.000824 156.114258,224.000824 160.978592,224.000824 
	C156.276489,213.949081 158.667725,204.507599 161.252914,194.309448 
	C168.348724,199.009109 174.652740,203.107773 180.872162,207.331039 
	C184.873413,210.048050 189.222595,210.427750 193.176376,208.112732 
	C204.480637,201.493912 215.588959,194.536652 226.699738,187.593109 
	C230.829926,185.012009 231.998489,179.791840 229.750717,175.450058 
	C227.600494,171.296707 222.873108,168.959763 219.130005,170.483917 
	C210.952698,173.813675 202.770416,177.149414 194.737183,180.805679 
	C191.569443,182.247452 189.476486,182.139618 186.900330,179.545761 
	C179.802811,172.399460 172.604935,165.318222 165.008240,158.715744 
	C160.661804,154.938141 155.634232,151.838730 150.604691,148.976273 
	C142.200211,144.193039 132.759872,145.520355 123.868599,146.280746 
	C115.507881,146.995743 107.266113,150.353104 102.280663,157.709702 
	C90.064156,175.736526 78.307961,194.076035 66.432892,212.332870 
	C64.091904,215.931931 62.048534,219.724564 59.532524,223.997482 
	C68.491066,223.997482 76.477448,224.023529 84.463158,223.961609 
	C85.372002,223.954575 86.578201,223.734619 87.135574,223.136917 
	C91.152359,218.829468 95.108200,214.459412 98.925056,209.974503 
	C100.235207,208.435043 101.093307,206.510880 102.386101,204.387741 
	C107.104477,212.368683 103.431725,217.966797 102.239441,223.679306 
	C102.881706,223.819443 103.204674,223.951080 103.527847,223.951614 
	C117.847984,223.975266 132.168137,223.987366 147.481689,224.000824 
M328.003754,113.480148 
	C335.552307,120.529335 343.838684,124.154495 354.714294,122.182388 
	C371.747040,119.093796 383.156860,101.038559 377.707489,84.393440 
	C372.850525,69.557693 355.273193,60.113754 340.523193,65.320610 
	C320.177795,72.502678 313.281189,96.094894 328.003754,113.480148 
M119.088051,97.486816 
	C117.269905,99.256927 115.219398,100.845879 113.673698,102.828400 
	C106.875359,111.547928 107.438271,123.722504 114.871376,132.240433 
	C120.716934,138.939117 134.288300,141.443863 142.127167,136.881989 
	C153.563629,130.226501 155.988235,121.107391 153.314301,110.059166 
	C149.952881,96.170288 134.202286,89.213966 119.088051,97.486816 
z"/>
<path fill="#FFFFFF" opacity="1.000000" stroke="none" 
	d="
M324.963165,424.379272 
	C319.384552,420.542389 317.651245,415.521271 317.920471,409.258881 
	C318.249451,401.606354 318.077301,393.927979 317.984253,386.262451 
	C317.689636,361.992981 317.375732,337.723572 316.980408,313.455597 
	C316.737091,298.518188 316.405243,283.581207 315.946991,268.649109 
	C315.832428,264.915894 315.076385,261.202362 314.570435,257.118652 
	C215.940292,257.118652 117.333817,257.118652 18.362984,257.118652 
	C18.362984,250.039200 18.362984,243.320374 18.362984,235.664261 
	C117.038628,235.664261 215.701874,235.664261 314.312378,235.664261 
	C314.312378,221.074280 314.312378,207.421768 314.312378,192.194641 
	C306.996887,199.886734 300.602295,206.254684 294.652649,213.014267 
	C291.608826,216.472458 288.524597,218.403656 283.731110,218.074921 
	C270.855164,217.191895 257.947968,216.771652 245.067139,215.949081 
	C238.302032,215.517044 234.000580,211.035431 233.998901,205.030533 
	C233.997223,198.951965 238.586502,194.537888 245.537292,194.012527 
	C254.750183,193.316193 263.984650,192.836868 273.167328,191.863251 
	C275.143707,191.653717 277.520142,190.164139 278.727509,188.534561 
	C291.138611,171.783295 303.335815,154.873688 315.617310,138.026184 
	C320.291382,131.614334 327.251373,130.191605 334.458923,130.193665 
	C346.408295,130.197083 358.396454,130.211090 370.295349,131.147659 
	C381.265991,132.011154 392.979065,144.474350 392.207306,156.351486 
	C392.002655,159.500977 392.064575,162.667694 392.000488,165.826431 
	C391.667084,182.263779 391.386627,198.702469 390.967926,215.137650 
	C390.829346,220.578415 390.416412,226.016846 389.972168,231.443512 
	C389.684479,234.957748 391.114471,236.091125 394.583221,236.057648 
	C409.096039,235.917496 423.610992,235.998993 438.125183,235.999252 
	C439.920135,235.999298 441.715118,235.999268 443.744629,235.999268 
	C443.744629,243.063980 443.744629,249.664154 443.744629,257.001770 
	C442.007050,257.001770 440.252930,257.001770 438.498810,257.001770 
	C423.998810,257.001892 409.496796,257.136292 395.000153,256.915497 
	C390.954834,256.853851 390.038940,258.219025 389.900208,262.090363 
	C389.106232,284.245941 388.042450,306.392395 386.975891,328.537415 
	C386.411438,340.257019 385.571655,351.963470 385.012604,363.683289 
	C384.554596,373.283966 384.444946,382.901520 383.961823,392.500580 
	C383.581024,400.066803 383.489594,407.730804 382.127411,415.141418 
	C380.730164,422.742645 374.596863,426.768951 367.912537,425.947174 
	C360.986755,425.095734 356.345093,419.664886 356.003967,412.002289 
	C355.974365,411.336945 356.005615,410.669067 355.997894,410.002472 
	C355.665405,381.233307 355.379089,352.463501 354.980072,323.695251 
	C354.745148,306.758362 354.336975,289.823822 353.985291,272.888672 
	C353.959076,271.625793 353.759979,270.366516 352.423584,268.747803 
	C351.950806,269.774170 351.113434,270.782776 351.062469,271.829681 
	C350.627655,280.760712 350.350098,289.699219 349.997772,298.634399 
	C349.338470,315.353760 348.738464,332.076019 347.963196,348.790100 
	C347.442688,360.011230 346.564697,371.215668 346.028687,382.436279 
	C345.554169,392.369720 345.443329,402.320587 344.965973,412.253845 
	C344.475098,422.468079 336.100220,427.648682 324.963165,424.379272 
z"/>
<path fill="#FFFFFF" opacity="1.000000" stroke="none" 
	d="
M146.984985,224.000824 
	C132.168137,223.987366 117.847984,223.975266 103.527847,223.951614 
	C103.204674,223.951080 102.881706,223.819443 102.239441,223.679306 
	C103.431725,217.966797 107.104477,212.368683 102.386101,204.387741 
	C101.093307,206.510880 100.235207,208.435043 98.925056,209.974503 
	C95.108200,214.459412 91.152359,218.829468 87.135574,223.136917 
	C86.578201,223.734619 85.372002,223.954575 84.463158,223.961609 
	C76.477448,224.023529 68.491066,223.997482 59.532524,223.997482 
	C62.048534,219.724564 64.091904,215.931931 66.432892,212.332870 
	C78.307961,194.076035 90.064156,175.736526 102.280663,157.709702 
	C107.266113,150.353104 115.507881,146.995743 123.868599,146.280746 
	C132.759872,145.520355 142.200211,144.193039 150.604691,148.976273 
	C155.634232,151.838730 160.661804,154.938141 165.008240,158.715744 
	C172.604935,165.318222 179.802811,172.399460 186.900330,179.545761 
	C189.476486,182.139618 191.569443,182.247452 194.737183,180.805679 
	C202.770416,177.149414 210.952698,173.813675 219.130005,170.483917 
	C222.873108,168.959763 227.600494,171.296707 229.750717,175.450058 
	C231.998489,179.791840 230.829926,185.012009 226.699738,187.593109 
	C215.588959,194.536652 204.480637,201.493912 193.176376,208.112732 
	C189.222595,210.427750 184.873413,210.048050 180.872162,207.331039 
	C174.652740,203.107773 168.348724,199.009109 161.252914,194.309448 
	C158.667725,204.507599 156.276489,213.949081 160.978592,224.000824 
	C156.114258,224.000824 151.797974,224.000824 146.984985,224.000824 
z"/>
<path fill="#FFFFFF" opacity="1.000000" stroke="none" 
	d="
M327.740417,113.229843 
	C313.281189,96.094894 320.177795,72.502678 340.523193,65.320610 
	C355.273193,60.113754 372.850525,69.557693 377.707489,84.393440 
	C383.156860,101.038559 371.747040,119.093796 354.714294,122.182388 
	C343.838684,124.154495 335.552307,120.529335 327.740417,113.229843 
z"/>
<path fill="#FFFFFE" opacity="1.000000" stroke="none" 
	d="
M119.423767,97.291977 
	C134.202286,89.213966 149.952881,96.170288 153.314301,110.059166 
	C155.988235,121.107391 153.563629,130.226501 142.127167,136.881989 
	C134.288300,141.443863 120.716934,138.939117 114.871376,132.240433 
	C107.438271,123.722504 106.875359,111.547928 113.673698,102.828400 
	C115.219398,100.845879 117.269905,99.256927 119.423767,97.291977 
z"/>
</svg>