<svg version="1.1" id="Layer_1" xmlns="http://www.w3.org/2000/svg" xmlns:xlink="http://www.w3.org/1999/xlink" x="0px" y="0px"
	 width="100%" viewBox="0 0 460 460" enable-background="new 0 0 460 460" xml:space="preserve">
<path fill="#4F6291" opacity="1.000000" stroke="none" 
	d="
M313.000000,461.000000 
	C208.666672,461.000000 104.833336,461.000000 1.000000,461.000000 
	C1.000000,307.666656 1.000000,154.333328 1.000000,1.000000 
	C154.333328,1.000000 307.666656,1.000000 461.000000,1.000000 
	C461.000000,154.333328 461.000000,307.666656 461.000000,461.000000 
	C411.833344,461.000000 362.666656,461.000000 313.000000,461.000000 
M88.386299,418.337402 
	C100.548973,424.868164 114.928932,417.267181 117.735260,404.512268 
	C124.263283,374.842102 131.658630,345.363037 138.647980,315.793671 
	C139.527176,312.074127 141.200378,310.359924 145.456238,310.409943 
	C165.777863,310.648804 186.103882,310.537750 206.428284,310.506653 
	C221.747116,310.483215 234.490662,300.683228 237.398453,285.571564 
	C239.266647,275.862610 239.648788,265.866241 240.667221,255.995590 
	C242.279587,240.368698 243.844650,224.736908 245.472229,209.111618 
	C246.688309,197.436813 248.082275,185.779572 249.194366,174.095200 
	C250.370041,161.742920 247.555771,150.783707 237.512619,142.499313 
	C228.266571,134.872437 217.804749,135.499588 207.312698,138.434906 
	C194.908722,141.905121 182.661804,145.947983 170.390900,149.880203 
	C148.833694,156.788239 127.313721,163.812363 105.770294,170.763519 
	C98.195473,173.207581 91.987434,181.962326 93.037933,188.825668 
	C94.664444,199.452347 100.461327,205.222305 110.607590,204.395859 
	C119.602501,203.663177 128.494186,201.473328 137.384888,199.694138 
	C152.096466,196.750137 166.770630,193.619171 181.628738,190.532028 
	C181.727554,191.361542 181.865005,191.817841 181.822144,192.256531 
	C180.421600,206.585526 178.921906,220.905426 177.622849,235.243515 
	C176.970505,242.443665 177.133453,242.461777 169.823486,242.462906 
	C146.000580,242.466568 122.177238,242.545624 98.355057,242.415543 
	C92.286606,242.382401 87.335213,244.416275 83.281013,248.769302 
	C74.794258,257.881592 66.354279,267.037537 57.903011,276.182831 
	C45.512875,289.590515 33.033787,302.917786 20.779884,316.448914 
	C13.568814,324.411560 13.711635,335.018860 20.693312,342.528961 
	C26.765865,349.061127 37.338440,349.169250 45.496487,342.403625 
	C56.709805,333.104187 67.705467,323.542603 78.818970,314.122314 
	C83.925224,309.794067 89.089928,305.534729 95.011177,300.590240 
	C94.875565,302.356323 94.879593,302.959747 94.777122,303.544495 
	C89.303528,334.777069 83.854431,366.014008 78.317162,397.235291 
	C76.818245,405.686829 79.947998,412.760193 88.386299,418.337402 
M402.194824,402.166412 
	C403.200165,405.130310 403.743591,408.365540 405.295929,411.008118 
	C410.323944,419.567352 420.461029,422.842987 429.949799,419.373474 
	C438.865936,416.113373 443.983704,407.294067 442.290833,396.909180 
	C439.740692,381.265228 436.741425,365.694763 433.970215,350.086487 
	C430.102386,328.301575 426.040344,306.547607 422.507965,284.708160 
	C420.454315,272.010925 411.407196,263.631439 398.388977,263.612762 
	C382.226379,263.589539 366.063354,263.548187 349.901459,263.657715 
	C346.862457,263.678345 345.546387,263.011993 345.297913,259.596680 
	C344.723145,251.694687 343.471466,243.844635 342.689758,235.954147 
	C342.094604,229.946350 341.800140,223.908752 341.311737,217.038925 
	C343.254211,218.103134 344.325134,218.504593 345.174652,219.183151 
	C357.192993,228.782501 369.263550,238.319199 381.150146,248.079742 
	C390.308594,255.600082 400.224487,255.439117 407.664734,247.277954 
	C413.771576,240.579376 412.761353,229.821365 405.158997,222.345352 
	C400.067200,217.338196 394.719482,212.591888 389.605804,207.606232 
	C368.783691,187.305481 347.844482,167.120728 327.277039,146.564453 
	C315.275879,134.569824 300.748322,133.816498 288.589752,139.789124 
	C275.209106,146.362061 269.437622,160.058243 271.610107,177.409698 
	C273.499298,192.498550 274.923004,207.646576 276.480560,222.775833 
	C278.513153,242.519516 280.320679,262.287659 282.513702,282.013153 
	C284.422882,299.185486 297.259033,310.480957 314.419464,310.507629 
	C333.747925,310.537628 353.076447,310.515472 372.404938,310.516357 
	C380.902496,310.516754 380.643341,310.575562 382.524384,318.936584 
	C386.076721,334.726257 389.989594,350.434540 393.694763,366.190247 
	C396.454468,377.925629 399.122955,389.682434 402.194824,402.166412 
M364.349945,336.504974 
	C364.349945,332.398773 364.349945,328.292572 364.349945,324.030334 
	C294.743256,324.030334 225.858170,324.030334 156.936371,324.030334 
	C156.936371,333.947327 156.936371,343.486481 156.936371,352.922546 
	C226.259491,352.922546 295.137939,352.922546 364.349609,352.922546 
	C364.349609,347.475281 364.349609,342.489288 364.349945,336.504974 
M201.334915,119.235626 
	C213.568314,127.648804 229.847290,125.838806 239.299194,117.550423 
	C251.436432,106.907265 254.398071,92.172646 247.661255,78.546707 
	C241.789215,66.669868 228.823334,60.021931 214.491806,61.539909 
	C202.821548,62.776001 191.647263,72.532471 188.686844,84.070694 
	C185.199219,97.663704 189.851379,110.983543 201.334915,119.235626 
M285.810242,120.795753 
	C298.492523,126.866638 312.721619,125.197273 321.723999,117.361794 
	C332.055756,108.369255 336.094482,93.501801 330.429565,80.448204 
	C325.871918,69.946114 317.641022,63.433247 306.482788,61.704624 
	C294.165863,59.796486 283.466949,63.654858 275.708527,73.838593 
	C266.080872,86.475945 266.361664,108.853172 285.810242,120.795753 
z"/>
<path fill="#FEFEFE" opacity="1.000000" stroke="none" 
	d="
M88.091888,418.101654 
	C79.947998,412.760193 76.818245,405.686829 78.317162,397.235291 
	C83.854431,366.014008 89.303528,334.777069 94.777122,303.544495 
	C94.879593,302.959747 94.875565,302.356323 95.011177,300.590240 
	C89.089928,305.534729 83.925224,309.794067 78.818970,314.122314 
	C67.705467,323.542603 56.709805,333.104187 45.496487,342.403625 
	C37.338440,349.169250 26.765865,349.061127 20.693312,342.528961 
	C13.711635,335.018860 13.568814,324.411560 20.779884,316.448914 
	C33.033787,302.917786 45.512875,289.590515 57.903011,276.182831 
	C66.354279,267.037537 74.794258,257.881592 83.281013,248.769302 
	C87.335213,244.416275 92.286606,242.382401 98.355057,242.415543 
	C122.177238,242.545624 146.000580,242.466568 169.823486,242.462906 
	C177.133453,242.461777 176.970505,242.443665 177.622849,235.243515 
	C178.921906,220.905426 180.421600,206.585526 181.822144,192.256531 
	C181.865005,191.817841 181.727554,191.361542 181.628738,190.532028 
	C166.770630,193.619171 152.096466,196.750137 137.384888,199.694138 
	C128.494186,201.473328 119.602501,203.663177 110.607590,204.395859 
	C100.461327,205.222305 94.664444,199.452347 93.037933,188.825668 
	C91.987434,181.962326 98.195473,173.207581 105.770294,170.763519 
	C127.313721,163.812363 148.833694,156.788239 170.390900,149.880203 
	C182.661804,145.947983 194.908722,141.905121 207.312698,138.434906 
	C217.804749,135.499588 228.266571,134.872437 237.512619,142.499313 
	C247.555771,150.783707 250.370041,161.742920 249.194366,174.095200 
	C248.082275,185.779572 246.688309,197.436813 245.472229,209.111618 
	C243.844650,224.736908 242.279587,240.368698 240.667221,255.995590 
	C239.648788,265.866241 239.266647,275.862610 237.398453,285.571564 
	C234.490662,300.683228 221.747116,310.483215 206.428284,310.506653 
	C186.103882,310.537750 165.777863,310.648804 145.456238,310.409943 
	C141.200378,310.359924 139.527176,312.074127 138.647980,315.793671 
	C131.658630,345.363037 124.263283,374.842102 117.735260,404.512268 
	C114.928932,417.267181 100.548973,424.868164 88.091888,418.101654 
z"/>
<path fill="#FEFEFE" opacity="1.000000" stroke="none" 
	d="
M402.013428,401.798065 
	C399.122955,389.682434 396.454468,377.925629 393.694763,366.190247 
	C389.989594,350.434540 386.076721,334.726257 382.524384,318.936584 
	C380.643341,310.575562 380.902496,310.516754 372.404938,310.516357 
	C353.076447,310.515472 333.747925,310.537628 314.419464,310.507629 
	C297.259033,310.480957 284.422882,299.185486 282.513702,282.013153 
	C280.320679,262.287659 278.513153,242.519516 276.480560,222.775833 
	C274.923004,207.646576 273.499298,192.498550 271.610107,177.409698 
	C269.437622,160.058243 275.209106,146.362061 288.589752,139.789124 
	C300.748322,133.816498 315.275879,134.569824 327.277039,146.564453 
	C347.844482,167.120728 368.783691,187.305481 389.605804,207.606232 
	C394.719482,212.591888 400.067200,217.338196 405.158997,222.345352 
	C412.761353,229.821365 413.771576,240.579376 407.664734,247.277954 
	C400.224487,255.439117 390.308594,255.600082 381.150146,248.079742 
	C369.263550,238.319199 357.192993,228.782501 345.174652,219.183151 
	C344.325134,218.504593 343.254211,218.103134 341.311737,217.038925 
	C341.800140,223.908752 342.094604,229.946350 342.689758,235.954147 
	C343.471466,243.844635 344.723145,251.694687 345.297913,259.596680 
	C345.546387,263.011993 346.862457,263.678345 349.901459,263.657715 
	C366.063354,263.548187 382.226379,263.589539 398.388977,263.612762 
	C411.407196,263.631439 420.454315,272.010925 422.507965,284.708160 
	C426.040344,306.547607 430.102386,328.301575 433.970215,350.086487 
	C436.741425,365.694763 439.740692,381.265228 442.290833,396.909180 
	C443.983704,407.294067 438.865936,416.113373 429.949799,419.373474 
	C420.461029,422.842987 410.323944,419.567352 405.295929,411.008118 
	C403.743591,408.365540 403.200165,405.130310 402.013428,401.798065 
z"/>
<path fill="#FFFFFE" opacity="1.000000" stroke="none" 
	d="
M364.349792,337.004120 
	C364.349609,342.489288 364.349609,347.475281 364.349609,352.922546 
	C295.137939,352.922546 226.259491,352.922546 156.936371,352.922546 
	C156.936371,343.486481 156.936371,333.947327 156.936371,324.030334 
	C225.858170,324.030334 294.743256,324.030334 364.349945,324.030334 
	C364.349945,328.292572 364.349945,332.398773 364.349792,337.004120 
z"/>
<path fill="#FDFDFE" opacity="1.000000" stroke="none" 
	d="
M201.066040,118.989944 
	C189.851379,110.983543 185.199219,97.663704 188.686844,84.070694 
	C191.647263,72.532471 202.821548,62.776001 214.491806,61.539909 
	C228.823334,60.021931 241.789215,66.669868 247.661255,78.546707 
	C254.398071,92.172646 251.436432,106.907265 239.299194,117.550423 
	C229.847290,125.838806 213.568314,127.648804 201.066040,118.989944 
z"/>
<path fill="#FDFDFE" opacity="1.000000" stroke="none" 
	d="
M285.478088,120.626526 
	C266.361664,108.853172 266.080872,86.475945 275.708527,73.838593 
	C283.466949,63.654858 294.165863,59.796486 306.482788,61.704624 
	C317.641022,63.433247 325.871918,69.946114 330.429565,80.448204 
	C336.094482,93.501801 332.055756,108.369255 321.723999,117.361794 
	C312.721619,125.197273 298.492523,126.866638 285.478088,120.626526 
z"/>
</svg>