<svg version="1.1" id="Layer_1" xmlns="http://www.w3.org/2000/svg" xmlns:xlink="http://www.w3.org/1999/xlink" x="0px" y="0px"
	 width="100%" viewBox="0 0 460 460" enable-background="new 0 0 460 460" xml:space="preserve">
<path fill="#C671FF" opacity="1.000000" stroke="none" 
	d="
M261.000000,461.000000 
	C174.000000,461.000000 87.500000,461.000000 1.000000,461.000000 
	C1.000000,307.666656 1.000000,154.333328 1.000000,1.000000 
	C154.333328,1.000000 307.666656,1.000000 461.000000,1.000000 
	C461.000000,154.333328 461.000000,307.666656 461.000000,461.000000 
	C394.500000,461.000000 328.000000,461.000000 261.000000,461.000000 
M104.500740,309.993958 
	C121.213165,291.917847 120.871735,264.919098 103.955658,247.254425 
	C102.249336,245.472580 101.067505,242.391357 101.054153,239.905563 
	C100.867966,205.245285 100.865883,170.583328 101.059341,135.923141 
	C101.073128,133.453583 102.357925,130.416840 104.074554,128.622147 
	C117.509293,114.576416 120.605766,93.206390 111.878044,76.416382 
	C103.032173,59.399048 82.930733,48.685677 62.974636,52.839512 
	C45.386101,56.500538 33.596706,66.853706 28.370195,83.663376 
	C23.146618,100.463623 27.072533,115.730164 39.153866,128.864914 
	C40.931774,130.797852 42.117958,134.056747 42.133381,136.710541 
	C42.329903,170.537460 42.207317,204.366150 42.334152,238.193726 
	C42.349495,242.285461 41.291561,245.255600 38.359074,248.311920 
	C17.528015,270.022736 24.661875,307.295746 51.987106,319.721497 
	C55.107384,321.140381 56.046322,322.757843 56.081310,326.039001 
	C56.217758,338.836639 56.048485,351.685150 57.154675,364.413757 
	C58.833614,383.732819 76.439629,402.991516 95.632217,405.809753 
	C106.901352,407.464508 118.526756,406.803986 129.994583,406.920349 
	C133.036407,406.951202 134.596558,407.796417 136.060516,410.617767 
	C142.960495,423.915527 153.957123,431.848602 169.063141,431.892120 
	C248.716766,432.121643 328.371399,432.023956 408.025665,431.982361 
	C427.584961,431.972168 444.981842,414.442780 444.987122,394.792877 
	C445.014374,293.475311 445.033661,192.157684 444.883820,90.840332 
	C444.877380,86.485542 443.902435,81.809456 442.134735,77.836517 
	C434.918976,61.619022 422.198700,53.698330 404.349823,53.719696 
	C341.859650,53.794502 279.369293,53.741814 216.879028,53.752903 
	C200.715408,53.755772 184.543427,53.499954 168.390274,53.927895 
	C148.367966,54.458332 132.016647,71.689285 132.002747,91.634697 
	C131.989838,110.131813 131.999969,128.628952 131.999939,147.126068 
	C131.999939,148.907288 131.999939,150.688507 131.999939,152.706573 
	C129.451996,152.706573 127.545929,152.706573 125.692116,152.706573 
	C124.323990,145.152527 124.148643,145.007202 116.660683,145.000397 
	C115.327560,144.999176 113.992599,145.048798 112.661667,144.995575 
	C108.913261,144.845749 107.032021,146.704819 107.028069,150.369202 
	C107.000893,175.531876 106.969467,200.694839 107.109497,225.856750 
	C107.118164,227.414276 108.410187,230.178925 109.379166,230.306931 
	C113.605179,230.865067 118.087906,231.338058 122.151810,230.412399 
	C123.948486,230.003174 124.971001,226.195053 126.706985,223.333054 
	C127.685455,223.333054 129.573700,223.333054 131.529037,223.333054 
	C131.529037,274.675537 131.529037,325.693604 131.529037,376.665985 
	C130.569717,376.811127 130.077423,376.948883 129.584656,376.950684 
	C122.252769,376.977692 114.896461,376.612274 107.594551,377.087189 
	C96.460876,377.811310 87.749771,368.728333 87.085541,359.929016 
	C86.185425,348.004822 86.335152,335.993378 86.354515,324.019897 
	C86.356506,322.785156 88.375343,321.334778 89.729065,320.360718 
	C94.420197,316.985199 99.230865,313.775787 104.500740,309.993958 
M17.000330,173.500000 
	C17.000410,190.319122 16.988049,207.138260 17.007010,223.957367 
	C17.014084,230.233063 17.906025,231.079895 24.310949,231.148193 
	C25.476488,231.160614 26.642717,231.169067 27.807892,231.144485 
	C34.095036,231.011948 34.989532,230.126221 34.993729,223.797165 
	C35.008526,201.482697 34.999611,179.168213 34.999660,156.853745 
	C34.999683,144.587494 35.001797,144.685410 22.921383,144.949417 
	C18.675028,145.042221 16.897543,146.817505 16.968578,151.018723 
	C17.089619,158.177277 17.000916,165.339386 17.000330,173.500000 
z"/>
<path fill="#FFFFFF" opacity="1.000000" stroke="none" 
	d="
M104.248398,310.248566 
	C99.230865,313.775787 94.420197,316.985199 89.729065,320.360718 
	C88.375343,321.334778 86.356506,322.785156 86.354515,324.019897 
	C86.335152,335.993378 86.185425,348.004822 87.085541,359.929016 
	C87.749771,368.728333 96.460876,377.811310 107.594551,377.087189 
	C114.896461,376.612274 122.252769,376.977692 129.584656,376.950684 
	C130.077423,376.948883 130.569717,376.811127 131.529037,376.665985 
	C131.529037,325.693604 131.529037,274.675537 131.529037,223.333054 
	C129.573700,223.333054 127.685455,223.333054 126.706985,223.333054 
	C124.971001,226.195053 123.948486,230.003174 122.151810,230.412399 
	C118.087906,231.338058 113.605179,230.865067 109.379166,230.306931 
	C108.410187,230.178925 107.118164,227.414276 107.109497,225.856750 
	C106.969467,200.694839 107.000893,175.531876 107.028069,150.369202 
	C107.032021,146.704819 108.913261,144.845749 112.661667,144.995575 
	C113.992599,145.048798 115.327560,144.999176 116.660683,145.000397 
	C124.148643,145.007202 124.323990,145.152527 125.692116,152.706573 
	C127.545929,152.706573 129.451996,152.706573 131.999939,152.706573 
	C131.999939,150.688507 131.999939,148.907288 131.999939,147.126068 
	C131.999969,128.628952 131.989838,110.131813 132.002747,91.634697 
	C132.016647,71.689285 148.367966,54.458332 168.390274,53.927895 
	C184.543427,53.499954 200.715408,53.755772 216.879028,53.752903 
	C279.369293,53.741814 341.859650,53.794502 404.349823,53.719696 
	C422.198700,53.698330 434.918976,61.619022 442.134735,77.836517 
	C443.902435,81.809456 444.877380,86.485542 444.883820,90.840332 
	C445.033661,192.157684 445.014374,293.475311 444.987122,394.792877 
	C444.981842,414.442780 427.584961,431.972168 408.025665,431.982361 
	C328.371399,432.023956 248.716766,432.121643 169.063141,431.892120 
	C153.957123,431.848602 142.960495,423.915527 136.060516,410.617767 
	C134.596558,407.796417 133.036407,406.951202 129.994583,406.920349 
	C118.526756,406.803986 106.901352,407.464508 95.632217,405.809753 
	C76.439629,402.991516 58.833614,383.732819 57.154675,364.413757 
	C56.048485,351.685150 56.217758,338.836639 56.081310,326.039001 
	C56.046322,322.757843 55.107384,321.140381 51.987106,319.721497 
	C24.661875,307.295746 17.528015,270.022736 38.359074,248.311920 
	C41.291561,245.255600 42.349495,242.285461 42.334152,238.193726 
	C42.207317,204.366150 42.329903,170.537460 42.133381,136.710541 
	C42.117958,134.056747 40.931774,130.797852 39.153866,128.864914 
	C27.072533,115.730164 23.146618,100.463623 28.370195,83.663376 
	C33.596706,66.853706 45.386101,56.500538 62.974636,52.839512 
	C82.930733,48.685677 103.032173,59.399048 111.878044,76.416382 
	C120.605766,93.206390 117.509293,114.576416 104.074554,128.622147 
	C102.357925,130.416840 101.073128,133.453583 101.059341,135.923141 
	C100.865883,170.583328 100.867966,205.245285 101.054153,239.905563 
	C101.067505,242.391357 102.249336,245.472580 103.955658,247.254425 
	C120.871735,264.919098 121.213165,291.917847 104.248398,310.248566 
M273.500000,410.000000 
	C317.327332,410.000000 361.156128,409.808136 404.980804,410.148438 
	C414.720520,410.224060 423.179291,402.088531 423.153900,392.123444 
	C422.900330,292.637085 423.001495,193.149872 422.997864,93.662880 
	C422.997467,82.665932 416.352783,76.005295 405.346558,76.004181 
	C327.523407,75.996315 249.700256,75.997353 171.877106,76.002945 
	C160.662048,76.003746 154.006195,82.705124 154.005188,94.038216 
	C153.996368,193.358551 153.996262,292.678894 154.005402,391.999237 
	C154.006439,403.187836 160.838882,409.995148 172.013153,409.997467 
	C205.508774,410.004486 239.004379,410.000000 273.500000,410.000000 
z"/>
<path fill="#FFFFFF" opacity="1.000000" stroke="none" 
	d="
M17.000330,173.000000 
	C17.000916,165.339386 17.089619,158.177277 16.968578,151.018723 
	C16.897543,146.817505 18.675028,145.042221 22.921383,144.949417 
	C35.001797,144.685410 34.999683,144.587494 34.999660,156.853745 
	C34.999611,179.168213 35.008526,201.482697 34.993729,223.797165 
	C34.989532,230.126221 34.095036,231.011948 27.807892,231.144485 
	C26.642717,231.169067 25.476488,231.160614 24.310949,231.148193 
	C17.906025,231.079895 17.014084,230.233063 17.007010,223.957367 
	C16.988049,207.138260 17.000410,190.319122 17.000330,173.000000 
z"/>
<path fill="#C671FF" opacity="1.000000" stroke="none" 
	d="
M273.000000,410.000000 
	C239.004379,410.000000 205.508774,410.004486 172.013153,409.997467 
	C160.838882,409.995148 154.006439,403.187836 154.005402,391.999237 
	C153.996262,292.678894 153.996368,193.358551 154.005188,94.038216 
	C154.006195,82.705124 160.662048,76.003746 171.877106,76.002945 
	C249.700256,75.997353 327.523407,75.996315 405.346558,76.004181 
	C416.352783,76.005295 422.997467,82.665932 422.997864,93.662880 
	C423.001495,193.149872 422.900330,292.637085 423.153900,392.123444 
	C423.179291,402.088531 414.720520,410.224060 404.980804,410.148438 
	C361.156128,409.808136 317.327332,410.000000 273.000000,410.000000 
M262.500000,98.748207 
	C240.001907,98.749680 217.503418,98.672745 195.005875,98.784492 
	C183.107529,98.843590 177.002106,105.204620 177.001495,117.098442 
	C176.998398,178.760071 176.999863,240.421692 177.000122,302.083313 
	C177.000168,315.578400 183.310028,321.921234 196.784180,321.924805 
	C229.948135,321.933563 263.112091,321.927734 296.276031,321.927673 
	C324.773712,321.927612 353.271393,321.955536 381.769012,321.913483 
	C393.219116,321.896606 399.997986,315.004028 399.998535,303.554871 
	C400.001617,241.226639 400.004791,178.898407 399.977661,116.570183 
	C399.976807,114.597023 399.933441,112.545776 399.420074,110.664581 
	C397.276367,102.808945 391.187897,98.768906 381.490326,98.761200 
	C342.160217,98.729942 302.830109,98.747849 262.500000,98.748207 
M399.999329,371.452576 
	C399.999023,365.960541 400.042236,360.468048 399.986664,354.976562 
	C399.925873,348.971832 397.171997,346.058167 391.185638,346.031433 
	C373.544861,345.952606 355.903320,345.954742 338.262543,346.030426 
	C332.034424,346.057129 329.110474,349.018921 329.027618,355.232758 
	C328.927765,362.720612 328.948334,370.211273 329.018341,377.699768 
	C329.079773,384.268555 331.870361,386.979126 338.508789,386.990356 
	C354.152771,387.016876 369.796814,386.999237 385.440826,386.999298 
	C399.416229,386.999390 399.999207,386.415955 399.999329,371.452576 
z"/>
<path fill="#FFFFFF" opacity="1.000000" stroke="none" 
	d="
M263.000000,98.747917 
	C302.830109,98.747849 342.160217,98.729942 381.490326,98.761200 
	C391.187897,98.768906 397.276367,102.808945 399.420074,110.664581 
	C399.933441,112.545776 399.976807,114.597023 399.977661,116.570183 
	C400.004791,178.898407 400.001617,241.226639 399.998535,303.554871 
	C399.997986,315.004028 393.219116,321.896606 381.769012,321.913483 
	C353.271393,321.955536 324.773712,321.927612 296.276031,321.927673 
	C263.112091,321.927734 229.948135,321.933563 196.784180,321.924805 
	C183.310028,321.921234 177.000168,315.578400 177.000122,302.083313 
	C176.999863,240.421692 176.998398,178.760071 177.001495,117.098442 
	C177.002106,105.204620 183.107529,98.843590 195.005875,98.784492 
	C217.503418,98.672745 240.001907,98.749680 263.000000,98.747917 
M198.001007,168.389740 
	C198.001007,170.472778 198.001007,172.555817 198.001007,174.606018 
	C219.760757,174.606018 240.661377,174.606018 261.652863,174.606018 
	C261.652863,162.304443 261.652863,150.399094 261.652863,138.254166 
	C240.409531,138.254166 219.513153,138.254166 198.000992,138.254166 
	C198.000992,148.180008 198.000992,157.796494 198.001007,168.389740 
M237.500000,273.916626 
	C224.435471,273.916626 211.370941,273.916626 198.005981,273.916626 
	C198.005981,278.839569 197.798965,282.840820 198.143936,286.793915 
	C198.236206,287.851349 200.006805,289.605713 201.019470,289.614594 
	C220.335190,289.784576 239.653198,289.785370 258.968964,289.617432 
	C259.985260,289.608612 261.768005,287.858429 261.855499,286.807526 
	C262.195190,282.725983 261.993774,278.599457 261.993774,273.916534 
	C253.732635,273.916534 246.116302,273.916534 237.500000,273.916626 
M347.230865,167.878464 
	C347.069794,171.093262 348.618866,171.150726 350.888336,169.852783 
	C356.715393,166.520187 360.255920,161.454376 361.710236,154.999054 
	C363.930176,145.145477 356.851074,132.647018 347.224701,131.600235 
	C347.224701,143.434570 347.224701,155.219498 347.230865,167.878464 
M332.927887,170.616501 
	C333.286438,167.638016 333.915802,164.663010 333.954163,161.680405 
	C334.083740,151.608353 334.003540,141.533600 334.003540,131.281403 
	C325.370819,133.808350 319.890076,140.576767 319.314087,149.878464 
	C318.856995,157.259079 322.417145,166.480331 332.927887,170.616501 
M306.700562,206.988968 
	C304.527893,200.525070 301.127380,198.192947 294.980255,198.951004 
	C290.830902,199.462692 287.413544,202.994949 287.001678,207.197906 
	C286.404968,213.286880 290.278625,218.231949 296.007202,218.694366 
	C301.967163,219.175476 306.287384,214.804291 306.700562,206.988968 
M365.927979,288.938507 
	C373.137207,288.892883 378.264740,284.497711 377.985291,278.603241 
	C377.723724,273.084534 372.508209,268.639557 366.719940,269.002197 
	C362.688049,269.254791 358.750732,272.725861 358.039978,276.654266 
	C357.025269,282.262726 359.147705,285.875122 365.927979,288.938507 
M336.841125,217.579559 
	C337.629547,216.974915 338.485321,216.439911 339.195007,215.753815 
	C342.619354,212.443054 343.020599,208.295212 341.222687,204.312454 
	C339.358521,200.182831 335.698914,198.369019 330.989105,198.885590 
	C326.477570,199.380402 323.815613,201.739700 322.565765,206.083176 
	C320.321533,213.882187 327.229279,219.943375 336.841125,217.579559 
M360.108490,215.247238 
	C361.027679,215.951721 361.864716,216.818787 362.880493,217.332153 
	C366.967316,219.397614 370.993011,219.258408 374.378510,216.029266 
	C377.251282,213.289200 378.991577,209.991577 377.385712,205.770676 
	C375.660065,201.234833 372.538177,198.993042 367.604187,198.777283 
	C360.057526,198.447281 354.918396,207.316376 360.108490,215.247238 
M304.175385,285.656403 
	C307.625488,280.472168 307.743713,276.165558 304.332977,272.516785 
	C301.075623,269.032074 297.166138,267.801453 292.634827,269.885010 
	C287.231720,272.369476 285.168823,279.039337 288.117371,284.257050 
	C291.079926,289.499542 297.542084,290.320801 304.175385,285.656403 
M306.768890,245.138077 
	C306.401550,237.529602 302.437805,233.489410 295.845947,234.004608 
	C290.183990,234.447113 286.510834,239.021484 286.985168,245.039230 
	C287.346771,249.626709 290.914490,253.322861 295.598206,253.962280 
	C300.306213,254.605011 304.466492,251.562744 306.768890,245.138077 
M371.333252,253.162125 
	C379.337830,248.363678 380.299744,239.968079 373.342133,235.628662 
	C369.252899,233.078262 364.228516,233.445068 360.897980,236.537247 
	C357.796906,239.416397 356.950287,244.491089 358.909088,248.458954 
	C360.973846,252.641464 364.966278,254.369141 371.333252,253.162125 
M333.285950,269.003662 
	C327.178925,269.226715 323.821045,271.755737 322.415924,277.190430 
	C321.462585,280.877594 323.734436,285.723145 327.331451,287.674591 
	C332.587341,290.526031 338.747101,288.593750 341.285767,283.297241 
	C344.103973,277.417389 341.255310,271.761230 333.285950,269.003662 
M327.891571,252.938370 
	C332.407379,255.153946 336.429718,253.978683 339.677887,250.618652 
	C342.747803,247.443054 342.953094,243.325836 341.170013,239.500153 
	C339.225525,235.328217 335.554596,233.445923 330.918762,234.041870 
	C326.521240,234.607208 323.722961,237.189789 322.536041,241.457886 
	C321.167725,246.378342 323.650421,249.717316 327.891571,252.938370 
z"/>
<path fill="#FFFFFF" opacity="1.000000" stroke="none" 
	d="
M399.999329,371.942261 
	C399.999207,386.415955 399.416229,386.999390 385.440826,386.999298 
	C369.796814,386.999237 354.152771,387.016876 338.508789,386.990356 
	C331.870361,386.979126 329.079773,384.268555 329.018341,377.699768 
	C328.948334,370.211273 328.927765,362.720612 329.027618,355.232758 
	C329.110474,349.018921 332.034424,346.057129 338.262543,346.030426 
	C355.903320,345.954742 373.544861,345.952606 391.185638,346.031433 
	C397.171997,346.058167 399.925873,348.971832 399.986664,354.976562 
	C400.042236,360.468048 399.999023,365.960541 399.999329,371.942261 
z"/>
<path fill="#C671FF" opacity="1.000000" stroke="none" 
	d="
M198.001007,167.901367 
	C198.000992,157.796494 198.000992,148.180008 198.000992,138.254166 
	C219.513153,138.254166 240.409531,138.254166 261.652863,138.254166 
	C261.652863,150.399094 261.652863,162.304443 261.652863,174.606018 
	C240.661377,174.606018 219.760757,174.606018 198.001007,174.606018 
	C198.001007,172.555817 198.001007,170.472778 198.001007,167.901367 
z"/>
<path fill="#C875FF" opacity="1.000000" stroke="none" 
	d="
M237.999985,273.916565 
	C246.116302,273.916534 253.732635,273.916534 261.993774,273.916534 
	C261.993774,278.599457 262.195190,282.725983 261.855499,286.807526 
	C261.768005,287.858429 259.985260,289.608612 258.968964,289.617432 
	C239.653198,289.785370 220.335190,289.784576 201.019470,289.614594 
	C200.006805,289.605713 198.236206,287.851349 198.143936,286.793915 
	C197.798965,282.840820 198.005981,278.839569 198.005981,273.916626 
	C211.370941,273.916626 224.435471,273.916626 237.999985,273.916565 
z"/>
<path fill="#C877FF" opacity="1.000000" stroke="none" 
	d="
M347.227783,167.441437 
	C347.224701,155.219498 347.224701,143.434570 347.224701,131.600235 
	C356.851074,132.647018 363.930176,145.145477 361.710236,154.999054 
	C360.255920,161.454376 356.715393,166.520187 350.888336,169.852783 
	C348.618866,171.150726 347.069794,171.093262 347.227783,167.441437 
z"/>
<path fill="#C773FF" opacity="1.000000" stroke="none" 
	d="
M332.554504,170.532959 
	C322.417145,166.480331 318.856995,157.259079 319.314087,149.878464 
	C319.890076,140.576767 325.370819,133.808350 334.003540,131.281403 
	C334.003540,141.533600 334.083740,151.608353 333.954163,161.680405 
	C333.915802,164.663010 333.286438,167.638016 332.554504,170.532959 
z"/>
<path fill="#C774FF" opacity="1.000000" stroke="none" 
	d="
M306.751831,207.380035 
	C306.287384,214.804291 301.967163,219.175476 296.007202,218.694366 
	C290.278625,218.231949 286.404968,213.286880 287.001678,207.197906 
	C287.413544,202.994949 290.830902,199.462692 294.980255,198.951004 
	C301.127380,198.192947 304.527893,200.525070 306.751831,207.380035 
z"/>
<path fill="#C773FF" opacity="1.000000" stroke="none" 
	d="
M365.540955,288.850403 
	C359.147705,285.875122 357.025269,282.262726 358.039978,276.654266 
	C358.750732,272.725861 362.688049,269.254791 366.719940,269.002197 
	C372.508209,268.639557 377.723724,273.084534 377.985291,278.603241 
	C378.264740,284.497711 373.137207,288.892883 365.540955,288.850403 
z"/>
<path fill="#C773FF" opacity="1.000000" stroke="none" 
	d="
M336.490356,217.737427 
	C327.229279,219.943375 320.321533,213.882187 322.565765,206.083176 
	C323.815613,201.739700 326.477570,199.380402 330.989105,198.885590 
	C335.698914,198.369019 339.358521,200.182831 341.222687,204.312454 
	C343.020599,208.295212 342.619354,212.443054 339.195007,215.753815 
	C338.485321,216.439911 337.629547,216.974915 336.490356,217.737427 
z"/>
<path fill="#C773FF" opacity="1.000000" stroke="none" 
	d="
M359.869141,214.940613 
	C354.918396,207.316376 360.057526,198.447281 367.604187,198.777283 
	C372.538177,198.993042 375.660065,201.234833 377.385712,205.770676 
	C378.991577,209.991577 377.251282,213.289200 374.378510,216.029266 
	C370.993011,219.258408 366.967316,219.397614 362.880493,217.332153 
	C361.864716,216.818787 361.027679,215.951721 359.869141,214.940613 
z"/>
<path fill="#C773FF" opacity="1.000000" stroke="none" 
	d="
M303.926727,285.945496 
	C297.542084,290.320801 291.079926,289.499542 288.117371,284.257050 
	C285.168823,279.039337 287.231720,272.369476 292.634827,269.885010 
	C297.166138,267.801453 301.075623,269.032074 304.332977,272.516785 
	C307.743713,276.165558 307.625488,280.472168 303.926727,285.945496 
z"/>
<path fill="#C773FF" opacity="1.000000" stroke="none" 
	d="
M306.694885,245.519958 
	C304.466492,251.562744 300.306213,254.605011 295.598206,253.962280 
	C290.914490,253.322861 287.346771,249.626709 286.985168,245.039230 
	C286.510834,239.021484 290.183990,234.447113 295.845947,234.004608 
	C302.437805,233.489410 306.401550,237.529602 306.694885,245.519958 
z"/>
<path fill="#C773FF" opacity="1.000000" stroke="none" 
	d="
M370.992249,253.351166 
	C364.966278,254.369141 360.973846,252.641464 358.909088,248.458954 
	C356.950287,244.491089 357.796906,239.416397 360.897980,236.537247 
	C364.228516,233.445068 369.252899,233.078262 373.342133,235.628662 
	C380.299744,239.968079 379.337830,248.363678 370.992249,253.351166 
z"/>
<path fill="#C772FF" opacity="1.000000" stroke="none" 
	d="
M333.691528,269.013885 
	C341.255310,271.761230 344.103973,277.417389 341.285767,283.297241 
	C338.747101,288.593750 332.587341,290.526031 327.331451,287.674591 
	C323.734436,285.723145 321.462585,280.877594 322.415924,277.190430 
	C323.821045,271.755737 327.178925,269.226715 333.691528,269.013885 
z"/>
<path fill="#C772FF" opacity="1.000000" stroke="none" 
	d="
M327.544403,252.767517 
	C323.650421,249.717316 321.167725,246.378342 322.536041,241.457886 
	C323.722961,237.189789 326.521240,234.607208 330.918762,234.041870 
	C335.554596,233.445923 339.225525,235.328217 341.170013,239.500153 
	C342.953094,243.325836 342.747803,247.443054 339.677887,250.618652 
	C336.429718,253.978683 332.407379,255.153946 327.544403,252.767517 
z"/>
</svg>