<svg version="1.1" id="Layer_1" xmlns="http://www.w3.org/2000/svg" xmlns:xlink="http://www.w3.org/1999/xlink" x="0px" y="0px"
	 width="100%" viewBox="0 0 460 460" enable-background="new 0 0 460 460" xml:space="preserve">
<path fill="#FF3838" opacity="1.000000" stroke="none" 
	d="
M315.000000,461.000000 
	C210.000000,461.000000 105.500000,461.000000 1.000000,461.000000 
	C1.000000,307.666656 1.000000,154.333328 1.000000,1.000000 
	C154.333328,1.000000 307.666656,1.000000 461.000000,1.000000 
	C461.000000,154.333328 461.000000,307.666656 461.000000,461.000000 
	C412.500000,461.000000 364.000000,461.000000 315.000000,461.000000 
M188.579880,208.970306 
	C179.140091,229.472244 169.618164,249.937317 160.371552,270.526001 
	C159.298248,272.915863 159.108566,276.114990 159.611862,278.726410 
	C161.431534,288.167908 168.660767,293.849670 178.469604,293.923248 
	C189.278854,294.004333 200.089188,293.941742 211.334717,293.941742 
	C212.239426,306.710052 213.227295,319.098755 213.974228,331.501953 
	C215.793991,361.720215 217.444092,391.948761 219.305878,422.164337 
	C219.661209,427.931274 219.725418,433.993927 221.613037,439.321686 
	C224.255234,446.779205 232.370163,449.563232 241.925919,447.756134 
	C248.105652,446.587494 253.077820,440.230804 253.578812,432.157990 
	C255.742188,397.297638 257.765350,362.428619 259.869232,327.564514 
	C260.537079,316.496887 261.296967,305.434814 262.042267,293.945923 
	C264.102203,293.945923 265.732819,293.946289 267.363464,293.945892 
	C276.696442,293.943634 286.031433,294.063202 295.361938,293.910187 
	C309.335205,293.681061 317.692352,280.979340 312.023895,268.380615 
	C300.918304,243.697617 289.476105,219.165039 278.531403,194.411835 
	C277.060120,191.084320 276.671631,186.615860 277.473145,183.056641 
	C281.629242,164.601135 285.950134,146.162735 291.002533,127.937073 
	C293.729919,118.098427 285.305817,109.858734 276.683075,109.997589 
	C250.024307,110.426857 223.354187,110.125381 196.688583,110.169220 
	C186.019455,110.186760 180.132751,117.740746 182.663681,128.028107 
	C187.063995,145.913849 191.403793,163.815292 195.962173,181.660797 
	C197.216873,186.572739 197.054932,191.082840 194.759918,195.631393 
	C192.667404,199.778580 190.864487,204.071884 188.579880,208.970306 
M201.161942,65.148895 
	C201.609589,66.577415 201.993378,68.029686 202.514496,69.430878 
	C209.761169,88.915672 231.641296,98.343948 250.922974,90.306236 
	C270.031677,82.340645 278.640625,59.806999 269.742706,41.046062 
	C261.894531,24.498474 243.149368,16.328238 225.728561,21.862097 
	C207.684555,27.593925 197.719986,44.705128 201.161942,65.148895 
z"/>
<path fill="#FFFDFD" opacity="1.000000" stroke="none" 
	d="
M188.756912,208.635559 
	C190.864487,204.071884 192.667404,199.778580 194.759918,195.631393 
	C197.054932,191.082840 197.216873,186.572739 195.962173,181.660797 
	C191.403793,163.815292 187.063995,145.913849 182.663681,128.028107 
	C180.132751,117.740746 186.019455,110.186760 196.688583,110.169220 
	C223.354187,110.125381 250.024307,110.426857 276.683075,109.997589 
	C285.305817,109.858734 293.729919,118.098427 291.002533,127.937073 
	C285.950134,146.162735 281.629242,164.601135 277.473145,183.056641 
	C276.671631,186.615860 277.060120,191.084320 278.531403,194.411835 
	C289.476105,219.165039 300.918304,243.697617 312.023895,268.380615 
	C317.692352,280.979340 309.335205,293.681061 295.361938,293.910187 
	C286.031433,294.063202 276.696442,293.943634 267.363464,293.945892 
	C265.732819,293.946289 264.102203,293.945923 262.042267,293.945923 
	C261.296967,305.434814 260.537079,316.496887 259.869232,327.564514 
	C257.765350,362.428619 255.742188,397.297638 253.578812,432.157990 
	C253.077820,440.230804 248.105652,446.587494 241.925919,447.756134 
	C232.370163,449.563232 224.255234,446.779205 221.613037,439.321686 
	C219.725418,433.993927 219.661209,427.931274 219.305878,422.164337 
	C217.444092,391.948761 215.793991,361.720215 213.974228,331.501953 
	C213.227295,319.098755 212.239426,306.710052 211.334717,293.941742 
	C200.089188,293.941742 189.278854,294.004333 178.469604,293.923248 
	C168.660767,293.849670 161.431534,288.167908 159.611862,278.726410 
	C159.108566,276.114990 159.298248,272.915863 160.371552,270.526001 
	C169.618164,249.937317 179.140091,229.472244 188.756912,208.635559 
z"/>
<path fill="#FFFDFD" opacity="1.000000" stroke="none" 
	d="
M201.081696,64.736252 
	C197.719986,44.705128 207.684555,27.593925 225.728561,21.862097 
	C243.149368,16.328238 261.894531,24.498474 269.742706,41.046062 
	C278.640625,59.806999 270.031677,82.340645 250.922974,90.306236 
	C231.641296,98.343948 209.761169,88.915672 202.514496,69.430878 
	C201.993378,68.029686 201.609589,66.577415 201.081696,64.736252 
z"/>
</svg>