<svg version="1.1" id="Layer_1" xmlns="http://www.w3.org/2000/svg" xmlns:xlink="http://www.w3.org/1999/xlink" x="0px" y="0px"
	 width="100%" viewBox="0 0 460 460" enable-background="new 0 0 460 460" xml:space="preserve">
<path fill="#3762E0" opacity="1.000000" stroke="none" 
	d="
M308.000000,461.000000 
	C205.333328,461.000000 103.166664,461.000000 1.000000,461.000000 
	C1.000000,307.666656 1.000000,154.333328 1.000000,1.000000 
	C154.333328,1.000000 307.666656,1.000000 461.000000,1.000000 
	C461.000000,154.333328 461.000000,307.666656 461.000000,461.000000 
	C410.166656,461.000000 359.333344,461.000000 308.000000,461.000000 
M286.924744,185.492065 
	C287.370483,167.346115 287.693146,149.196014 288.303162,131.055588 
	C288.743835,117.951080 282.766296,111.395554 269.745087,111.385887 
	C242.757523,111.365845 215.769943,111.375519 188.782364,111.381706 
	C174.512695,111.384979 168.675598,117.309860 169.059967,131.428406 
	C170.351349,178.863647 171.705307,226.297302 172.890610,273.735168 
	C173.036392,279.570129 175.622269,283.179077 180.878799,285.042786 
	C185.425400,286.654785 190.162720,287.779541 194.586624,289.659027 
	C196.097015,290.300751 197.735703,292.497772 197.899399,294.126587 
	C198.564423,300.743774 198.694443,307.415558 198.994431,314.068451 
	C200.764511,353.325256 202.491501,392.584106 204.318604,431.838257 
	C204.738983,440.869873 209.287140,446.675751 218.264618,448.006104 
	C224.916428,448.991760 231.930115,449.056244 238.586868,448.127777 
	C248.325500,446.769409 252.731354,440.806702 253.092651,430.927826 
	C253.329941,424.439545 253.693390,417.955933 253.985855,411.469604 
	C255.733521,372.710846 257.541229,333.954498 259.119995,295.188843 
	C259.273743,291.414032 260.762695,289.920868 264.064819,289.043152 
	C268.080597,287.975769 272.016937,286.598816 275.962311,285.279907 
	C281.420654,283.455200 284.394379,279.953369 284.535248,273.867462 
	C285.209595,244.737747 286.069611,215.612320 286.924744,185.492065 
M265.119873,56.586891 
	C264.068665,31.472668 239.721222,14.830184 216.375381,23.268032 
	C198.831390,29.608927 188.978622,47.798443 193.123154,66.194817 
	C197.137390,84.012962 214.452682,95.966019 233.314529,93.939697 
	C251.293381,92.008240 264.795441,76.548836 265.119873,56.586891 
z"/>
<path fill="#FEFEFF" opacity="1.000000" stroke="none" 
	d="
M286.894165,185.988724 
	C286.069611,215.612320 285.209595,244.737747 284.535248,273.867462 
	C284.394379,279.953369 281.420654,283.455200 275.962311,285.279907 
	C272.016937,286.598816 268.080597,287.975769 264.064819,289.043152 
	C260.762695,289.920868 259.273743,291.414032 259.119995,295.188843 
	C257.541229,333.954498 255.733521,372.710846 253.985855,411.469604 
	C253.693390,417.955933 253.329941,424.439545 253.092651,430.927826 
	C252.731354,440.806702 248.325500,446.769409 238.586868,448.127777 
	C231.930115,449.056244 224.916428,448.991760 218.264618,448.006104 
	C209.287140,446.675751 204.738983,440.869873 204.318604,431.838257 
	C202.491501,392.584106 200.764511,353.325256 198.994431,314.068451 
	C198.694443,307.415558 198.564423,300.743774 197.899399,294.126587 
	C197.735703,292.497772 196.097015,290.300751 194.586624,289.659027 
	C190.162720,287.779541 185.425400,286.654785 180.878799,285.042786 
	C175.622269,283.179077 173.036392,279.570129 172.890610,273.735168 
	C171.705307,226.297302 170.351349,178.863647 169.059967,131.428406 
	C168.675598,117.309860 174.512695,111.384979 188.782364,111.381706 
	C215.769943,111.375519 242.757523,111.365845 269.745087,111.385887 
	C282.766296,111.395554 288.743835,117.951080 288.303162,131.055588 
	C287.693146,149.196014 287.370483,167.346115 286.894165,185.988724 
z"/>
<path fill="#FDFEFF" opacity="1.000000" stroke="none" 
	d="
M265.120392,57.054668 
	C264.795441,76.548836 251.293381,92.008240 233.314529,93.939697 
	C214.452682,95.966019 197.137390,84.012962 193.123154,66.194817 
	C188.978622,47.798443 198.831390,29.608927 216.375381,23.268032 
	C239.721222,14.830184 264.068665,31.472668 265.120392,57.054668 
z"/>
</svg>