<svg version="1.1" id="Layer_1" xmlns="http://www.w3.org/2000/svg" xmlns:xlink="http://www.w3.org/1999/xlink" x="0px" y="0px"
	 width="100%" viewBox="0 0 460 460" enable-background="new 0 0 460 460" xml:space="preserve">
<path fill="#D7FEF5" opacity="1.000000" stroke="none" 
	d="
M276.000000,461.000000 
	C184.000000,461.000000 92.500000,461.000000 1.000000,461.000000 
	C1.000000,307.666656 1.000000,154.333328 1.000000,1.000000 
	C154.333328,1.000000 307.666656,1.000000 461.000000,1.000000 
	C461.000000,154.333328 461.000000,307.666656 461.000000,461.000000 
	C399.500000,461.000000 338.000000,461.000000 276.000000,461.000000 
M113.373436,294.082306 
	C116.780228,294.714478 118.323334,296.399597 118.193550,300.216156 
	C118.013184,305.520081 118.655144,310.849640 118.893082,316.170532 
	C120.685394,356.252838 122.436775,396.337036 124.269066,436.417511 
	C124.705910,445.973175 129.320709,451.758698 138.807999,453.146820 
	C145.144318,454.073883 151.817383,454.127319 158.159668,453.257965 
	C168.179489,451.884491 172.729034,445.943085 173.096573,435.887146 
	C173.315430,429.899445 173.689377,423.917542 173.958420,417.931458 
	C175.730118,378.513855 177.545212,339.097992 179.162933,299.674042 
	C179.301300,296.301941 180.684753,295.001099 183.548340,294.191803 
	C187.548309,293.061340 191.517746,291.806427 195.451736,290.462708 
	C202.195541,288.159241 204.285522,285.383942 204.498962,278.425812 
	C204.937973,264.115753 205.331543,249.804214 205.708939,235.492355 
	C206.586670,202.206116 207.352371,168.916580 208.356064,135.634201 
	C208.735062,123.066833 202.585342,116.386826 189.840363,116.379631 
	C162.686615,116.364296 135.532867,116.371750 108.379120,116.375893 
	C94.567680,116.377991 88.673607,122.452324 89.052055,136.314865 
	C90.346848,183.742722 91.654182,231.170258 92.947182,278.598175 
	C93.121895,285.006775 95.078506,287.899292 101.204498,290.161835 
	C104.947868,291.544342 108.784782,292.673523 113.373436,294.082306 
M268.376221,215.846741 
	C259.300659,235.665512 250.302628,255.520432 241.094101,275.277222 
	C238.839935,280.113525 239.096344,284.679749 241.328354,289.191772 
	C245.048035,296.711212 251.503036,299.854614 259.657684,299.878662 
	C270.268646,299.909943 280.879730,299.886322 291.461182,299.886322 
	C291.702942,300.876282 291.891174,301.337585 291.919861,301.808624 
	C293.993958,335.884735 296.033112,369.962952 298.129517,404.037659 
	C298.896423,416.503326 299.439270,428.998718 300.757782,441.408997 
	C301.690155,450.184998 308.220245,454.270355 318.705811,453.836578 
	C326.611053,453.509552 332.501221,447.912659 332.999481,439.950378 
	C335.069611,406.870178 337.053558,373.784546 339.094330,340.702484 
	C339.924103,327.251587 340.818115,313.804657 341.696533,300.144318 
	C343.265625,300.048218 344.571075,299.901733 345.876831,299.898895 
	C355.542114,299.878052 365.212891,300.091064 374.871582,299.836609 
	C389.528320,299.450470 397.452820,286.651459 391.410583,273.471741 
	C380.384186,249.420242 369.417267,225.341202 358.280853,201.340790 
	C356.278351,197.025177 355.891113,192.965820 357.078552,188.329437 
	C361.619202,170.600876 365.853180,152.793930 370.233459,135.024078 
	C373.068237,123.524109 367.656555,116.442192 355.829437,116.390678 
	C342.831451,116.334068 329.833069,116.377167 316.834839,116.377335 
	C303.336670,116.377518 289.836853,116.248077 276.340912,116.421265 
	C266.070923,116.553040 260.506104,123.920853 262.907288,133.819565 
	C266.123810,147.079437 268.521240,160.619339 272.857452,173.504929 
	C277.864014,188.382431 277.512024,202.016815 268.376221,215.846741 
M174.084702,36.406845 
	C161.227509,24.701180 143.560730,22.808702 129.448486,31.625381 
	C115.474648,40.355591 109.045174,57.076004 113.623642,72.779320 
	C117.768059,86.993927 130.292038,97.635521 144.440842,98.964638 
	C160.347549,100.458885 174.636475,92.708153 181.477676,78.874771 
	C188.402359,64.872559 185.815186,49.111691 174.084702,36.406845 
M307.099915,27.371990 
	C306.470093,27.581192 305.838928,27.786335 305.210693,28.000196 
	C286.113647,34.500965 275.914734,54.438084 281.871765,73.622375 
	C287.703278,92.402420 307.572693,103.151001 326.655365,97.848557 
	C345.612244,92.581062 356.774536,73.175980 352.132751,53.772911 
	C347.973633,36.387539 329.783600,22.165533 307.099915,27.371990 
z"/>
<path fill="#0101FF" opacity="1.000000" stroke="none" 
	d="
M112.976562,293.999390 
	C108.784782,292.673523 104.947868,291.544342 101.204498,290.161835 
	C95.078506,287.899292 93.121895,285.006775 92.947182,278.598175 
	C91.654182,231.170258 90.346848,183.742722 89.052055,136.314865 
	C88.673607,122.452324 94.567680,116.377991 108.379120,116.375893 
	C135.532867,116.371750 162.686615,116.364296 189.840363,116.379631 
	C202.585342,116.386826 208.735062,123.066833 208.356064,135.634201 
	C207.352371,168.916580 206.586670,202.206116 205.708939,235.492355 
	C205.331543,249.804214 204.937973,264.115753 204.498962,278.425812 
	C204.285522,285.383942 202.195541,288.159241 195.451736,290.462708 
	C191.517746,291.806427 187.548309,293.061340 183.548340,294.191803 
	C180.684753,295.001099 179.301300,296.301941 179.162933,299.674042 
	C177.545212,339.097992 175.730118,378.513855 173.958420,417.931458 
	C173.689377,423.917542 173.315430,429.899445 173.096573,435.887146 
	C172.729034,445.943085 168.179489,451.884491 158.159668,453.257965 
	C151.817383,454.127319 145.144318,454.073883 138.807999,453.146820 
	C129.320709,451.758698 124.705910,445.973175 124.269066,436.417511 
	C122.436775,396.337036 120.685394,356.252838 118.893082,316.170532 
	C118.655144,310.849640 118.013184,305.520081 118.193550,300.216156 
	C118.323334,296.399597 116.780228,294.714478 112.976562,293.999390 
z"/>
<path fill="#FF0202" opacity="1.000000" stroke="none" 
	d="
M268.559753,215.517029 
	C277.512024,202.016815 277.864014,188.382431 272.857452,173.504929 
	C268.521240,160.619339 266.123810,147.079437 262.907288,133.819565 
	C260.506104,123.920853 266.070923,116.553040 276.340912,116.421265 
	C289.836853,116.248077 303.336670,116.377518 316.834839,116.377335 
	C329.833069,116.377167 342.831451,116.334068 355.829437,116.390678 
	C367.656555,116.442192 373.068237,123.524109 370.233459,135.024078 
	C365.853180,152.793930 361.619202,170.600876 357.078552,188.329437 
	C355.891113,192.965820 356.278351,197.025177 358.280853,201.340790 
	C369.417267,225.341202 380.384186,249.420242 391.410583,273.471741 
	C397.452820,286.651459 389.528320,299.450470 374.871582,299.836609 
	C365.212891,300.091064 355.542114,299.878052 345.876831,299.898895 
	C344.571075,299.901733 343.265625,300.048218 341.696533,300.144318 
	C340.818115,313.804657 339.924103,327.251587 339.094330,340.702484 
	C337.053558,373.784546 335.069611,406.870178 332.999481,439.950378 
	C332.501221,447.912659 326.611053,453.509552 318.705811,453.836578 
	C308.220245,454.270355 301.690155,450.184998 300.757782,441.408997 
	C299.439270,428.998718 298.896423,416.503326 298.129517,404.037659 
	C296.033112,369.962952 293.993958,335.884735 291.919861,301.808624 
	C291.891174,301.337585 291.702942,300.876282 291.461182,299.886322 
	C280.879730,299.886322 270.268646,299.909943 259.657684,299.878662 
	C251.503036,299.854614 245.048035,296.711212 241.328354,289.191772 
	C239.096344,284.679749 238.839935,280.113525 241.094101,275.277222 
	C250.302628,255.520432 259.300659,235.665512 268.559753,215.517029 
z"/>
<path fill="#0202FF" opacity="1.000000" stroke="none" 
	d="
M174.337067,36.659531 
	C185.815186,49.111691 188.402359,64.872559 181.477676,78.874771 
	C174.636475,92.708153 160.347549,100.458885 144.440842,98.964638 
	C130.292038,97.635521 117.768059,86.993927 113.623642,72.779320 
	C109.045174,57.076004 115.474648,40.355591 129.448486,31.625381 
	C143.560730,22.808702 161.227509,24.701180 174.337067,36.659531 
z"/>
<path fill="#FF0202" opacity="1.000000" stroke="none" 
	d="
M307.497650,27.255066 
	C329.783600,22.165533 347.973633,36.387539 352.132751,53.772911 
	C356.774536,73.175980 345.612244,92.581062 326.655365,97.848557 
	C307.572693,103.151001 287.703278,92.402420 281.871765,73.622375 
	C275.914734,54.438084 286.113647,34.500965 305.210693,28.000196 
	C305.838928,27.786335 306.470093,27.581192 307.497650,27.255066 
z"/>
</svg>