<svg version="1.1" id="Layer_1" xmlns="http://www.w3.org/2000/svg" xmlns:xlink="http://www.w3.org/1999/xlink" x="0px" y="0px"
	 width="100%" viewBox="0 0 460 460" enable-background="new 0 0 460 460" xml:space="preserve">
<path fill="#A63DC9" opacity="1.000000" stroke="none" 
	d="
M250.000000,461.000000 
	C166.666672,461.000000 83.833336,461.000000 1.000000,461.000000 
	C1.000000,307.666656 1.000000,154.333328 1.000000,1.000000 
	C154.333328,1.000000 307.666656,1.000000 461.000000,1.000000 
	C461.000000,154.333328 461.000000,307.666656 461.000000,461.000000 
	C390.833344,461.000000 320.666656,461.000000 250.000000,461.000000 
M412.910339,430.378693 
	C415.743713,390.174286 418.401764,349.956482 421.478577,309.770721 
	C423.225220,286.957794 414.893188,268.945160 396.547424,255.803131 
	C389.165863,250.515350 380.721344,246.714874 372.780212,242.202972 
	C369.600250,240.396194 367.623932,241.126633 365.445862,244.241913 
	C348.649475,268.265900 331.648102,292.146515 314.704407,316.067444 
	C313.606506,317.617432 312.459656,319.132721 310.445831,321.876373 
	C308.786621,304.672333 307.279114,289.041107 305.748291,273.168396 
	C294.277740,273.168396 283.188385,273.168396 271.649689,273.168396 
	C270.108948,289.027130 268.580658,304.757721 266.935059,321.695648 
	C265.157471,319.372131 264.229401,318.234863 263.382050,317.040314 
	C245.457504,291.771454 227.585068,266.465240 209.538712,241.283676 
	C208.175598,239.381622 205.684830,237.284302 203.553848,237.091125 
	C182.154205,235.151123 160.719711,233.595947 139.296799,231.910309 
	C138.063416,231.813263 136.845123,231.524368 134.847412,231.198914 
	C155.822357,204.906937 176.324997,179.206970 197.352036,152.849686 
	C198.139679,155.607498 198.672745,157.454865 199.194992,159.305267 
	C215.247238,216.180405 280.504211,244.237762 332.317383,215.941833 
	C364.936371,198.128113 381.043396,169.683212 381.713898,132.636322 
	C381.811951,127.219093 382.946136,122.664658 385.968384,118.214966 
	C390.269775,111.881950 394.120453,105.243073 398.171814,98.739922 
	C405.223145,87.421227 402.565735,78.342133 390.545044,72.823479 
	C358.157654,57.954590 325.741028,43.149040 293.407043,28.165031 
	C290.069336,26.618288 287.404144,26.602785 284.077118,28.143250 
	C253.250305,42.416515 222.341278,56.512062 191.471664,70.693031 
	C174.217255,78.619392 172.640427,82.388145 179.328751,100.250710 
	C168.732025,100.513176 160.980698,105.871887 153.804077,113.140808 
	C133.323212,133.885071 112.440628,154.232407 91.745651,174.765701 
	C70.463676,195.881409 49.096630,216.913498 28.002441,238.215500 
	C16.653759,249.675949 13.438767,263.621582 18.881273,278.750946 
	C24.407986,294.114380 35.959820,302.621979 52.278500,304.091400 
	C76.168343,306.242523 100.081192,308.137451 123.982071,310.167114 
	C134.548477,311.064423 145.109558,312.024353 155.219925,312.915894 
	C158.912796,360.154816 162.555710,406.754730 166.236557,453.839966 
	C169.365692,453.839966 171.493637,453.839966 173.621582,453.839966 
	C250.276291,453.839752 326.931000,453.839539 403.585693,453.839081 
	C404.752167,453.839081 405.927338,453.744324 407.083405,453.853363 
	C409.809662,454.110474 410.884796,453.015594 411.064911,450.205811 
	C411.469666,443.892029 412.220734,437.600464 412.910339,430.378693 
M283.539429,261.641144 
	C289.693512,261.640594 295.850403,261.739075 301.999664,261.566406 
	C303.447906,261.525726 305.759766,260.942078 306.162537,259.977173 
	C309.084259,252.977509 311.618469,245.816101 314.433624,238.282104 
	C296.970459,238.282104 280.298157,238.282104 263.029602,238.282104 
	C264.731628,242.955841 266.157806,247.179077 267.797577,251.317673 
	C272.811157,263.971161 268.902649,261.287323 283.539429,261.641144 
z"/>
<path fill="#FEFEFF" opacity="1.000000" stroke="none" 
	d="
M412.870605,430.839264 
	C412.220734,437.600464 411.469666,443.892029 411.064911,450.205811 
	C410.884796,453.015594 409.809662,454.110474 407.083405,453.853363 
	C405.927338,453.744324 404.752167,453.839081 403.585693,453.839081 
	C326.931000,453.839539 250.276291,453.839752 173.621582,453.839966 
	C171.493637,453.839966 169.365692,453.839966 166.236557,453.839966 
	C162.555710,406.754730 158.912796,360.154816 155.219925,312.915894 
	C145.109558,312.024353 134.548477,311.064423 123.982071,310.167114 
	C100.081192,308.137451 76.168343,306.242523 52.278500,304.091400 
	C35.959820,302.621979 24.407986,294.114380 18.881273,278.750946 
	C13.438767,263.621582 16.653759,249.675949 28.002441,238.215500 
	C49.096630,216.913498 70.463676,195.881409 91.745651,174.765701 
	C112.440628,154.232407 133.323212,133.885071 153.804077,113.140808 
	C160.980698,105.871887 168.732025,100.513176 179.328751,100.250710 
	C172.640427,82.388145 174.217255,78.619392 191.471664,70.693031 
	C222.341278,56.512062 253.250305,42.416515 284.077118,28.143250 
	C287.404144,26.602785 290.069336,26.618288 293.407043,28.165031 
	C325.741028,43.149040 358.157654,57.954590 390.545044,72.823479 
	C402.565735,78.342133 405.223145,87.421227 398.171814,98.739922 
	C394.120453,105.243073 390.269775,111.881950 385.968384,118.214966 
	C382.946136,122.664658 381.811951,127.219093 381.713898,132.636322 
	C381.043396,169.683212 364.936371,198.128113 332.317383,215.941833 
	C280.504211,244.237762 215.247238,216.180405 199.194992,159.305267 
	C198.672745,157.454865 198.139679,155.607498 197.352036,152.849686 
	C176.324997,179.206970 155.822357,204.906937 134.847412,231.198914 
	C136.845123,231.524368 138.063416,231.813263 139.296799,231.910309 
	C160.719711,233.595947 182.154205,235.151123 203.553848,237.091125 
	C205.684830,237.284302 208.175598,239.381622 209.538712,241.283676 
	C227.585068,266.465240 245.457504,291.771454 263.382050,317.040314 
	C264.229401,318.234863 265.157471,319.372131 266.935059,321.695648 
	C268.580658,304.757721 270.108948,289.027130 271.649689,273.168396 
	C283.188385,273.168396 294.277740,273.168396 305.748291,273.168396 
	C307.279114,289.041107 308.786621,304.672333 310.445831,321.876373 
	C312.459656,319.132721 313.606506,317.617432 314.704407,316.067444 
	C331.648102,292.146515 348.649475,268.265900 365.445862,244.241913 
	C367.623932,241.126633 369.600250,240.396194 372.780212,242.202972 
	C380.721344,246.714874 389.165863,250.515350 396.547424,255.803131 
	C414.893188,268.945160 423.225220,286.957794 421.478577,309.770721 
	C418.401764,349.956482 415.743713,390.174286 412.870605,430.839264 
M278.500092,133.727142 
	C257.771271,133.727142 237.042480,133.727142 216.179810,133.727142 
	C216.179810,136.226059 216.066986,137.880844 216.196350,139.516449 
	C219.377396,179.735931 254.943207,209.849976 294.978668,206.247192 
	C330.562531,203.044983 359.076080,174.146469 361.189178,139.392746 
	C361.450775,135.089813 360.516083,133.591919 355.919128,133.629318 
	C330.447571,133.836639 304.973389,133.727676 278.500092,133.727142 
M330.500031,102.828918 
	C295.501343,102.828896 260.502655,102.828705 225.503967,102.828957 
	C216.650818,102.829018 213.020203,105.568176 210.021515,114.552238 
	C262.530945,114.552238 315.019135,114.552238 368.334808,114.552238 
	C366.574005,112.004982 365.068909,110.226883 364.010345,108.213951 
	C361.730133,103.877930 358.450928,102.385300 353.491272,102.707726 
	C346.189087,103.182426 338.833130,102.829369 330.500031,102.828918 
M280.413147,64.922356 
	C276.767059,69.141487 275.912964,73.769379 278.747711,78.698692 
	C281.221069,82.999573 285.152771,84.883591 290.051910,84.406593 
	C294.712219,83.952866 299.027039,80.137726 299.888641,75.729851 
	C300.864258,70.738533 299.482483,66.484879 295.223877,63.465443 
	C290.841553,60.358257 286.429749,60.699665 280.413147,64.922356 
z"/>
<path fill="#FCF9FD" opacity="1.000000" stroke="none" 
	d="
M283.048035,261.641235 
	C268.902649,261.287323 272.811157,263.971161 267.797577,251.317673 
	C266.157806,247.179077 264.731628,242.955841 263.029602,238.282104 
	C280.298157,238.282104 296.970459,238.282104 314.433624,238.282104 
	C311.618469,245.816101 309.084259,252.977509 306.162537,259.977173 
	C305.759766,260.942078 303.447906,261.525726 301.999664,261.566406 
	C295.850403,261.739075 289.693512,261.640594 283.048035,261.641235 
z"/>
<path fill="#A63DC9" opacity="1.000000" stroke="none" 
	d="
M279.000122,133.727081 
	C304.973389,133.727676 330.447571,133.836639 355.919128,133.629318 
	C360.516083,133.591919 361.450775,135.089813 361.189178,139.392746 
	C359.076080,174.146469 330.562531,203.044983 294.978668,206.247192 
	C254.943207,209.849976 219.377396,179.735931 216.196350,139.516449 
	C216.066986,137.880844 216.179810,136.226059 216.179810,133.727142 
	C237.042480,133.727142 257.771271,133.727142 279.000122,133.727081 
z"/>
<path fill="#A840CA" opacity="1.000000" stroke="none" 
	d="
M331.000061,102.828903 
	C338.833130,102.829369 346.189087,103.182426 353.491272,102.707726 
	C358.450928,102.385300 361.730133,103.877930 364.010345,108.213951 
	C365.068909,110.226883 366.574005,112.004982 368.334808,114.552238 
	C315.019135,114.552238 262.530945,114.552238 210.021515,114.552238 
	C213.020203,105.568176 216.650818,102.829018 225.503967,102.828957 
	C260.502655,102.828705 295.501343,102.828896 331.000061,102.828903 
z"/>
<path fill="#A841CA" opacity="1.000000" stroke="none" 
	d="
M280.684570,64.664207 
	C286.429749,60.699665 290.841553,60.358257 295.223877,63.465443 
	C299.482483,66.484879 300.864258,70.738533 299.888641,75.729851 
	C299.027039,80.137726 294.712219,83.952866 290.051910,84.406593 
	C285.152771,84.883591 281.221069,82.999573 278.747711,78.698692 
	C275.912964,73.769379 276.767059,69.141487 280.684570,64.664207 
z"/>
</svg>