<svg version="1.1" id="Layer_1" xmlns="http://www.w3.org/2000/svg" xmlns:xlink="http://www.w3.org/1999/xlink" x="0px" y="0px"
	 width="100%" viewBox="0 0 460 460" enable-background="new 0 0 460 460" xml:space="preserve">
<path fill="#699BFF" opacity="1.000000" stroke="none" 
	d="
M1.000000,460.000000 
	C1.000000,307.645233 1.000000,155.290466 1.190596,2.326280 
	C1.622530,1.508175 1.828799,1.269224 2.000000,1.000000 
	C154.354767,1.000000 306.709534,1.000000 459.673706,1.190597 
	C460.491821,1.622550 460.730774,1.828819 461.000000,2.000000 
	C461.000000,154.354767 461.000000,306.709534 460.809418,459.673706 
	C460.377472,460.491821 460.171204,460.730774 460.000000,461.000000 
	C427.978577,461.000000 395.957123,461.000000 363.466064,460.610718 
	C362.983398,459.442932 362.970337,458.664429 363.166809,457.597229 
	C374.832672,454.447266 383.216522,442.264252 383.173950,430.802979 
	C382.854553,344.818756 383.000000,258.832764 383.000000,172.847351 
	C383.000000,170.736908 383.000000,168.626465 383.000000,166.419540 
	C280.684570,166.419540 179.000946,166.419540 77.241272,166.419540 
	C77.141289,167.650452 77.016411,168.470627 77.016304,169.290787 
	C77.005249,257.942413 76.996613,346.594055 77.051666,435.245667 
	C77.052750,436.990173 77.531387,438.858856 78.254288,440.458527 
	C83.414192,451.876831 91.767601,458.528046 104.865105,458.129700 
	C106.360977,458.084198 109.616501,457.180573 108.000000,461.000000 
	C72.978569,461.000000 37.957138,461.000000 2.326292,460.809387 
	C1.508187,460.377472 1.269228,460.171204 1.000000,460.000000 
M138.318481,77.962578 
	C135.375458,78.308426 132.427017,78.613876 129.490402,79.007553 
	C120.043327,80.273994 110.609306,81.641518 101.153725,82.839668 
	C92.170738,83.977928 83.162483,84.915375 74.173592,86.008888 
	C65.233788,87.096443 56.304241,88.268341 47.308441,89.411095 
	C47.308441,104.645370 47.308441,119.553757 47.308441,134.613007 
	C169.283890,134.613007 290.950531,134.613007 412.682739,134.613007 
	C412.682739,119.309990 412.682739,104.396049 412.682739,89.454254 
	C401.471344,87.947800 390.580139,86.377625 379.660126,85.043236 
	C364.956604,83.246490 350.212952,81.772324 335.519928,79.897919 
	C321.500854,78.109497 307.549988,75.764862 293.513275,74.150337 
	C289.580688,73.697998 288.905182,72.162796 288.954346,68.816200 
	C289.089020,59.654617 289.025543,50.489655 288.990997,41.326210 
	C288.965851,34.653061 286.323364,32.003590 279.771362,32.002537 
	C246.615906,31.997217 213.460434,31.997522 180.304977,32.002266 
	C173.777283,32.003201 171.036285,34.701996 171.009903,41.249870 
	C170.972321,50.579899 171.112640,59.912922 170.888123,69.237709 
	C170.850082,70.817566 169.720551,73.206978 168.465149,73.741020 
	C166.127808,74.735321 163.327988,74.648056 160.718750,74.996552 
	C153.552261,75.953751 146.384750,76.903488 138.318481,77.962578 
z"/>
<path fill="#FFFFFF" opacity="1.000000" stroke="none" 
	d="
M108.416664,461.000000 
	C109.616501,457.180573 106.360977,458.084198 104.865105,458.129700 
	C91.767601,458.528046 83.414192,451.876831 78.254288,440.458527 
	C77.531387,438.858856 77.052750,436.990173 77.051666,435.245667 
	C76.996613,346.594055 77.005249,257.942413 77.016304,169.290787 
	C77.016411,168.470627 77.141289,167.650452 77.241272,166.419540 
	C179.000946,166.419540 280.684570,166.419540 383.000000,166.419540 
	C383.000000,168.626465 383.000000,170.736908 383.000000,172.847351 
	C383.000000,258.832764 382.854553,344.818756 383.173950,430.802979 
	C383.216522,442.264252 374.832672,454.447266 362.763794,457.647095 
	C346.778839,458.045990 331.406433,458.106293 315.566833,458.105225 
	C249.060440,458.029633 183.021271,458.014587 116.982101,458.008270 
	C115.821411,458.008148 114.504211,457.806915 113.562241,458.289459 
	C113.047142,458.553314 113.166672,460.056000 113.000000,461.000000 
	C111.611107,461.000000 110.222221,461.000000 108.416664,461.000000 
M145.043793,229.902679 
	C145.029190,266.488037 144.994446,303.073425 145.008469,339.658783 
	C145.015549,358.115021 145.111038,376.571167 145.173294,395.494049 
	C145.346359,395.822723 145.611420,395.935852 146.902634,395.956177 
	C154.944199,395.915253 162.985748,395.874329 171.493988,395.826752 
	C171.822723,395.653687 171.935883,395.388611 171.956223,394.097382 
	C171.970810,357.512024 172.005585,320.926636 171.991547,284.341278 
	C171.984467,265.885040 171.888962,247.428879 171.826721,228.505997 
	C171.653656,228.177277 171.388565,228.064117 170.097351,228.043808 
	C162.055786,228.084717 154.014236,228.125641 145.505997,228.173279 
	C145.177277,228.346344 145.064117,228.611435 145.043793,229.902679 
M244.000000,353.500000 
	C244.000000,311.787415 244.000000,270.074829 244.000000,228.331085 
	C234.300446,228.331085 225.394333,228.331085 216.394867,228.331085 
	C216.394867,284.319977 216.394867,339.976898 216.394867,395.669098 
	C225.699326,395.669098 234.605331,395.669098 244.000000,395.669098 
	C244.000000,381.728394 244.000000,368.114197 244.000000,353.500000 
M315.000000,378.498535 
	C315.000000,328.458984 315.000000,278.419464 315.000000,228.323029 
	C305.650543,228.323029 297.077820,228.323029 288.386658,228.323029 
	C288.386658,284.303650 288.386658,339.960419 288.386658,395.677002 
	C297.349365,395.677002 305.922119,395.677002 315.000000,395.677002 
	C315.000000,390.074554 315.000000,384.786163 315.000000,378.498535 
z"/>
<path fill="#699BFF" opacity="1.000000" stroke="none" 
	d="
M113.468658,461.000000 
	C113.166672,460.056000 113.047142,458.553314 113.562241,458.289459 
	C114.504211,457.806915 115.821411,458.008148 116.982101,458.008270 
	C183.021271,458.014587 249.060440,458.029633 315.660828,458.333588 
	C316.148041,459.415558 316.074036,460.207794 316.000000,461.000000 
	C248.645767,461.000000 181.291550,461.000000 113.468658,461.000000 
z"/>
<path fill="#699BFF" opacity="1.000000" stroke="none" 
	d="
M316.468689,461.000000 
	C316.074036,460.207794 316.148041,459.415558 316.128052,458.394958 
	C331.406433,458.106293 346.778839,458.045990 362.554260,457.935791 
	C362.970337,458.664429 362.983398,459.442932 362.998230,460.610718 
	C347.645782,461.000000 332.291534,461.000000 316.468689,461.000000 
z"/>
<path fill="#699BFF" opacity="1.000000" stroke="none" 
	d="
M460.500000,461.000000 
	C460.171204,460.730774 460.377472,460.491821 460.809418,460.141571 
	C461.000000,460.333344 461.000000,460.666656 460.500000,461.000000 
z"/>
<path fill="#699BFF" opacity="1.000000" stroke="none" 
	d="
M1.000000,460.500000 
	C1.269228,460.171204 1.508187,460.377472 1.858438,460.809387 
	C1.666667,461.000000 1.333333,461.000000 1.000000,460.500000 
z"/>
<path fill="#699BFF" opacity="1.000000" stroke="none" 
	d="
M461.000000,1.500000 
	C460.730774,1.828819 460.491821,1.622550 460.141571,1.190597 
	C460.333344,1.000000 460.666656,1.000000 461.000000,1.500000 
z"/>
<path fill="#699BFF" opacity="1.000000" stroke="none" 
	d="
M1.500000,1.000000 
	C1.828799,1.269224 1.622530,1.508175 1.190596,1.858426 
	C1.000000,1.666667 1.000000,1.333333 1.500000,1.000000 
z"/>
<path fill="#FFFFFF" opacity="1.000000" stroke="none" 
	d="
M138.768066,77.909378 
	C146.384750,76.903488 153.552261,75.953751 160.718750,74.996552 
	C163.327988,74.648056 166.127808,74.735321 168.465149,73.741020 
	C169.720551,73.206978 170.850082,70.817566 170.888123,69.237709 
	C171.112640,59.912922 170.972321,50.579899 171.009903,41.249870 
	C171.036285,34.701996 173.777283,32.003201 180.304977,32.002266 
	C213.460434,31.997522 246.615906,31.997217 279.771362,32.002537 
	C286.323364,32.003590 288.965851,34.653061 288.990997,41.326210 
	C289.025543,50.489655 289.089020,59.654617 288.954346,68.816200 
	C288.905182,72.162796 289.580688,73.697998 293.513275,74.150337 
	C307.549988,75.764862 321.500854,78.109497 335.519928,79.897919 
	C350.212952,81.772324 364.956604,83.246490 379.660126,85.043236 
	C390.580139,86.377625 401.471344,87.947800 412.682739,89.454254 
	C412.682739,104.396049 412.682739,119.309990 412.682739,134.613007 
	C290.950531,134.613007 169.283890,134.613007 47.308441,134.613007 
	C47.308441,119.553757 47.308441,104.645370 47.308441,89.411095 
	C56.304241,88.268341 65.233788,87.096443 74.173592,86.008888 
	C83.162483,84.915375 92.170738,83.977928 101.153725,82.839668 
	C110.609306,81.641518 120.043327,80.273994 129.490402,79.007553 
	C132.427017,78.613876 135.375458,78.308426 138.768066,77.909378 
z"/>
<path fill="#699BFF" opacity="1.000000" stroke="none" 
	d="
M244.000000,354.000000 
	C244.000000,368.114197 244.000000,381.728394 244.000000,395.669098 
	C234.605331,395.669098 225.699326,395.669098 216.394867,395.669098 
	C216.394867,339.976898 216.394867,284.319977 216.394867,228.331085 
	C225.394333,228.331085 234.300446,228.331085 244.000000,228.331085 
	C244.000000,270.074829 244.000000,311.787415 244.000000,354.000000 
z"/>
<path fill="#699BFF" opacity="1.000000" stroke="none" 
	d="
M315.000000,378.998138 
	C315.000000,384.786163 315.000000,390.074554 315.000000,395.677002 
	C305.922119,395.677002 297.349365,395.677002 288.386658,395.677002 
	C288.386658,339.960419 288.386658,284.303650 288.386658,228.323029 
	C297.077820,228.323029 305.650543,228.323029 315.000000,228.323029 
	C315.000000,278.419464 315.000000,328.458984 315.000000,378.998138 
z"/>
<path fill="#699BFF" opacity="1.000000" stroke="none" 
	d="
M145.972672,228.166565 
	C154.014236,228.125641 162.055786,228.084717 170.679688,228.257050 
	C171.430145,228.663162 171.620636,228.830627 171.833450,228.972672 
	C171.888962,247.428879 171.984467,265.885040 171.991547,284.341278 
	C172.005585,320.926636 171.970810,357.512024 171.742966,394.679688 
	C171.336777,395.430115 171.169312,395.620575 171.027313,395.833435 
	C162.985748,395.874329 154.944199,395.915253 146.320312,395.742981 
	C145.569885,395.336823 145.379410,395.169373 145.166550,395.027374 
	C145.111038,376.571167 145.015549,358.115021 145.008469,339.658783 
	C144.994446,303.073425 145.029190,266.488037 145.257034,229.320343 
	C145.663162,228.569855 145.830627,228.379364 145.972672,228.166565 
z"/>
<path fill="#699BFF" opacity="1.000000" stroke="none" 
	d="
M171.830078,228.739334 
	C171.620636,228.830627 171.430145,228.663162 171.146729,228.318420 
	C171.388565,228.064117 171.653656,228.177277 171.830078,228.739334 
z"/>
<path fill="#699BFF" opacity="1.000000" stroke="none" 
	d="
M171.260651,395.830078 
	C171.169312,395.620575 171.336777,395.430115 171.681580,395.146759 
	C171.935883,395.388611 171.822723,395.653687 171.260651,395.830078 
z"/>
<path fill="#699BFF" opacity="1.000000" stroke="none" 
	d="
M145.169922,395.260712 
	C145.379410,395.169373 145.569885,395.336823 145.853241,395.681580 
	C145.611420,395.935852 145.346359,395.822723 145.169922,395.260712 
z"/>
<path fill="#699BFF" opacity="1.000000" stroke="none" 
	d="
M145.739334,228.169922 
	C145.830627,228.379364 145.663162,228.569855 145.318420,228.853271 
	C145.064117,228.611435 145.177277,228.346344 145.739334,228.169922 
z"/>
</svg>