<?xml version="1.0" encoding="UTF-8"?>
<!DOCTYPE svg PUBLIC "-//W3C//DTD SVG 1.1//EN" "http://www.w3.org/Graphics/SVG/1.1/DTD/svg11.dtd">
<svg xmlns="http://www.w3.org/2000/svg" version="1.1" width="3200px" height="1600px"
    style="shape-rendering:geometricPrecision; text-rendering:geometricPrecision; image-rendering:optimizeQuality; fill-rule:evenodd; clip-rule:evenodd"
    xmlns:xlink="http://www.w3.org/1999/xlink">
    <g>
        <path style="opacity:0.99" fill="#6cc07b"
            d="M 2253.5,276.5 C 2253.5,292.833 2253.5,309.167 2253.5,325.5C 2200.5,325.333 2147.5,325.5 2094.5,326C 2092.91,326.949 2091.57,328.115 2090.5,329.5C 2089.5,343.657 2089.17,357.99 2089.5,372.5C 2072.33,372.17 2055.33,372.503 2038.5,373.5C 2037.45,375.933 2036.79,375.933 2036.5,373.5C 2036.17,341.593 2036.5,309.76 2037.5,278C 2109.49,276.728 2181.49,276.228 2253.5,276.5 Z" />
    </g>
    <g>
        <path style="opacity:0.981" fill="#050402"
            d="M 2253.5,276.5 C 2265.19,276.395 2276.86,276.895 2288.5,278C 2576.15,301.063 2863.82,323.896 3151.5,346.5C 3151.67,603.5 3151.5,860.5 3151,1117.5C 3150.5,1118 3150,1118.5 3149.5,1119C 2779.33,1119.83 2409.33,1119.67 2039.5,1118.5C 2040.55,1117.92 2040.38,1117.26 2039,1116.5C 2037.58,1020.84 2037.08,925.175 2037.5,829.5C 2037.86,810.44 2038.86,791.44 2040.5,772.5C 2111.5,772.5 2182.5,772.5 2253.5,772.5C 2253.5,757.167 2253.5,741.833 2253.5,726.5C 2181.83,726.667 2110.17,726.5 2038.5,726C 2038,725.5 2037.5,725 2037,724.5C 2035.84,613.747 2035,503.08 2034.5,392.5C 2034.33,386.824 2034.5,381.157 2035,375.5C 2035.28,374.584 2035.78,373.918 2036.5,373.5C 2036.79,375.933 2037.45,375.933 2038.5,373.5C 2055.83,373.5 2073.17,373.5 2090.5,373.5C 2090.5,358.833 2090.5,344.167 2090.5,329.5C 2091.57,328.115 2092.91,326.949 2094.5,326C 2147.5,325.5 2200.5,325.333 2253.5,325.5C 2253.5,309.167 2253.5,292.833 2253.5,276.5 Z" />
    </g>
    <g>
        <path style="opacity:1" fill="#c7ae8b"
            d="M 3138.5,355.5 C 3139.21,356.404 3140.21,356.737 3141.5,356.5C 3141.5,510.167 3141.5,663.833 3141.5,817.5C 3141.5,914.833 3141.5,1012.17 3141.5,1109.5C 2848.83,1109.5 2556.17,1109.5 2263.5,1109.5C 2263.17,835.166 2263.5,560.833 2264.5,286.5C 2555.75,310.314 2847.09,333.314 3138.5,355.5 Z" />
    </g>
    <g>
        <path style="opacity:1" fill="#fecc6d"
            d="M 2253.5,484.5 C 2252.5,561.665 2252.17,638.998 2252.5,716.5C 2183.5,716.5 2114.5,716.5 2045.5,716.5C 2045.5,605.5 2045.5,494.5 2045.5,383.5C 2063.01,383.83 2080.34,383.497 2097.5,382.5C 2098.22,382.082 2098.72,381.416 2099,380.5C 2099.5,365.504 2099.67,350.504 2099.5,335.5C 2150.83,335.5 2202.17,335.5 2253.5,335.5C 2253.5,385.167 2253.5,434.833 2253.5,484.5 Z" />
    </g>
    <g>
        <path style="opacity:1" fill="#3c6b44"
            d="M 2090.5,329.5 C 2090.5,344.167 2090.5,358.833 2090.5,373.5C 2073.17,373.5 2055.83,373.5 2038.5,373.5C 2055.33,372.503 2072.33,372.17 2089.5,372.5C 2089.17,357.99 2089.5,343.657 2090.5,329.5 Z" />
    </g>
    <g>
        <path style="opacity:0.984" fill="#030302"
            d="M 93.5,434.5 C 131.167,433.167 168.833,433.167 206.5,434.5C 205.761,434.369 205.094,434.536 204.5,435C 205.71,436.039 206.71,437.206 207.5,438.5C 207.5,471.5 207.5,504.5 207.5,537.5C 228.5,537.5 249.5,537.5 270.5,537.5C 270.5,504.833 270.5,472.167 270.5,439.5C 271.316,437.856 272.65,436.69 274.5,436C 302.336,435.832 330.003,435.332 357.5,434.5C 590.001,434.167 822.334,434.5 1054.5,435.5C 1054.06,435.435 1053.73,435.601 1053.5,436C 1054.58,436.956 1055.75,437.789 1057,438.5C 1057.5,490.499 1057.67,542.499 1057.5,594.5C 1081.99,595.498 1106.66,595.831 1131.5,595.5C 1131.5,579.167 1131.5,562.833 1131.5,546.5C 1124.17,546.5 1116.83,546.5 1109.5,546.5C 1106.83,545.833 1105.17,544.167 1104.5,541.5C 1104.33,507.832 1104.5,474.165 1105,440.5C 1106.04,439.756 1106.54,438.756 1106.5,437.5C 1108.11,436.994 1108.44,436.327 1107.5,435.5C 1350.67,434.5 1594,434.167 1837.5,434.5C 1844.67,435.15 1851.83,435.817 1859,436.5C 1859.5,474.165 1859.67,511.832 1859.5,549.5C 1878.17,549.333 1896.84,549.5 1915.5,550C 1916.42,550.374 1917.25,550.874 1918,551.5C 1918.82,582.875 1918.65,614.209 1917.5,645.5C 1916.83,645.833 1916.17,646.167 1915.5,646.5C 1896.83,646.5 1878.17,646.5 1859.5,646.5C 1859.5,673.167 1859.5,699.833 1859.5,726.5C 1629.96,726.504 1400.29,726.504 1170.5,726.5C 1170.5,749.167 1170.5,771.833 1170.5,794.5C 1170.5,832.833 1170.5,871.167 1170.5,909.5C 1258.53,909.174 1346.53,909.508 1434.5,910.5C 1435.12,911.627 1435.96,912.627 1437,913.5C 1437.67,1021.5 1437.67,1129.5 1437,1237.5C 1435.91,1239.08 1435.07,1240.74 1434.5,1242.5C 1256,1243.5 1077.33,1243.83 898.5,1243.5C 898.509,1241.69 898.009,1240.02 897,1238.5C 896.5,1204.5 896.333,1170.5 896.5,1136.5C 871.167,1136.5 845.833,1136.5 820.5,1136.5C 820.667,1169.83 820.5,1203.17 820,1236.5C 819.252,1238.75 817.752,1240.08 815.5,1240.5C 627.127,1240.83 438.793,1240.5 250.5,1239.5C 249.442,1238.4 248.608,1237.07 248,1235.5C 247.333,1128.5 247.333,1021.5 248,914.5C 249.045,913.627 249.878,912.627 250.5,911.5C 438.834,911.333 627.167,911.5 815.5,912C 816.942,912.377 817.942,913.21 818.5,914.5C 819.482,966.144 819.816,1017.81 819.5,1069.5C 845.339,1069.83 871.005,1069.5 896.5,1068.5C 896.333,1016.83 896.5,965.166 897,913.5C 897.708,912.619 898.542,911.953 899.5,911.5C 976.627,910.839 1053.63,910.172 1130.5,909.5C 1130.5,859.167 1130.5,808.833 1130.5,758.5C 1130.5,758.167 1130.5,757.833 1130.5,757.5C 1130.5,745.833 1130.5,734.167 1130.5,722.5C 1131.5,702.674 1131.83,682.674 1131.5,662.5C 1106.66,662.169 1081.99,662.502 1057.5,663.5C 1057.67,682.836 1057.5,702.17 1057,721.5C 1056.17,723.667 1054.67,725.167 1052.5,726C 792.833,726.667 533.167,726.667 273.5,726C 272.956,725.283 272.289,724.783 271.5,724.5C 270.515,692.21 270.181,659.877 270.5,627.5C 249.5,627.5 228.5,627.5 207.5,627.5C 207.5,659.167 207.5,690.833 207.5,722.5C 207.141,724.371 206.141,725.871 204.5,727C 168.5,727.667 132.5,727.667 96.5,727C 94.9512,725.786 93.7845,724.286 93,722.5C 92.5,690.835 92.3334,659.168 92.5,627.5C 80.4954,627.667 68.4954,627.5 56.5,627C 55.7476,626.329 55.4142,625.496 55.5,624.5C 55.1831,595.789 55.5164,567.123 56.5,538.5C 57.2891,538.217 57.9558,537.717 58.5,537C 69.8284,536.5 81.1618,536.333 92.5,536.5C 92.3334,503.498 92.5,470.498 93,437.5C 93.3742,436.584 93.8742,435.75 94.5,435C 94.2716,434.601 93.9382,434.435 93.5,434.5 Z" />
    </g>
    <g>
        <path style="opacity:0.999" fill="#feefb8"
            d="M 2034.5,392.5 C 2035,503.08 2035.84,613.747 2037,724.5C 2037.5,725 2038,725.5 2038.5,726C 2110.17,726.5 2181.83,726.667 2253.5,726.5C 2253.5,741.833 2253.5,757.167 2253.5,772.5C 2182.5,772.5 2111.5,772.5 2040.5,772.5C 2039.5,772.5 2038.5,772.5 2037.5,772.5C 2037.5,791.5 2037.5,810.5 2037.5,829.5C 2037.08,925.175 2037.58,1020.84 2039,1116.5C 2040.38,1117.26 2040.55,1117.92 2039.5,1118.5C 1998.83,1118.5 1958.17,1118.5 1917.5,1118.5C 1917.06,1118.57 1916.73,1118.4 1916.5,1118C 1917.13,1117.25 1917.63,1116.42 1918,1115.5C 1918.67,1048.17 1918.67,980.833 1918,913.5C 1916.87,911.859 1915.37,910.859 1913.5,910.5C 1809.33,909.334 1705,909.167 1600.5,910C 1599.94,910.383 1599.61,910.883 1599.5,911.5C 1598.21,912.058 1597.38,913.058 1597,914.5C 1596.33,981.833 1596.33,1049.17 1597,1116.5C 1597.51,1117.53 1598.01,1118.53 1598.5,1119.5C 1565.17,1119.5 1531.83,1119.5 1498.5,1119.5C 1497.67,1051 1497.17,982.335 1497,913.5C 1496.17,912.667 1495.33,911.833 1494.5,911C 1474.5,910.5 1454.5,910.333 1434.5,910.5C 1346.53,909.508 1258.53,909.174 1170.5,909.5C 1170.5,871.167 1170.5,832.833 1170.5,794.5C 1417.5,794.667 1664.5,794.5 1911.5,794C 1914,792.833 1915.83,791 1917,788.5C 1917.5,740.834 1917.67,693.168 1917.5,645.5C 1918.65,614.209 1918.82,582.875 1918,551.5C 1917.25,550.874 1916.42,550.374 1915.5,550C 1896.84,549.5 1878.17,549.333 1859.5,549.5C 1859.67,511.832 1859.5,474.165 1859,436.5C 1851.83,435.817 1844.67,435.15 1837.5,434.5C 1903,433.501 1968.66,433.168 2034.5,433.5C 2034.5,419.833 2034.5,406.167 2034.5,392.5 Z" />
    </g>
    <g>
        <path style="opacity:0.998" fill="#6cbf7b"
            d="M 93.5,434.5 C 93.9382,434.435 94.2716,434.601 94.5,435C 93.8742,435.75 93.3742,436.584 93,437.5C 92.5,470.498 92.3334,503.498 92.5,536.5C 81.1618,536.333 69.8284,536.5 58.5,537C 57.9558,537.717 57.2891,538.217 56.5,538.5C 55.8826,538.611 55.3826,538.944 55,539.5C 54.1696,568.003 54.3363,596.336 55.5,624.5C 55.4142,625.496 55.7476,626.329 56.5,627C 68.4954,627.5 80.4954,627.667 92.5,627.5C 92.3334,659.168 92.5,690.835 93,722.5C 93.7845,724.286 94.9512,725.786 96.5,727C 132.5,727.667 168.5,727.667 204.5,727C 206.141,725.871 207.141,724.371 207.5,722.5C 208.498,691.338 208.832,660.004 208.5,628.5C 228.833,628.5 249.167,628.5 269.5,628.5C 269.333,660.168 269.5,691.835 270,723.5C 270.383,724.056 270.883,724.389 271.5,724.5C 272.289,724.783 272.956,725.283 273.5,726C 533.167,726.667 792.833,726.667 1052.5,726C 1054.67,725.167 1056.17,723.667 1057,721.5C 1057.5,702.17 1057.67,682.836 1057.5,663.5C 1081.83,663.5 1106.17,663.5 1130.5,663.5C 1130.5,683.167 1130.5,702.833 1130.5,722.5C 1130.5,734.167 1130.5,745.833 1130.5,757.5C 1106.17,757.5 1081.83,757.5 1057.5,757.5C 1057.5,768.5 1057.5,779.5 1057.5,790.5C 1056.88,792.229 1055.88,793.729 1054.5,795C 795.167,795.667 535.833,795.667 276.5,795C 275.299,794.097 274.465,792.931 274,791.5C 273.5,781.839 273.334,772.172 273.5,762.5C 197.833,762.667 122.166,762.5 46.5,762C 45.8366,760.482 44.8366,759.315 43.5,758.5C 43.3333,651.166 43.5,543.833 44,436.5C 44.5,436 45,435.5 45.5,435C 61.4965,434.5 77.4965,434.333 93.5,434.5 Z" />
    </g>
    <g>
        <path style="opacity:0.999" fill="#6cbf7b"
            d="M 206.5,434.5 C 256.833,434.5 307.167,434.5 357.5,434.5C 330.003,435.332 302.336,435.832 274.5,436C 272.65,436.69 271.316,437.856 270.5,439.5C 269.502,471.662 269.168,503.996 269.5,536.5C 249.167,536.5 228.833,536.5 208.5,536.5C 208.832,503.662 208.498,470.996 207.5,438.5C 206.71,437.206 205.71,436.039 204.5,435C 205.094,434.536 205.761,434.369 206.5,434.5 Z" />
    </g>
    <g>
        <path style="opacity:0.999" fill="#6cc07b"
            d="M 1054.5,435.5 C 1072.17,435.5 1089.83,435.5 1107.5,435.5C 1108.44,436.327 1108.11,436.994 1106.5,437.5C 1105.54,437.953 1104.71,438.619 1104,439.5C 1103.17,473.669 1103.34,507.669 1104.5,541.5C 1105.17,544.167 1106.83,545.833 1109.5,546.5C 1116.31,547.491 1123.31,547.825 1130.5,547.5C 1130.5,563.167 1130.5,578.833 1130.5,594.5C 1106.17,594.5 1081.83,594.5 1057.5,594.5C 1057.67,542.499 1057.5,490.499 1057,438.5C 1055.75,437.789 1054.58,436.956 1053.5,436C 1053.73,435.601 1054.06,435.435 1054.5,435.5 Z" />
    </g>
    <g>
        <path style="opacity:1" fill="#396541"
            d="M 1106.5,437.5 C 1106.54,438.756 1106.04,439.756 1105,440.5C 1104.5,474.165 1104.33,507.832 1104.5,541.5C 1103.34,507.669 1103.17,473.669 1104,439.5C 1104.71,438.619 1105.54,437.953 1106.5,437.5 Z" />
    </g>
    <g>
        <path style="opacity:1" fill="#b4b4b4"
            d="M 279.5,543.5 C 280.498,511.004 280.832,478.338 280.5,445.5C 536.167,445.5 791.833,445.5 1047.5,445.5C 1047.5,535.833 1047.5,626.167 1047.5,716.5C 791.833,716.5 536.167,716.5 280.5,716.5C 280.832,684.329 280.498,652.329 279.5,620.5C 278.488,618.124 276.655,617.124 274,617.5C 248.85,618.467 223.684,618.801 198.5,618.5C 198.5,651.833 198.5,685.167 198.5,718.5C 166.167,718.5 133.833,718.5 101.5,718.5C 101.667,685.498 101.5,652.498 101,619.5C 88.9136,618.512 76.747,618.178 64.5,618.5C 64.5,594.5 64.5,570.5 64.5,546.5C 76.1714,546.667 87.8381,546.5 99.5,546C 100,545.5 100.5,545 101,544.5C 101.5,510.835 101.667,477.168 101.5,443.5C 133.833,443.5 166.167,443.5 198.5,443.5C 198.333,477.168 198.5,510.835 199,544.5C 199.5,545 200,545.5 200.5,546C 226.5,546.667 252.5,546.667 278.5,546C 279.252,545.329 279.586,544.496 279.5,543.5 Z" />
    </g>
    <g>
        <path style="opacity:1" fill="#836938"
            d="M 1047.5,445.5 C 791.833,445.5 536.167,445.5 280.5,445.5C 280.832,478.338 280.498,511.004 279.5,543.5C 279.5,510.5 279.5,477.5 279.5,444.5C 535.667,444.167 791.667,444.5 1047.5,445.5 Z" />
    </g>
    <g>
        <path style="opacity:1" fill="#835a38"
            d="M 1140.5,445.5 C 1377,444.5 1613.67,444.167 1850.5,444.5C 1850.5,482.833 1850.5,521.167 1850.5,559.5C 1849.5,521.67 1849.17,483.67 1849.5,445.5C 1613.17,445.5 1376.83,445.5 1140.5,445.5 Z" />
    </g>
    <g>
        <path style="opacity:1" fill="#b4b4b4"
            d="M 1131.5,445.5 C 1134.5,445.5 1137.5,445.5 1140.5,445.5C 1376.83,445.5 1613.17,445.5 1849.5,445.5C 1849.17,483.67 1849.5,521.67 1850.5,559.5C 1869.83,559.5 1889.17,559.5 1908.5,559.5C 1908.5,585.5 1908.5,611.5 1908.5,637.5C 1889.83,637.333 1871.16,637.5 1852.5,638C 1851.18,638.816 1850.51,639.983 1850.5,641.5C 1849.5,666.328 1849.17,691.328 1849.5,716.5C 1613.5,716.5 1377.5,716.5 1141.5,716.5C 1141.83,657.331 1141.5,598.331 1140.5,539.5C 1139.01,537.72 1137.01,537.054 1134.5,537.5C 1128.02,536.509 1121.35,536.176 1114.5,536.5C 1114.5,506.167 1114.5,475.833 1114.5,445.5C 1120.17,445.5 1125.83,445.5 1131.5,445.5 Z" />
    </g>
    <g>
        <path style="opacity:1" fill="#8e613d"
            d="M 1131.5,445.5 C 1125.83,445.5 1120.17,445.5 1114.5,445.5C 1114.5,475.833 1114.5,506.167 1114.5,536.5C 1121.35,536.176 1128.02,536.509 1134.5,537.5C 1127.5,537.5 1120.5,537.5 1113.5,537.5C 1113.5,506.5 1113.5,475.5 1113.5,444.5C 1119.69,444.177 1125.69,444.51 1131.5,445.5 Z" />
    </g>
    <g>
        <path style="opacity:1" fill="#2c4d32"
            d="M 207.5,438.5 C 208.498,470.996 208.832,503.662 208.5,536.5C 228.833,536.5 249.167,536.5 269.5,536.5C 269.168,503.996 269.502,471.662 270.5,439.5C 270.5,472.167 270.5,504.833 270.5,537.5C 249.5,537.5 228.5,537.5 207.5,537.5C 207.5,504.5 207.5,471.5 207.5,438.5 Z" />
    </g>
    <g>
        <path style="opacity:1" fill="#101c12"
            d="M 56.5,538.5 C 55.5164,567.123 55.1831,595.789 55.5,624.5C 54.3363,596.336 54.1696,568.003 55,539.5C 55.3826,538.944 55.8826,538.611 56.5,538.5 Z" />
    </g>
    <g>
        <path style="opacity:1" fill="#100e0c"
            d="M 3138.5,355.5 C 3139.83,355.5 3141.17,355.5 3142.5,355.5C 3142.83,509.668 3142.5,663.668 3141.5,817.5C 3141.5,663.833 3141.5,510.167 3141.5,356.5C 3140.21,356.737 3139.21,356.404 3138.5,355.5 Z" />
    </g>
    <g>
        <path style="opacity:0.956" fill="#396541"
            d="M 1109.5,546.5 C 1116.83,546.5 1124.17,546.5 1131.5,546.5C 1131.5,562.833 1131.5,579.167 1131.5,595.5C 1106.66,595.831 1081.99,595.498 1057.5,594.5C 1081.83,594.5 1106.17,594.5 1130.5,594.5C 1130.5,578.833 1130.5,563.167 1130.5,547.5C 1123.31,547.825 1116.31,547.491 1109.5,546.5 Z" />
    </g>
    <g>
        <path style="opacity:1" fill="#888062"
            d="M 1057.5,605.5 C 1081.99,604.502 1106.66,604.169 1131.5,604.5C 1131.5,620.833 1131.5,637.167 1131.5,653.5C 1106.66,653.831 1081.99,653.498 1057.5,652.5C 1081.83,652.5 1106.17,652.5 1130.5,652.5C 1130.5,636.833 1130.5,621.167 1130.5,605.5C 1106.17,605.5 1081.83,605.5 1057.5,605.5 Z" />
    </g>
    <g>
        <path style="opacity:1" fill="#fef0b8"
            d="M 1057.5,605.5 C 1081.83,605.5 1106.17,605.5 1130.5,605.5C 1130.5,621.167 1130.5,636.833 1130.5,652.5C 1106.17,652.5 1081.83,652.5 1057.5,652.5C 1057.5,636.833 1057.5,621.167 1057.5,605.5 Z" />
    </g>
    <g>
        <path style="opacity:1" fill="#3b6943"
            d="M 271.5,724.5 C 270.883,724.389 270.383,724.056 270,723.5C 269.5,691.835 269.333,660.168 269.5,628.5C 249.167,628.5 228.833,628.5 208.5,628.5C 208.832,660.004 208.498,691.338 207.5,722.5C 207.5,690.833 207.5,659.167 207.5,627.5C 228.5,627.5 249.5,627.5 270.5,627.5C 270.181,659.877 270.515,692.21 271.5,724.5 Z" />
    </g>
    <g>
        <path style="opacity:1" fill="#6cbf7b"
            d="M 1917.5,645.5 C 1917.67,693.168 1917.5,740.834 1917,788.5C 1915.83,791 1914,792.833 1911.5,794C 1664.5,794.5 1417.5,794.667 1170.5,794.5C 1170.5,771.833 1170.5,749.167 1170.5,726.5C 1400.29,726.504 1629.96,726.504 1859.5,726.5C 1860.5,700.339 1860.83,674.005 1860.5,647.5C 1879.01,647.83 1897.34,647.497 1915.5,646.5C 1916.17,646.167 1916.83,645.833 1917.5,645.5 Z" />
    </g>
    <g>
        <path style="opacity:1" fill="#386440"
            d="M 1057.5,663.5 C 1081.99,662.502 1106.66,662.169 1131.5,662.5C 1131.83,682.674 1131.5,702.674 1130.5,722.5C 1130.5,702.833 1130.5,683.167 1130.5,663.5C 1106.17,663.5 1081.83,663.5 1057.5,663.5 Z" />
    </g>
    <g>
        <path style="opacity:1" fill="#3c6b44"
            d="M 1915.5,646.5 C 1897.34,647.497 1879.01,647.83 1860.5,647.5C 1860.83,674.005 1860.5,700.339 1859.5,726.5C 1859.5,699.833 1859.5,673.167 1859.5,646.5C 1878.17,646.5 1896.83,646.5 1915.5,646.5 Z" />
    </g>
    <g>
        <path style="opacity:1" fill="#8d713c"
            d="M 279.5,620.5 C 280.498,652.329 280.832,684.329 280.5,716.5C 536.167,716.5 791.833,716.5 1047.5,716.5C 791.667,717.5 535.667,717.833 279.5,717.5C 279.5,685.167 279.5,652.833 279.5,620.5 Z" />
    </g>
    <g>
        <path style="opacity:1" fill="#8d603c"
            d="M 1140.5,539.5 C 1141.5,598.331 1141.83,657.331 1141.5,716.5C 1377.5,716.5 1613.5,716.5 1849.5,716.5C 1849.17,691.328 1849.5,666.328 1850.5,641.5C 1850.5,666.833 1850.5,692.167 1850.5,717.5C 1613.83,717.5 1377.17,717.5 1140.5,717.5C 1140.5,658.167 1140.5,598.833 1140.5,539.5 Z" />
    </g>
    <g>
        <path style="opacity:1" fill="#917240"
            d="M 2097.5,382.5 C 2080.34,383.497 2063.01,383.83 2045.5,383.5C 2045.5,494.5 2045.5,605.5 2045.5,716.5C 2114.5,716.5 2183.5,716.5 2252.5,716.5C 2252.17,638.998 2252.5,561.665 2253.5,484.5C 2253.5,562.167 2253.5,639.833 2253.5,717.5C 2183.83,717.5 2114.17,717.5 2044.5,717.5C 2044.5,605.833 2044.5,494.167 2044.5,382.5C 2062.17,382.5 2079.83,382.5 2097.5,382.5 Z" />
    </g>
    <g>
        <path style="opacity:1" fill="#fef0b8"
            d="M 1160.5,727.5 C 1160.5,788.167 1160.5,848.833 1160.5,909.5C 1153.83,909.5 1147.17,909.5 1140.5,909.5C 1140.5,848.833 1140.5,788.167 1140.5,727.5C 1147.17,727.5 1153.83,727.5 1160.5,727.5 Z" />
    </g>
    <g>
        <path style="opacity:1" fill="#423e2f"
            d="M 1160.5,727.5 C 1153.83,727.5 1147.17,727.5 1140.5,727.5C 1140.5,788.167 1140.5,848.833 1140.5,909.5C 1139.5,848.669 1139.17,787.669 1139.5,726.5C 1146.69,726.175 1153.69,726.509 1160.5,727.5 Z" />
    </g>
    <g>
        <path style="opacity:1" fill="#bbda9d"
            d="M 1130.5,757.5 C 1130.5,757.833 1130.5,758.167 1130.5,758.5C 1106.5,758.5 1082.5,758.5 1058.5,758.5C 1058.83,769.346 1058.49,780.013 1057.5,790.5C 1057.5,779.5 1057.5,768.5 1057.5,757.5C 1081.83,757.5 1106.17,757.5 1130.5,757.5 Z" />
    </g>
    <g>
        <path style="opacity:0.999" fill="#feefb8"
            d="M 43.5,758.5 C 44.8366,759.315 45.8366,760.482 46.5,762C 122.166,762.5 197.833,762.667 273.5,762.5C 273.334,772.172 273.5,781.839 274,791.5C 274.465,792.931 275.299,794.097 276.5,795C 535.833,795.667 795.167,795.667 1054.5,795C 1055.88,793.729 1056.88,792.229 1057.5,790.5C 1058.49,780.013 1058.83,769.346 1058.5,758.5C 1082.5,758.5 1106.5,758.5 1130.5,758.5C 1130.5,808.833 1130.5,859.167 1130.5,909.5C 1053.83,909.5 977.167,909.5 900.5,909.5C 892.16,909.334 883.827,909.5 875.5,910C 874.667,910.833 873.833,911.667 873,912.5C 872.5,964.499 872.333,1016.5 872.5,1068.5C 855.167,1068.5 837.833,1068.5 820.5,1068.5C 820.667,1017.83 820.5,967.166 820,916.5C 819.722,915.584 819.222,914.918 818.5,914.5C 817.942,913.21 816.942,912.377 815.5,912C 627.167,911.5 438.834,911.333 250.5,911.5C 225.164,911.333 199.831,911.5 174.5,912C 173.122,913.334 171.789,913.501 170.5,912.5C 128.5,912.5 86.5,912.5 44.5,912.5C 43.5134,861.196 43.1801,809.863 43.5,758.5 Z" />
    </g>
    <g>
        <path style="opacity:1" fill="#857d60"
            d="M 2040.5,772.5 C 2038.86,791.44 2037.86,810.44 2037.5,829.5C 2037.5,810.5 2037.5,791.5 2037.5,772.5C 2038.5,772.5 2039.5,772.5 2040.5,772.5 Z" />
    </g>
    <g>
        <path style="opacity:1" fill="#feaf6e"
            d="M 2048.5,782.5 C 2116.83,782.5 2185.17,782.5 2253.5,782.5C 2253.5,891.5 2253.5,1000.5 2253.5,1109.5C 2185.17,1109.5 2116.83,1109.5 2048.5,1109.5C 2048.5,1000.5 2048.5,891.5 2048.5,782.5 Z" />
    </g>
    <g>
        <path style="opacity:1" fill="#2c2b23"
            d="M 900.5,909.5 C 977.167,909.5 1053.83,909.5 1130.5,909.5C 1053.63,910.172 976.627,910.839 899.5,911.5C 899.833,910.833 900.167,910.167 900.5,909.5 Z" />
    </g>
    <g>
        <path style="opacity:1" fill="#968d6d"
            d="M 1913.5,910.5 C 1808.79,910.171 1704.13,910.504 1599.5,911.5C 1599.61,910.883 1599.94,910.383 1600.5,910C 1705,909.167 1809.33,909.334 1913.5,910.5 Z" />
    </g>
    <g>
        <path style="opacity:1" fill="#6dc17c"
            d="M 900.5,909.5 C 900.167,910.167 899.833,910.833 899.5,911.5C 898.542,911.953 897.708,912.619 897,913.5C 896.5,965.166 896.333,1016.83 896.5,1068.5C 888.5,1068.5 880.5,1068.5 872.5,1068.5C 872.333,1016.5 872.5,964.499 873,912.5C 873.833,911.667 874.667,910.833 875.5,910C 883.827,909.5 892.16,909.334 900.5,909.5 Z" />
    </g>
    <g>
        <path style="opacity:0.995" fill="#6dc07c"
            d="M 1434.5,910.5 C 1454.5,910.333 1474.5,910.5 1494.5,911C 1495.33,911.833 1496.17,912.667 1497,913.5C 1497.17,982.335 1497.67,1051 1498.5,1119.5C 1498.67,1159.83 1498.5,1200.17 1498,1240.5C 1497.5,1241 1497,1241.5 1496.5,1242C 1475.84,1242.5 1455.17,1242.67 1434.5,1242.5C 1435.07,1240.74 1435.91,1239.08 1437,1237.5C 1437.67,1129.5 1437.67,1021.5 1437,913.5C 1435.96,912.627 1435.12,911.627 1434.5,910.5 Z" />
    </g>
    <g>
        <path style="opacity:0.978" fill="#010101"
            d="M 1913.5,910.5 C 1915.37,910.859 1916.87,911.859 1918,913.5C 1918.67,980.833 1918.67,1048.17 1918,1115.5C 1917.63,1116.42 1917.13,1117.25 1916.5,1118C 1916.73,1118.4 1917.06,1118.57 1917.5,1118.5C 1917.39,1119.12 1917.06,1119.62 1916.5,1120C 1810.33,1120.83 1704.33,1120.67 1598.5,1119.5C 1598.01,1118.53 1597.51,1117.53 1597,1116.5C 1596.33,1049.17 1596.33,981.833 1597,914.5C 1597.38,913.058 1598.21,912.058 1599.5,911.5C 1704.13,910.504 1808.79,910.171 1913.5,910.5 Z" />
    </g>
    <g>
        <path style="opacity:0.994" fill="#6cc07b"
            d="M 250.5,911.5 C 249.878,912.627 249.045,913.627 248,914.5C 247.333,1021.5 247.333,1128.5 248,1235.5C 248.608,1237.07 249.442,1238.4 250.5,1239.5C 250.611,1240.12 250.944,1240.62 251.5,1241C 439.667,1241.83 627.667,1241.67 815.5,1240.5C 817.752,1240.08 819.252,1238.75 820,1236.5C 820.5,1203.17 820.667,1169.83 820.5,1136.5C 845.833,1136.5 871.167,1136.5 896.5,1136.5C 896.333,1170.5 896.5,1204.5 897,1238.5C 898.009,1240.02 898.509,1241.69 898.5,1243.5C 898.667,1262.5 898.5,1281.5 898,1300.5C 897.167,1302 896,1303.17 894.5,1304C 654.833,1304.67 415.167,1304.67 175.5,1304C 173.64,1302.14 171.806,1300.31 170,1298.5C 169.169,1169.76 169.335,1041.1 170.5,912.5C 171.789,913.501 173.122,913.334 174.5,912C 199.831,911.5 225.164,911.333 250.5,911.5 Z" />
    </g>
    <g>
        <path style="opacity:1" fill="#454735"
            d="M 818.5,914.5 C 819.222,914.918 819.722,915.584 820,916.5C 820.5,967.166 820.667,1017.83 820.5,1068.5C 837.833,1068.5 855.167,1068.5 872.5,1068.5C 880.5,1068.5 888.5,1068.5 896.5,1068.5C 871.005,1069.5 845.339,1069.83 819.5,1069.5C 819.816,1017.81 819.482,966.144 818.5,914.5 Z" />
    </g>
    <g>
        <path style="opacity:1" fill="#b4b4b4"
            d="M 906.5,919.5 C 1080.17,919.5 1253.83,919.5 1427.5,919.5C 1427.5,1024.17 1427.5,1128.83 1427.5,1233.5C 1253.83,1233.5 1080.17,1233.5 906.5,1233.5C 906.5,1128.83 906.5,1024.17 906.5,919.5 Z" />
    </g>
    <g>
        <path style="opacity:1" fill="#805837"
            d="M 1605.5,920.5 C 1706.67,919.501 1808,919.167 1909.5,919.5C 1909.83,983.336 1909.5,1047 1908.5,1110.5C 1908.5,1110.17 1908.5,1109.83 1908.5,1109.5C 1908.5,1046.5 1908.5,983.5 1908.5,920.5C 1807.83,920.5 1707.17,920.5 1606.5,920.5C 1606.17,920.5 1605.83,920.5 1605.5,920.5 Z" />
    </g>
    <g>
        <path style="opacity:1" fill="#b4b5b4"
            d="M 1606.5,920.5 C 1707.17,920.5 1807.83,920.5 1908.5,920.5C 1908.5,983.5 1908.5,1046.5 1908.5,1109.5C 1807.83,1109.5 1707.17,1109.5 1606.5,1109.5C 1606.5,1046.5 1606.5,983.5 1606.5,920.5 Z" />
    </g>
    <g>
        <path style="opacity:1" fill="#b4b4b4"
            d="M 257.5,920.5 C 441.833,920.5 626.167,920.5 810.5,920.5C 810.5,1024.17 810.5,1127.83 810.5,1231.5C 626.167,1231.5 441.833,1231.5 257.5,1231.5C 257.5,1127.83 257.5,1024.17 257.5,920.5 Z" />
    </g>
    <g>
        <path style="opacity:1" fill="#faebb5"
            d="M 820.5,1078.5 C 845.833,1078.5 871.167,1078.5 896.5,1078.5C 896.5,1094.83 896.5,1111.17 896.5,1127.5C 871.167,1127.5 845.833,1127.5 820.5,1127.5C 820.5,1111.17 820.5,1094.83 820.5,1078.5 Z" />
    </g>
    <g>
        <path style="opacity:1" fill="#956640"
            d="M 1605.5,920.5 C 1605.83,920.5 1606.17,920.5 1606.5,920.5C 1606.5,983.5 1606.5,1046.5 1606.5,1109.5C 1707.17,1109.5 1807.83,1109.5 1908.5,1109.5C 1908.5,1109.83 1908.5,1110.17 1908.5,1110.5C 1807.5,1110.5 1706.5,1110.5 1605.5,1110.5C 1605.5,1047.17 1605.5,983.833 1605.5,920.5 Z" />
    </g>
    <g>
        <path style="opacity:1" fill="#111e13"
            d="M 250.5,1239.5 C 438.793,1240.5 627.127,1240.83 815.5,1240.5C 627.667,1241.67 439.667,1241.83 251.5,1241C 250.944,1240.62 250.611,1240.12 250.5,1239.5 Z" />
    </g>
</svg>