<?xml version="1.0" encoding="UTF-8"?>
<!DOCTYPE svg PUBLIC "-//W3C//DTD SVG 1.1//EN" "http://www.w3.org/Graphics/SVG/1.1/DTD/svg11.dtd">
<svg xmlns="http://www.w3.org/2000/svg" version="1.1" width="3108px" height="1028px" style="shape-rendering:geometricPrecision; text-rendering:geometricPrecision; image-rendering:optimizeQuality; fill-rule:evenodd; clip-rule:evenodd" xmlns:xlink="http://www.w3.org/1999/xlink">
<g><path style="opacity:0.99" fill="#6cc07b" d="M 2048.5,-0.5 C 2102.17,-0.5 2155.83,-0.5 2209.5,-0.5C 2209.5,15.8333 2209.5,32.1667 2209.5,48.5C 2156.5,48.3333 2103.5,48.5 2050.5,49C 2048.91,49.9487 2047.57,51.1154 2046.5,52.5C 2045.5,66.6569 2045.17,80.9903 2045.5,95.5C 2028.33,95.1701 2011.33,95.5034 1994.5,96.5C 1993.45,98.9327 1992.79,98.9327 1992.5,96.5C 1992.33,64.8316 1992.5,33.1649 1993,1.5C 2011.6,0.839356 2030.1,0.172689 2048.5,-0.5 Z"/></g>
<g><path style="opacity:0.981" fill="#050402" d="M 2209.5,-0.5 C 2216.83,-0.5 2224.17,-0.5 2231.5,-0.5C 2523.31,23.3598 2815.31,46.6931 3107.5,69.5C 3107.5,326.5 3107.5,583.5 3107.5,840.5C 3106.71,840.783 3106.04,841.283 3105.5,842C 2920.5,842.167 2735.5,842.333 2550.5,842.5C 2365.33,842.5 2180.33,842.167 1995.5,841.5C 1996.55,840.922 1996.38,840.256 1995,839.5C 1993.58,743.841 1993.08,648.175 1993.5,552.5C 1993.86,533.44 1994.86,514.44 1996.5,495.5C 2067.5,495.5 2138.5,495.5 2209.5,495.5C 2209.5,480.167 2209.5,464.833 2209.5,449.5C 2137.83,449.667 2066.17,449.5 1994.5,449C 1994,448.5 1993.5,448 1993,447.5C 1991.84,336.747 1991,226.08 1990.5,115.5C 1990.33,109.824 1990.5,104.157 1991,98.5C 1991.28,97.5842 1991.78,96.9175 1992.5,96.5C 1992.79,98.9327 1993.45,98.9327 1994.5,96.5C 2011.83,96.5 2029.17,96.5 2046.5,96.5C 2046.5,81.8333 2046.5,67.1667 2046.5,52.5C 2047.57,51.1154 2048.91,49.9487 2050.5,49C 2103.5,48.5 2156.5,48.3333 2209.5,48.5C 2209.5,32.1667 2209.5,15.8333 2209.5,-0.5 Z"/></g>
<g><path style="opacity:1" fill="#c7ae8b" d="M 3094.5,78.5 C 3095.21,79.404 3096.21,79.7373 3097.5,79.5C 3097.5,233.167 3097.5,386.833 3097.5,540.5C 3097.5,637.833 3097.5,735.167 3097.5,832.5C 2804.83,832.5 2512.17,832.5 2219.5,832.5C 2219.17,558.166 2219.5,283.833 2220.5,9.5C 2511.75,33.3145 2803.09,56.3145 3094.5,78.5 Z"/></g>
<g><path style="opacity:1" fill="#fecc6d" d="M 2209.5,207.5 C 2208.5,284.665 2208.17,361.998 2208.5,439.5C 2139.5,439.5 2070.5,439.5 2001.5,439.5C 2001.5,328.5 2001.5,217.5 2001.5,106.5C 2019.01,106.83 2036.34,106.497 2053.5,105.5C 2054.22,105.082 2054.72,104.416 2055,103.5C 2055.5,88.5037 2055.67,73.5037 2055.5,58.5C 2106.83,58.5 2158.17,58.5 2209.5,58.5C 2209.5,108.167 2209.5,157.833 2209.5,207.5 Z"/></g>
<g><path style="opacity:1" fill="#3c6b44" d="M 2046.5,52.5 C 2046.5,67.1667 2046.5,81.8333 2046.5,96.5C 2029.17,96.5 2011.83,96.5 1994.5,96.5C 2011.33,95.5034 2028.33,95.1701 2045.5,95.5C 2045.17,80.9903 2045.5,66.6569 2046.5,52.5 Z"/></g>
<g><path style="opacity:0.984" fill="#030302" d="M 49.5,157.5 C 87.1667,156.167 124.833,156.167 162.5,157.5C 161.761,157.369 161.094,157.536 160.5,158C 161.71,159.039 162.71,160.206 163.5,161.5C 163.5,194.5 163.5,227.5 163.5,260.5C 184.5,260.5 205.5,260.5 226.5,260.5C 226.5,227.833 226.5,195.167 226.5,162.5C 227.316,160.856 228.65,159.69 230.5,159C 258.336,158.832 286.003,158.332 313.5,157.5C 546.001,157.167 778.334,157.5 1010.5,158.5C 1010.06,158.435 1009.73,158.601 1009.5,159C 1010.58,159.956 1011.75,160.789 1013,161.5C 1013.5,213.499 1013.67,265.499 1013.5,317.5C 1037.99,318.498 1062.66,318.831 1087.5,318.5C 1087.5,302.167 1087.5,285.833 1087.5,269.5C 1080.17,269.5 1072.83,269.5 1065.5,269.5C 1062.83,268.833 1061.17,267.167 1060.5,264.5C 1060.33,230.832 1060.5,197.165 1061,163.5C 1062.04,162.756 1062.54,161.756 1062.5,160.5C 1064.11,159.994 1064.44,159.327 1063.5,158.5C 1306.67,157.5 1550,157.167 1793.5,157.5C 1800.67,158.15 1807.83,158.817 1815,159.5C 1815.5,197.165 1815.67,234.832 1815.5,272.5C 1834.17,272.333 1852.84,272.5 1871.5,273C 1872.42,273.374 1873.25,273.874 1874,274.5C 1874.82,305.875 1874.65,337.209 1873.5,368.5C 1872.83,368.833 1872.17,369.167 1871.5,369.5C 1852.83,369.5 1834.17,369.5 1815.5,369.5C 1815.5,396.167 1815.5,422.833 1815.5,449.5C 1585.96,449.504 1356.29,449.504 1126.5,449.5C 1126.5,472.167 1126.5,494.833 1126.5,517.5C 1126.5,555.833 1126.5,594.167 1126.5,632.5C 1214.53,632.174 1302.53,632.508 1390.5,633.5C 1391.12,634.627 1391.96,635.627 1393,636.5C 1393.67,744.5 1393.67,852.5 1393,960.5C 1391.91,962.078 1391.07,963.745 1390.5,965.5C 1212,966.5 1033.33,966.833 854.5,966.5C 854.509,964.692 854.009,963.025 853,961.5C 852.5,927.502 852.333,893.502 852.5,859.5C 827.167,859.5 801.833,859.5 776.5,859.5C 776.667,892.835 776.5,926.168 776,959.5C 775.252,961.751 773.752,963.084 771.5,963.5C 583.127,963.831 394.793,963.498 206.5,962.5C 205.442,961.4 204.608,960.066 204,958.5C 203.333,851.5 203.333,744.5 204,637.5C 205.045,636.627 205.878,635.627 206.5,634.5C 394.834,634.333 583.167,634.5 771.5,635C 772.942,635.377 773.942,636.21 774.5,637.5C 775.482,689.144 775.816,740.81 775.5,792.5C 801.339,792.831 827.005,792.498 852.5,791.5C 852.333,739.832 852.5,688.166 853,636.5C 853.708,635.619 854.542,634.953 855.5,634.5C 932.627,633.839 1009.63,633.172 1086.5,632.5C 1086.5,582.167 1086.5,531.833 1086.5,481.5C 1086.5,481.167 1086.5,480.833 1086.5,480.5C 1086.5,468.833 1086.5,457.167 1086.5,445.5C 1087.5,425.674 1087.83,405.674 1087.5,385.5C 1062.66,385.169 1037.99,385.502 1013.5,386.5C 1013.67,405.836 1013.5,425.17 1013,444.5C 1012.17,446.667 1010.67,448.167 1008.5,449C 748.833,449.667 489.167,449.667 229.5,449C 228.956,448.283 228.289,447.783 227.5,447.5C 226.515,415.21 226.181,382.877 226.5,350.5C 205.5,350.5 184.5,350.5 163.5,350.5C 163.5,382.167 163.5,413.833 163.5,445.5C 163.141,447.371 162.141,448.871 160.5,450C 124.5,450.667 88.5,450.667 52.5,450C 50.9512,448.786 49.7845,447.286 49,445.5C 48.5,413.835 48.3334,382.168 48.5,350.5C 36.4954,350.667 24.4954,350.5 12.5,350C 11.7476,349.329 11.4142,348.496 11.5,347.5C 11.1831,318.789 11.5164,290.123 12.5,261.5C 13.2891,261.217 13.9558,260.717 14.5,260C 25.8284,259.5 37.1618,259.333 48.5,259.5C 48.3334,226.498 48.5,193.498 49,160.5C 49.3742,159.584 49.8742,158.75 50.5,158C 50.2716,157.601 49.9382,157.435 49.5,157.5 Z"/></g>
<g><path style="opacity:0.999" fill="#feefb8" d="M 1990.5,115.5 C 1991,226.08 1991.84,336.747 1993,447.5C 1993.5,448 1994,448.5 1994.5,449C 2066.17,449.5 2137.83,449.667 2209.5,449.5C 2209.5,464.833 2209.5,480.167 2209.5,495.5C 2138.5,495.5 2067.5,495.5 1996.5,495.5C 1995.5,495.5 1994.5,495.5 1993.5,495.5C 1993.5,514.5 1993.5,533.5 1993.5,552.5C 1993.08,648.175 1993.58,743.841 1995,839.5C 1996.38,840.256 1996.55,840.922 1995.5,841.5C 1954.83,841.5 1914.17,841.5 1873.5,841.5C 1873.06,841.565 1872.73,841.399 1872.5,841C 1873.13,840.25 1873.63,839.416 1874,838.5C 1874.67,771.167 1874.67,703.833 1874,636.5C 1872.87,634.859 1871.37,633.859 1869.5,633.5C 1765.33,632.334 1661,632.167 1556.5,633C 1555.94,633.383 1555.61,633.883 1555.5,634.5C 1554.21,635.058 1553.38,636.058 1553,637.5C 1552.33,704.833 1552.33,772.167 1553,839.5C 1553.51,840.527 1554.01,841.527 1554.5,842.5C 1521.17,842.5 1487.83,842.5 1454.5,842.5C 1453.67,774.001 1453.17,705.335 1453,636.5C 1452.17,635.667 1451.33,634.833 1450.5,634C 1430.5,633.5 1410.5,633.333 1390.5,633.5C 1302.53,632.508 1214.53,632.174 1126.5,632.5C 1126.5,594.167 1126.5,555.833 1126.5,517.5C 1373.5,517.667 1620.5,517.5 1867.5,517C 1870,515.833 1871.83,514 1873,511.5C 1873.5,463.834 1873.67,416.168 1873.5,368.5C 1874.65,337.209 1874.82,305.875 1874,274.5C 1873.25,273.874 1872.42,273.374 1871.5,273C 1852.84,272.5 1834.17,272.333 1815.5,272.5C 1815.67,234.832 1815.5,197.165 1815,159.5C 1807.83,158.817 1800.67,158.15 1793.5,157.5C 1859,156.501 1924.66,156.168 1990.5,156.5C 1990.5,142.833 1990.5,129.167 1990.5,115.5 Z"/></g>
<g><path style="opacity:0.998" fill="#6cbf7b" d="M 49.5,157.5 C 49.9382,157.435 50.2716,157.601 50.5,158C 49.8742,158.75 49.3742,159.584 49,160.5C 48.5,193.498 48.3334,226.498 48.5,259.5C 37.1618,259.333 25.8284,259.5 14.5,260C 13.9558,260.717 13.2891,261.217 12.5,261.5C 11.8826,261.611 11.3826,261.944 11,262.5C 10.1696,291.003 10.3363,319.336 11.5,347.5C 11.4142,348.496 11.7476,349.329 12.5,350C 24.4954,350.5 36.4954,350.667 48.5,350.5C 48.3334,382.168 48.5,413.835 49,445.5C 49.7845,447.286 50.9512,448.786 52.5,450C 88.5,450.667 124.5,450.667 160.5,450C 162.141,448.871 163.141,447.371 163.5,445.5C 164.498,414.338 164.832,383.004 164.5,351.5C 184.833,351.5 205.167,351.5 225.5,351.5C 225.333,383.168 225.5,414.835 226,446.5C 226.383,447.056 226.883,447.389 227.5,447.5C 228.289,447.783 228.956,448.283 229.5,449C 489.167,449.667 748.833,449.667 1008.5,449C 1010.67,448.167 1012.17,446.667 1013,444.5C 1013.5,425.17 1013.67,405.836 1013.5,386.5C 1037.83,386.5 1062.17,386.5 1086.5,386.5C 1086.5,406.167 1086.5,425.833 1086.5,445.5C 1086.5,457.167 1086.5,468.833 1086.5,480.5C 1062.17,480.5 1037.83,480.5 1013.5,480.5C 1013.5,491.5 1013.5,502.5 1013.5,513.5C 1012.88,515.229 1011.88,516.729 1010.5,518C 751.167,518.667 491.833,518.667 232.5,518C 231.299,517.097 230.465,515.931 230,514.5C 229.5,504.839 229.334,495.172 229.5,485.5C 153.833,485.667 78.1659,485.5 2.5,485C 1.83663,483.482 0.836628,482.315 -0.5,481.5C -0.5,374.167 -0.5,266.833 -0.5,159.5C 0.28913,159.217 0.955796,158.717 1.5,158C 17.4965,157.5 33.4965,157.333 49.5,157.5 Z"/></g>
<g><path style="opacity:0.999" fill="#6cbf7b" d="M 162.5,157.5 C 212.833,157.5 263.167,157.5 313.5,157.5C 286.003,158.332 258.336,158.832 230.5,159C 228.65,159.69 227.316,160.856 226.5,162.5C 225.502,194.662 225.168,226.996 225.5,259.5C 205.167,259.5 184.833,259.5 164.5,259.5C 164.832,226.662 164.498,193.996 163.5,161.5C 162.71,160.206 161.71,159.039 160.5,158C 161.094,157.536 161.761,157.369 162.5,157.5 Z"/></g>
<g><path style="opacity:0.999" fill="#6cc07b" d="M 1010.5,158.5 C 1028.17,158.5 1045.83,158.5 1063.5,158.5C 1064.44,159.327 1064.11,159.994 1062.5,160.5C 1061.54,160.953 1060.71,161.619 1060,162.5C 1059.17,196.669 1059.34,230.669 1060.5,264.5C 1061.17,267.167 1062.83,268.833 1065.5,269.5C 1072.31,270.491 1079.31,270.825 1086.5,270.5C 1086.5,286.167 1086.5,301.833 1086.5,317.5C 1062.17,317.5 1037.83,317.5 1013.5,317.5C 1013.67,265.499 1013.5,213.499 1013,161.5C 1011.75,160.789 1010.58,159.956 1009.5,159C 1009.73,158.601 1010.06,158.435 1010.5,158.5 Z"/></g>
<g><path style="opacity:1" fill="#396541" d="M 1062.5,160.5 C 1062.54,161.756 1062.04,162.756 1061,163.5C 1060.5,197.165 1060.33,230.832 1060.5,264.5C 1059.34,230.669 1059.17,196.669 1060,162.5C 1060.71,161.619 1061.54,160.953 1062.5,160.5 Z"/></g>
<g><path style="opacity:1" fill="#b4b4b4" d="M 235.5,266.5 C 236.498,234.004 236.832,201.338 236.5,168.5C 492.167,168.5 747.833,168.5 1003.5,168.5C 1003.5,258.833 1003.5,349.167 1003.5,439.5C 747.833,439.5 492.167,439.5 236.5,439.5C 236.832,407.329 236.498,375.329 235.5,343.5C 234.488,341.124 232.655,340.124 230,340.5C 204.85,341.467 179.684,341.801 154.5,341.5C 154.5,374.833 154.5,408.167 154.5,441.5C 122.167,441.5 89.8333,441.5 57.5,441.5C 57.6666,408.498 57.5,375.498 57,342.5C 44.9136,341.512 32.747,341.178 20.5,341.5C 20.5,317.5 20.5,293.5 20.5,269.5C 32.1714,269.667 43.8381,269.5 55.5,269C 56,268.5 56.5,268 57,267.5C 57.5,233.835 57.6667,200.168 57.5,166.5C 89.8333,166.5 122.167,166.5 154.5,166.5C 154.333,200.168 154.5,233.835 155,267.5C 155.5,268 156,268.5 156.5,269C 182.5,269.667 208.5,269.667 234.5,269C 235.252,268.329 235.586,267.496 235.5,266.5 Z"/></g>
<g><path style="opacity:1" fill="#836938" d="M 1003.5,168.5 C 747.833,168.5 492.167,168.5 236.5,168.5C 236.832,201.338 236.498,234.004 235.5,266.5C 235.5,233.5 235.5,200.5 235.5,167.5C 491.667,167.167 747.667,167.5 1003.5,168.5 Z"/></g>
<g><path style="opacity:1" fill="#835a38" d="M 1096.5,168.5 C 1333,167.5 1569.67,167.167 1806.5,167.5C 1806.5,205.833 1806.5,244.167 1806.5,282.5C 1805.5,244.67 1805.17,206.67 1805.5,168.5C 1569.17,168.5 1332.83,168.5 1096.5,168.5 Z"/></g>
<g><path style="opacity:1" fill="#b4b4b4" d="M 1087.5,168.5 C 1090.5,168.5 1093.5,168.5 1096.5,168.5C 1332.83,168.5 1569.17,168.5 1805.5,168.5C 1805.17,206.67 1805.5,244.67 1806.5,282.5C 1825.83,282.5 1845.17,282.5 1864.5,282.5C 1864.5,308.5 1864.5,334.5 1864.5,360.5C 1845.83,360.333 1827.16,360.5 1808.5,361C 1807.18,361.816 1806.51,362.983 1806.5,364.5C 1805.5,389.328 1805.17,414.328 1805.5,439.5C 1569.5,439.5 1333.5,439.5 1097.5,439.5C 1097.83,380.331 1097.5,321.331 1096.5,262.5C 1095.01,260.72 1093.01,260.054 1090.5,260.5C 1084.02,259.509 1077.35,259.176 1070.5,259.5C 1070.5,229.167 1070.5,198.833 1070.5,168.5C 1076.17,168.5 1081.83,168.5 1087.5,168.5 Z"/></g>
<g><path style="opacity:1" fill="#8e613d" d="M 1087.5,168.5 C 1081.83,168.5 1076.17,168.5 1070.5,168.5C 1070.5,198.833 1070.5,229.167 1070.5,259.5C 1077.35,259.176 1084.02,259.509 1090.5,260.5C 1083.5,260.5 1076.5,260.5 1069.5,260.5C 1069.5,229.5 1069.5,198.5 1069.5,167.5C 1075.69,167.177 1081.69,167.51 1087.5,168.5 Z"/></g>
<g><path style="opacity:1" fill="#2c4d32" d="M 163.5,161.5 C 164.498,193.996 164.832,226.662 164.5,259.5C 184.833,259.5 205.167,259.5 225.5,259.5C 225.168,226.996 225.502,194.662 226.5,162.5C 226.5,195.167 226.5,227.833 226.5,260.5C 205.5,260.5 184.5,260.5 163.5,260.5C 163.5,227.5 163.5,194.5 163.5,161.5 Z"/></g>
<g><path style="opacity:1" fill="#101c12" d="M 12.5,261.5 C 11.5164,290.123 11.1831,318.789 11.5,347.5C 10.3363,319.336 10.1696,291.003 11,262.5C 11.3826,261.944 11.8826,261.611 12.5,261.5 Z"/></g>
<g><path style="opacity:1" fill="#100e0c" d="M 3094.5,78.5 C 3095.83,78.5 3097.17,78.5 3098.5,78.5C 3098.83,232.668 3098.5,386.668 3097.5,540.5C 3097.5,386.833 3097.5,233.167 3097.5,79.5C 3096.21,79.7373 3095.21,79.404 3094.5,78.5 Z"/></g>
<g><path style="opacity:0.956" fill="#396541" d="M 1065.5,269.5 C 1072.83,269.5 1080.17,269.5 1087.5,269.5C 1087.5,285.833 1087.5,302.167 1087.5,318.5C 1062.66,318.831 1037.99,318.498 1013.5,317.5C 1037.83,317.5 1062.17,317.5 1086.5,317.5C 1086.5,301.833 1086.5,286.167 1086.5,270.5C 1079.31,270.825 1072.31,270.491 1065.5,269.5 Z"/></g>
<g><path style="opacity:1" fill="#888062" d="M 1013.5,328.5 C 1037.99,327.502 1062.66,327.169 1087.5,327.5C 1087.5,343.833 1087.5,360.167 1087.5,376.5C 1062.66,376.831 1037.99,376.498 1013.5,375.5C 1037.83,375.5 1062.17,375.5 1086.5,375.5C 1086.5,359.833 1086.5,344.167 1086.5,328.5C 1062.17,328.5 1037.83,328.5 1013.5,328.5 Z"/></g>
<g><path style="opacity:1" fill="#fef0b8" d="M 1013.5,328.5 C 1037.83,328.5 1062.17,328.5 1086.5,328.5C 1086.5,344.167 1086.5,359.833 1086.5,375.5C 1062.17,375.5 1037.83,375.5 1013.5,375.5C 1013.5,359.833 1013.5,344.167 1013.5,328.5 Z"/></g>
<g><path style="opacity:1" fill="#3b6943" d="M 227.5,447.5 C 226.883,447.389 226.383,447.056 226,446.5C 225.5,414.835 225.333,383.168 225.5,351.5C 205.167,351.5 184.833,351.5 164.5,351.5C 164.832,383.004 164.498,414.338 163.5,445.5C 163.5,413.833 163.5,382.167 163.5,350.5C 184.5,350.5 205.5,350.5 226.5,350.5C 226.181,382.877 226.515,415.21 227.5,447.5 Z"/></g>
<g><path style="opacity:1" fill="#6cbf7b" d="M 1873.5,368.5 C 1873.67,416.168 1873.5,463.834 1873,511.5C 1871.83,514 1870,515.833 1867.5,517C 1620.5,517.5 1373.5,517.667 1126.5,517.5C 1126.5,494.833 1126.5,472.167 1126.5,449.5C 1356.29,449.504 1585.96,449.504 1815.5,449.5C 1816.5,423.339 1816.83,397.005 1816.5,370.5C 1835.01,370.83 1853.34,370.497 1871.5,369.5C 1872.17,369.167 1872.83,368.833 1873.5,368.5 Z"/></g>
<g><path style="opacity:1" fill="#386440" d="M 1013.5,386.5 C 1037.99,385.502 1062.66,385.169 1087.5,385.5C 1087.83,405.674 1087.5,425.674 1086.5,445.5C 1086.5,425.833 1086.5,406.167 1086.5,386.5C 1062.17,386.5 1037.83,386.5 1013.5,386.5 Z"/></g>
<g><path style="opacity:1" fill="#3c6b44" d="M 1871.5,369.5 C 1853.34,370.497 1835.01,370.83 1816.5,370.5C 1816.83,397.005 1816.5,423.339 1815.5,449.5C 1815.5,422.833 1815.5,396.167 1815.5,369.5C 1834.17,369.5 1852.83,369.5 1871.5,369.5 Z"/></g>
<g><path style="opacity:1" fill="#8d713c" d="M 235.5,343.5 C 236.498,375.329 236.832,407.329 236.5,439.5C 492.167,439.5 747.833,439.5 1003.5,439.5C 747.667,440.5 491.667,440.833 235.5,440.5C 235.5,408.167 235.5,375.833 235.5,343.5 Z"/></g>
<g><path style="opacity:1" fill="#8d603c" d="M 1096.5,262.5 C 1097.5,321.331 1097.83,380.331 1097.5,439.5C 1333.5,439.5 1569.5,439.5 1805.5,439.5C 1805.17,414.328 1805.5,389.328 1806.5,364.5C 1806.5,389.833 1806.5,415.167 1806.5,440.5C 1569.83,440.5 1333.17,440.5 1096.5,440.5C 1096.5,381.167 1096.5,321.833 1096.5,262.5 Z"/></g>
<g><path style="opacity:1" fill="#917240" d="M 2053.5,105.5 C 2036.34,106.497 2019.01,106.83 2001.5,106.5C 2001.5,217.5 2001.5,328.5 2001.5,439.5C 2070.5,439.5 2139.5,439.5 2208.5,439.5C 2208.17,361.998 2208.5,284.665 2209.5,207.5C 2209.5,285.167 2209.5,362.833 2209.5,440.5C 2139.83,440.5 2070.17,440.5 2000.5,440.5C 2000.5,328.833 2000.5,217.167 2000.5,105.5C 2018.17,105.5 2035.83,105.5 2053.5,105.5 Z"/></g>
<g><path style="opacity:1" fill="#fef0b8" d="M 1116.5,450.5 C 1116.5,511.167 1116.5,571.833 1116.5,632.5C 1109.83,632.5 1103.17,632.5 1096.5,632.5C 1096.5,571.833 1096.5,511.167 1096.5,450.5C 1103.17,450.5 1109.83,450.5 1116.5,450.5 Z"/></g>
<g><path style="opacity:1" fill="#423e2f" d="M 1116.5,450.5 C 1109.83,450.5 1103.17,450.5 1096.5,450.5C 1096.5,511.167 1096.5,571.833 1096.5,632.5C 1095.5,571.669 1095.17,510.669 1095.5,449.5C 1102.69,449.175 1109.69,449.509 1116.5,450.5 Z"/></g>
<g><path style="opacity:1" fill="#bbda9d" d="M 1086.5,480.5 C 1086.5,480.833 1086.5,481.167 1086.5,481.5C 1062.5,481.5 1038.5,481.5 1014.5,481.5C 1014.83,492.346 1014.49,503.013 1013.5,513.5C 1013.5,502.5 1013.5,491.5 1013.5,480.5C 1037.83,480.5 1062.17,480.5 1086.5,480.5 Z"/></g>
<g><path style="opacity:0.999" fill="#feefb8" d="M -0.5,481.5 C 0.836628,482.315 1.83663,483.482 2.5,485C 78.1659,485.5 153.833,485.667 229.5,485.5C 229.334,495.172 229.5,504.839 230,514.5C 230.465,515.931 231.299,517.097 232.5,518C 491.833,518.667 751.167,518.667 1010.5,518C 1011.88,516.729 1012.88,515.229 1013.5,513.5C 1014.49,503.013 1014.83,492.346 1014.5,481.5C 1038.5,481.5 1062.5,481.5 1086.5,481.5C 1086.5,531.833 1086.5,582.167 1086.5,632.5C 1009.83,632.5 933.167,632.5 856.5,632.5C 848.16,632.334 839.827,632.5 831.5,633C 830.667,633.833 829.833,634.667 829,635.5C 828.5,687.499 828.333,739.499 828.5,791.5C 811.167,791.5 793.833,791.5 776.5,791.5C 776.667,740.832 776.5,690.166 776,639.5C 775.722,638.584 775.222,637.918 774.5,637.5C 773.942,636.21 772.942,635.377 771.5,635C 583.167,634.5 394.834,634.333 206.5,634.5C 181.164,634.333 155.831,634.5 130.5,635C 129.122,636.334 127.789,636.501 126.5,635.5C 84.5,635.5 42.5,635.5 0.5,635.5C 0.737305,634.209 0.403972,633.209 -0.5,632.5C -0.5,582.167 -0.5,531.833 -0.5,481.5 Z"/></g>
<g><path style="opacity:1" fill="#857d60" d="M 1996.5,495.5 C 1994.86,514.44 1993.86,533.44 1993.5,552.5C 1993.5,533.5 1993.5,514.5 1993.5,495.5C 1994.5,495.5 1995.5,495.5 1996.5,495.5 Z"/></g>
<g><path style="opacity:1" fill="#feaf6e" d="M 2004.5,505.5 C 2072.83,505.5 2141.17,505.5 2209.5,505.5C 2209.5,614.5 2209.5,723.5 2209.5,832.5C 2141.17,832.5 2072.83,832.5 2004.5,832.5C 2004.5,723.5 2004.5,614.5 2004.5,505.5 Z"/></g>
<g><path style="opacity:1" fill="#2c2b23" d="M 856.5,632.5 C 933.167,632.5 1009.83,632.5 1086.5,632.5C 1009.63,633.172 932.627,633.839 855.5,634.5C 855.833,633.833 856.167,633.167 856.5,632.5 Z"/></g>
<g><path style="opacity:1" fill="#968d6d" d="M 1869.5,633.5 C 1764.79,633.171 1660.13,633.504 1555.5,634.5C 1555.61,633.883 1555.94,633.383 1556.5,633C 1661,632.167 1765.33,632.334 1869.5,633.5 Z"/></g>
<g><path style="opacity:1" fill="#6dc17c" d="M 856.5,632.5 C 856.167,633.167 855.833,633.833 855.5,634.5C 854.542,634.953 853.708,635.619 853,636.5C 852.5,688.166 852.333,739.832 852.5,791.5C 844.5,791.5 836.5,791.5 828.5,791.5C 828.333,739.499 828.5,687.499 829,635.5C 829.833,634.667 830.667,633.833 831.5,633C 839.827,632.5 848.16,632.334 856.5,632.5 Z"/></g>
<g><path style="opacity:0.995" fill="#6dc07c" d="M 1390.5,633.5 C 1410.5,633.333 1430.5,633.5 1450.5,634C 1451.33,634.833 1452.17,635.667 1453,636.5C 1453.17,705.335 1453.67,774.001 1454.5,842.5C 1454.67,882.835 1454.5,923.168 1454,963.5C 1453.5,964 1453,964.5 1452.5,965C 1431.84,965.5 1411.17,965.667 1390.5,965.5C 1391.07,963.745 1391.91,962.078 1393,960.5C 1393.67,852.5 1393.67,744.5 1393,636.5C 1391.96,635.627 1391.12,634.627 1390.5,633.5 Z"/></g>
<g><path style="opacity:0.978" fill="#010101" d="M 1869.5,633.5 C 1871.37,633.859 1872.87,634.859 1874,636.5C 1874.67,703.833 1874.67,771.167 1874,838.5C 1873.63,839.416 1873.13,840.25 1872.5,841C 1872.73,841.399 1873.06,841.565 1873.5,841.5C 1873.39,842.117 1873.06,842.617 1872.5,843C 1766.33,843.833 1660.33,843.666 1554.5,842.5C 1554.01,841.527 1553.51,840.527 1553,839.5C 1552.33,772.167 1552.33,704.833 1553,637.5C 1553.38,636.058 1554.21,635.058 1555.5,634.5C 1660.13,633.504 1764.79,633.171 1869.5,633.5 Z"/></g>
<g><path style="opacity:0.994" fill="#6cc07b" d="M 206.5,634.5 C 205.878,635.627 205.045,636.627 204,637.5C 203.333,744.5 203.333,851.5 204,958.5C 204.608,960.066 205.442,961.4 206.5,962.5C 206.611,963.117 206.944,963.617 207.5,964C 395.667,964.833 583.667,964.666 771.5,963.5C 773.752,963.084 775.252,961.751 776,959.5C 776.5,926.168 776.667,892.835 776.5,859.5C 801.833,859.5 827.167,859.5 852.5,859.5C 852.333,893.502 852.5,927.502 853,961.5C 854.009,963.025 854.509,964.692 854.5,966.5C 854.667,985.503 854.5,1004.5 854,1023.5C 852.968,1025.03 851.801,1026.36 850.5,1027.5C 610.833,1027.5 371.167,1027.5 131.5,1027.5C 129.845,1025.34 128.011,1023.34 126,1021.5C 125.169,892.764 125.335,764.097 126.5,635.5C 127.789,636.501 129.122,636.334 130.5,635C 155.831,634.5 181.164,634.333 206.5,634.5 Z"/></g>
<g><path style="opacity:1" fill="#454735" d="M 774.5,637.5 C 775.222,637.918 775.722,638.584 776,639.5C 776.5,690.166 776.667,740.832 776.5,791.5C 793.833,791.5 811.167,791.5 828.5,791.5C 836.5,791.5 844.5,791.5 852.5,791.5C 827.005,792.498 801.339,792.831 775.5,792.5C 775.816,740.81 775.482,689.144 774.5,637.5 Z"/></g>
<g><path style="opacity:1" fill="#b4b4b4" d="M 862.5,642.5 C 1036.17,642.5 1209.83,642.5 1383.5,642.5C 1383.5,747.167 1383.5,851.833 1383.5,956.5C 1209.83,956.5 1036.17,956.5 862.5,956.5C 862.5,851.833 862.5,747.167 862.5,642.5 Z"/></g>
<g><path style="opacity:1" fill="#805837" d="M 1561.5,643.5 C 1662.67,642.501 1764,642.167 1865.5,642.5C 1865.83,706.336 1865.5,770.002 1864.5,833.5C 1864.5,833.167 1864.5,832.833 1864.5,832.5C 1864.5,769.5 1864.5,706.5 1864.5,643.5C 1763.83,643.5 1663.17,643.5 1562.5,643.5C 1562.17,643.5 1561.83,643.5 1561.5,643.5 Z"/></g>
<g><path style="opacity:1" fill="#b4b5b4" d="M 1562.5,643.5 C 1663.17,643.5 1763.83,643.5 1864.5,643.5C 1864.5,706.5 1864.5,769.5 1864.5,832.5C 1763.83,832.5 1663.17,832.5 1562.5,832.5C 1562.5,769.5 1562.5,706.5 1562.5,643.5 Z"/></g>
<g><path style="opacity:1" fill="#b4b4b4" d="M 213.5,643.5 C 397.833,643.5 582.167,643.5 766.5,643.5C 766.5,747.167 766.5,850.833 766.5,954.5C 582.167,954.5 397.833,954.5 213.5,954.5C 213.5,850.833 213.5,747.167 213.5,643.5 Z"/></g>
<g><path style="opacity:1" fill="#faebb5" d="M 776.5,801.5 C 801.833,801.5 827.167,801.5 852.5,801.5C 852.5,817.833 852.5,834.167 852.5,850.5C 827.167,850.5 801.833,850.5 776.5,850.5C 776.5,834.167 776.5,817.833 776.5,801.5 Z"/></g>
<g><path style="opacity:1" fill="#956640" d="M 1561.5,643.5 C 1561.83,643.5 1562.17,643.5 1562.5,643.5C 1562.5,706.5 1562.5,769.5 1562.5,832.5C 1663.17,832.5 1763.83,832.5 1864.5,832.5C 1864.5,832.833 1864.5,833.167 1864.5,833.5C 1763.5,833.5 1662.5,833.5 1561.5,833.5C 1561.5,770.167 1561.5,706.833 1561.5,643.5 Z"/></g>
<g><path style="opacity:1" fill="#111e13" d="M 206.5,962.5 C 394.793,963.498 583.127,963.831 771.5,963.5C 583.667,964.666 395.667,964.833 207.5,964C 206.944,963.617 206.611,963.117 206.5,962.5 Z"/></g>
</svg>
