<?xml version="1.0" encoding="UTF-8"?>
<!DOCTYPE svg PUBLIC "-//W3C//DTD SVG 1.1//EN" "http://www.w3.org/Graphics/SVG/1.1/DTD/svg11.dtd">
<svg xmlns="http://www.w3.org/2000/svg" version="1.1" width="1450px" height="1150px" style="shape-rendering:geometricPrecision; text-rendering:geometricPrecision; image-rendering:optimizeQuality; fill-rule:evenodd; clip-rule:evenodd" xmlns:xlink="http://www.w3.org/1999/xlink">
<g><path style="opacity:0.999" fill="#000000" d="M 951.5,13.5 C 1112.5,13.3333 1273.5,13.5 1434.5,14C 1436.71,15.8734 1438.54,18.04 1440,20.5C 1440.67,96.8333 1440.67,173.167 1440,249.5C 1435.92,255.063 1430.42,257.063 1423.5,255.5C 1423.67,546.167 1423.5,836.834 1423,1127.5C 1420.83,1129.67 1418.67,1131.83 1416.5,1134C 951.167,1134.67 485.833,1134.67 20.5,1134C 18.3333,1131.83 16.1667,1129.67 14,1127.5C 13.3333,764.833 13.3333,402.167 14,39.5C 15.8734,37.2911 18.04,35.4578 20.5,34C 328.833,33.5 637.166,33.3333 945.5,33.5C 945.334,28.8215 945.501,24.1548 946,19.5C 948.04,17.6298 949.873,15.6298 951.5,13.5 Z"/></g>
<g><path style="opacity:1" fill="#5c4b83" d="M 963.5,31.5 C 1116.4,31.1675 1269.24,31.5009 1422,32.5C 1422.67,100.833 1422.67,169.167 1422,237.5C 1416.67,238.167 1411.33,238.833 1406,239.5C 1405.5,531.833 1405.33,824.166 1405.5,1116.5C 1329.5,1116.5 1253.5,1116.5 1177.5,1116.5C 1177.67,974.166 1177.5,831.833 1177,689.5C 1176.07,686.898 1174.23,685.398 1171.5,685C 1133.17,684.5 1094.83,684.333 1056.5,684.5C 1055.51,828.479 1055.17,972.479 1055.5,1116.5C 762.5,1116.5 469.5,1116.5 176.5,1116.5C 176.667,973.166 176.5,829.833 176,686.5C 175.5,686 175,685.5 174.5,685C 126.834,684.5 79.1678,684.333 31.5,684.5C 31.5,473.5 31.5,262.5 31.5,51.5C 341.5,51.6667 651.5,51.5 961.5,51C 962.185,44.5012 962.852,38.0012 963.5,31.5 Z"/></g>
<g><path style="opacity:1" fill="#8a8de7" d="M 33.5,693.5 C 78.1679,693.333 122.835,693.5 167.5,694C 168.646,701.086 168.812,708.253 168,715.5C 123.238,716.663 78.4042,716.83 33.5,716C 32.1825,708.5 32.1825,701 33.5,693.5 Z"/></g>
<g><path style="opacity:1" fill="#8a8de7" d="M 1065.5,693.5 C 1099.5,693.333 1133.5,693.5 1167.5,694C 1168.65,701.086 1168.81,708.253 1168,715.5C 1133.9,716.662 1099.74,716.829 1065.5,716C 1064.18,708.5 1064.18,701 1065.5,693.5 Z"/></g>
<g><path style="opacity:1" fill="#8a8de7" d="M 33.5,725.5 C 78.1679,725.333 122.835,725.5 167.5,726C 168.648,734.088 168.815,742.254 168,750.5C 123.238,751.663 78.4042,751.83 33.5,751C 32.1805,742.5 32.1805,734 33.5,725.5 Z"/></g>
<g><path style="opacity:1" fill="#8a8de7" d="M 1065.5,725.5 C 1099.5,725.333 1133.5,725.5 1167.5,726C 1168.65,734.088 1168.81,742.254 1168,750.5C 1133.9,751.662 1099.74,751.829 1065.5,751C 1064.18,742.5 1064.18,734 1065.5,725.5 Z"/></g>
<g><path style="opacity:1" fill="#8a8de7" d="M 33.5,759.5 C 78.1679,759.333 122.835,759.5 167.5,760C 168.65,768.755 168.816,777.588 168,786.5C 123.238,787.663 78.4042,787.83 33.5,787C 32.1795,777.833 32.1795,768.667 33.5,759.5 Z"/></g>
<g><path style="opacity:1" fill="#8a8de7" d="M 1065.5,759.5 C 1099.5,759.333 1133.5,759.5 1167.5,760C 1168.65,768.755 1168.82,777.588 1168,786.5C 1133.9,787.662 1099.74,787.829 1065.5,787C 1064.18,777.833 1064.18,768.667 1065.5,759.5 Z"/></g>
<g><path style="opacity:1" fill="#8a8de7" d="M 33.5,796.5 C 78.1679,796.333 122.835,796.5 167.5,797C 168.652,807.09 168.819,817.256 168,827.5C 123.238,828.663 78.4042,828.83 33.5,828C 32.1778,817.5 32.1778,807 33.5,796.5 Z"/></g>
<g><path style="opacity:1" fill="#8a8de7" d="M 1065.5,796.5 C 1099.5,796.333 1133.5,796.5 1167.5,797C 1168.65,807.09 1168.82,817.256 1168,827.5C 1133.9,828.662 1099.74,828.829 1065.5,828C 1064.18,817.5 1064.18,807 1065.5,796.5 Z"/></g>
<g><path style="opacity:1" fill="#8a8de7" d="M 33.5,836.5 C 78.1679,836.333 122.835,836.5 167.5,837C 168.652,847.423 168.819,857.923 168,868.5C 123.238,869.663 78.4042,869.83 33.5,869C 32.1774,858.167 32.1774,847.333 33.5,836.5 Z"/></g>
<g><path style="opacity:1" fill="#8a8de7" d="M 1065.5,836.5 C 1099.5,836.333 1133.5,836.5 1167.5,837C 1168.65,847.423 1168.82,857.923 1168,868.5C 1133.9,869.662 1099.74,869.829 1065.5,869C 1064.18,858.167 1064.18,847.333 1065.5,836.5 Z"/></g>
<g><path style="opacity:1" fill="#8a8de7" d="M 33.5,878.5 C 78.1679,878.333 122.835,878.5 167.5,879C 168.65,888.089 168.817,897.255 168,906.5C 123.238,907.663 78.4042,907.83 33.5,907C 32.179,897.5 32.179,888 33.5,878.5 Z"/></g>
<g><path style="opacity:1" fill="#8a8de7" d="M 1065.5,878.5 C 1099.5,878.333 1133.5,878.5 1167.5,879C 1168.65,888.089 1168.82,897.255 1168,906.5C 1133.9,907.662 1099.74,907.829 1065.5,907C 1064.18,897.5 1064.18,888 1065.5,878.5 Z"/></g>
<g><path style="opacity:1" fill="#898ce6" d="M 33.5,916.5 C 78.1679,916.333 122.835,916.5 167.5,917C 168.647,924.754 168.814,932.587 168,940.5C 123.238,941.663 78.4042,941.83 33.5,941C 32.1811,932.833 32.1811,924.667 33.5,916.5 Z"/></g>
<g><path style="opacity:1" fill="#8a8de7" d="M 1065.5,916.5 C 1099.5,916.333 1133.5,916.5 1167.5,917C 1168.65,924.754 1168.81,932.587 1168,940.5C 1133.9,941.662 1099.74,941.829 1065.5,941C 1064.18,932.833 1064.18,924.667 1065.5,916.5 Z"/></g>
<g><path style="opacity:1" fill="#878ae2" d="M 33.5,949.5 C 78.1679,949.333 122.835,949.5 167.5,950C 168.651,959.756 168.818,969.589 168,979.5C 123.238,980.663 78.4042,980.83 33.5,980C 32.1782,969.833 32.1782,959.667 33.5,949.5 Z"/></g>
<g><path style="opacity:1" fill="#8a8de7" d="M 1065.5,949.5 C 1099.5,949.333 1133.5,949.5 1167.5,950C 1168.65,959.756 1168.82,969.589 1168,979.5C 1133.9,980.662 1099.74,980.829 1065.5,980C 1064.18,969.833 1064.18,959.667 1065.5,949.5 Z"/></g>
<g><path style="opacity:1" fill="#888be3" d="M 33.5,988.5 C 78.1679,988.333 122.835,988.5 167.5,989C 168.647,996.42 168.813,1003.92 168,1011.5C 123.238,1012.66 78.4042,1012.83 33.5,1012C 32.1818,1004.17 32.1818,996.334 33.5,988.5 Z"/></g>
<g><path style="opacity:1" fill="#8a8de7" d="M 1065.5,988.5 C 1099.5,988.333 1133.5,988.5 1167.5,989C 1168.65,996.42 1168.81,1003.92 1168,1011.5C 1133.9,1012.66 1099.74,1012.83 1065.5,1012C 1064.18,1004.17 1064.18,996.334 1065.5,988.5 Z"/></g>
<g><path style="opacity:1" fill="#8a8de7" d="M 1065.5,1020.5 C 1099.5,1020.33 1133.5,1020.5 1167.5,1021C 1168.64,1027.42 1168.81,1033.92 1168,1040.5C 1133.9,1041.66 1099.74,1041.83 1065.5,1041C 1064.18,1034.17 1064.18,1027.33 1065.5,1020.5 Z"/></g>
<g><path style="opacity:1" fill="#888ae2" d="M 33.5,1020.5 C 78.1679,1020.33 122.835,1020.5 167.5,1021C 168.643,1027.42 168.81,1033.92 168,1040.5C 123.238,1041.66 78.4042,1041.83 33.5,1041C 32.1842,1034.17 32.1842,1027.33 33.5,1020.5 Z"/></g>
<g><path style="opacity:1" fill="#888be3" d="M 33.5,1050.5 C 78.1679,1050.33 122.835,1050.5 167.5,1051C 168.649,1059.42 168.816,1067.92 168,1076.5C 123.238,1077.66 78.4042,1077.83 33.5,1077C 32.18,1068.17 32.18,1059.33 33.5,1050.5 Z"/></g>
<g><path style="opacity:1" fill="#8a8de7" d="M 1065.5,1050.5 C 1099.5,1050.33 1133.5,1050.5 1167.5,1051C 1168.65,1059.42 1168.82,1067.92 1168,1076.5C 1133.9,1077.66 1099.74,1077.83 1065.5,1077C 1064.18,1068.17 1064.18,1059.33 1065.5,1050.5 Z"/></g>
<g><path style="opacity:1" fill="#8a8de7" d="M 1065.5,1085.5 C 1099.5,1085.33 1133.5,1085.5 1167.5,1086C 1168.65,1095.42 1168.82,1104.92 1168,1114.5C 1133.9,1115.66 1099.74,1115.83 1065.5,1115C 1064.18,1105.17 1064.18,1095.33 1065.5,1085.5 Z"/></g>
<g><path style="opacity:1" fill="#878ae1" d="M 33.5,1085.5 C 78.1679,1085.33 122.835,1085.5 167.5,1086C 168.651,1095.76 168.818,1105.59 168,1115.5C 123.238,1116.66 78.4042,1116.83 33.5,1116C 32.1782,1105.83 32.1782,1095.67 33.5,1085.5 Z"/></g>
</svg>
