<?xml version="1.0" encoding="UTF-8"?>
<!DOCTYPE svg PUBLIC "-//W3C//DTD SVG 1.1//EN" "http://www.w3.org/Graphics/SVG/1.1/DTD/svg11.dtd">
<svg xmlns="http://www.w3.org/2000/svg" version="1.1" width="1450px" height="1150px"
    style="shape-rendering:geometricPrecision; text-rendering:geometricPrecision; image-rendering:optimizeQuality; fill-rule:evenodd; clip-rule:evenodd"
    xmlns:xlink="http://www.w3.org/1999/xlink">
    <g>
        <path style="opacity:0.999" fill="#020101"
            d="M 951.5,13.5 C 1112.5,13.3333 1273.5,13.5 1434.5,14C 1436.71,15.8734 1438.54,18.04 1440,20.5C 1440.67,96.8333 1440.67,173.167 1440,249.5C 1435.92,255.063 1430.42,257.063 1423.5,255.5C 1423.67,522.5 1423.5,789.5 1423,1056.5C 1420.73,1059.8 1417.56,1061.3 1413.5,1061C 1337.83,1061.5 1262.17,1061.67 1186.5,1061.5C 1186.67,1084.17 1186.5,1106.84 1186,1129.5C 1184.5,1131 1183,1132.5 1181.5,1134C 794.5,1134.67 407.5,1134.67 20.5,1134C 18.3333,1131.83 16.1667,1129.67 14,1127.5C 13.3333,764.833 13.3333,402.167 14,39.5C 15.8734,37.2911 18.04,35.4578 20.5,34C 328.833,33.5 637.166,33.3333 945.5,33.5C 945.334,28.8215 945.501,24.1548 946,19.5C 948.04,17.6298 949.873,15.6298 951.5,13.5 Z" />
    </g>
    <g>
        <path style="opacity:1" fill="#685b49"
            d="M 963.5,32.5 C 1116.33,31.5004 1269.33,31.167 1422.5,31.5C 1422.83,100.335 1422.5,169.002 1421.5,237.5C 1421.5,169.167 1421.5,100.833 1421.5,32.5C 1268.83,32.5 1116.17,32.5 963.5,32.5 Z" />
    </g>
    <g>
        <path style="opacity:1" fill="#c7af8b"
            d="M 963.5,32.5 C 1116.17,32.5 1268.83,32.5 1421.5,32.5C 1421.5,100.833 1421.5,169.167 1421.5,237.5C 1268.83,237.5 1116.17,237.5 963.5,237.5C 963.5,169.167 963.5,100.833 963.5,32.5 Z" />
    </g>
    <g>
        <path style="opacity:1" fill="#fef0b8"
            d="M 167.5,52.5 C 167.5,262.833 167.5,473.167 167.5,683.5C 122.5,683.5 77.5,683.5 32.5,683.5C 32.5,473.167 32.5,262.833 32.5,52.5C 77.5,52.5 122.5,52.5 167.5,52.5 Z" />
    </g>
    <g>
        <path style="opacity:1" fill="#fecc6d"
            d="M 177.5,51.5 C 436.167,51.5 694.833,51.5 953.5,51.5C 954.477,406.5 954.477,761.5 953.5,1116.5C 694.833,1116.5 436.167,1116.5 177.5,1116.5C 177.5,761.5 177.5,406.5 177.5,51.5 Z" />
    </g>
    <g>
        <path style="opacity:1" fill="#8a8264"
            d="M 167.5,52.5 C 122.5,52.5 77.5,52.5 32.5,52.5C 32.5,262.833 32.5,473.167 32.5,683.5C 77.5,683.5 122.5,683.5 167.5,683.5C 122.336,684.499 77.0031,684.832 31.5,684.5C 31.5,473.5 31.5,262.5 31.5,51.5C 77.0031,51.1679 122.336,51.5012 167.5,52.5 Z" />
    </g>
    <g>
        <path style="opacity:1" fill="#fef0b8"
            d="M 964.5,247.5 C 1032.17,247.5 1099.83,247.5 1167.5,247.5C 1167.5,392.833 1167.5,538.167 1167.5,683.5C 1099.83,683.5 1032.17,683.5 964.5,683.5C 964.5,538.167 964.5,392.833 964.5,247.5 Z" />
    </g>
    <g>
        <path style="opacity:1" fill="#fefefe"
            d="M 1404.5,247.5 C 1404.5,512.5 1404.5,777.5 1404.5,1042.5C 1329.17,1042.5 1253.83,1042.5 1178.5,1042.5C 1178.83,924.332 1178.5,806.332 1177.5,688.5C 1177.5,541.5 1177.5,394.5 1177.5,247.5C 1253.17,247.5 1328.83,247.5 1404.5,247.5 Z" />
    </g>
    <g>
        <path style="opacity:1" fill="#8b8264"
            d="M 964.5,247.5 C 964.5,392.833 964.5,538.167 964.5,683.5C 1032.17,683.5 1099.83,683.5 1167.5,683.5C 1099.67,684.499 1031.67,684.833 963.5,684.5C 963.167,538.666 963.5,392.999 964.5,247.5 Z" />
    </g>
    <g>
        <path style="opacity:1" fill="#714d31"
            d="M 963.5,694.5 C 993.995,693.502 1024.66,693.169 1055.5,693.5C 1055.82,701.019 1055.49,708.352 1054.5,715.5C 1054.5,708.5 1054.5,701.5 1054.5,694.5C 1024.17,694.5 993.833,694.5 963.5,694.5 Z" />
    </g>
    <g>
        <path style="opacity:1" fill="#6a6a6a"
            d="M 1167.5,694.5 C 1133.5,694.5 1099.5,694.5 1065.5,694.5C 1065.5,834.5 1065.5,974.5 1065.5,1114.5C 1065.5,1114.83 1065.5,1115.17 1065.5,1115.5C 1064.5,975.001 1064.17,834.334 1064.5,693.5C 1099,693.168 1133.34,693.502 1167.5,694.5 Z" />
    </g>
    <g>
        <path style="opacity:1" fill="#feaf6d"
            d="M 167.5,694.5 C 167.5,701.5 167.5,708.5 167.5,715.5C 122.833,715.5 78.1667,715.5 33.5,715.5C 33.5,708.5 33.5,701.5 33.5,694.5C 78.1667,694.5 122.833,694.5 167.5,694.5 Z" />
    </g>
    <g>
        <path style="opacity:1" fill="#f9ab6b"
            d="M 963.5,694.5 C 993.833,694.5 1024.17,694.5 1054.5,694.5C 1054.5,701.5 1054.5,708.5 1054.5,715.5C 1024.34,716.498 994.005,716.831 963.5,716.5C 963.5,709.167 963.5,701.833 963.5,694.5 Z" />
    </g>
    <g>
        <path style="opacity:1" fill="#fefffe"
            d="M 1167.5,694.5 C 1167.5,694.833 1167.5,695.167 1167.5,695.5C 1167.5,835.167 1167.5,974.833 1167.5,1114.5C 1133.5,1114.5 1099.5,1114.5 1065.5,1114.5C 1065.5,974.5 1065.5,834.5 1065.5,694.5C 1099.5,694.5 1133.5,694.5 1167.5,694.5 Z" />
    </g>
    <g>
        <path style="opacity:1" fill="#888888"
            d="M 1167.5,695.5 C 1168.5,835.332 1168.83,975.332 1168.5,1115.5C 1134.17,1115.5 1099.83,1115.5 1065.5,1115.5C 1065.5,1115.17 1065.5,1114.83 1065.5,1114.5C 1099.5,1114.5 1133.5,1114.5 1167.5,1114.5C 1167.5,974.833 1167.5,835.167 1167.5,695.5 Z" />
    </g>
    <g>
        <path style="opacity:1" fill="#885d3a"
            d="M 167.5,694.5 C 122.833,694.5 78.1667,694.5 33.5,694.5C 33.5,701.5 33.5,708.5 33.5,715.5C 78.1667,715.5 122.833,715.5 167.5,715.5C 122.67,716.499 77.6698,716.832 32.5,716.5C 32.5,708.833 32.5,701.167 32.5,693.5C 77.6698,693.168 122.67,693.501 167.5,694.5 Z" />
    </g>
    <g>
        <path style="opacity:1" fill="#956640"
            d="M 167.5,726.5 C 122.833,726.5 78.1667,726.5 33.5,726.5C 33.5,734.5 33.5,742.5 33.5,750.5C 32.5009,742.92 32.1676,734.587 32.5,725.5C 77.6698,725.168 122.67,725.501 167.5,726.5 Z" />
    </g>
    <g>
        <path style="opacity:1" fill="#feaf6d"
            d="M 167.5,726.5 C 167.5,734.5 167.5,742.5 167.5,750.5C 122.833,750.5 78.1667,750.5 33.5,750.5C 33.5,742.5 33.5,734.5 33.5,726.5C 78.1667,726.5 122.833,726.5 167.5,726.5 Z" />
    </g>
    <g>
        <path style="opacity:1" fill="#868686"
            d="M 1404.5,247.5 C 1405.5,512.666 1405.83,777.999 1405.5,1043.5C 1329.5,1043.5 1253.5,1043.5 1177.5,1043.5C 1177.5,925.167 1177.5,806.833 1177.5,688.5C 1178.5,806.332 1178.83,924.332 1178.5,1042.5C 1253.83,1042.5 1329.17,1042.5 1404.5,1042.5C 1404.5,777.5 1404.5,512.5 1404.5,247.5 Z" />
    </g>
    <g>
        <path style="opacity:1" fill="#221811"
            d="M 963.5,725.5 C 963.5,733.833 963.5,742.167 963.5,750.5C 993.833,750.5 1024.17,750.5 1054.5,750.5C 1054.5,742.167 1054.5,733.833 1054.5,725.5C 1055.49,733.984 1055.83,742.651 1055.5,751.5C 1024.5,751.5 993.5,751.5 962.5,751.5C 962.174,742.651 962.507,733.984 963.5,725.5 Z" />
    </g>
    <g>
        <path style="opacity:1" fill="#faac6c"
            d="M 963.5,725.5 C 993.833,725.5 1024.17,725.5 1054.5,725.5C 1054.5,733.833 1054.5,742.167 1054.5,750.5C 1024.17,750.5 993.833,750.5 963.5,750.5C 963.5,742.167 963.5,733.833 963.5,725.5 Z" />
    </g>
    <g>
        <path style="opacity:1" fill="#3c291a"
            d="M 1054.5,786.5 C 1054.5,777.833 1054.5,769.167 1054.5,760.5C 1024.17,760.5 993.833,760.5 963.5,760.5C 963.5,769.167 963.5,777.833 963.5,786.5C 962.507,777.682 962.173,768.682 962.5,759.5C 993.5,759.5 1024.5,759.5 1055.5,759.5C 1055.83,768.682 1055.49,777.682 1054.5,786.5 Z" />
    </g>
    <g>
        <path style="opacity:1" fill="#feaf6d"
            d="M 33.5,760.5 C 78.1667,760.5 122.833,760.5 167.5,760.5C 167.5,769.167 167.5,777.833 167.5,786.5C 122.833,786.5 78.1667,786.5 33.5,786.5C 33.5,777.833 33.5,769.167 33.5,760.5 Z" />
    </g>
    <g>
        <path style="opacity:1" fill="#faab6b"
            d="M 1054.5,786.5 C 1024.17,787.833 993.833,787.833 963.5,786.5C 963.5,777.833 963.5,769.167 963.5,760.5C 993.833,760.5 1024.17,760.5 1054.5,760.5C 1054.5,769.167 1054.5,777.833 1054.5,786.5 Z" />
    </g>
    <g>
        <path style="opacity:1" fill="#855b39"
            d="M 33.5,760.5 C 33.5,769.167 33.5,777.833 33.5,786.5C 78.1667,786.5 122.833,786.5 167.5,786.5C 122.67,787.499 77.6698,787.832 32.5,787.5C 32.1734,778.318 32.5067,769.318 33.5,760.5 Z" />
    </g>
    <g>
        <path style="opacity:1" fill="#956640"
            d="M 167.5,797.5 C 122.833,797.5 78.1667,797.5 33.5,797.5C 33.5,807.5 33.5,817.5 33.5,827.5C 32.5058,817.347 32.1724,807.014 32.5,796.5C 77.6698,796.168 122.67,796.501 167.5,797.5 Z" />
    </g>
    <g>
        <path style="opacity:1" fill="#feaf6d"
            d="M 167.5,797.5 C 167.5,807.5 167.5,817.5 167.5,827.5C 122.833,827.5 78.1667,827.5 33.5,827.5C 33.5,817.5 33.5,807.5 33.5,797.5C 78.1667,797.5 122.833,797.5 167.5,797.5 Z" />
    </g>
    <g>
        <path style="opacity:1" fill="#fbac6c"
            d="M 1054.5,797.5 C 1054.5,807.5 1054.5,817.5 1054.5,827.5C 1024.17,827.5 993.833,827.5 963.5,827.5C 963.5,817.5 963.5,807.5 963.5,797.5C 993.833,796.167 1024.17,796.167 1054.5,797.5 Z" />
    </g>
    <g>
        <path style="opacity:1" fill="#2d1f14"
            d="M 963.5,797.5 C 963.5,807.5 963.5,817.5 963.5,827.5C 993.833,827.5 1024.17,827.5 1054.5,827.5C 1054.5,817.5 1054.5,807.5 1054.5,797.5C 1055.49,807.653 1055.83,817.986 1055.5,828.5C 1024.5,828.5 993.5,828.5 962.5,828.5C 962.172,817.986 962.506,807.653 963.5,797.5 Z" />
    </g>
    <g>
        <path style="opacity:1" fill="#302115"
            d="M 1054.5,868.5 C 1054.5,858.167 1054.5,847.833 1054.5,837.5C 1024.17,837.5 993.833,837.5 963.5,837.5C 963.5,847.833 963.5,858.167 963.5,868.5C 962.506,858.013 962.172,847.346 962.5,836.5C 993.5,836.5 1024.5,836.5 1055.5,836.5C 1055.83,847.346 1055.49,858.013 1054.5,868.5 Z" />
    </g>
    <g>
        <path style="opacity:1" fill="#feaf6d"
            d="M 33.5,837.5 C 78.1667,837.5 122.833,837.5 167.5,837.5C 167.5,847.833 167.5,858.167 167.5,868.5C 122.833,868.5 78.1667,868.5 33.5,868.5C 33.5,858.167 33.5,847.833 33.5,837.5 Z" />
    </g>
    <g>
        <path style="opacity:1" fill="#fbac6c"
            d="M 1054.5,868.5 C 1024.17,869.833 993.833,869.833 963.5,868.5C 963.5,858.167 963.5,847.833 963.5,837.5C 993.833,837.5 1024.17,837.5 1054.5,837.5C 1054.5,847.833 1054.5,858.167 1054.5,868.5 Z" />
    </g>
    <g>
        <path style="opacity:1" fill="#885d3a"
            d="M 33.5,837.5 C 33.5,847.833 33.5,858.167 33.5,868.5C 78.1667,868.5 122.833,868.5 167.5,868.5C 122.67,869.499 77.6698,869.832 32.5,869.5C 32.1722,858.654 32.5056,847.987 33.5,837.5 Z" />
    </g>
    <g>
        <path style="opacity:1" fill="#feaf6d"
            d="M 167.5,879.5 C 167.5,888.5 167.5,897.5 167.5,906.5C 122.833,906.5 78.1667,906.5 33.5,906.5C 33.5,897.5 33.5,888.5 33.5,879.5C 78.1667,879.5 122.833,879.5 167.5,879.5 Z" />
    </g>
    <g>
        <path style="opacity:1" fill="#faab6c"
            d="M 963.5,879.5 C 993.833,879.5 1024.17,879.5 1054.5,879.5C 1054.5,888.5 1054.5,897.5 1054.5,906.5C 1024.34,907.498 994.005,907.831 963.5,907.5C 963.5,898.167 963.5,888.833 963.5,879.5 Z" />
    </g>
    <g>
        <path style="opacity:1" fill="#67462c"
            d="M 963.5,879.5 C 993.995,878.502 1024.66,878.169 1055.5,878.5C 1055.83,888.015 1055.49,897.348 1054.5,906.5C 1054.5,897.5 1054.5,888.5 1054.5,879.5C 1024.17,879.5 993.833,879.5 963.5,879.5 Z" />
    </g>
    <g>
        <path style="opacity:1" fill="#895e3b"
            d="M 167.5,879.5 C 122.833,879.5 78.1667,879.5 33.5,879.5C 33.5,888.5 33.5,897.5 33.5,906.5C 78.1667,906.5 122.833,906.5 167.5,906.5C 122.67,907.499 77.6698,907.832 32.5,907.5C 32.5,897.833 32.5,888.167 32.5,878.5C 77.6698,878.168 122.67,878.501 167.5,879.5 Z" />
    </g>
    <g>
        <path style="opacity:1" fill="#966640"
            d="M 167.5,917.5 C 122.833,917.5 78.1667,917.5 33.5,917.5C 33.5,925.167 33.5,932.833 33.5,940.5C 32.5076,932.684 32.1743,924.684 32.5,916.5C 77.6698,916.168 122.67,916.501 167.5,917.5 Z" />
    </g>
    <g>
        <path style="opacity:1" fill="#feaf6d"
            d="M 167.5,917.5 C 167.5,925.167 167.5,932.833 167.5,940.5C 122.833,940.5 78.1667,940.5 33.5,940.5C 33.5,932.833 33.5,925.167 33.5,917.5C 78.1667,917.5 122.833,917.5 167.5,917.5 Z" />
    </g>
    <g>
        <path style="opacity:1" fill="#302115"
            d="M 963.5,916.5 C 963.5,924.5 963.5,932.5 963.5,940.5C 993.833,940.5 1024.17,940.5 1054.5,940.5C 1054.5,932.5 1054.5,924.5 1054.5,916.5C 1055.49,924.65 1055.83,932.983 1055.5,941.5C 1024.5,941.5 993.5,941.5 962.5,941.5C 962.174,932.983 962.507,924.65 963.5,916.5 Z" />
    </g>
    <g>
        <path style="opacity:1" fill="#faab6c"
            d="M 963.5,916.5 C 993.833,916.5 1024.17,916.5 1054.5,916.5C 1054.5,924.5 1054.5,932.5 1054.5,940.5C 1024.17,940.5 993.833,940.5 963.5,940.5C 963.5,932.5 963.5,924.5 963.5,916.5 Z" />
    </g>
    <g>
        <path style="opacity:1" fill="#281c13"
            d="M 1054.5,979.5 C 1054.5,969.833 1054.5,960.167 1054.5,950.5C 1024.17,950.5 993.833,950.5 963.5,950.5C 963.5,960.167 963.5,969.833 963.5,979.5C 962.506,969.681 962.173,959.681 962.5,949.5C 993.5,949.5 1024.5,949.5 1055.5,949.5C 1055.83,959.681 1055.49,969.681 1054.5,979.5 Z" />
    </g>
    <g>
        <path style="opacity:1" fill="#feae6d"
            d="M 32.5,950.5 C 77.5,950.5 122.5,950.5 167.5,950.5C 167.5,960.167 167.5,969.833 167.5,979.5C 122.664,979.168 77.9969,979.501 33.5,980.5C 32.506,970.681 32.1726,960.681 32.5,950.5 Z" />
    </g>
    <g>
        <path style="opacity:1" fill="#feaf6d"
            d="M 1054.5,979.5 C 1024.17,979.5 993.833,979.5 963.5,979.5C 963.5,969.833 963.5,960.167 963.5,950.5C 993.833,950.5 1024.17,950.5 1054.5,950.5C 1054.5,960.167 1054.5,969.833 1054.5,979.5 Z" />
    </g>
    <g>
        <path style="opacity:1" fill="#17100a"
            d="M 32.5,950.5 C 77.6636,949.501 122.997,949.168 168.5,949.5C 168.5,959.833 168.5,970.167 168.5,980.5C 123.5,980.5 78.5,980.5 33.5,980.5C 77.9969,979.501 122.664,979.168 167.5,979.5C 167.5,969.833 167.5,960.167 167.5,950.5C 122.5,950.5 77.5,950.5 32.5,950.5 Z" />
    </g>
    <g>
        <path style="opacity:1" fill="#feae6d"
            d="M 32.5,989.5 C 77.5,989.5 122.5,989.5 167.5,989.5C 167.5,996.833 167.5,1004.17 167.5,1011.5C 122.5,1011.5 77.5,1011.5 32.5,1011.5C 32.5,1004.17 32.5,996.833 32.5,989.5 Z" />
    </g>
    <g>
        <path style="opacity:1" fill="#332316"
            d="M 963.5,989.5 C 993.995,988.502 1024.66,988.169 1055.5,988.5C 1055.5,996.5 1055.5,1004.5 1055.5,1012.5C 1024.5,1012.5 993.5,1012.5 962.5,1012.5C 962.175,1004.65 962.508,996.982 963.5,989.5 Z" />
    </g>
    <g>
        <path style="opacity:1" fill="#feaf6d"
            d="M 963.5,989.5 C 993.833,989.5 1024.17,989.5 1054.5,989.5C 1054.5,996.833 1054.5,1004.17 1054.5,1011.5C 1024.17,1011.5 993.833,1011.5 963.5,1011.5C 963.5,1004.17 963.5,996.833 963.5,989.5 Z" />
    </g>
    <g>
        <path style="opacity:1" fill="#1c130c"
            d="M 32.5,1021.5 C 77.6636,1020.5 122.997,1020.17 168.5,1020.5C 168.824,1027.35 168.491,1034.02 167.5,1040.5C 167.5,1034.17 167.5,1027.83 167.5,1021.5C 122.833,1021.5 78.1667,1021.5 33.5,1021.5C 33.1667,1021.5 32.8333,1021.5 32.5,1021.5 Z" />
    </g>
    <g>
        <path style="opacity:1" fill="#241911"
            d="M 1054.5,1040.5 C 1054.5,1034.17 1054.5,1027.83 1054.5,1021.5C 1024.17,1021.5 993.833,1021.5 963.5,1021.5C 963.5,1027.83 963.5,1034.17 963.5,1040.5C 962.509,1034.02 962.176,1027.35 962.5,1020.5C 993.5,1020.5 1024.5,1020.5 1055.5,1020.5C 1055.82,1027.35 1055.49,1034.02 1054.5,1040.5 Z" />
    </g>
    <g>
        <path style="opacity:1" fill="#feaf6d"
            d="M 33.5,1021.5 C 78.1667,1021.5 122.833,1021.5 167.5,1021.5C 167.5,1027.83 167.5,1034.17 167.5,1040.5C 122.833,1040.5 78.1667,1040.5 33.5,1040.5C 33.5,1034.17 33.5,1027.83 33.5,1021.5 Z" />
    </g>
    <g>
        <path style="opacity:1" fill="#f8aa6b"
            d="M 1054.5,1040.5 C 1024.17,1041.83 993.833,1041.83 963.5,1040.5C 963.5,1034.17 963.5,1027.83 963.5,1021.5C 993.833,1021.5 1024.17,1021.5 1054.5,1021.5C 1054.5,1027.83 1054.5,1034.17 1054.5,1040.5 Z" />
    </g>
    <g>
        <path style="opacity:1" fill="#875c3a"
            d="M 32.5,1021.5 C 32.8333,1021.5 33.1667,1021.5 33.5,1021.5C 33.5,1027.83 33.5,1034.17 33.5,1040.5C 78.1667,1040.5 122.833,1040.5 167.5,1040.5C 122.67,1041.5 77.6698,1041.83 32.5,1041.5C 32.5,1034.83 32.5,1028.17 32.5,1021.5 Z" />
    </g>
    <g>
        <path style="opacity:1" fill="#956640"
            d="M 167.5,1051.5 C 122.833,1051.5 78.1667,1051.5 33.5,1051.5C 33.5,1059.83 33.5,1068.17 33.5,1076.5C 32.507,1068.02 32.1736,1059.35 32.5,1050.5C 77.6698,1050.17 122.67,1050.5 167.5,1051.5 Z" />
    </g>
    <g>
        <path style="opacity:1" fill="#feaf6d"
            d="M 167.5,1051.5 C 167.5,1059.83 167.5,1068.17 167.5,1076.5C 122.833,1076.5 78.1667,1076.5 33.5,1076.5C 33.5,1068.17 33.5,1059.83 33.5,1051.5C 78.1667,1051.5 122.833,1051.5 167.5,1051.5 Z" />
    </g>
    <g>
        <path style="opacity:1" fill="#2d1f14"
            d="M 963.5,1050.5 C 963.5,1059.17 963.5,1067.83 963.5,1076.5C 993.833,1076.5 1024.17,1076.5 1054.5,1076.5C 1054.5,1067.83 1054.5,1059.17 1054.5,1050.5C 1055.49,1059.32 1055.83,1068.32 1055.5,1077.5C 1024.5,1077.5 993.5,1077.5 962.5,1077.5C 962.173,1068.32 962.507,1059.32 963.5,1050.5 Z" />
    </g>
    <g>
        <path style="opacity:1" fill="#faac6c"
            d="M 963.5,1050.5 C 993.833,1050.5 1024.17,1050.5 1054.5,1050.5C 1054.5,1059.17 1054.5,1067.83 1054.5,1076.5C 1024.17,1076.5 993.833,1076.5 963.5,1076.5C 963.5,1067.83 963.5,1059.17 963.5,1050.5 Z" />
    </g>
    <g>
        <path style="opacity:1" fill="#2e2014"
            d="M 1054.5,1115.5 C 1054.5,1105.83 1054.5,1096.17 1054.5,1086.5C 1024.17,1086.5 993.833,1086.5 963.5,1086.5C 963.5,1096.17 963.5,1105.83 963.5,1115.5C 962.506,1105.68 962.173,1095.68 962.5,1085.5C 993.5,1085.5 1024.5,1085.5 1055.5,1085.5C 1055.83,1095.68 1055.49,1105.68 1054.5,1115.5 Z" />
    </g>
    <g>
        <path style="opacity:1" fill="#feae6d"
            d="M 32.5,1086.5 C 77.5,1086.5 122.5,1086.5 167.5,1086.5C 167.5,1096.17 167.5,1105.83 167.5,1115.5C 122.5,1115.5 77.5,1115.5 32.5,1115.5C 32.5,1105.83 32.5,1096.17 32.5,1086.5 Z" />
    </g>
    <g>
        <path style="opacity:1" fill="#fbac6c"
            d="M 1054.5,1115.5 C 1024.17,1115.5 993.833,1115.5 963.5,1115.5C 963.5,1105.83 963.5,1096.17 963.5,1086.5C 993.833,1086.5 1024.17,1086.5 1054.5,1086.5C 1054.5,1096.17 1054.5,1105.83 1054.5,1115.5 Z" />
    </g>
</svg>