<?xml version="1.0" encoding="UTF-8"?>
<!DOCTYPE svg PUBLIC "-//W3C//DTD SVG 1.1//EN" "http://www.w3.org/Graphics/SVG/1.1/DTD/svg11.dtd">
<svg xmlns="http://www.w3.org/2000/svg" version="1.1" width="1800px" height="900px"
    style="shape-rendering:geometricPrecision; text-rendering:geometricPrecision; image-rendering:optimizeQuality; fill-rule:evenodd; clip-rule:evenodd"
    xmlns:xlink="http://www.w3.org/1999/xlink">
    <g>
        <path style="opacity:1" fill="#cecece"
            d="M 1207.5,93.5 C 1180.42,96.5709 1155.75,105.404 1133.5,120C 1131.47,122.681 1128.81,124.347 1125.5,125C 1091.92,151.731 1066.42,185.564 1049,226.5C 1040.46,248.117 1033.13,270.117 1027,292.5C 1023.54,294.717 1020.54,297.383 1018,300.5C 1017.75,302.433 1017.25,304.266 1016.5,306C 1016.83,306.333 1017.17,306.667 1017.5,307C 1022.02,307.601 1026.35,308.768 1030.5,310.5C 1027.35,318.866 1025.69,327.533 1025.5,336.5C 1026.68,336.281 1027.68,336.614 1028.5,337.5C 1025.25,349.587 1024.92,361.753 1027.5,374C 1025.99,382.102 1025.32,390.268 1025.5,398.5C 1026.5,398.5 1027.5,398.5 1028.5,398.5C 1028.65,404.092 1027.98,409.592 1026.5,415C 1026.54,421.053 1027.87,426.719 1030.5,432C 1030.17,432.833 1029.83,433.667 1029.5,434.5C 1018.35,436.857 1017.51,441.19 1027,447.5C 1034.43,479.127 1045.43,509.46 1060,538.5C 1081.45,579.614 1112.61,611.114 1153.5,633C 1227.82,661.877 1291.99,647.044 1346,588.5C 1350.29,582.542 1354.96,576.876 1360,571.5C 1365.09,563.659 1370.42,555.992 1376,548.5C 1381.53,538.779 1386.53,528.779 1391,518.5C 1391.17,600.737 1391.67,682.903 1392.5,765C 1525.83,765.5 1659.17,765.667 1792.5,765.5C 1792.5,781.5 1792.5,797.5 1792.5,813.5C 1358.83,813.5 925.167,813.5 491.5,813.5C 491.783,812.711 492.283,812.044 493,811.5C 493.333,740.167 493.667,668.833 494,597.5C 547.165,542.668 600.665,488.168 654.5,434C 657.709,432.908 660.876,431.741 664,430.5C 667.223,423.614 665.057,420.614 657.5,421.5C 659.404,417.163 660.404,412.496 660.5,407.5C 660.22,402.443 659.22,397.609 657.5,393C 657.514,390.399 658.347,388.232 660,386.5C 660.667,381.5 660.667,376.5 660,371.5C 658.347,369.768 657.514,367.601 657.5,365C 656.843,361.503 658.009,359.003 661,357.5C 661.667,353.167 661.667,348.833 661,344.5C 660.311,343.643 659.478,342.977 658.5,342.5C 657.508,338.217 657.174,333.884 657.5,329.5C 658.822,329.67 659.989,329.337 661,328.5C 661.214,323.115 661.714,317.781 662.5,312.5C 664.611,311.051 666.944,310.051 669.5,309.5C 671.62,304.639 670.453,300.973 666,298.5C 665.667,242.833 665.333,187.167 665,131.5C 664.5,131 664,130.5 663.5,130C 447.833,129.333 232.167,129.333 16.5,130C 15.2986,130.903 14.4652,132.069 14,133.5C 13.6667,191.833 13.3333,250.167 13,308.5C 9.42246,312.174 8.58913,316.507 10.5,321.5C 12.7466,322.374 15.0799,322.708 17.5,322.5C 16.6321,327.446 15.2988,332.28 13.5,337C 13.0454,339.923 14.0454,342.09 16.5,343.5C 16.8333,345.167 17.1667,346.833 17.5,348.5C 16.1667,357.167 16.1667,365.833 17.5,374.5C 14.8747,383.503 14.8747,392.503 17.5,401.5C 16.047,405.626 15.3803,409.96 15.5,414.5C 16.174,419.853 16.8407,425.186 17.5,430.5C 13.7657,430.323 10.0991,430.656 6.5,431.5C 6.5,318.833 6.5,206.167 6.5,93.5C 406.833,93.5 807.167,93.5 1207.5,93.5 Z" />
    </g>
    <g>
        <path style="opacity:0.966" fill="#080706"
            d="M 1207.5,93.5 C 1217.17,93.5 1226.83,93.5 1236.5,93.5C 1264.96,97.2218 1290.96,107.388 1314.5,124C 1328.28,136.446 1341.45,149.613 1354,163.5C 1368.86,182.545 1381.2,203.211 1391,225.5C 1391.5,205.836 1391.67,186.169 1391.5,166.5C 1426.26,165.84 1460.93,165.173 1495.5,164.5C 1496.25,163.469 1496.92,162.302 1497.5,161C 1500.17,160.333 1502.83,160.333 1505.5,161C 1506.13,164.129 1506.8,167.296 1507.5,170.5C 1541.77,170.154 1576.11,170.154 1610.5,170.5C 1610.5,167.5 1610.5,164.5 1610.5,161.5C 1613.81,161.063 1616.81,161.73 1619.5,163.5C 1677.23,164.171 1734.9,164.837 1792.5,165.5C 1792.5,365.5 1792.5,565.5 1792.5,765.5C 1659.17,765.667 1525.83,765.5 1392.5,765C 1391.67,682.903 1391.17,600.737 1391,518.5C 1386.53,528.779 1381.53,538.779 1376,548.5C 1370.42,555.992 1365.09,563.659 1360,571.5C 1354.96,576.876 1350.29,582.542 1346,588.5C 1291.99,647.044 1227.82,661.877 1153.5,633C 1112.61,611.114 1081.45,579.614 1060,538.5C 1045.43,509.46 1034.43,479.127 1027,447.5C 1017.51,441.19 1018.35,436.857 1029.5,434.5C 1029.83,433.667 1030.17,432.833 1030.5,432C 1027.87,426.719 1026.54,421.053 1026.5,415C 1027.98,409.592 1028.65,404.092 1028.5,398.5C 1027.5,398.5 1026.5,398.5 1025.5,398.5C 1025.32,390.268 1025.99,382.102 1027.5,374C 1024.92,361.753 1025.25,349.587 1028.5,337.5C 1027.68,336.614 1026.68,336.281 1025.5,336.5C 1025.69,327.533 1027.35,318.866 1030.5,310.5C 1026.35,308.768 1022.02,307.601 1017.5,307C 1017.17,306.667 1016.83,306.333 1016.5,306C 1017.25,304.266 1017.75,302.433 1018,300.5C 1020.54,297.383 1023.54,294.717 1027,292.5C 1033.13,270.117 1040.46,248.117 1049,226.5C 1066.42,185.564 1091.92,151.731 1125.5,125C 1128.81,124.347 1131.47,122.681 1133.5,120C 1155.75,105.404 1180.42,96.5709 1207.5,93.5 Z" />
    </g>
    <g>
        <path style="opacity:1" fill="#cecece"
            d="M 1236.5,93.5 C 1421.83,93.5 1607.17,93.5 1792.5,93.5C 1792.5,117.5 1792.5,141.5 1792.5,165.5C 1734.9,164.837 1677.23,164.171 1619.5,163.5C 1616.81,161.73 1613.81,161.063 1610.5,161.5C 1610.5,164.5 1610.5,167.5 1610.5,170.5C 1576.11,170.154 1541.77,170.154 1507.5,170.5C 1506.8,167.296 1506.13,164.129 1505.5,161C 1502.83,160.333 1500.17,160.333 1497.5,161C 1496.92,162.302 1496.25,163.469 1495.5,164.5C 1460.48,163.84 1425.82,164.507 1391.5,166.5C 1391.67,186.169 1391.5,205.836 1391,225.5C 1381.2,203.211 1368.86,182.545 1354,163.5C 1341.45,149.613 1328.28,136.446 1314.5,124C 1290.96,107.388 1264.96,97.2218 1236.5,93.5 Z" />
    </g>
    <g>
        <path style="opacity:1" fill="#feefb8"
            d="M 1393.5,251.5 C 1393.5,306.167 1393.5,360.833 1393.5,415.5C 1430.67,415.832 1467.67,415.498 1504.5,414.5C 1504.5,334.5 1504.5,254.5 1504.5,174.5C 1540.13,174.954 1575.79,174.954 1611.5,174.5C 1611.5,280.167 1611.5,385.833 1611.5,491.5C 1541.33,491.167 1471.33,491.501 1401.5,492.5C 1397.83,492.5 1394.17,492.5 1390.5,492.5C 1375.2,536.632 1349.87,573.799 1314.5,604C 1258.71,646.081 1200.71,649.414 1140.5,614C 1109.29,592.462 1084.79,564.962 1067,531.5C 1052.11,502.842 1041.61,472.676 1035.5,441C 1036.89,439.98 1038.39,439.147 1040,438.5C 1040.49,437.207 1040.66,435.873 1040.5,434.5C 1038.5,434.5 1036.5,434.5 1034.5,434.5C 1035.23,430.361 1036.23,426.361 1037.5,422.5C 1037.22,418.804 1036.72,415.137 1036,411.5C 1034.99,410.663 1033.82,410.33 1032.5,410.5C 1032.67,403.495 1033,396.495 1033.5,389.5C 1032.36,381.865 1031.69,374.199 1031.5,366.5C 1032.5,366.5 1033.5,366.5 1034.5,366.5C 1034.5,360.833 1034.5,355.167 1034.5,349.5C 1033.5,349.5 1032.5,349.5 1031.5,349.5C 1031.33,345.154 1031.5,340.821 1032,336.5C 1033.58,335.624 1034.58,334.291 1035,332.5C 1035.92,328.21 1036.42,323.877 1036.5,319.5C 1035.5,319.5 1034.5,319.5 1033.5,319.5C 1033.5,316.5 1033.5,313.5 1033.5,310.5C 1035.53,310.662 1037.53,310.495 1039.5,310C 1040.98,305.688 1039.31,303.855 1034.5,304.5C 1043.07,252.712 1063.57,206.378 1096,165.5C 1123.36,132.234 1158.19,111.401 1200.5,103C 1242.99,98.7852 1280.99,109.785 1314.5,136C 1340.7,157.909 1361.53,184.076 1377,214.5C 1382.8,226.737 1388.3,239.071 1393.5,251.5 Z" />
    </g>
    <g>
        <path style="opacity:0.985" fill="#060605"
            d="M 491.5,813.5 C 331.5,813.5 171.5,813.5 11.5,813.5C 10.4955,812.317 9.66218,810.984 9,809.5C 9.16528,686.829 8.33195,564.496 6.5,442.5C 6.5,438.833 6.5,435.167 6.5,431.5C 10.0991,430.656 13.7657,430.323 17.5,430.5C 16.8407,425.186 16.174,419.853 15.5,414.5C 15.3803,409.96 16.047,405.626 17.5,401.5C 14.8747,392.503 14.8747,383.503 17.5,374.5C 16.1667,365.833 16.1667,357.167 17.5,348.5C 17.1667,346.833 16.8333,345.167 16.5,343.5C 14.0454,342.09 13.0454,339.923 13.5,337C 15.2988,332.28 16.6321,327.446 17.5,322.5C 15.0799,322.708 12.7466,322.374 10.5,321.5C 8.58913,316.507 9.42246,312.174 13,308.5C 13.3333,250.167 13.6667,191.833 14,133.5C 14.4652,132.069 15.2986,130.903 16.5,130C 232.167,129.333 447.833,129.333 663.5,130C 664,130.5 664.5,131 665,131.5C 665.333,187.167 665.667,242.833 666,298.5C 670.453,300.973 671.62,304.639 669.5,309.5C 666.944,310.051 664.611,311.051 662.5,312.5C 661.714,317.781 661.214,323.115 661,328.5C 659.989,329.337 658.822,329.67 657.5,329.5C 657.174,333.884 657.508,338.217 658.5,342.5C 659.478,342.977 660.311,343.643 661,344.5C 661.667,348.833 661.667,353.167 661,357.5C 658.009,359.003 656.843,361.503 657.5,365C 657.514,367.601 658.347,369.768 660,371.5C 660.667,376.5 660.667,381.5 660,386.5C 658.347,388.232 657.514,390.399 657.5,393C 659.22,397.609 660.22,402.443 660.5,407.5C 660.404,412.496 659.404,417.163 657.5,421.5C 665.057,420.614 667.223,423.614 664,430.5C 660.876,431.741 657.709,432.908 654.5,434C 600.665,488.168 547.165,542.668 494,597.5C 493.667,668.833 493.333,740.167 493,811.5C 492.283,812.044 491.783,812.711 491.5,813.5 Z" />
    </g>
    <g>
        <path style="opacity:1" fill="#feefb8"
            d="M 394.5,137.5 C 482.167,137.5 569.833,137.5 657.5,137.5C 657.5,192.833 657.5,248.167 657.5,303.5C 653.833,303.5 650.167,303.5 646.5,303.5C 646.5,304.833 646.5,306.167 646.5,307.5C 649.167,307.5 651.833,307.5 654.5,307.5C 652.596,311.837 651.596,316.504 651.5,321.5C 653.623,328.145 654.623,335.145 654.5,342.5C 653.178,342.33 652.011,342.663 651,343.5C 650.333,348.167 650.333,352.833 651,357.5C 652.011,358.337 653.178,358.67 654.5,358.5C 654.5,362.5 654.5,366.5 654.5,370.5C 653.178,370.33 652.011,370.663 651,371.5C 650.501,376.823 650.334,382.156 650.5,387.5C 651.833,387.5 653.167,387.5 654.5,387.5C 654.5,391.167 654.5,394.833 654.5,398.5C 653.178,398.33 652.011,398.663 651,399.5C 650.333,404.5 650.333,409.5 651,414.5C 652.011,415.337 653.178,415.67 654.5,415.5C 654.5,417.5 654.5,419.5 654.5,421.5C 651.552,421.223 648.719,421.556 646,422.5C 645.411,425.79 646.911,427.29 650.5,427C 596.054,482.113 541.554,537.28 487,592.5C 486.5,663.166 486.333,733.833 486.5,804.5C 431.833,804.5 377.167,804.5 322.5,804.5C 322.5,680.5 322.5,556.5 322.5,432.5C 222.5,432.5 122.5,432.5 22.5,432.5C 22.5,429.167 22.5,425.833 22.5,422.5C 23.8333,422.5 25.1667,422.5 26.5,422.5C 26.5,417.167 26.5,411.833 26.5,406.5C 25.1667,406.5 23.8333,406.5 22.5,406.5C 22.5,403.167 22.5,399.833 22.5,396.5C 23.8221,396.67 24.9887,396.337 26,395.5C 26.6667,390.833 26.6667,386.167 26,381.5C 24.9887,380.663 23.8221,380.33 22.5,380.5C 22.5,376.833 22.5,373.167 22.5,369.5C 23.8221,369.67 24.9887,369.337 26,368.5C 26.6667,363.833 26.6667,359.167 26,354.5C 22.9491,351.57 21.7824,347.903 22.5,343.5C 23.8221,343.67 24.9887,343.337 26,342.5C 26.6667,338.833 26.6667,335.167 26,331.5C 24.9887,330.663 23.8221,330.33 22.5,330.5C 22.5,326.833 22.5,323.167 22.5,319.5C 146.5,319.5 270.5,319.5 394.5,319.5C 394.5,258.833 394.5,198.167 394.5,137.5 Z" />
    </g>
    <g>
        <path style="opacity:1" fill="#c7af8b"
            d="M 389.5,139.5 C 389.5,197.833 389.5,256.167 389.5,314.5C 267.5,314.5 145.5,314.5 23.5,314.5C 23.5,256.167 23.5,197.833 23.5,139.5C 145.5,139.5 267.5,139.5 389.5,139.5 Z" />
    </g>
    <g>
        <path style="opacity:1" fill="#404040"
            d="M 1495.5,164.5 C 1460.93,165.173 1426.26,165.84 1391.5,166.5C 1425.82,164.507 1460.48,163.84 1495.5,164.5 Z" />
    </g>
    <g>
        <path style="opacity:1" fill="#fdcb6d"
            d="M 1500.5,297.5 C 1500.5,335.167 1500.5,372.833 1500.5,410.5C 1466.5,410.5 1432.5,410.5 1398.5,410.5C 1397.33,331.334 1397.17,252.001 1398,172.5C 1421.43,171.506 1444.93,171.173 1468.5,171.5C 1468.33,213.168 1468.5,254.835 1469,296.5C 1479.42,297.487 1489.92,297.82 1500.5,297.5 Z" />
    </g>
    <g>
        <path style="opacity:1" fill="#f7a96a"
            d="M 1471.5,172.5 C 1481.5,172.5 1491.5,172.5 1501.5,172.5C 1501.5,175.167 1501.5,177.833 1501.5,180.5C 1491.5,180.5 1481.5,180.5 1471.5,180.5C 1471.5,177.833 1471.5,175.167 1471.5,172.5 Z" />
    </g>
    <g>
        <path style="opacity:1" fill="#fefefe"
            d="M 1783.5,173.5 C 1783.5,367.833 1783.5,562.167 1783.5,756.5C 1655.83,756.5 1528.17,756.5 1400.5,756.5C 1400.5,669.833 1400.5,583.167 1400.5,496.5C 1472.5,496.5 1544.5,496.5 1616.5,496.5C 1616.5,388.5 1616.5,280.5 1616.5,172.5C 1672.34,172.168 1728,172.501 1783.5,173.5 Z" />
    </g>
    <g>
        <path style="opacity:1" fill="#f7a96a"
            d="M 1471.5,183.5 C 1481.5,183.5 1491.5,183.5 1501.5,183.5C 1501.5,185.833 1501.5,188.167 1501.5,190.5C 1491.5,190.5 1481.5,190.5 1471.5,190.5C 1471.5,188.167 1471.5,185.833 1471.5,183.5 Z" />
    </g>
    <g>
        <path style="opacity:1" fill="#c28553"
            d="M 1471.5,193.5 C 1481.5,193.5 1491.5,193.5 1501.5,193.5C 1501.5,195.5 1501.5,197.5 1501.5,199.5C 1491.5,199.5 1481.5,199.5 1471.5,199.5C 1471.5,197.5 1471.5,195.5 1471.5,193.5 Z" />
    </g>
    <g>
        <path style="opacity:1" fill="#feae6d"
            d="M 1472.5,194.5 C 1481.83,194.5 1491.17,194.5 1500.5,194.5C 1500.5,195.833 1500.5,197.167 1500.5,198.5C 1491.17,198.5 1481.83,198.5 1472.5,198.5C 1472.5,197.167 1472.5,195.833 1472.5,194.5 Z" />
    </g>
    <g>
        <path style="opacity:1" fill="#f7a96a"
            d="M 1501.5,202.5 C 1501.5,204.5 1501.5,206.5 1501.5,208.5C 1491.5,208.5 1481.5,208.5 1471.5,208.5C 1471.5,206.5 1471.5,204.5 1471.5,202.5C 1481.5,202.5 1491.5,202.5 1501.5,202.5 Z" />
    </g>
    <g>
        <path style="opacity:1" fill="#352417"
            d="M 1501.5,202.5 C 1502.49,212.319 1502.83,222.319 1502.5,232.5C 1502.17,232.5 1501.83,232.5 1501.5,232.5C 1498.83,232.5 1496.17,232.5 1493.5,232.5C 1495.97,231.683 1498.64,231.183 1501.5,231C 1491.32,230.83 1481.32,230.33 1471.5,229.5C 1471.83,229.5 1472.17,229.5 1472.5,229.5C 1482.17,229.5 1491.83,229.5 1501.5,229.5C 1501.5,227.5 1501.5,225.5 1501.5,223.5C 1501.5,223.167 1501.5,222.833 1501.5,222.5C 1501.5,221.833 1501.5,221.167 1501.5,220.5C 1501.5,217.5 1501.5,214.5 1501.5,211.5C 1491.5,211.5 1481.5,211.5 1471.5,211.5C 1481.32,210.67 1491.32,210.17 1501.5,210C 1491.32,209.83 1481.32,209.33 1471.5,208.5C 1481.5,208.5 1491.5,208.5 1501.5,208.5C 1501.5,206.5 1501.5,204.5 1501.5,202.5 Z" />
    </g>
    <g>
        <path style="opacity:1" fill="#b77e4e"
            d="M 1471.5,211.5 C 1481.5,211.5 1491.5,211.5 1501.5,211.5C 1501.5,214.5 1501.5,217.5 1501.5,220.5C 1491.5,220.5 1481.5,220.5 1471.5,220.5C 1471.5,217.5 1471.5,214.5 1471.5,211.5 Z" />
    </g>
    <g>
        <path style="opacity:1" fill="#feae6d"
            d="M 1472.5,212.5 C 1481.83,212.5 1491.17,212.5 1500.5,212.5C 1500.5,214.833 1500.5,217.167 1500.5,219.5C 1491.17,219.5 1481.83,219.5 1472.5,219.5C 1472.5,217.167 1472.5,214.833 1472.5,212.5 Z" />
    </g>
    <g>
        <path style="opacity:1" fill="#a57147"
            d="M 1501.5,222.5 C 1501.5,222.833 1501.5,223.167 1501.5,223.5C 1491.83,223.5 1482.17,223.5 1472.5,223.5C 1472.5,225.5 1472.5,227.5 1472.5,229.5C 1472.17,229.5 1471.83,229.5 1471.5,229.5C 1471.5,227.167 1471.5,224.833 1471.5,222.5C 1481.5,222.5 1491.5,222.5 1501.5,222.5 Z" />
    </g>
    <g>
        <path style="opacity:1" fill="#fcac6c"
            d="M 1501.5,223.5 C 1501.5,225.5 1501.5,227.5 1501.5,229.5C 1491.83,229.5 1482.17,229.5 1472.5,229.5C 1472.5,227.5 1472.5,225.5 1472.5,223.5C 1482.17,223.5 1491.83,223.5 1501.5,223.5 Z" />
    </g>
    <g>
        <path style="opacity:1" fill="#f6a86a"
            d="M 1493.5,232.5 C 1496.17,232.5 1498.83,232.5 1501.5,232.5C 1501.5,235.167 1501.5,237.833 1501.5,240.5C 1491.5,240.5 1481.5,240.5 1471.5,240.5C 1471.5,237.833 1471.5,235.167 1471.5,232.5C 1478.83,232.5 1486.17,232.5 1493.5,232.5 Z" />
    </g>
    <g>
        <path style="opacity:1" fill="#c08452"
            d="M 1501.5,243.5 C 1501.5,243.833 1501.5,244.167 1501.5,244.5C 1491.83,244.5 1482.17,244.5 1472.5,244.5C 1472.5,247.167 1472.5,249.833 1472.5,252.5C 1472.17,252.5 1471.83,252.5 1471.5,252.5C 1471.5,249.5 1471.5,246.5 1471.5,243.5C 1481.5,243.5 1491.5,243.5 1501.5,243.5 Z" />
    </g>
    <g>
        <path style="opacity:1" fill="#fdae6d"
            d="M 1501.5,244.5 C 1501.5,247.167 1501.5,249.833 1501.5,252.5C 1491.83,252.5 1482.17,252.5 1472.5,252.5C 1472.5,249.833 1472.5,247.167 1472.5,244.5C 1482.17,244.5 1491.83,244.5 1501.5,244.5 Z" />
    </g>
    <g>
        <path style="opacity:1" fill="#5e4028"
            d="M 1501.5,232.5 C 1501.83,232.5 1502.17,232.5 1502.5,232.5C 1502.5,242.833 1502.5,253.167 1502.5,263.5C 1502.17,263.5 1501.83,263.5 1501.5,263.5C 1501.5,262.167 1501.5,260.833 1501.5,259.5C 1501.5,258.5 1501.5,257.5 1501.5,256.5C 1501.5,255.833 1501.17,255.5 1500.5,255.5C 1491.04,253.843 1481.38,252.843 1471.5,252.5C 1471.83,252.5 1472.17,252.5 1472.5,252.5C 1482.17,252.5 1491.83,252.5 1501.5,252.5C 1501.5,249.833 1501.5,247.167 1501.5,244.5C 1501.5,244.167 1501.5,243.833 1501.5,243.5C 1491.71,241.842 1481.71,240.842 1471.5,240.5C 1481.5,240.5 1491.5,240.5 1501.5,240.5C 1501.5,237.833 1501.5,235.167 1501.5,232.5 Z" />
    </g>
    <g>
        <path style="opacity:1" fill="#feae6d"
            d="M 1501.5,256.5 C 1501.5,257.5 1501.5,258.5 1501.5,259.5C 1500.57,260.568 1500.23,261.901 1500.5,263.5C 1491.17,263.5 1481.83,263.5 1472.5,263.5C 1472.5,261.167 1472.5,258.833 1472.5,256.5C 1482.17,256.5 1491.83,256.5 1501.5,256.5 Z" />
    </g>
    <g>
        <path style="opacity:1" fill="#d08f59"
            d="M 1500.5,255.5 C 1501.17,255.5 1501.5,255.833 1501.5,256.5C 1491.83,256.5 1482.17,256.5 1472.5,256.5C 1472.5,258.833 1472.5,261.167 1472.5,263.5C 1481.83,263.5 1491.17,263.5 1500.5,263.5C 1500.23,261.901 1500.57,260.568 1501.5,259.5C 1501.5,260.833 1501.5,262.167 1501.5,263.5C 1491.68,264.494 1481.68,264.827 1471.5,264.5C 1471.5,261.5 1471.5,258.5 1471.5,255.5C 1481.17,255.5 1490.83,255.5 1500.5,255.5 Z" />
    </g>
    <g>
        <path style="opacity:1" fill="#302115"
            d="M 1501.5,263.5 C 1501.83,263.5 1502.17,263.5 1502.5,263.5C 1502.81,267.371 1502.48,271.038 1501.5,274.5C 1501.5,272.167 1501.5,269.833 1501.5,267.5C 1491.83,267.5 1482.17,267.5 1472.5,267.5C 1472.17,267.5 1471.83,267.5 1471.5,267.5C 1481.32,266.67 1491.32,266.17 1501.5,266C 1491.32,265.83 1481.32,265.33 1471.5,264.5C 1481.68,264.827 1491.68,264.494 1501.5,263.5 Z" />
    </g>
    <g>
        <path style="opacity:1" fill="#f8aa6b"
            d="M 1472.5,267.5 C 1482.17,267.5 1491.83,267.5 1501.5,267.5C 1501.5,269.833 1501.5,272.167 1501.5,274.5C 1491.83,274.5 1482.17,274.5 1472.5,274.5C 1472.5,272.167 1472.5,269.833 1472.5,267.5 Z" />
    </g>
    <g>
        <path style="opacity:1" fill="#9c6b43"
            d="M 1471.5,267.5 C 1471.83,267.5 1472.17,267.5 1472.5,267.5C 1472.5,269.833 1472.5,272.167 1472.5,274.5C 1482.17,274.5 1491.83,274.5 1501.5,274.5C 1491.68,275.494 1481.68,275.827 1471.5,275.5C 1471.5,272.833 1471.5,270.167 1471.5,267.5 Z" />
    </g>
    <g>
        <path style="opacity:1" fill="#fcad6d"
            d="M 1501.5,278.5 C 1501.5,280.5 1501.5,282.5 1501.5,284.5C 1491.83,284.5 1482.17,284.5 1472.5,284.5C 1472.5,282.5 1472.5,280.5 1472.5,278.5C 1482.17,278.5 1491.83,278.5 1501.5,278.5 Z" />
    </g>
    <g>
        <path style="opacity:1" fill="#946640"
            d="M 1501.5,278.5 C 1491.83,278.5 1482.17,278.5 1472.5,278.5C 1472.5,280.5 1472.5,282.5 1472.5,284.5C 1482.17,284.5 1491.83,284.5 1501.5,284.5C 1491.68,285.494 1481.68,285.827 1471.5,285.5C 1471.5,282.833 1471.5,280.167 1471.5,277.5C 1481.68,277.173 1491.68,277.506 1501.5,278.5 Z" />
    </g>
    <g>
        <path style="opacity:1" fill="#a97449"
            d="M 1471.5,287.5 C 1481.5,287.5 1491.5,287.5 1501.5,287.5C 1501.5,289.833 1501.5,292.167 1501.5,294.5C 1491.5,294.5 1481.5,294.5 1471.5,294.5C 1471.5,292.167 1471.5,289.833 1471.5,287.5 Z" />
    </g>
    <g>
        <path style="opacity:1" fill="#feae6e"
            d="M 1472.5,288.5 C 1481.83,288.5 1491.17,288.5 1500.5,288.5C 1500.5,290.167 1500.5,291.833 1500.5,293.5C 1491.17,293.5 1481.83,293.5 1472.5,293.5C 1472.5,291.833 1472.5,290.167 1472.5,288.5 Z" />
    </g>
    <g>
        <path style="opacity:1" fill="#a69174"
            d="M 389.5,139.5 C 390.499,197.998 390.832,256.664 390.5,315.5C 267.999,315.833 145.666,315.5 23.5,314.5C 145.5,314.5 267.5,314.5 389.5,314.5C 389.5,256.167 389.5,197.833 389.5,139.5 Z" />
    </g>
    <g>
        <path style="opacity:1" fill="#b0986d"
            d="M 1500.5,297.5 C 1501.5,335.33 1501.83,373.33 1501.5,411.5C 1467,411.832 1432.66,411.498 1398.5,410.5C 1432.5,410.5 1466.5,410.5 1500.5,410.5C 1500.5,372.833 1500.5,335.167 1500.5,297.5 Z" />
    </g>
    <g>
        <path style="opacity:1" fill="#484433"
            d="M 1393.5,251.5 C 1394.5,305.664 1394.83,359.997 1394.5,414.5C 1431.17,414.5 1467.83,414.5 1504.5,414.5C 1467.67,415.498 1430.67,415.832 1393.5,415.5C 1393.5,360.833 1393.5,306.167 1393.5,251.5 Z" />
    </g>
    <g>
        <path style="opacity:1" fill="#d4d4d4"
            d="M 318.5,437.5 C 218.833,437.5 119.167,437.5 19.5,437.5C 19.5,488.5 19.5,539.5 19.5,590.5C 18.5011,539.336 18.1678,488.003 18.5,436.5C 118.668,436.167 218.668,436.501 318.5,437.5 Z" />
    </g>
    <g>
        <path style="opacity:1" fill="#fefffe"
            d="M 318.5,437.5 C 318.5,488.5 318.5,539.5 318.5,590.5C 218.833,590.5 119.167,590.5 19.5,590.5C 19.5,539.5 19.5,488.5 19.5,437.5C 119.167,437.5 218.833,437.5 318.5,437.5 Z" />
    </g>
    <g>
        <path style="opacity:1" fill="#cecfce"
            d="M 6.5,442.5 C 8.33195,564.496 9.16528,686.829 9,809.5C 9.66218,810.984 10.4955,812.317 11.5,813.5C 9.83333,813.5 8.16667,813.5 6.5,813.5C 6.5,689.833 6.5,566.167 6.5,442.5 Z" />
    </g>
    <g>
        <path style="opacity:1" fill="#b3a882"
            d="M 1611.5,174.5 C 1612.5,280.332 1612.83,386.332 1612.5,492.5C 1542.17,492.5 1471.83,492.5 1401.5,492.5C 1471.33,491.501 1541.33,491.167 1611.5,491.5C 1611.5,385.833 1611.5,280.167 1611.5,174.5 Z" />
    </g>
    <g>
        <path style="opacity:0.917" fill="#020202"
            d="M 696.5,529.5 C 701.984,529.438 703.817,532.105 702,537.5C 657.892,581.608 613.892,625.608 570,669.5C 569.5,716.165 569.333,762.832 569.5,809.5C 566.5,809.5 563.5,809.5 560.5,809.5C 560.333,761.166 560.5,712.832 561,664.5C 605.667,619.336 650.833,574.336 696.5,529.5 Z" />
    </g>
    <g>
        <path style="opacity:1" fill="#caa257"
            d="M 318.5,596.5 C 218.43,596.169 118.43,596.502 18.5,597.5C 68.1622,596.167 118.162,595.5 168.5,595.5C 218.668,595.5 268.668,595.833 318.5,596.5 Z" />
    </g>
    <g>
        <path style="opacity:1" fill="#fecc6d"
            d="M 318.5,596.5 C 318.5,665.833 318.5,735.167 318.5,804.5C 218.5,804.5 118.5,804.5 18.5,804.5C 18.5,735.5 18.5,666.5 18.5,597.5C 118.43,596.502 218.43,596.169 318.5,596.5 Z" />
    </g>
    <g>
        <path style="opacity:1" fill="#8c8c8c"
            d="M 1783.5,173.5 C 1784.5,367.999 1784.83,562.666 1784.5,757.5C 1656.17,757.5 1527.83,757.5 1399.5,757.5C 1399.17,670.332 1399.5,583.332 1400.5,496.5C 1400.5,583.167 1400.5,669.833 1400.5,756.5C 1528.17,756.5 1655.83,756.5 1783.5,756.5C 1783.5,562.167 1783.5,367.833 1783.5,173.5 Z" />
    </g>
</svg>