<?xml version="1.0" encoding="UTF-8"?>
<!DOCTYPE svg PUBLIC "-//W3C//DTD SVG 1.1//EN" "http://www.w3.org/Graphics/SVG/1.1/DTD/svg11.dtd">
<svg xmlns="http://www.w3.org/2000/svg" version="1.1" width="1786px" height="720px"
    style="shape-rendering:geometricPrecision; text-rendering:geometricPrecision; image-rendering:optimizeQuality; fill-rule:evenodd; clip-rule:evenodd"
    xmlns:xlink="http://www.w3.org/1999/xlink">
    <g>
        <path style="opacity:1" fill="#cecece"
            d="M -0.5,-0.5 C 399.833,-0.5 800.167,-0.5 1200.5,-0.5C 1173.42,2.57086 1148.75,11.4042 1126.5,26C 1124.47,28.6805 1121.81,30.3472 1118.5,31C 1084.92,57.7306 1059.42,91.564 1042,132.5C 1033.46,154.117 1026.13,176.117 1020,198.5C 1016.54,200.717 1013.54,203.383 1011,206.5C 1010.75,208.433 1010.25,210.266 1009.5,212C 1009.83,212.333 1010.17,212.667 1010.5,213C 1015.02,213.601 1019.35,214.768 1023.5,216.5C 1020.35,224.866 1018.69,233.533 1018.5,242.5C 1019.68,242.281 1020.68,242.614 1021.5,243.5C 1018.25,255.587 1017.92,267.753 1020.5,280C 1018.99,288.102 1018.32,296.268 1018.5,304.5C 1019.5,304.5 1020.5,304.5 1021.5,304.5C 1021.65,310.092 1020.98,315.592 1019.5,321C 1019.54,327.053 1020.87,332.719 1023.5,338C 1023.17,338.833 1022.83,339.667 1022.5,340.5C 1011.35,342.857 1010.51,347.19 1020,353.5C 1027.43,385.127 1038.43,415.46 1053,444.5C 1074.45,485.614 1105.61,517.114 1146.5,539C 1220.82,567.877 1284.99,553.044 1339,494.5C 1343.29,488.542 1347.96,482.876 1353,477.5C 1358.09,469.659 1363.42,461.992 1369,454.5C 1374.53,444.779 1379.53,434.779 1384,424.5C 1384.17,506.737 1384.67,588.903 1385.5,671C 1518.83,671.5 1652.17,671.667 1785.5,671.5C 1785.5,687.5 1785.5,703.5 1785.5,719.5C 1351.83,719.5 918.167,719.5 484.5,719.5C 484.783,718.711 485.283,718.044 486,717.5C 486.333,646.167 486.667,574.833 487,503.5C 540.165,448.668 593.665,394.168 647.5,340C 650.709,338.908 653.876,337.741 657,336.5C 660.223,329.614 658.057,326.614 650.5,327.5C 652.404,323.163 653.404,318.496 653.5,313.5C 653.22,308.443 652.22,303.609 650.5,299C 650.514,296.399 651.347,294.232 653,292.5C 653.667,287.5 653.667,282.5 653,277.5C 651.347,275.768 650.514,273.601 650.5,271C 649.843,267.503 651.009,265.003 654,263.5C 654.667,259.167 654.667,254.833 654,250.5C 653.311,249.643 652.478,248.977 651.5,248.5C 650.508,244.217 650.174,239.884 650.5,235.5C 651.822,235.67 652.989,235.337 654,234.5C 654.214,229.115 654.714,223.781 655.5,218.5C 657.611,217.051 659.944,216.051 662.5,215.5C 664.62,210.639 663.453,206.973 659,204.5C 658.667,148.833 658.333,93.1667 658,37.5C 657.5,37 657,36.5 656.5,36C 440.833,35.3333 225.167,35.3333 9.5,36C 8.29857,36.9025 7.46524,38.0692 7,39.5C 6.66667,97.8333 6.33333,156.167 6,214.5C 2.42246,218.174 1.58913,222.507 3.5,227.5C 5.7466,228.374 8.07994,228.708 10.5,228.5C 9.63213,233.446 8.2988,238.28 6.5,243C 6.04538,245.923 7.04538,248.09 9.5,249.5C 9.83333,251.167 10.1667,252.833 10.5,254.5C 9.16667,263.167 9.16667,271.833 10.5,280.5C 7.87466,289.503 7.87466,298.503 10.5,307.5C 9.04698,311.626 8.38031,315.96 8.5,320.5C 9.17401,325.853 9.84067,331.186 10.5,336.5C 6.76574,336.323 3.09907,336.656 -0.5,337.5C -0.5,224.833 -0.5,112.167 -0.5,-0.5 Z" />
    </g>
    <g>
        <path style="opacity:0.966" fill="#080706"
            d="M 1200.5,-0.5 C 1210.17,-0.5 1219.83,-0.5 1229.5,-0.5C 1257.96,3.22178 1283.96,13.3884 1307.5,30C 1321.28,42.4459 1334.45,55.6125 1347,69.5C 1361.86,88.5447 1374.2,109.211 1384,131.5C 1384.5,111.836 1384.67,92.1695 1384.5,72.5C 1419.26,71.8398 1453.93,71.1731 1488.5,70.5C 1489.25,69.469 1489.92,68.3024 1490.5,67C 1493.17,66.3333 1495.83,66.3333 1498.5,67C 1499.13,70.1292 1499.8,73.2959 1500.5,76.5C 1534.77,76.1544 1569.11,76.1544 1603.5,76.5C 1603.5,73.5 1603.5,70.5 1603.5,67.5C 1606.81,67.0632 1609.81,67.7298 1612.5,69.5C 1670.23,70.1705 1727.9,70.8372 1785.5,71.5C 1785.5,271.5 1785.5,471.5 1785.5,671.5C 1652.17,671.667 1518.83,671.5 1385.5,671C 1384.67,588.903 1384.17,506.737 1384,424.5C 1379.53,434.779 1374.53,444.779 1369,454.5C 1363.42,461.992 1358.09,469.659 1353,477.5C 1347.96,482.876 1343.29,488.542 1339,494.5C 1284.99,553.044 1220.82,567.877 1146.5,539C 1105.61,517.114 1074.45,485.614 1053,444.5C 1038.43,415.46 1027.43,385.127 1020,353.5C 1010.51,347.19 1011.35,342.857 1022.5,340.5C 1022.83,339.667 1023.17,338.833 1023.5,338C 1020.87,332.719 1019.54,327.053 1019.5,321C 1020.98,315.592 1021.65,310.092 1021.5,304.5C 1020.5,304.5 1019.5,304.5 1018.5,304.5C 1018.32,296.268 1018.99,288.102 1020.5,280C 1017.92,267.753 1018.25,255.587 1021.5,243.5C 1020.68,242.614 1019.68,242.281 1018.5,242.5C 1018.69,233.533 1020.35,224.866 1023.5,216.5C 1019.35,214.768 1015.02,213.601 1010.5,213C 1010.17,212.667 1009.83,212.333 1009.5,212C 1010.25,210.266 1010.75,208.433 1011,206.5C 1013.54,203.383 1016.54,200.717 1020,198.5C 1026.13,176.117 1033.46,154.117 1042,132.5C 1059.42,91.564 1084.92,57.7306 1118.5,31C 1121.81,30.3472 1124.47,28.6805 1126.5,26C 1148.75,11.4042 1173.42,2.57086 1200.5,-0.5 Z" />
    </g>
    <g>
        <path style="opacity:1" fill="#cecece"
            d="M 1229.5,-0.5 C 1414.83,-0.5 1600.17,-0.5 1785.5,-0.5C 1785.5,23.5 1785.5,47.5 1785.5,71.5C 1727.9,70.8372 1670.23,70.1705 1612.5,69.5C 1609.81,67.7298 1606.81,67.0632 1603.5,67.5C 1603.5,70.5 1603.5,73.5 1603.5,76.5C 1569.11,76.1544 1534.77,76.1544 1500.5,76.5C 1499.8,73.2959 1499.13,70.1292 1498.5,67C 1495.83,66.3333 1493.17,66.3333 1490.5,67C 1489.92,68.3024 1489.25,69.469 1488.5,70.5C 1453.48,69.84 1418.82,70.5067 1384.5,72.5C 1384.67,92.1695 1384.5,111.836 1384,131.5C 1374.2,109.211 1361.86,88.5447 1347,69.5C 1334.45,55.6125 1321.28,42.4459 1307.5,30C 1283.96,13.3884 1257.96,3.22178 1229.5,-0.5 Z" />
    </g>
    <g>
        <path style="opacity:1" fill="#feefb8"
            d="M 1386.5,157.5 C 1386.5,212.167 1386.5,266.833 1386.5,321.5C 1423.67,321.832 1460.67,321.498 1497.5,320.5C 1497.5,240.5 1497.5,160.5 1497.5,80.5C 1533.13,80.9536 1568.79,80.9536 1604.5,80.5C 1604.5,186.167 1604.5,291.833 1604.5,397.5C 1534.33,397.167 1464.33,397.501 1394.5,398.5C 1390.83,398.5 1387.17,398.5 1383.5,398.5C 1368.2,442.632 1342.87,479.799 1307.5,510C 1251.71,552.081 1193.71,555.414 1133.5,520C 1102.29,498.462 1077.79,470.962 1060,437.5C 1045.11,408.842 1034.61,378.676 1028.5,347C 1029.89,345.98 1031.39,345.147 1033,344.5C 1033.49,343.207 1033.66,341.873 1033.5,340.5C 1031.5,340.5 1029.5,340.5 1027.5,340.5C 1028.23,336.361 1029.23,332.361 1030.5,328.5C 1030.22,324.804 1029.72,321.137 1029,317.5C 1027.99,316.663 1026.82,316.33 1025.5,316.5C 1025.67,309.495 1026,302.495 1026.5,295.5C 1025.36,287.865 1024.69,280.199 1024.5,272.5C 1025.5,272.5 1026.5,272.5 1027.5,272.5C 1027.5,266.833 1027.5,261.167 1027.5,255.5C 1026.5,255.5 1025.5,255.5 1024.5,255.5C 1024.33,251.154 1024.5,246.821 1025,242.5C 1026.58,241.624 1027.58,240.291 1028,238.5C 1028.92,234.21 1029.42,229.877 1029.5,225.5C 1028.5,225.5 1027.5,225.5 1026.5,225.5C 1026.5,222.5 1026.5,219.5 1026.5,216.5C 1028.53,216.662 1030.53,216.495 1032.5,216C 1033.98,211.688 1032.31,209.855 1027.5,210.5C 1036.07,158.712 1056.57,112.378 1089,71.5C 1116.36,38.2345 1151.19,17.4011 1193.5,9C 1235.99,4.78523 1273.99,15.7852 1307.5,42C 1333.7,63.9093 1354.53,90.0759 1370,120.5C 1375.8,132.737 1381.3,145.071 1386.5,157.5 Z" />
    </g>
    <g>
        <path style="opacity:0.985" fill="#060605"
            d="M 484.5,719.5 C 324.5,719.5 164.5,719.5 4.5,719.5C 3.49551,718.317 2.66218,716.984 2,715.5C 2.16528,592.829 1.33195,470.496 -0.5,348.5C -0.5,344.833 -0.5,341.167 -0.5,337.5C 3.09907,336.656 6.76574,336.323 10.5,336.5C 9.84067,331.186 9.17401,325.853 8.5,320.5C 8.38031,315.96 9.04698,311.626 10.5,307.5C 7.87466,298.503 7.87466,289.503 10.5,280.5C 9.16667,271.833 9.16667,263.167 10.5,254.5C 10.1667,252.833 9.83333,251.167 9.5,249.5C 7.04538,248.09 6.04538,245.923 6.5,243C 8.2988,238.28 9.63213,233.446 10.5,228.5C 8.07994,228.708 5.7466,228.374 3.5,227.5C 1.58913,222.507 2.42246,218.174 6,214.5C 6.33333,156.167 6.66667,97.8333 7,39.5C 7.46524,38.0692 8.29857,36.9025 9.5,36C 225.167,35.3333 440.833,35.3333 656.5,36C 657,36.5 657.5,37 658,37.5C 658.333,93.1667 658.667,148.833 659,204.5C 663.453,206.973 664.62,210.639 662.5,215.5C 659.944,216.051 657.611,217.051 655.5,218.5C 654.714,223.781 654.214,229.115 654,234.5C 652.989,235.337 651.822,235.67 650.5,235.5C 650.174,239.884 650.508,244.217 651.5,248.5C 652.478,248.977 653.311,249.643 654,250.5C 654.667,254.833 654.667,259.167 654,263.5C 651.009,265.003 649.843,267.503 650.5,271C 650.514,273.601 651.347,275.768 653,277.5C 653.667,282.5 653.667,287.5 653,292.5C 651.347,294.232 650.514,296.399 650.5,299C 652.22,303.609 653.22,308.443 653.5,313.5C 653.404,318.496 652.404,323.163 650.5,327.5C 658.057,326.614 660.223,329.614 657,336.5C 653.876,337.741 650.709,338.908 647.5,340C 593.665,394.168 540.165,448.668 487,503.5C 486.667,574.833 486.333,646.167 486,717.5C 485.283,718.044 484.783,718.711 484.5,719.5 Z" />
    </g>
    <g>
        <path style="opacity:1" fill="#feefb8"
            d="M 387.5,43.5 C 475.167,43.5 562.833,43.5 650.5,43.5C 650.5,98.8333 650.5,154.167 650.5,209.5C 646.833,209.5 643.167,209.5 639.5,209.5C 639.5,210.833 639.5,212.167 639.5,213.5C 642.167,213.5 644.833,213.5 647.5,213.5C 645.596,217.837 644.596,222.504 644.5,227.5C 646.623,234.145 647.623,241.145 647.5,248.5C 646.178,248.33 645.011,248.663 644,249.5C 643.333,254.167 643.333,258.833 644,263.5C 645.011,264.337 646.178,264.67 647.5,264.5C 647.5,268.5 647.5,272.5 647.5,276.5C 646.178,276.33 645.011,276.663 644,277.5C 643.501,282.823 643.334,288.156 643.5,293.5C 644.833,293.5 646.167,293.5 647.5,293.5C 647.5,297.167 647.5,300.833 647.5,304.5C 646.178,304.33 645.011,304.663 644,305.5C 643.333,310.5 643.333,315.5 644,320.5C 645.011,321.337 646.178,321.67 647.5,321.5C 647.5,323.5 647.5,325.5 647.5,327.5C 644.552,327.223 641.719,327.556 639,328.5C 638.411,331.79 639.911,333.29 643.5,333C 589.054,388.113 534.554,443.28 480,498.5C 479.5,569.166 479.333,639.833 479.5,710.5C 424.833,710.5 370.167,710.5 315.5,710.5C 315.5,586.5 315.5,462.5 315.5,338.5C 215.5,338.5 115.5,338.5 15.5,338.5C 15.5,335.167 15.5,331.833 15.5,328.5C 16.8333,328.5 18.1667,328.5 19.5,328.5C 19.5,323.167 19.5,317.833 19.5,312.5C 18.1667,312.5 16.8333,312.5 15.5,312.5C 15.5,309.167 15.5,305.833 15.5,302.5C 16.8221,302.67 17.9887,302.337 19,301.5C 19.6667,296.833 19.6667,292.167 19,287.5C 17.9887,286.663 16.8221,286.33 15.5,286.5C 15.5,282.833 15.5,279.167 15.5,275.5C 16.8221,275.67 17.9887,275.337 19,274.5C 19.6667,269.833 19.6667,265.167 19,260.5C 15.9491,257.57 14.7824,253.903 15.5,249.5C 16.8221,249.67 17.9887,249.337 19,248.5C 19.6667,244.833 19.6667,241.167 19,237.5C 17.9887,236.663 16.8221,236.33 15.5,236.5C 15.5,232.833 15.5,229.167 15.5,225.5C 139.5,225.5 263.5,225.5 387.5,225.5C 387.5,164.833 387.5,104.167 387.5,43.5 Z" />
    </g>
    <g>
        <path style="opacity:1" fill="#c7af8b"
            d="M 382.5,45.5 C 382.5,103.833 382.5,162.167 382.5,220.5C 260.5,220.5 138.5,220.5 16.5,220.5C 16.5,162.167 16.5,103.833 16.5,45.5C 138.5,45.5 260.5,45.5 382.5,45.5 Z" />
    </g>
    <g>
        <path style="opacity:1" fill="#404040"
            d="M 1488.5,70.5 C 1453.93,71.1731 1419.26,71.8398 1384.5,72.5C 1418.82,70.5067 1453.48,69.84 1488.5,70.5 Z" />
    </g>
    <g>
        <path style="opacity:1" fill="#fdcb6d"
            d="M 1493.5,203.5 C 1493.5,241.167 1493.5,278.833 1493.5,316.5C 1459.5,316.5 1425.5,316.5 1391.5,316.5C 1390.33,237.334 1390.17,158.001 1391,78.5C 1414.43,77.5058 1437.93,77.1725 1461.5,77.5C 1461.33,119.168 1461.5,160.835 1462,202.5C 1472.42,203.487 1482.92,203.82 1493.5,203.5 Z" />
    </g>
    <g>
        <path style="opacity:1" fill="#f7a96a"
            d="M 1464.5,78.5 C 1474.5,78.5 1484.5,78.5 1494.5,78.5C 1494.5,81.1667 1494.5,83.8333 1494.5,86.5C 1484.5,86.5 1474.5,86.5 1464.5,86.5C 1464.5,83.8333 1464.5,81.1667 1464.5,78.5 Z" />
    </g>
    <g>
        <path style="opacity:1" fill="#fefefe"
            d="M 1776.5,79.5 C 1776.5,273.833 1776.5,468.167 1776.5,662.5C 1648.83,662.5 1521.17,662.5 1393.5,662.5C 1393.5,575.833 1393.5,489.167 1393.5,402.5C 1465.5,402.5 1537.5,402.5 1609.5,402.5C 1609.5,294.5 1609.5,186.5 1609.5,78.5C 1665.34,78.1677 1721,78.501 1776.5,79.5 Z" />
    </g>
    <g>
        <path style="opacity:1" fill="#f7a96a"
            d="M 1464.5,89.5 C 1474.5,89.5 1484.5,89.5 1494.5,89.5C 1494.5,91.8333 1494.5,94.1667 1494.5,96.5C 1484.5,96.5 1474.5,96.5 1464.5,96.5C 1464.5,94.1667 1464.5,91.8333 1464.5,89.5 Z" />
    </g>
    <g>
        <path style="opacity:1" fill="#c28553"
            d="M 1464.5,99.5 C 1474.5,99.5 1484.5,99.5 1494.5,99.5C 1494.5,101.5 1494.5,103.5 1494.5,105.5C 1484.5,105.5 1474.5,105.5 1464.5,105.5C 1464.5,103.5 1464.5,101.5 1464.5,99.5 Z" />
    </g>
    <g>
        <path style="opacity:1" fill="#feae6d"
            d="M 1465.5,100.5 C 1474.83,100.5 1484.17,100.5 1493.5,100.5C 1493.5,101.833 1493.5,103.167 1493.5,104.5C 1484.17,104.5 1474.83,104.5 1465.5,104.5C 1465.5,103.167 1465.5,101.833 1465.5,100.5 Z" />
    </g>
    <g>
        <path style="opacity:1" fill="#f7a96a"
            d="M 1494.5,108.5 C 1494.5,110.5 1494.5,112.5 1494.5,114.5C 1484.5,114.5 1474.5,114.5 1464.5,114.5C 1464.5,112.5 1464.5,110.5 1464.5,108.5C 1474.5,108.5 1484.5,108.5 1494.5,108.5 Z" />
    </g>
    <g>
        <path style="opacity:1" fill="#352417"
            d="M 1494.5,108.5 C 1495.49,118.319 1495.83,128.319 1495.5,138.5C 1495.17,138.5 1494.83,138.5 1494.5,138.5C 1491.83,138.5 1489.17,138.5 1486.5,138.5C 1488.97,137.683 1491.64,137.183 1494.5,137C 1484.32,136.83 1474.32,136.33 1464.5,135.5C 1464.83,135.5 1465.17,135.5 1465.5,135.5C 1475.17,135.5 1484.83,135.5 1494.5,135.5C 1494.5,133.5 1494.5,131.5 1494.5,129.5C 1494.5,129.167 1494.5,128.833 1494.5,128.5C 1494.5,127.833 1494.5,127.167 1494.5,126.5C 1494.5,123.5 1494.5,120.5 1494.5,117.5C 1484.5,117.5 1474.5,117.5 1464.5,117.5C 1474.32,116.67 1484.32,116.17 1494.5,116C 1484.32,115.83 1474.32,115.33 1464.5,114.5C 1474.5,114.5 1484.5,114.5 1494.5,114.5C 1494.5,112.5 1494.5,110.5 1494.5,108.5 Z" />
    </g>
    <g>
        <path style="opacity:1" fill="#b77e4e"
            d="M 1464.5,117.5 C 1474.5,117.5 1484.5,117.5 1494.5,117.5C 1494.5,120.5 1494.5,123.5 1494.5,126.5C 1484.5,126.5 1474.5,126.5 1464.5,126.5C 1464.5,123.5 1464.5,120.5 1464.5,117.5 Z" />
    </g>
    <g>
        <path style="opacity:1" fill="#feae6d"
            d="M 1465.5,118.5 C 1474.83,118.5 1484.17,118.5 1493.5,118.5C 1493.5,120.833 1493.5,123.167 1493.5,125.5C 1484.17,125.5 1474.83,125.5 1465.5,125.5C 1465.5,123.167 1465.5,120.833 1465.5,118.5 Z" />
    </g>
    <g>
        <path style="opacity:1" fill="#a57147"
            d="M 1494.5,128.5 C 1494.5,128.833 1494.5,129.167 1494.5,129.5C 1484.83,129.5 1475.17,129.5 1465.5,129.5C 1465.5,131.5 1465.5,133.5 1465.5,135.5C 1465.17,135.5 1464.83,135.5 1464.5,135.5C 1464.5,133.167 1464.5,130.833 1464.5,128.5C 1474.5,128.5 1484.5,128.5 1494.5,128.5 Z" />
    </g>
    <g>
        <path style="opacity:1" fill="#fcac6c"
            d="M 1494.5,129.5 C 1494.5,131.5 1494.5,133.5 1494.5,135.5C 1484.83,135.5 1475.17,135.5 1465.5,135.5C 1465.5,133.5 1465.5,131.5 1465.5,129.5C 1475.17,129.5 1484.83,129.5 1494.5,129.5 Z" />
    </g>
    <g>
        <path style="opacity:1" fill="#f6a86a"
            d="M 1486.5,138.5 C 1489.17,138.5 1491.83,138.5 1494.5,138.5C 1494.5,141.167 1494.5,143.833 1494.5,146.5C 1484.5,146.5 1474.5,146.5 1464.5,146.5C 1464.5,143.833 1464.5,141.167 1464.5,138.5C 1471.83,138.5 1479.17,138.5 1486.5,138.5 Z" />
    </g>
    <g>
        <path style="opacity:1" fill="#c08452"
            d="M 1494.5,149.5 C 1494.5,149.833 1494.5,150.167 1494.5,150.5C 1484.83,150.5 1475.17,150.5 1465.5,150.5C 1465.5,153.167 1465.5,155.833 1465.5,158.5C 1465.17,158.5 1464.83,158.5 1464.5,158.5C 1464.5,155.5 1464.5,152.5 1464.5,149.5C 1474.5,149.5 1484.5,149.5 1494.5,149.5 Z" />
    </g>
    <g>
        <path style="opacity:1" fill="#fdae6d"
            d="M 1494.5,150.5 C 1494.5,153.167 1494.5,155.833 1494.5,158.5C 1484.83,158.5 1475.17,158.5 1465.5,158.5C 1465.5,155.833 1465.5,153.167 1465.5,150.5C 1475.17,150.5 1484.83,150.5 1494.5,150.5 Z" />
    </g>
    <g>
        <path style="opacity:1" fill="#5e4028"
            d="M 1494.5,138.5 C 1494.83,138.5 1495.17,138.5 1495.5,138.5C 1495.5,148.833 1495.5,159.167 1495.5,169.5C 1495.17,169.5 1494.83,169.5 1494.5,169.5C 1494.5,168.167 1494.5,166.833 1494.5,165.5C 1494.5,164.5 1494.5,163.5 1494.5,162.5C 1494.5,161.833 1494.17,161.5 1493.5,161.5C 1484.04,159.843 1474.38,158.843 1464.5,158.5C 1464.83,158.5 1465.17,158.5 1465.5,158.5C 1475.17,158.5 1484.83,158.5 1494.5,158.5C 1494.5,155.833 1494.5,153.167 1494.5,150.5C 1494.5,150.167 1494.5,149.833 1494.5,149.5C 1484.71,147.842 1474.71,146.842 1464.5,146.5C 1474.5,146.5 1484.5,146.5 1494.5,146.5C 1494.5,143.833 1494.5,141.167 1494.5,138.5 Z" />
    </g>
    <g>
        <path style="opacity:1" fill="#feae6d"
            d="M 1494.5,162.5 C 1494.5,163.5 1494.5,164.5 1494.5,165.5C 1493.57,166.568 1493.23,167.901 1493.5,169.5C 1484.17,169.5 1474.83,169.5 1465.5,169.5C 1465.5,167.167 1465.5,164.833 1465.5,162.5C 1475.17,162.5 1484.83,162.5 1494.5,162.5 Z" />
    </g>
    <g>
        <path style="opacity:1" fill="#d08f59"
            d="M 1493.5,161.5 C 1494.17,161.5 1494.5,161.833 1494.5,162.5C 1484.83,162.5 1475.17,162.5 1465.5,162.5C 1465.5,164.833 1465.5,167.167 1465.5,169.5C 1474.83,169.5 1484.17,169.5 1493.5,169.5C 1493.23,167.901 1493.57,166.568 1494.5,165.5C 1494.5,166.833 1494.5,168.167 1494.5,169.5C 1484.68,170.494 1474.68,170.827 1464.5,170.5C 1464.5,167.5 1464.5,164.5 1464.5,161.5C 1474.17,161.5 1483.83,161.5 1493.5,161.5 Z" />
    </g>
    <g>
        <path style="opacity:1" fill="#302115"
            d="M 1494.5,169.5 C 1494.83,169.5 1495.17,169.5 1495.5,169.5C 1495.81,173.371 1495.48,177.038 1494.5,180.5C 1494.5,178.167 1494.5,175.833 1494.5,173.5C 1484.83,173.5 1475.17,173.5 1465.5,173.5C 1465.17,173.5 1464.83,173.5 1464.5,173.5C 1474.32,172.67 1484.32,172.17 1494.5,172C 1484.32,171.83 1474.32,171.33 1464.5,170.5C 1474.68,170.827 1484.68,170.494 1494.5,169.5 Z" />
    </g>
    <g>
        <path style="opacity:1" fill="#f8aa6b"
            d="M 1465.5,173.5 C 1475.17,173.5 1484.83,173.5 1494.5,173.5C 1494.5,175.833 1494.5,178.167 1494.5,180.5C 1484.83,180.5 1475.17,180.5 1465.5,180.5C 1465.5,178.167 1465.5,175.833 1465.5,173.5 Z" />
    </g>
    <g>
        <path style="opacity:1" fill="#9c6b43"
            d="M 1464.5,173.5 C 1464.83,173.5 1465.17,173.5 1465.5,173.5C 1465.5,175.833 1465.5,178.167 1465.5,180.5C 1475.17,180.5 1484.83,180.5 1494.5,180.5C 1484.68,181.494 1474.68,181.827 1464.5,181.5C 1464.5,178.833 1464.5,176.167 1464.5,173.5 Z" />
    </g>
    <g>
        <path style="opacity:1" fill="#fcad6d"
            d="M 1494.5,184.5 C 1494.5,186.5 1494.5,188.5 1494.5,190.5C 1484.83,190.5 1475.17,190.5 1465.5,190.5C 1465.5,188.5 1465.5,186.5 1465.5,184.5C 1475.17,184.5 1484.83,184.5 1494.5,184.5 Z" />
    </g>
    <g>
        <path style="opacity:1" fill="#946640"
            d="M 1494.5,184.5 C 1484.83,184.5 1475.17,184.5 1465.5,184.5C 1465.5,186.5 1465.5,188.5 1465.5,190.5C 1475.17,190.5 1484.83,190.5 1494.5,190.5C 1484.68,191.494 1474.68,191.827 1464.5,191.5C 1464.5,188.833 1464.5,186.167 1464.5,183.5C 1474.68,183.173 1484.68,183.506 1494.5,184.5 Z" />
    </g>
    <g>
        <path style="opacity:1" fill="#a97449"
            d="M 1464.5,193.5 C 1474.5,193.5 1484.5,193.5 1494.5,193.5C 1494.5,195.833 1494.5,198.167 1494.5,200.5C 1484.5,200.5 1474.5,200.5 1464.5,200.5C 1464.5,198.167 1464.5,195.833 1464.5,193.5 Z" />
    </g>
    <g>
        <path style="opacity:1" fill="#feae6e"
            d="M 1465.5,194.5 C 1474.83,194.5 1484.17,194.5 1493.5,194.5C 1493.5,196.167 1493.5,197.833 1493.5,199.5C 1484.17,199.5 1474.83,199.5 1465.5,199.5C 1465.5,197.833 1465.5,196.167 1465.5,194.5 Z" />
    </g>
    <g>
        <path style="opacity:1" fill="#a69174"
            d="M 382.5,45.5 C 383.499,103.998 383.832,162.664 383.5,221.5C 260.999,221.833 138.666,221.5 16.5,220.5C 138.5,220.5 260.5,220.5 382.5,220.5C 382.5,162.167 382.5,103.833 382.5,45.5 Z" />
    </g>
    <g>
        <path style="opacity:1" fill="#b0986d"
            d="M 1493.5,203.5 C 1494.5,241.33 1494.83,279.33 1494.5,317.5C 1460,317.832 1425.66,317.498 1391.5,316.5C 1425.5,316.5 1459.5,316.5 1493.5,316.5C 1493.5,278.833 1493.5,241.167 1493.5,203.5 Z" />
    </g>
    <g>
        <path style="opacity:1" fill="#484433"
            d="M 1386.5,157.5 C 1387.5,211.664 1387.83,265.997 1387.5,320.5C 1424.17,320.5 1460.83,320.5 1497.5,320.5C 1460.67,321.498 1423.67,321.832 1386.5,321.5C 1386.5,266.833 1386.5,212.167 1386.5,157.5 Z" />
    </g>
    <g>
        <path style="opacity:1" fill="#d4d4d4"
            d="M 311.5,343.5 C 211.833,343.5 112.167,343.5 12.5,343.5C 12.5,394.5 12.5,445.5 12.5,496.5C 11.5011,445.336 11.1678,394.003 11.5,342.5C 111.668,342.167 211.668,342.501 311.5,343.5 Z" />
    </g>
    <g>
        <path style="opacity:1" fill="#fefffe"
            d="M 311.5,343.5 C 311.5,394.5 311.5,445.5 311.5,496.5C 211.833,496.5 112.167,496.5 12.5,496.5C 12.5,445.5 12.5,394.5 12.5,343.5C 112.167,343.5 211.833,343.5 311.5,343.5 Z" />
    </g>
    <g>
        <path style="opacity:1" fill="#cecfce"
            d="M -0.5,348.5 C 1.33195,470.496 2.16528,592.829 2,715.5C 2.66218,716.984 3.49551,718.317 4.5,719.5C 2.83333,719.5 1.16667,719.5 -0.5,719.5C -0.5,595.833 -0.5,472.167 -0.5,348.5 Z" />
    </g>
    <g>
        <path style="opacity:1" fill="#b3a882"
            d="M 1604.5,80.5 C 1605.5,186.332 1605.83,292.332 1605.5,398.5C 1535.17,398.5 1464.83,398.5 1394.5,398.5C 1464.33,397.501 1534.33,397.167 1604.5,397.5C 1604.5,291.833 1604.5,186.167 1604.5,80.5 Z" />
    </g>
    <g>
        <path style="opacity:0.917" fill="#020202"
            d="M 689.5,435.5 C 694.984,435.438 696.817,438.105 695,443.5C 650.892,487.608 606.892,531.608 563,575.5C 562.5,622.165 562.333,668.832 562.5,715.5C 559.5,715.5 556.5,715.5 553.5,715.5C 553.333,667.166 553.5,618.832 554,570.5C 598.667,525.336 643.833,480.336 689.5,435.5 Z" />
    </g>
    <g>
        <path style="opacity:1" fill="#caa257"
            d="M 311.5,502.5 C 211.43,502.169 111.43,502.502 11.5,503.5C 61.1622,502.167 111.162,501.5 161.5,501.5C 211.668,501.5 261.668,501.833 311.5,502.5 Z" />
    </g>
    <g>
        <path style="opacity:1" fill="#fecc6d"
            d="M 311.5,502.5 C 311.5,571.833 311.5,641.167 311.5,710.5C 211.5,710.5 111.5,710.5 11.5,710.5C 11.5,641.5 11.5,572.5 11.5,503.5C 111.43,502.502 211.43,502.169 311.5,502.5 Z" />
    </g>
    <g>
        <path style="opacity:1" fill="#8c8c8c"
            d="M 1776.5,79.5 C 1777.5,273.999 1777.83,468.666 1777.5,663.5C 1649.17,663.5 1520.83,663.5 1392.5,663.5C 1392.17,576.332 1392.5,489.332 1393.5,402.5C 1393.5,489.167 1393.5,575.833 1393.5,662.5C 1521.17,662.5 1648.83,662.5 1776.5,662.5C 1776.5,468.167 1776.5,273.833 1776.5,79.5 Z" />
    </g>
</svg>