<?xml version="1.0" encoding="UTF-8"?>
<!DOCTYPE svg PUBLIC "-//W3C//DTD SVG 1.1//EN" "http://www.w3.org/Graphics/SVG/1.1/DTD/svg11.dtd">
<svg xmlns="http://www.w3.org/2000/svg" version="1.1" width="3400px" height="1700px"
    style="shape-rendering:geometricPrecision; text-rendering:geometricPrecision; image-rendering:optimizeQuality; fill-rule:evenodd; clip-rule:evenodd"
    xmlns:xlink="http://www.w3.org/1999/xlink">
    <g>
        <path style="opacity:0.999" fill="#060403"
            d="M 35.5,439.5 C 1149.5,439.5 2263.5,439.5 3377.5,439.5C 3377.33,551.834 3377.5,664.167 3378,776.5C 3379,777.167 3380,777.833 3381,778.5C 3381.5,783.155 3381.67,787.821 3381.5,792.5C 3378.53,793.398 3375.7,794.731 3373,796.5C 3372.79,800.545 3373.29,804.545 3374.5,808.5C 3373.9,811.68 3373.23,814.847 3372.5,818C 3373.17,821 3373.83,824 3374.5,827C 3373.37,830.771 3372.71,834.605 3372.5,838.5C 3373.5,838.5 3374.5,838.5 3375.5,838.5C 3375.66,841.187 3375.5,843.854 3375,846.5C 3373.47,847.545 3372.64,849.045 3372.5,851C 3375.17,856 3375.17,861 3372.5,866C 3373.17,868.667 3373.83,871.333 3374.5,874C 3373.92,876.194 3373.25,878.36 3372.5,880.5C 3375.17,885.167 3375.17,889.833 3372.5,894.5C 3375.1,899.348 3375.1,904.181 3372.5,909C 3373.97,913.084 3376.97,915.251 3381.5,915.5C 3381.67,920.179 3381.5,924.845 3381,929.5C 3380.31,930.357 3379.48,931.023 3378.5,931.5C 3377.5,1034.83 3377.17,1138.16 3377.5,1241.5C 3264.5,1241.5 3151.5,1241.5 3038.5,1241.5C 3038.5,1250.83 3038.5,1260.17 3038.5,1269.5C 2037.5,1269.5 1036.5,1269.5 35.5,1269.5C 35.8333,1156.83 35.5,1044.16 34.5,931.5C 33.5224,931.023 32.6891,930.357 32,929.5C 31.5008,924.845 31.3342,920.179 31.5,915.5C 37.3923,915.236 40.7256,912.236 41.5,906.5C 40.5,906.5 39.5,906.5 38.5,906.5C 38.5,903.5 38.5,900.5 38.5,897.5C 39.5,897.5 40.5,897.5 41.5,897.5C 41.5,895.5 41.5,893.5 41.5,891.5C 40.5,891.5 39.5,891.5 38.5,891.5C 38.5,888.833 38.5,886.167 38.5,883.5C 39.5,883.5 40.5,883.5 41.5,883.5C 41.5,881.5 41.5,879.5 41.5,877.5C 40.5,877.5 39.5,877.5 38.5,877.5C 39.1328,872.386 40.1328,867.386 41.5,862.5C 40.5,862.5 39.5,862.5 38.5,862.5C 38.5,859.833 38.5,857.167 38.5,854.5C 39.5,854.5 40.5,854.5 41.5,854.5C 41.5,852.167 41.5,849.833 41.5,847.5C 40.1779,847.67 39.0113,847.337 38,846.5C 37.5026,843.854 37.3359,841.187 37.5,838.5C 38.8333,838.5 40.1667,838.5 41.5,838.5C 41.5,836.167 41.5,833.833 41.5,831.5C 40.5,831.5 39.5,831.5 38.5,831.5C 38.5,828.5 38.5,825.5 38.5,822.5C 39.5,822.5 40.5,822.5 41.5,822.5C 41.5,819.5 41.5,816.5 41.5,813.5C 40.5,813.5 39.5,813.5 38.5,813.5C 38.5,810.167 38.5,806.833 38.5,803.5C 39.5,803.5 40.5,803.5 41.5,803.5C 41.6621,801.473 41.4955,799.473 41,797.5C 38.1315,795.15 34.9648,793.484 31.5,792.5C 31.3342,787.821 31.5008,783.155 32,778.5C 33,777.833 34,777.167 35,776.5C 35.5,664.167 35.6667,551.834 35.5,439.5 Z" />
    </g>
    <g>
        <path style="opacity:1" fill="#1e0700"
            d="M 814.5,452.5 C 649.5,452.5 484.5,452.5 319.5,452.5C 321.681,450.982 324.181,449.982 327,449.5C 474.709,450.832 622.375,450.832 770,449.5C 783.758,450.324 797.592,450.824 811.5,451C 812.737,451.232 813.737,451.732 814.5,452.5 Z" />
    </g>
    <g>
        <path style="opacity:1" fill="#27150d"
            d="M 1324.5,452.5 C 1159.5,452.5 994.5,452.5 829.5,452.5C 829.5,561.5 829.5,670.5 829.5,779.5C 828.778,779.082 828.278,778.416 828,777.5C 827.167,668.832 827.333,560.165 828.5,451.5C 829.216,450.689 830.05,450.022 831,449.5C 992.698,450.805 1154.53,450.805 1316.5,449.5C 1319.46,450.009 1322.13,451.009 1324.5,452.5 Z" />
    </g>
    <g>
        <path style="opacity:1" fill="#1d0600"
            d="M 1834.5,452.5 C 1669.5,452.5 1504.5,452.5 1339.5,452.5C 1346.68,450.823 1354.18,449.823 1362,449.5C 1517.63,450.732 1672.96,450.732 1828,449.5C 1830.53,449.95 1832.7,450.95 1834.5,452.5 Z" />
    </g>
    <g>
        <path style="opacity:1" fill="#1d0700"
            d="M 2343.5,452.5 C 2178.83,452.5 2014.17,452.5 1849.5,452.5C 1850.61,451.71 1851.94,451.21 1853.5,451C 2007.54,450.832 2161.54,450.332 2315.5,449.5C 2324.83,450.589 2333.66,450.589 2342,449.5C 2343.04,450.244 2343.54,451.244 2343.5,452.5 Z" />
    </g>
    <g>
        <path style="opacity:1" fill="#1d0600"
            d="M 2853.5,452.5 C 2688.83,452.5 2524.17,452.5 2359.5,452.5C 2359.61,451.883 2359.94,451.383 2360.5,451C 2365.75,450.807 2370.92,450.307 2376,449.5C 2534.72,449.782 2693.88,450.782 2853.5,452.5 Z" />
    </g>
    <g>
        <path style="opacity:1" fill="#1d0600"
            d="M 3363.5,452.5 C 3198.17,452.5 3032.83,452.5 2867.5,452.5C 2867.61,451.883 2867.94,451.383 2868.5,451C 3029.74,450.833 3190.9,450.333 3352,449.5C 3355.96,449.674 3359.79,450.674 3363.5,452.5 Z" />
    </g>
    <g>
        <path style="opacity:1" fill="#a79f93"
            d="M 48.5,453.5 C 133.998,452.501 219.665,452.167 305.5,452.5C 305.5,453.833 305.5,455.167 305.5,456.5C 304.596,455.791 304.263,454.791 304.5,453.5C 219.167,453.5 133.833,453.5 48.5,453.5 Z" />
    </g>
    <g>
        <path style="opacity:1" fill="#feae6f"
            d="M 319.5,452.5 C 484.5,452.5 649.5,452.5 814.5,452.5C 815.499,561.332 815.833,670.332 815.5,779.5C 650.167,779.5 484.833,779.5 319.5,779.5C 319.5,670.5 319.5,561.5 319.5,452.5 Z" />
    </g>
    <g>
        <path style="opacity:1" fill="#feae6f"
            d="M 1324.5,452.5 C 1325.5,561.332 1325.83,670.332 1325.5,779.5C 1160.17,779.5 994.833,779.5 829.5,779.5C 829.5,670.5 829.5,561.5 829.5,452.5C 994.5,452.5 1159.5,452.5 1324.5,452.5 Z" />
    </g>
    <g>
        <path style="opacity:1" fill="#feae6f"
            d="M 1339.5,452.5 C 1504.5,452.5 1669.5,452.5 1834.5,452.5C 1834.83,561.57 1834.5,670.57 1833.5,779.5C 1668.5,779.5 1503.5,779.5 1338.5,779.5C 1338.17,670.332 1338.5,561.332 1339.5,452.5 Z" />
    </g>
    <g>
        <path style="opacity:1" fill="#feae6f"
            d="M 2359.5,452.5 C 2524.17,452.5 2688.83,452.5 2853.5,452.5C 2853.83,561.668 2853.5,670.668 2852.5,779.5C 2688.17,779.667 2523.83,779.5 2359.5,779C 2358.5,670.57 2358.17,562.07 2358.5,453.5C 2358.5,452.833 2358.83,452.5 2359.5,452.5 Z" />
    </g>
    <g>
        <path style="opacity:1" fill="#feae6f"
            d="M 2867.5,452.5 C 3032.83,452.5 3198.17,452.5 3363.5,452.5C 3363.5,561.5 3363.5,670.5 3363.5,779.5C 3198.17,779.5 3032.83,779.5 2867.5,779.5C 2867.5,670.5 2867.5,561.5 2867.5,452.5 Z" />
    </g>
    <g>
        <path style="opacity:1" fill="#feaf70"
            d="M 48.5,453.5 C 133.833,453.5 219.167,453.5 304.5,453.5C 304.263,454.791 304.596,455.791 305.5,456.5C 305.5,564.167 305.5,671.833 305.5,779.5C 219.833,779.5 134.167,779.5 48.5,779.5C 48.5,670.833 48.5,562.167 48.5,453.5 Z" />
    </g>
    <g>
        <path style="opacity:1" fill="#feae6f"
            d="M 1849.5,452.5 C 2014.17,452.5 2178.83,452.5 2343.5,452.5C 2343.83,561.404 2343.5,670.237 2342.5,779C 2177.83,779.5 2013.17,779.667 1848.5,779.5C 1848.17,670.332 1848.5,561.332 1849.5,452.5 Z" />
    </g>
    <g>
        <path style="opacity:1" fill="#563212"
            d="M 1834.5,452.5 C 1835.17,506.832 1835.5,561.332 1835.5,616C 1835.5,670.837 1834.83,725.337 1833.5,779.5C 1834.5,670.57 1834.83,561.57 1834.5,452.5 Z" />
    </g>
    <g>
        <path style="opacity:1" fill="#815839"
            d="M 2343.5,452.5 C 2344.83,561.569 2344.83,670.736 2343.5,780C 2178.33,780.833 2013.33,780.666 1848.5,779.5C 2013.17,779.667 2177.83,779.5 2342.5,779C 2343.5,670.237 2343.83,561.404 2343.5,452.5 Z" />
    </g>
    <g>
        <path style="opacity:1" fill="#724c2e"
            d="M 2358.5,453.5 C 2358.17,562.07 2358.5,670.57 2359.5,779C 2523.83,779.5 2688.17,779.667 2852.5,779.5C 2688,780.5 2523.33,780.833 2358.5,780.5C 2357.17,671.402 2357.17,562.402 2358.5,453.5 Z" />
    </g>
    <g>
        <path style="opacity:1" fill="#22120a"
            d="M 2853.5,452.5 C 2854.31,454.631 2854.81,456.964 2855,459.5C 2855.17,565.873 2855.67,672.207 2856.5,778.5C 2856.02,779.478 2855.36,780.311 2854.5,781C 2847.59,781.186 2840.75,781.686 2834,782.5C 2675.67,781.167 2517.33,781.167 2359,782.5C 2358.54,781.906 2358.37,781.239 2358.5,780.5C 2523.33,780.833 2688,780.5 2852.5,779.5C 2853.5,670.668 2853.83,561.668 2853.5,452.5 Z" />
    </g>
    <g>
        <path style="opacity:1" fill="#fdf2bc"
            d="M 3363.5,813.5 C 3363.94,817.179 3363.27,820.512 3361.5,823.5C 3360.53,825.948 3360.19,828.615 3360.5,831.5C 3361.5,831.5 3362.5,831.5 3363.5,831.5C 3363.81,833.924 3363.47,836.257 3362.5,838.5C 3359.49,840.357 3358.83,842.857 3360.5,846C 3361.45,846.483 3362.45,846.649 3363.5,846.5C 3363.72,850.94 3362.72,854.94 3360.5,858.5C 3362.61,861.736 3363.61,865.403 3363.5,869.5C 3360.51,869.155 3359.18,870.488 3359.5,873.5C 3359.18,876.512 3360.51,877.845 3363.5,877.5C 3363.5,879.5 3363.5,881.5 3363.5,883.5C 3358.67,883.385 3357.34,885.552 3359.5,890C 3364.02,890.382 3365.69,892.882 3364.5,897.5C 3358.69,897.062 3357.02,899.562 3359.5,905C 3360.79,905.49 3362.13,905.657 3363.5,905.5C 3363.5,908.833 3363.5,912.167 3363.5,915.5C 2344.5,915.5 1325.5,915.5 306.5,915.5C 306.832,1004.07 306.498,1092.57 305.5,1181C 220.167,1181.67 134.833,1181.67 49.5,1181C 48.5122,1169.58 48.1789,1158.08 48.5,1146.5C 78.8333,1146.5 109.167,1146.5 139.5,1146.5C 139.5,1069.5 139.5,992.5 139.5,915.5C 109.498,915.667 79.4981,915.5 49.5,915C 48.5495,911.943 48.2161,908.777 48.5,905.5C 54.3133,905.938 55.98,903.438 53.5,898C 51.8659,897.506 50.1992,897.34 48.5,897.5C 48.5,895.167 48.5,892.833 48.5,890.5C 54.1581,891.321 55.8248,889.154 53.5,884C 51.8659,883.506 50.1992,883.34 48.5,883.5C 48.5,881.5 48.5,879.5 48.5,877.5C 51.9304,878.245 53.597,876.911 53.5,873.5C 53.597,870.089 51.9304,868.755 48.5,869.5C 48.5,867.167 48.5,864.833 48.5,862.5C 51.488,862.845 52.8213,861.512 52.5,858.5C 52.8213,855.488 51.488,854.155 48.5,854.5C 48.5,851.833 48.5,849.167 48.5,846.5C 51.5904,847.17 53.257,846.003 53.5,843C 53.2515,839.918 51.5849,838.418 48.5,838.5C 48.5,836.167 48.5,833.833 48.5,831.5C 49.8333,831.5 51.1667,831.5 52.5,831.5C 52.5,828.833 52.5,826.167 52.5,823.5C 51.1667,823.5 49.8333,823.5 48.5,823.5C 48.5,820.167 48.5,816.833 48.5,813.5C 50.1439,813.714 51.6439,813.38 53,812.5C 53.498,809.518 53.6646,806.518 53.5,803.5C 51.8333,803.5 50.1667,803.5 48.5,803.5C 48.5,799.833 48.5,796.167 48.5,792.5C 1153.5,792.333 2258.5,792.5 3363.5,793C 3364.46,796.394 3364.79,799.894 3364.5,803.5C 3362.83,803.5 3361.17,803.5 3359.5,803.5C 3359.34,806.518 3359.5,809.518 3360,812.5C 3361.01,813.337 3362.18,813.67 3363.5,813.5 Z" />
    </g>
    <g>
        <path style="opacity:1" fill="#75715c"
            d="M 3363.5,813.5 C 3364.48,816.625 3364.81,819.958 3364.5,823.5C 3363.5,823.5 3362.5,823.5 3361.5,823.5C 3363.27,820.512 3363.94,817.179 3363.5,813.5 Z" />
    </g>
    <g>
        <path style="opacity:1" fill="#180100"
            d="M 3023.5,928.5 C 2801.67,928.167 2580,928.5 2358.5,929.5C 2358.17,929.5 2357.83,929.5 2357.5,929.5C 2468.16,928.167 2579.16,927.5 2690.5,927.5C 2801.67,927.5 2912.67,927.833 3023.5,928.5 Z" />
    </g>
    <g>
        <path style="opacity:1" fill="#835d46"
            d="M 125.5,930.5 C 118.577,929.851 111.577,929.517 104.5,929.5C 97.4649,929.503 90.7983,930.17 84.5,931.5C 83.8333,931.5 83.5,931.167 83.5,930.5C 90.1333,929.17 97.1333,928.503 104.5,928.5C 111.867,928.503 118.867,929.17 125.5,930.5 Z" />
    </g>
    <g>
        <path style="opacity:1" fill="#fdae6f"
            d="M 80.5,930.5 C 92.871,952.523 105.204,974.523 117.5,996.5C 117.167,996.833 116.833,997.167 116.5,997.5C 93.658,985.569 71.3247,972.902 49.5,959.5C 49.5,949.5 49.5,939.5 49.5,929.5C 59.9154,929.192 70.2487,929.525 80.5,930.5 Z" />
    </g>
    <g>
        <path style="opacity:1" fill="#feae6f"
            d="M 125.5,930.5 C 125.833,953.843 125.5,977.176 124.5,1000.5C 123.817,1000.14 123.15,999.804 122.5,999.5C 121.554,995.608 120.054,991.941 118,988.5C 106.83,969.491 95.6628,950.491 84.5,931.5C 90.7983,930.17 97.4649,929.503 104.5,929.5C 111.577,929.517 118.577,929.851 125.5,930.5 Z" />
    </g>
    <g>
        <path style="opacity:1" fill="#fefefe"
            d="M 319.5,929.5 C 541.167,929.5 762.833,929.5 984.5,929.5C 984.5,1038.17 984.5,1146.83 984.5,1255.5C 762.833,1255.5 541.167,1255.5 319.5,1255.5C 319.5,1146.83 319.5,1038.17 319.5,929.5 Z" />
    </g>
    <g>
        <path style="opacity:1" fill="#feae70"
            d="M 999.5,928.5 C 1221.17,928.333 1442.83,928.5 1664.5,929C 1665.67,1037.76 1665.83,1146.6 1665,1255.5C 1443.24,1256.67 1221.4,1256.83 999.5,1256C 998.168,1146.83 998.168,1037.67 999.5,928.5 Z" />
    </g>
    <g>
        <path style="opacity:1" fill="#feae70"
            d="M 1678.5,1255.5 C 1678.17,1146.76 1678.5,1038.1 1679.5,929.5C 1900.67,928.334 2122,928.167 2343.5,929C 2344.17,983.43 2344.5,1037.93 2344.5,1092.5C 2344.5,1147.07 2344.17,1201.57 2343.5,1256C 2121.76,1256.83 1900.1,1256.67 1678.5,1255.5 Z" />
    </g>
    <g>
        <path style="opacity:1" fill="#feae6f"
            d="M 2358.5,929.5 C 2580.17,929.5 2801.83,929.5 3023.5,929.5C 3023.17,1033.67 3023.5,1137.67 3024.5,1241.5C 3024.8,1246.43 3024.47,1251.26 3023.5,1256C 2801.67,1256.83 2580,1256.67 2358.5,1255.5C 2358.34,1252.47 2359.01,1249.64 2360.5,1247C 2359.81,1141.19 2359.15,1035.35 2358.5,929.5 Z" />
    </g>
    <g>
        <path style="opacity:1" fill="#feaf6f"
            d="M 3040.5,929.5 C 3040.83,929.5 3041.17,929.5 3041.5,929.5C 3086.37,930.172 3131.37,930.838 3176.5,931.5C 3181.53,931.806 3186.86,931.473 3192.5,930.5C 3192.23,932.099 3192.57,933.432 3193.5,934.5C 3192.4,989.192 3192.4,1043.19 3193.5,1096.5C 3192.72,1133.35 3192.72,1170.68 3193.5,1208.5C 3192.86,1214.03 3192.19,1219.53 3191.5,1225C 3191.83,1225.33 3192.17,1225.67 3192.5,1226C 3191.58,1226.28 3190.92,1226.78 3190.5,1227.5C 3189.83,1227.5 3189.17,1227.5 3188.5,1227.5C 3186.51,1226.66 3184.35,1225.99 3182,1225.5C 3137.25,1226.47 3092.92,1226.8 3049,1226.5C 3045.96,1226.39 3043.13,1225.72 3040.5,1224.5C 3039.83,1133.33 3039.17,1042.33 3038.5,951.5C 3038.04,944.003 3038.7,936.669 3040.5,929.5 Z" />
    </g>
    <g>
        <path style="opacity:1" fill="#b6a690"
            d="M 3041.5,929.5 C 3092.17,929.5 3142.83,929.5 3193.5,929.5C 3193.5,931.167 3193.5,932.833 3193.5,934.5C 3192.57,933.432 3192.23,932.099 3192.5,930.5C 3186.86,931.473 3181.53,931.806 3176.5,931.5C 3131.37,930.838 3086.37,930.172 3041.5,929.5 Z" />
    </g>
    <g>
        <path style="opacity:1" fill="#fdad6f"
            d="M 3284.5,929.5 C 3284.5,936.833 3284.5,944.167 3284.5,951.5C 3258.83,951.5 3233.17,951.5 3207.5,951.5C 3206.51,944.352 3206.18,937.019 3206.5,929.5C 3232.5,929.5 3258.5,929.5 3284.5,929.5 Z" />
    </g>
    <g>
        <path style="opacity:1" fill="#feae70"
            d="M 3287.5,930.5 C 3311.84,930.333 3336.17,930.5 3360.5,931C 3361.67,931.5 3362.5,932.333 3363,933.5C 3363.5,939.157 3363.67,944.824 3363.5,950.5C 3338.17,950.5 3312.83,950.5 3287.5,950.5C 3287.5,943.833 3287.5,937.167 3287.5,930.5 Z" />
    </g>
    <g>
        <path style="opacity:1" fill="#89614c"
            d="M 3287.5,930.5 C 3311.99,929.502 3336.66,929.169 3361.5,929.5C 3362.5,929.5 3363.5,929.5 3364.5,929.5C 3365.13,937.243 3364.46,944.576 3362.5,951.5C 3337.33,951.831 3312.33,951.498 3287.5,950.5C 3312.83,950.5 3338.17,950.5 3363.5,950.5C 3363.67,944.824 3363.5,939.157 3363,933.5C 3362.5,932.333 3361.67,931.5 3360.5,931C 3336.17,930.5 3311.84,930.333 3287.5,930.5 Z" />
    </g>
    <g>
        <path style="opacity:1" fill="#55331f"
            d="M 3207.5,954.5 C 3207.5,954.167 3207.5,953.833 3207.5,953.5C 3233.19,952.843 3258.52,953.509 3283.5,955.5C 3258.24,954.51 3232.91,954.177 3207.5,954.5 Z" />
    </g>
    <g>
        <path style="opacity:1" fill="#feaf70"
            d="M 3207.5,954.5 C 3232.91,954.177 3258.24,954.51 3283.5,955.5C 3283.5,963.833 3283.5,972.167 3283.5,980.5C 3258.17,980.5 3232.83,980.5 3207.5,980.5C 3207.5,971.833 3207.5,963.167 3207.5,954.5 Z" />
    </g>
    <g>
        <path style="opacity:1" fill="#feae70"
            d="M 3287.5,954.5 C 3312.83,954.5 3338.17,954.5 3363.5,954.5C 3363.5,963.167 3363.5,971.833 3363.5,980.5C 3338.17,980.5 3312.83,980.5 3287.5,980.5C 3287.5,971.833 3287.5,963.167 3287.5,954.5 Z" />
    </g>
    <g>
        <path style="opacity:1" fill="#feae6f"
            d="M 49.5,963.5 C 71.7303,976.446 94.0636,989.112 116.5,1001.5C 117.9,1002.1 118.9,1003.1 119.5,1004.5C 96.3393,1005.5 73.006,1005.83 49.5,1005.5C 49.5,991.5 49.5,977.5 49.5,963.5 Z" />
    </g>
    <g>
        <path style="opacity:1" fill="#714d3b"
            d="M 3287.5,954.5 C 3312.66,953.502 3337.99,953.169 3363.5,953.5C 3364.83,962.833 3364.83,972.167 3363.5,981.5C 3337.99,981.831 3312.66,981.498 3287.5,980.5C 3312.83,980.5 3338.17,980.5 3363.5,980.5C 3363.5,971.833 3363.5,963.167 3363.5,954.5C 3338.17,954.5 3312.83,954.5 3287.5,954.5 Z" />
    </g>
    <g>
        <path style="opacity:1" fill="#9d7156"
            d="M 3287.5,984.5 C 3312.99,983.502 3338.66,983.169 3364.5,983.5C 3364.5,992.5 3364.5,1001.5 3364.5,1010.5C 3342.5,1010.5 3320.5,1010.5 3298.5,1010.5C 3319.99,1009.5 3341.66,1009.17 3363.5,1009.5C 3363.5,1001.17 3363.5,992.833 3363.5,984.5C 3338.17,984.5 3312.83,984.5 3287.5,984.5 Z" />
    </g>
    <g>
        <path style="opacity:1" fill="#feae70"
            d="M 3287.5,984.5 C 3312.83,984.5 3338.17,984.5 3363.5,984.5C 3363.5,992.833 3363.5,1001.17 3363.5,1009.5C 3341.66,1009.17 3319.99,1009.5 3298.5,1010.5C 3294.83,1010.5 3291.17,1010.5 3287.5,1010.5C 3287.5,1001.83 3287.5,993.167 3287.5,984.5 Z" />
    </g>
    <g>
        <path style="opacity:1" fill="#351913"
            d="M 80.5,930.5 C 81.5,930.5 82.5,930.5 83.5,930.5C 83.5,931.167 83.8333,931.5 84.5,931.5C 95.6628,950.491 106.83,969.491 118,988.5C 120.054,991.941 121.554,995.608 122.5,999.5C 120.444,1000.56 118.444,1000.23 116.5,998.5C 115.438,999.425 115.438,1000.42 116.5,1001.5C 94.0636,989.112 71.7303,976.446 49.5,963.5C 49.5,962.167 49.5,960.833 49.5,959.5C 71.3247,972.902 93.658,985.569 116.5,997.5C 116.833,997.167 117.167,996.833 117.5,996.5C 105.204,974.523 92.871,952.523 80.5,930.5 Z" />
    </g>
    <g>
        <path style="opacity:1" fill="#a67c62"
            d="M 3207.5,984.5 C 3207.5,984.167 3207.5,983.833 3207.5,983.5C 3232.83,983.5 3258.17,983.5 3283.5,983.5C 3283.83,992.682 3283.49,1001.68 3282.5,1010.5C 3282.5,1001.83 3282.5,993.167 3282.5,984.5C 3257.5,984.5 3232.5,984.5 3207.5,984.5 Z" />
    </g>
    <g>
        <path style="opacity:1" fill="#5d3d2e"
            d="M 119.5,1004.5 C 121.379,1004.39 121.712,1004.89 120.5,1006C 96.6631,1006.83 72.9964,1006.66 49.5,1005.5C 73.006,1005.83 96.3393,1005.5 119.5,1004.5 Z" />
    </g>
    <g>
        <path style="opacity:1" fill="#f9ab6f"
            d="M 49.5,1008.5 C 74.8333,1008.5 100.167,1008.5 125.5,1008.5C 125.5,1018.17 125.5,1027.83 125.5,1037.5C 100.167,1037.5 74.8333,1037.5 49.5,1037.5C 49.5,1027.83 49.5,1018.17 49.5,1008.5 Z" />
    </g>
    <g>
        <path style="opacity:1" fill="#a39481"
            d="M 3037.5,929.5 C 3038.5,929.5 3039.5,929.5 3040.5,929.5C 3038.7,936.669 3038.04,944.003 3038.5,951.5C 3038.5,1043.5 3038.5,1135.5 3038.5,1227.5C 3037.5,1128.33 3037.17,1029 3037.5,929.5 Z" />
    </g>
    <g>
        <path style="opacity:1" fill="#948576"
            d="M 3037.5,929.5 C 3089.66,928.501 3142,928.168 3194.5,928.5C 3194.5,986.833 3194.5,1045.17 3194.5,1103.5C 3193.53,1101.39 3193.2,1099.06 3193.5,1096.5C 3192.4,1043.19 3192.4,989.192 3193.5,934.5C 3193.5,932.833 3193.5,931.167 3193.5,929.5C 3142.83,929.5 3092.17,929.5 3041.5,929.5C 3041.17,929.5 3040.83,929.5 3040.5,929.5C 3039.5,929.5 3038.5,929.5 3037.5,929.5 Z" />
    </g>
    <g>
        <path style="opacity:1" fill="#939292"
            d="M 319.5,929.5 C 541.333,928.5 763.333,928.167 985.5,928.5C 985.833,1037.67 985.499,1146.67 984.5,1255.5C 984.5,1146.83 984.5,1038.17 984.5,929.5C 762.833,929.5 541.167,929.5 319.5,929.5 Z" />
    </g>
    <g>
        <path style="opacity:1" fill="#fbac6f"
            d="M 49.5,1040.5 C 74.8333,1040.5 100.167,1040.5 125.5,1040.5C 125.5,1049.17 125.5,1057.83 125.5,1066.5C 100.167,1066.5 74.8333,1066.5 49.5,1066.5C 49.5,1057.83 49.5,1049.17 49.5,1040.5 Z" />
    </g>
    <g>
        <path style="opacity:1" fill="#feae70"
            d="M 3287.5,1043.5 C 3312.83,1043.5 3338.17,1043.5 3363.5,1043.5C 3363.5,1051.83 3363.5,1060.17 3363.5,1068.5C 3338.17,1068.5 3312.83,1068.5 3287.5,1068.5C 3287.5,1060.17 3287.5,1051.83 3287.5,1043.5 Z" />
    </g>
    <g>
        <path style="opacity:1" fill="#976c54"
            d="M 3207.5,1043.5 C 3232.66,1042.5 3257.99,1042.17 3283.5,1042.5C 3283.5,1051.5 3283.5,1060.5 3283.5,1069.5C 3258.17,1069.5 3232.83,1069.5 3207.5,1069.5C 3207.5,1069.17 3207.5,1068.83 3207.5,1068.5C 3232.5,1068.5 3257.5,1068.5 3282.5,1068.5C 3282.5,1060.17 3282.5,1051.83 3282.5,1043.5C 3257.5,1043.5 3232.5,1043.5 3207.5,1043.5 Z" />
    </g>
    <g>
        <path style="opacity:1" fill="#80543f"
            d="M 3287.5,1043.5 C 3312.99,1042.5 3338.66,1042.17 3364.5,1042.5C 3364.83,1051.68 3364.49,1060.68 3363.5,1069.5C 3337.99,1069.83 3312.66,1069.5 3287.5,1068.5C 3312.83,1068.5 3338.17,1068.5 3363.5,1068.5C 3363.5,1060.17 3363.5,1051.83 3363.5,1043.5C 3338.17,1043.5 3312.83,1043.5 3287.5,1043.5 Z" />
    </g>
    <g>
        <path style="opacity:1" fill="#f6a96c"
            d="M 49.5,1069.5 C 74.8333,1069.5 100.167,1069.5 125.5,1069.5C 125.5,1078.5 125.5,1087.5 125.5,1096.5C 100.167,1096.5 74.8333,1096.5 49.5,1096.5C 49.5,1087.5 49.5,1078.5 49.5,1069.5 Z" />
    </g>
    <g>
        <path style="opacity:1" fill="#fdae70"
            d="M 3207.5,1072.5 C 3227.17,1072.5 3246.83,1072.5 3266.5,1072.5C 3271.64,1073.49 3276.97,1073.82 3282.5,1073.5C 3282.5,1081.83 3282.5,1090.17 3282.5,1098.5C 3257.5,1098.5 3232.5,1098.5 3207.5,1098.5C 3207.5,1089.83 3207.5,1081.17 3207.5,1072.5 Z" />
    </g>
    <g>
        <path style="opacity:1" fill="#c59e82"
            d="M 3266.5,1072.5 C 3272.17,1072.5 3277.83,1072.5 3283.5,1072.5C 3283.83,1081.35 3283.49,1090.02 3282.5,1098.5C 3282.5,1090.17 3282.5,1081.83 3282.5,1073.5C 3276.97,1073.82 3271.64,1073.49 3266.5,1072.5 Z" />
    </g>
    <g>
        <path style="opacity:1" fill="#634130"
            d="M 3363.5,1071.5 C 3364.17,1071.5 3364.5,1071.83 3364.5,1072.5C 3364.5,1081.5 3364.5,1090.5 3364.5,1099.5C 3338.66,1099.83 3312.99,1099.5 3287.5,1098.5C 3286.17,1089.76 3286.17,1080.93 3287.5,1072C 3312.83,1071.5 3338.16,1071.33 3363.5,1071.5 Z" />
    </g>
    <g>
        <path style="opacity:1" fill="#feae6f"
            d="M 49.5,1099.5 C 74.8333,1099.5 100.167,1099.5 125.5,1099.5C 125.5,1110.5 125.5,1121.5 125.5,1132.5C 100.167,1132.5 74.8333,1132.5 49.5,1132.5C 49.5,1121.5 49.5,1110.5 49.5,1099.5 Z" />
    </g>
    <g>
        <path style="opacity:1" fill="#fdae70"
            d="M 3207.5,1102.5 C 3232.83,1102.5 3258.17,1102.5 3283.5,1102.5C 3283.5,1111.17 3283.5,1119.83 3283.5,1128.5C 3278.83,1128.5 3274.17,1128.5 3269.5,1128.5C 3249.43,1127.83 3229.26,1127.16 3209,1126.5C 3208.62,1127.06 3208.12,1127.39 3207.5,1127.5C 3207.5,1119.17 3207.5,1110.83 3207.5,1102.5 Z" />
    </g>
    <g>
        <path style="opacity:1" fill="#704f32"
            d="M 2358.5,929.5 C 2580,928.5 2801.67,928.167 3023.5,928.5C 3024.5,1032.67 3024.83,1137 3024.5,1241.5C 3023.5,1137.67 3023.17,1033.67 3023.5,929.5C 2801.83,929.5 2580.17,929.5 2358.5,929.5 Z" />
    </g>
    <g>
        <path style="opacity:0.749" fill="#d59f66"
            d="M 2357.5,929.5 C 2357.83,929.5 2358.17,929.5 2358.5,929.5C 2359.15,1035.35 2359.81,1141.19 2360.5,1247C 2359.01,1249.64 2358.34,1252.47 2358.5,1255.5C 2357.5,1147 2357.17,1038.33 2357.5,929.5 Z" />
    </g>
    <g>
        <path style="opacity:1" fill="#cb9e82"
            d="M 3269.5,1128.5 C 3248.83,1128.5 3228.17,1128.5 3207.5,1128.5C 3207.5,1128.17 3207.5,1127.83 3207.5,1127.5C 3208.12,1127.39 3208.62,1127.06 3209,1126.5C 3229.26,1127.16 3249.43,1127.83 3269.5,1128.5 Z" />
    </g>
    <g>
        <path style="opacity:1" fill="#2c160f"
            d="M 3361.5,929.5 C 3336.66,929.169 3311.99,929.502 3287.5,930.5C 3287.5,937.167 3287.5,943.833 3287.5,950.5C 3312.33,951.498 3337.33,951.831 3362.5,951.5C 3362.83,952.167 3363.17,952.833 3363.5,953.5C 3337.99,953.169 3312.66,953.502 3287.5,954.5C 3287.5,963.167 3287.5,971.833 3287.5,980.5C 3312.66,981.498 3337.99,981.831 3363.5,981.5C 3363.83,982.167 3364.17,982.833 3364.5,983.5C 3338.66,983.169 3312.99,983.502 3287.5,984.5C 3287.5,993.167 3287.5,1001.83 3287.5,1010.5C 3291.17,1010.5 3294.83,1010.5 3298.5,1010.5C 3320.5,1010.5 3342.5,1010.5 3364.5,1010.5C 3364.08,1011.22 3363.42,1011.72 3362.5,1012C 3363.77,1012.31 3364.93,1012.81 3366,1013.5C 3367.05,1023.32 3366.55,1032.99 3364.5,1042.5C 3338.66,1042.17 3312.99,1042.5 3287.5,1043.5C 3287.5,1051.83 3287.5,1060.17 3287.5,1068.5C 3312.66,1069.5 3337.99,1069.83 3363.5,1069.5C 3363.5,1070.17 3363.5,1070.83 3363.5,1071.5C 3338.16,1071.33 3312.83,1071.5 3287.5,1072C 3286.17,1080.93 3286.17,1089.76 3287.5,1098.5C 3312.99,1099.5 3338.66,1099.83 3364.5,1099.5C 3364.5,1090.5 3364.5,1081.5 3364.5,1072.5C 3365.82,1076.28 3366.49,1080.44 3366.5,1085C 3366.24,1099.13 3366.07,1113.29 3366,1127.5C 3365.62,1128.06 3365.12,1128.39 3364.5,1128.5C 3364.5,1129.5 3364.5,1130.5 3364.5,1131.5C 3363.17,1131.5 3361.83,1131.5 3360.5,1131.5C 3336.17,1131.5 3311.83,1131.5 3287.5,1131.5C 3287.5,1140.17 3287.5,1148.83 3287.5,1157.5C 3306.5,1157.5 3325.5,1157.5 3344.5,1157.5C 3350.83,1157.5 3357.17,1157.5 3363.5,1157.5C 3363.5,1158.5 3363.5,1159.5 3363.5,1160.5C 3337.99,1160.17 3312.66,1160.5 3287.5,1161.5C 3287.5,1169.83 3287.5,1178.17 3287.5,1186.5C 3312.33,1187.5 3337.33,1187.83 3362.5,1187.5C 3362.56,1188.61 3362.89,1189.61 3363.5,1190.5C 3311.5,1190.5 3259.5,1190.5 3207.5,1190.5C 3207.5,1189.5 3207.5,1188.5 3207.5,1187.5C 3232.83,1187.5 3258.17,1187.5 3283.5,1187.5C 3283.5,1185.5 3283.5,1183.5 3283.5,1181.5C 3283.5,1180.83 3283.5,1180.17 3283.5,1179.5C 3283.5,1173.17 3283.5,1166.83 3283.5,1160.5C 3258.83,1160.5 3234.17,1160.5 3209.5,1160.5C 3208.89,1159.61 3208.56,1158.61 3208.5,1157.5C 3233.5,1157.5 3258.5,1157.5 3283.5,1157.5C 3283.5,1148.83 3283.5,1140.17 3283.5,1131.5C 3258.17,1131.5 3232.83,1131.5 3207.5,1131.5C 3207.5,1130.5 3207.5,1129.5 3207.5,1128.5C 3228.17,1128.5 3248.83,1128.5 3269.5,1128.5C 3274.17,1128.5 3278.83,1128.5 3283.5,1128.5C 3283.5,1119.83 3283.5,1111.17 3283.5,1102.5C 3258.17,1102.5 3232.83,1102.5 3207.5,1102.5C 3210.42,1101.81 3213.42,1100.97 3216.5,1100C 3213.31,1099.82 3210.31,1099.32 3207.5,1098.5C 3232.5,1098.5 3257.5,1098.5 3282.5,1098.5C 3283.49,1090.02 3283.83,1081.35 3283.5,1072.5C 3277.83,1072.5 3272.17,1072.5 3266.5,1072.5C 3246.83,1072.5 3227.17,1072.5 3207.5,1072.5C 3207.5,1071.5 3207.5,1070.5 3207.5,1069.5C 3232.83,1069.5 3258.17,1069.5 3283.5,1069.5C 3283.5,1060.5 3283.5,1051.5 3283.5,1042.5C 3257.99,1042.17 3232.66,1042.5 3207.5,1043.5C 3207.5,1051.83 3207.5,1060.17 3207.5,1068.5C 3206.17,1040.5 3206.17,1012.5 3207.5,984.5C 3207.5,993.167 3207.5,1001.83 3207.5,1010.5C 3232.5,1010.5 3257.5,1010.5 3282.5,1010.5C 3283.49,1001.68 3283.83,992.682 3283.5,983.5C 3258.17,983.5 3232.83,983.5 3207.5,983.5C 3207.5,982.5 3207.5,981.5 3207.5,980.5C 3232.83,980.5 3258.17,980.5 3283.5,980.5C 3283.5,972.167 3283.5,963.833 3283.5,955.5C 3258.52,953.509 3233.19,952.843 3207.5,953.5C 3207.5,952.833 3207.5,952.167 3207.5,951.5C 3233.17,951.5 3258.83,951.5 3284.5,951.5C 3284.5,944.167 3284.5,936.833 3284.5,929.5C 3310.26,928.173 3335.93,928.173 3361.5,929.5 Z" />
    </g>
    <g>
        <path style="opacity:1" fill="#fdae70"
            d="M 3287.5,1102.5 C 3312.83,1102.5 3338.17,1102.5 3363.5,1102.5C 3363.8,1111.25 3363.47,1119.92 3362.5,1128.5C 3337.5,1128.5 3312.5,1128.5 3287.5,1128.5C 3287.5,1119.83 3287.5,1111.17 3287.5,1102.5 Z" />
    </g>
    <g>
        <path style="opacity:1" fill="#7e5640"
            d="M 3287.5,1102.5 C 3312.99,1101.5 3338.66,1101.17 3364.5,1101.5C 3364.5,1110.5 3364.5,1119.5 3364.5,1128.5C 3363.83,1128.5 3363.17,1128.5 3362.5,1128.5C 3363.47,1119.92 3363.8,1111.25 3363.5,1102.5C 3338.17,1102.5 3312.83,1102.5 3287.5,1102.5 Z" />
    </g>
    <g>
        <path style="opacity:1" fill="#feae70"
            d="M 3287.5,1098.5 C 3287.5,1090.17 3287.5,1081.83 3287.5,1073.5C 3312.81,1072.54 3338.14,1072.2 3363.5,1072.5C 3363.5,1081.17 3363.5,1089.83 3363.5,1098.5C 3338.17,1098.5 3312.83,1098.5 3287.5,1098.5 Z" />
    </g>
    <g>
        <path style="opacity:1" fill="#feaf70"
            d="M 3207.5,1043.5 C 3232.5,1043.5 3257.5,1043.5 3282.5,1043.5C 3282.5,1051.83 3282.5,1060.17 3282.5,1068.5C 3257.5,1068.5 3232.5,1068.5 3207.5,1068.5C 3207.5,1060.17 3207.5,1051.83 3207.5,1043.5 Z" />
    </g>
    <g>
        <path style="opacity:1" fill="#c09173"
            d="M 3363.5,1013.5 C 3364.49,1021.98 3364.83,1030.65 3364.5,1039.5C 3338.66,1039.83 3312.99,1039.5 3287.5,1038.5C 3312.83,1038.5 3338.17,1038.5 3363.5,1038.5C 3363.39,1029.99 3363.39,1021.65 3363.5,1013.5 Z" />
    </g>
    <g>
        <path style="opacity:1" fill="#c08f6d"
            d="M 3207.5,1034.5 C 3208.43,1035.57 3208.77,1036.9 3208.5,1038.5C 3233.57,1038.82 3258.57,1038.49 3283.5,1037.5C 3258.52,1039.49 3233.19,1040.16 3207.5,1039.5C 3207.5,1037.83 3207.5,1036.17 3207.5,1034.5 Z" />
    </g>
    <g>
        <path style="opacity:1" fill="#c89d82"
            d="M 3279.5,1013.5 C 3280.83,1013.5 3282.17,1013.5 3283.5,1013.5C 3283.5,1020.17 3283.5,1026.83 3283.5,1033.5C 3282.51,1027.36 3282.18,1021.02 3282.5,1014.5C 3281.21,1014.74 3280.21,1014.4 3279.5,1013.5 Z" />
    </g>
    <g>
        <path style="opacity:1" fill="#feae70"
            d="M 3363.5,1013.5 C 3363.39,1021.65 3363.39,1029.99 3363.5,1038.5C 3338.17,1038.5 3312.83,1038.5 3287.5,1038.5C 3287.5,1030.17 3287.5,1021.83 3287.5,1013.5C 3312.83,1013.5 3338.17,1013.5 3363.5,1013.5 Z" />
    </g>
    <g>
        <path style="opacity:1" fill="#fdae70"
            d="M 3279.5,1013.5 C 3280.21,1014.4 3281.21,1014.74 3282.5,1014.5C 3282.18,1021.02 3282.51,1027.36 3283.5,1033.5C 3283.5,1034.83 3283.5,1036.17 3283.5,1037.5C 3258.57,1038.49 3233.57,1038.82 3208.5,1038.5C 3208.77,1036.9 3208.43,1035.57 3207.5,1034.5C 3207.5,1027.83 3207.5,1021.17 3207.5,1014.5C 3231.43,1013.51 3255.43,1013.18 3279.5,1013.5 Z" />
    </g>
    <g>
        <path style="opacity:1" fill="#582c14"
            d="M 3283.5,1013.5 C 3282.17,1013.5 3280.83,1013.5 3279.5,1013.5C 3255.43,1013.18 3231.43,1013.51 3207.5,1014.5C 3219.82,1013.17 3232.48,1012.5 3245.5,1012.5C 3258.34,1012.5 3271,1012.83 3283.5,1013.5 Z" />
    </g>
    <g>
        <path style="opacity:1" fill="#fcad70"
            d="M 3207.5,984.5 C 3232.5,984.5 3257.5,984.5 3282.5,984.5C 3282.5,993.167 3282.5,1001.83 3282.5,1010.5C 3257.5,1010.5 3232.5,1010.5 3207.5,1010.5C 3207.5,1001.83 3207.5,993.167 3207.5,984.5 Z" />
    </g>
    <g>
        <path style="opacity:1" fill="#fdae70"
            d="M 3360.5,1131.5 C 3361.21,1132.4 3362.21,1132.74 3363.5,1132.5C 3363.5,1140.5 3363.5,1148.5 3363.5,1156.5C 3356.98,1156.18 3350.64,1156.51 3344.5,1157.5C 3325.5,1157.5 3306.5,1157.5 3287.5,1157.5C 3287.5,1148.83 3287.5,1140.17 3287.5,1131.5C 3311.83,1131.5 3336.17,1131.5 3360.5,1131.5 Z" />
    </g>
    <g>
        <path style="opacity:1" fill="#feae70"
            d="M 3207.5,1132.5 C 3232.5,1132.5 3257.5,1132.5 3282.5,1132.5C 3282.82,1140.42 3282.48,1148.25 3281.5,1156C 3256.84,1156.5 3232.17,1156.67 3207.5,1156.5C 3207.5,1148.5 3207.5,1140.5 3207.5,1132.5 Z" />
    </g>
    <g>
        <path style="opacity:1" fill="#c09071"
            d="M 3207.5,1132.5 C 3207.5,1132.17 3207.5,1131.83 3207.5,1131.5C 3232.83,1131.5 3258.17,1131.5 3283.5,1131.5C 3283.5,1140.17 3283.5,1148.83 3283.5,1157.5C 3258.5,1157.5 3233.5,1157.5 3208.5,1157.5C 3207.83,1157.5 3207.5,1157.17 3207.5,1156.5C 3232.17,1156.67 3256.84,1156.5 3281.5,1156C 3282.48,1148.25 3282.82,1140.42 3282.5,1132.5C 3257.5,1132.5 3232.5,1132.5 3207.5,1132.5 Z" />
    </g>
    <g>
        <path style="opacity:1" fill="#ba8c71"
            d="M 3360.5,1131.5 C 3361.83,1131.5 3363.17,1131.5 3364.5,1131.5C 3364.83,1140.35 3364.49,1149.02 3363.5,1157.5C 3357.17,1157.5 3350.83,1157.5 3344.5,1157.5C 3350.64,1156.51 3356.98,1156.18 3363.5,1156.5C 3363.5,1148.5 3363.5,1140.5 3363.5,1132.5C 3362.21,1132.74 3361.21,1132.4 3360.5,1131.5 Z" />
    </g>
    <g>
        <path style="opacity:1" fill="#a2704c"
            d="M 3207.5,1161.5 C 3207.84,1160.66 3208.51,1160.33 3209.5,1160.5C 3234.17,1160.5 3258.83,1160.5 3283.5,1160.5C 3283.5,1166.83 3283.5,1173.17 3283.5,1179.5C 3282.51,1173.69 3282.18,1167.69 3282.5,1161.5C 3257.5,1161.5 3232.5,1161.5 3207.5,1161.5 Z" />
    </g>
    <g>
        <path style="opacity:1" fill="#ad7c5a"
            d="M 3287.5,1161.5 C 3312.66,1160.5 3337.99,1160.17 3363.5,1160.5C 3364.17,1164.82 3364.5,1169.32 3364.5,1174C 3364.49,1178.89 3363.83,1183.39 3362.5,1187.5C 3337.33,1187.83 3312.33,1187.5 3287.5,1186.5C 3312.83,1186.5 3338.17,1186.5 3363.5,1186.5C 3363.8,1178.44 3363.47,1170.44 3362.5,1162.5C 3337.51,1161.5 3312.51,1161.17 3287.5,1161.5 Z" />
    </g>
    <g>
        <path style="opacity:1" fill="#feae70"
            d="M 3207.5,1161.5 C 3232.5,1161.5 3257.5,1161.5 3282.5,1161.5C 3282.18,1167.69 3282.51,1173.69 3283.5,1179.5C 3283.5,1180.17 3283.5,1180.83 3283.5,1181.5C 3282.55,1182.92 3282.22,1184.59 3282.5,1186.5C 3257.5,1186.5 3232.5,1186.5 3207.5,1186.5C 3207.5,1178.17 3207.5,1169.83 3207.5,1161.5 Z" />
    </g>
    <g>
        <path style="opacity:1" fill="#feaf6f"
            d="M 3287.5,1161.5 C 3312.51,1161.17 3337.51,1161.5 3362.5,1162.5C 3363.47,1170.44 3363.8,1178.44 3363.5,1186.5C 3338.17,1186.5 3312.83,1186.5 3287.5,1186.5C 3287.5,1178.17 3287.5,1169.83 3287.5,1161.5 Z" />
    </g>
    <g>
        <path style="opacity:1" fill="#1f1f21"
            d="M 1679.5,929.5 C 1678.5,1038.1 1678.17,1146.76 1678.5,1255.5C 1677.83,1201.33 1677.5,1147 1677.5,1092.5C 1677.5,1037.83 1678.17,983.496 1679.5,929.5 Z" />
    </g>
    <g>
        <path style="opacity:1" fill="#bf9272"
            d="M 3283.5,1181.5 C 3283.5,1183.5 3283.5,1185.5 3283.5,1187.5C 3258.17,1187.5 3232.83,1187.5 3207.5,1187.5C 3207.5,1187.17 3207.5,1186.83 3207.5,1186.5C 3232.5,1186.5 3257.5,1186.5 3282.5,1186.5C 3282.22,1184.59 3282.55,1182.92 3283.5,1181.5 Z" />
    </g>
    <g>
        <path style="opacity:1" fill="#fcae6f"
            d="M 3207.5,1190.5 C 3259.5,1190.5 3311.5,1190.5 3363.5,1190.5C 3363.5,1203.17 3363.5,1215.83 3363.5,1228.5C 3311.5,1228.5 3259.5,1228.5 3207.5,1228.5C 3207.5,1215.83 3207.5,1203.17 3207.5,1190.5 Z" />
    </g>
    <g>
        <path style="opacity:1" fill="#fefefe"
            d="M 48.5,1194.5 C 134.167,1194.5 219.833,1194.5 305.5,1194.5C 305.5,1214.83 305.5,1235.17 305.5,1255.5C 219.833,1255.5 134.167,1255.5 48.5,1255.5C 48.5,1235.17 48.5,1214.83 48.5,1194.5 Z" />
    </g>
    <g>
        <path style="opacity:1" fill="#b2a28f"
            d="M 3193.5,1096.5 C 3193.2,1099.06 3193.53,1101.39 3194.5,1103.5C 3194.5,1144.83 3194.5,1186.17 3194.5,1227.5C 3193.17,1227.5 3191.83,1227.5 3190.5,1227.5C 3190.92,1226.78 3191.58,1226.28 3192.5,1226C 3192.17,1225.67 3191.83,1225.33 3191.5,1225C 3192.19,1219.53 3192.86,1214.03 3193.5,1208.5C 3192.72,1170.68 3192.72,1133.35 3193.5,1096.5 Z" />
    </g>
    <g>
        <path style="opacity:1" fill="#cfbfa9"
            d="M 3038.5,951.5 C 3039.17,1042.33 3039.83,1133.33 3040.5,1224.5C 3043.13,1225.72 3045.96,1226.39 3049,1226.5C 3092.92,1226.8 3137.25,1226.47 3182,1225.5C 3184.35,1225.99 3186.51,1226.66 3188.5,1227.5C 3138.5,1227.5 3088.5,1227.5 3038.5,1227.5C 3038.5,1135.5 3038.5,1043.5 3038.5,951.5 Z" />
    </g>
    <g>
        <path style="opacity:0.749" fill="#f8c588"
            d="M 2359.5,1253.5 C 2435.47,1254.32 2511.47,1254.82 2587.5,1255C 2549.5,1255.17 2511.5,1255.33 2473.5,1255.5C 2435.16,1255.5 2397.16,1254.83 2359.5,1253.5 Z" />
    </g>
</svg>