<?xml version="1.0" encoding="UTF-8"?>
<!DOCTYPE svg PUBLIC "-//W3C//DTD SVG 1.1//EN" "http://www.w3.org/Graphics/SVG/1.1/DTD/svg11.dtd">
<svg xmlns="http://www.w3.org/2000/svg" version="1.1" width="3400px" height="1700px"
    style="shape-rendering:geometricPrecision; text-rendering:geometricPrecision; image-rendering:optimizeQuality; fill-rule:evenodd; clip-rule:evenodd"
    xmlns:xlink="http://www.w3.org/1999/xlink">
    <g>
        <path style="opacity:1" fill="#090605"
            d="M 3375.5,439.5 C 3373.49,442.869 3372.49,446.536 3372.5,450.5C 3371.07,478.098 3370.07,505.765 3369.5,533.5C 3369.57,612.846 3370.24,693.679 3371.5,776C 3371.04,776.414 3370.71,776.914 3370.5,777.5C 3373.08,779.438 3373.08,781.271 3370.5,783C 3371.81,789.595 3372.48,796.428 3372.5,803.5C 3372.33,810.167 3372.17,816.833 3372,823.5C 3371.67,821.5 3371.33,819.5 3371,817.5C 3370.83,819.833 3370.67,822.167 3370.5,824.5C 3371.68,835.868 3371.68,847.202 3370.5,858.5C 3371.28,863.113 3371.78,867.78 3372,872.5C 3372.17,901.739 3372.67,930.905 3373.5,960C 3372.8,1008.13 3372.14,1055.8 3371.5,1103C 3372.21,1135.77 3372.88,1168.6 3373.5,1201.5C 3372.67,1208.23 3372.33,1214.89 3372.5,1221.5C 3372.29,1224.45 3372.96,1227.12 3374.5,1229.5C 3373.83,1229.83 3373.17,1230.17 3372.5,1230.5C 3374.46,1233.57 3374.96,1236.9 3374,1240.5C 3372.89,1239.29 3372.39,1239.62 3372.5,1241.5C 3370.83,1241.5 3369.17,1241.5 3367.5,1241.5C 3256.25,1242.63 3146.08,1242.63 3037,1241.5C 3036.31,1242.03 3035.81,1242.69 3035.5,1243.5C 3035.3,1251.89 3035.64,1260.56 3036.5,1269.5C 2036.17,1269.5 1035.83,1269.5 35.5,1269.5C 35.5,992.833 35.5,716.167 35.5,439.5C 1148.83,439.5 2262.17,439.5 3375.5,439.5 Z" />
    </g>
    <g>
        <path style="opacity:1" fill="#221209"
            d="M 2001.5,779.5 C 2001.5,670.5 2001.5,561.5 2001.5,452.5C 1892.83,452.5 1784.17,452.5 1675.5,452.5C 1679.42,450.943 1683.59,449.943 1688,449.5C 1791.67,450.833 1895.33,450.833 1999,449.5C 2000.89,450.13 2002.56,451.13 2004,452.5C 2004.5,561.499 2004.67,670.499 2004.5,779.5C 2003.5,779.5 2002.5,779.5 2001.5,779.5 Z" />
    </g>
    <g>
        <path style="opacity:1" fill="#eb9e59"
            d="M 1336.5,452.5 C 1388.17,452.5 1439.83,452.5 1491.5,452.5C 1491.5,561.5 1491.5,670.5 1491.5,779.5C 1439.5,779.5 1387.5,779.5 1335.5,779.5C 1335.17,670.43 1335.5,561.43 1336.5,452.5 Z" />
    </g>
    <g>
        <path style="opacity:1" fill="#28170d"
            d="M 2341.5,452.5 C 2342.17,506.999 2342.5,561.666 2342.5,616.5C 2342.66,671.915 2342.16,727.248 2341,782.5C 2232.57,781.668 2124.07,781.168 2015.5,781C 2013.93,779.316 2012.93,777.316 2012.5,775C 2013.49,668.506 2013.66,561.34 2013,453.5C 2014.17,452.107 2015.67,451.273 2017.5,451C 2125.21,450.831 2232.87,450.331 2340.5,449.5C 2341.39,450.325 2341.72,451.325 2341.5,452.5 Z" />
    </g>
    <g>
        <path style="opacity:1" fill="#b4835c"
            d="M 2356.5,452.5 C 2465,452.167 2573.33,452.501 2681.5,453.5C 2681.17,453.5 2680.83,453.5 2680.5,453.5C 2572.5,453.5 2464.5,453.5 2356.5,453.5C 2356.5,561.833 2356.5,670.167 2356.5,778.5C 2380.01,778.169 2403.34,778.502 2426.5,779.5C 2403.17,779.5 2379.83,779.5 2356.5,779.5C 2355.17,670.5 2355.17,561.5 2356.5,452.5 Z" />
    </g>
    <g>
        <path style="opacity:1" fill="#fefefe"
            d="M 48.5,453.5 C 132.833,453.5 217.167,453.5 301.5,453.5C 301.5,561.833 301.5,670.167 301.5,778.5C 217.167,778.5 132.833,778.5 48.5,778.5C 48.5,670.167 48.5,561.833 48.5,453.5 Z" />
    </g>
    <g>
        <path style="opacity:1" fill="#eb9e59"
            d="M 642.5,778.5 C 534.166,778.667 425.833,778.5 317.5,778C 318.167,777.667 318.833,777.333 319.5,777C 317.302,775.33 316.968,773.33 318.5,771C 317.834,665.736 317.168,560.569 316.5,455.5C 316.5,454.5 316.5,453.5 316.5,452.5C 425.167,452.5 533.833,452.5 642.5,452.5C 642.5,561.167 642.5,669.833 642.5,778.5 Z" />
    </g>
    <g>
        <path style="opacity:1" fill="#eb9e59"
            d="M 982.5,452.5 C 982.5,452.833 982.5,453.167 982.5,453.5C 981.521,561.824 981.188,670.157 981.5,778.5C 903.522,779.488 825.522,779.822 747.5,779.5C 717.671,778.502 687.671,778.169 657.5,778.5C 657.833,682.665 657.499,586.999 656.5,491.5C 656.5,478.5 656.5,465.5 656.5,452.5C 765.167,452.5 873.833,452.5 982.5,452.5 Z" />
    </g>
    <g>
        <path style="opacity:1" fill="#eb9e59"
            d="M 996.5,453.5 C 1104.83,453.5 1213.17,453.5 1321.5,453.5C 1321.5,562.167 1321.5,670.833 1321.5,779.5C 1213.17,778.676 1104.84,778.343 996.5,778.5C 996.5,670.167 996.5,561.833 996.5,453.5 Z" />
    </g>
    <g>
        <path style="opacity:1" fill="#eb9e59"
            d="M 1505.5,452.5 C 1557.5,452.5 1609.5,452.5 1661.5,452.5C 1661.5,561.5 1661.5,670.5 1661.5,779.5C 1609.5,779.5 1557.5,779.5 1505.5,779.5C 1505.5,670.5 1505.5,561.5 1505.5,452.5 Z" />
    </g>
    <g>
        <path style="opacity:1" fill="#eb9e59"
            d="M 1675.5,452.5 C 1784.17,452.5 1892.83,452.5 2001.5,452.5C 2001.5,561.5 2001.5,670.5 2001.5,779.5C 1892.49,780.165 1783.83,779.498 1675.5,777.5C 1676.24,777.631 1676.91,777.464 1677.5,777C 1676.83,691.069 1676.17,605.236 1675.5,519.5C 1675.5,497.167 1675.5,474.833 1675.5,452.5 Z" />
    </g>
    <g>
        <path style="opacity:1" fill="#eb9e59"
            d="M 2341.5,452.5 C 2341.5,561.5 2341.5,670.5 2341.5,779.5C 2232.83,779.5 2124.17,779.5 2015.5,779.5C 2015.5,670.5 2015.5,561.5 2015.5,452.5C 2124.17,452.5 2232.83,452.5 2341.5,452.5 Z" />
    </g>
    <g>
        <path style="opacity:1" fill="#eb9f59"
            d="M 2680.5,453.5 C 2680.5,561.833 2680.5,670.167 2680.5,778.5C 2603.66,778.167 2527,778.501 2450.5,779.5C 2442.5,779.5 2434.5,779.5 2426.5,779.5C 2403.34,778.502 2380.01,778.169 2356.5,778.5C 2356.5,670.167 2356.5,561.833 2356.5,453.5C 2464.5,453.5 2572.5,453.5 2680.5,453.5 Z" />
    </g>
    <g>
        <path style="opacity:1" fill="#eb9e59"
            d="M 3021.5,775.5 C 3020.6,776.209 3020.26,777.209 3020.5,778.5C 2942.66,778.167 2865,778.501 2787.5,779.5C 2787.17,779.5 2786.83,779.5 2786.5,779.5C 2756.67,778.502 2726.67,778.169 2696.5,778.5C 2696.83,695.998 2696.5,613.665 2695.5,531.5C 2695.5,505.167 2695.5,478.833 2695.5,452.5C 2804.17,452.5 2912.83,452.5 3021.5,452.5C 3021.5,560.167 3021.5,667.833 3021.5,775.5 Z" />
    </g>
    <g>
        <path style="opacity:1" fill="#eb9e59"
            d="M 3035.5,453.5 C 3135.83,453.5 3236.17,453.5 3336.5,453.5C 3342.74,454.634 3349.08,455.134 3355.5,455C 3357.6,456.934 3358.6,459.434 3358.5,462.5C 3359.15,532.327 3359.81,601.993 3360.5,671.5C 3360.67,699.835 3360.5,728.169 3360,756.5C 3358.92,763.25 3358.42,769.916 3358.5,776.5C 3354.11,776.457 3353.77,776.957 3357.5,778C 3250.67,778.167 3144,778.667 3037.5,779.5C 3037.17,779.5 3036.83,779.5 3036.5,779.5C 3035.5,671.001 3035.17,562.335 3035.5,453.5 Z" />
    </g>
    <g>
        <path style="opacity:1" fill="#01050b"
            d="M 3372.5,450.5 C 3373.24,626.667 3373.91,803.001 3374.5,979.5C 3374.18,1013.5 3373.85,1047.5 3373.5,1081.5C 3375.17,1132.35 3375.83,1183.35 3375.5,1234.5C 3375.5,1236.83 3375.5,1239.17 3375.5,1241.5C 3374.5,1241.5 3373.5,1241.5 3372.5,1241.5C 3372.39,1239.62 3372.89,1239.29 3374,1240.5C 3374.96,1236.9 3374.46,1233.57 3372.5,1230.5C 3373.17,1230.17 3373.83,1229.83 3374.5,1229.5C 3372.96,1227.12 3372.29,1224.45 3372.5,1221.5C 3372.33,1214.89 3372.67,1208.23 3373.5,1201.5C 3372.88,1168.6 3372.21,1135.77 3371.5,1103C 3372.14,1055.8 3372.8,1008.13 3373.5,960C 3372.67,930.905 3372.17,901.739 3372,872.5C 3371.78,867.78 3371.28,863.113 3370.5,858.5C 3371.68,847.202 3371.68,835.868 3370.5,824.5C 3370.67,822.167 3370.83,819.833 3371,817.5C 3371.33,819.5 3371.67,821.5 3372,823.5C 3372.17,816.833 3372.33,810.167 3372.5,803.5C 3372.48,796.428 3371.81,789.595 3370.5,783C 3373.08,781.271 3373.08,779.438 3370.5,777.5C 3370.71,776.914 3371.04,776.414 3371.5,776C 3370.24,693.679 3369.57,612.846 3369.5,533.5C 3370.07,505.765 3371.07,478.098 3372.5,450.5 Z" />
    </g>
    <g>
        <path style="opacity:1" fill="#231107"
            d="M 2356.5,779.5 C 2379.83,779.5 2403.17,779.5 2426.5,779.5C 2434.5,779.5 2442.5,779.5 2450.5,779.5C 2527.5,779.5 2604.5,779.5 2681.5,779.5C 2681.5,670.833 2681.5,562.167 2681.5,453.5C 2573.33,452.501 2465,452.167 2356.5,452.5C 2363.34,450.822 2370.51,449.822 2378,449.5C 2479.27,450.48 2580.43,450.646 2681.5,450C 2682.13,450.75 2682.63,451.584 2683,452.5C 2683.98,485.492 2684.48,518.492 2684.5,551.5C 2683.92,627.499 2683.42,703.499 2683,779.5C 2682.5,780 2682,780.5 2681.5,781C 2574.57,781.663 2467.74,782.163 2361,782.5C 2359.12,781.947 2357.62,780.947 2356.5,779.5 Z" />
    </g>
    <g>
        <path style="opacity:1" fill="#d69862"
            d="M 3336.5,453.5 C 3344.5,453.5 3352.5,453.5 3360.5,453.5C 3360.5,526.167 3360.5,598.833 3360.5,671.5C 3359.81,601.993 3359.15,532.327 3358.5,462.5C 3358.6,459.434 3357.6,456.934 3355.5,455C 3349.08,455.134 3342.74,454.634 3336.5,453.5 Z" />
    </g>
    <g>
        <path style="opacity:1" fill="#966d4f"
            d="M 996.5,453.5 C 1105,452.501 1213.67,452.167 1322.5,452.5C 1322.83,561.668 1322.5,670.668 1321.5,779.5C 1321.5,670.833 1321.5,562.167 1321.5,453.5C 1213.17,453.5 1104.83,453.5 996.5,453.5 Z" />
    </g>
    <g>
        <path style="opacity:1" fill="#cd9b6f"
            d="M 2680.5,453.5 C 2680.83,453.5 2681.17,453.5 2681.5,453.5C 2681.5,562.167 2681.5,670.833 2681.5,779.5C 2604.5,779.5 2527.5,779.5 2450.5,779.5C 2527,778.501 2603.66,778.167 2680.5,778.5C 2680.5,670.167 2680.5,561.833 2680.5,453.5 Z" />
    </g>
    <g>
        <path style="opacity:1" fill="#271409"
            d="M 982.5,452.5 C 873.833,452.5 765.167,452.5 656.5,452.5C 656.5,465.5 656.5,478.5 656.5,491.5C 656.5,587.5 656.5,683.5 656.5,779.5C 655.167,725.171 654.5,670.504 654.5,615.5C 654.833,560.833 655.167,506.167 655.5,451.5C 659.167,450.833 662.833,450.167 666.5,449.5C 771.774,450.589 876.941,450.589 982,449.5C 982.483,450.448 982.649,451.448 982.5,452.5 Z" />
    </g>
    <g>
        <path style="opacity:1" fill="#cda070"
            d="M 2695.5,531.5 C 2696.5,613.665 2696.83,695.998 2696.5,778.5C 2726.67,778.169 2756.67,778.502 2786.5,779.5C 2756.17,779.5 2725.83,779.5 2695.5,779.5C 2695.5,696.833 2695.5,614.167 2695.5,531.5 Z" />
    </g>
    <g>
        <path style="opacity:1" fill="#ce9b66"
            d="M 656.5,491.5 C 657.499,586.999 657.833,682.665 657.5,778.5C 687.671,778.169 717.671,778.502 747.5,779.5C 717.167,779.5 686.833,779.5 656.5,779.5C 656.5,683.5 656.5,587.5 656.5,491.5 Z" />
    </g>
    <g>
        <path style="opacity:1" fill="#d0a376"
            d="M 1675.5,519.5 C 1676.17,605.236 1676.83,691.069 1677.5,777C 1676.91,777.464 1676.24,777.631 1675.5,777.5C 1675.5,691.5 1675.5,605.5 1675.5,519.5 Z" />
    </g>
    <g>
        <path style="opacity:1" fill="#91633f"
            d="M 982.5,453.5 C 983.666,561.666 983.833,669.999 983,778.5C 982.5,779 982,779.5 981.5,780C 872.999,780.833 764.666,780.666 656.5,779.5C 686.833,779.5 717.167,779.5 747.5,779.5C 825.522,779.822 903.522,779.488 981.5,778.5C 981.188,670.157 981.521,561.824 982.5,453.5 Z" />
    </g>
    <g>
        <path style="opacity:1" fill="#bb8b5f"
            d="M 316.5,455.5 C 317.168,560.569 317.834,665.736 318.5,771C 316.968,773.33 317.302,775.33 319.5,777C 318.833,777.333 318.167,777.667 317.5,778C 425.833,778.5 534.166,778.667 642.5,778.5C 534.001,779.499 425.335,779.833 316.5,779.5C 316.5,671.5 316.5,563.5 316.5,455.5 Z" />
    </g>
    <g>
        <path style="opacity:1" fill="#e1e1e1"
            d="M 48.5,453.5 C 132.998,452.501 217.665,452.167 302.5,452.5C 302.5,561.5 302.5,670.5 302.5,779.5C 217.665,779.833 132.998,779.499 48.5,778.5C 132.833,778.5 217.167,778.5 301.5,778.5C 301.5,670.167 301.5,561.833 301.5,453.5C 217.167,453.5 132.833,453.5 48.5,453.5 Z" />
    </g>
    <g>
        <path style="opacity:1" fill="#926742"
            d="M 996.5,453.5 C 996.5,561.833 996.5,670.167 996.5,778.5C 1104.84,778.343 1213.17,778.676 1321.5,779.5C 1213.29,780.832 1104.96,780.832 996.5,779.5C 995.168,670.667 995.168,562.001 996.5,453.5 Z" />
    </g>
    <g>
        <path style="opacity:1" fill="#cd986a"
            d="M 3021.5,775.5 C 3021.5,776.833 3021.5,778.167 3021.5,779.5C 2943.5,779.5 2865.5,779.5 2787.5,779.5C 2865,778.501 2942.66,778.167 3020.5,778.5C 3020.26,777.209 3020.6,776.209 3021.5,775.5 Z" />
    </g>
    <g>
        <path style="opacity:1" fill="#c28e63"
            d="M 3035.5,453.5 C 3144,452.501 3252.67,452.167 3361.5,452.5C 3361.5,561.5 3361.5,670.5 3361.5,779.5C 3253.5,779.5 3145.5,779.5 3037.5,779.5C 3144,778.667 3250.67,778.167 3357.5,778C 3353.77,776.957 3354.11,776.457 3358.5,776.5C 3358.42,769.916 3358.92,763.25 3360,756.5C 3360.5,728.169 3360.67,699.835 3360.5,671.5C 3360.5,598.833 3360.5,526.167 3360.5,453.5C 3352.5,453.5 3344.5,453.5 3336.5,453.5C 3236.17,453.5 3135.83,453.5 3035.5,453.5 Z" />
    </g>
    <g>
        <path style="opacity:1" fill="#63422b"
            d="M 3361.5,452.5 C 3362.5,561.665 3362.83,670.999 3362.5,780.5C 3253.67,780.833 3145,780.499 3036.5,779.5C 3036.83,779.5 3037.17,779.5 3037.5,779.5C 3145.5,779.5 3253.5,779.5 3361.5,779.5C 3361.5,670.5 3361.5,561.5 3361.5,452.5 Z" />
    </g>
    <g>
        <path style="opacity:1" fill="#fdf0bc"
            d="M 48.5,792.5 C 1152.83,792.333 2257.17,792.5 3361.5,793C 3362.5,833.761 3362.83,874.594 3362.5,915.5C 2257.83,915.5 1153.17,915.5 48.5,915.5C 48.5,874.5 48.5,833.5 48.5,792.5 Z" />
    </g>
    <g>
        <path style="opacity:1" fill="#180100"
            d="M 3020.5,928.5 C 2799,928.167 2577.67,928.5 2356.5,929.5C 2356.17,929.5 2355.83,929.5 2355.5,929.5C 2466,928.167 2576.83,927.5 2688,927.5C 2799,927.5 2909.83,927.833 3020.5,928.5 Z" />
    </g>
    <g>
        <path style="opacity:1" fill="#7c5540"
            d="M 123.5,929.5 C 110.5,929.5 97.5,929.5 84.5,929.5C 84.5,930.5 84.5,931.5 84.5,932.5C 83.5987,931.71 82.9321,930.71 82.5,929.5C 96.1667,928.167 109.833,928.167 123.5,929.5 Z" />
    </g>
    <g>
        <path style="opacity:1" fill="#6a4530"
            d="M 183.5,929.5 C 175.248,929.184 167.081,929.518 159,930.5C 158.5,955.164 158.333,979.831 158.5,1004.5C 157.337,979.67 157.17,954.67 158,929.5C 166.598,928.172 175.098,928.172 183.5,929.5 Z" />
    </g>
    <g>
        <path style="opacity:0.749" fill="#a17547"
            d="M 2356.5,929.5 C 2577.67,928.5 2799,928.167 3020.5,928.5C 3022.5,1035.49 3023.16,1142.83 3022.5,1250.5C 3022.17,1250.5 3021.83,1250.5 3021.5,1250.5C 3021.5,1143.5 3021.5,1036.5 3021.5,929.5C 2801.17,929.5 2580.83,929.5 2360.5,929.5C 2359.17,929.5 2357.83,929.5 2356.5,929.5 Z" />
    </g>
    <g>
        <path style="opacity:1" fill="#e19654"
            d="M 3282.5,928.5 C 3282.81,936.087 3282.48,943.587 3281.5,951C 3256.17,951.5 3230.84,951.667 3205.5,951.5C 3204.87,947.581 3204.53,943.581 3204.5,939.5C 3204.54,935.405 3205.21,931.571 3206.5,928C 3231.91,927.177 3257.24,927.344 3282.5,928.5 Z" />
    </g>
    <g>
        <path style="opacity:1" fill="#e89d59"
            d="M 79.5,929.5 C 90.7237,949.608 102.224,969.608 114,989.5C 115.591,991.927 116.425,994.593 116.5,997.5C 113.984,997.245 111.65,996.411 109.5,995C 89.8527,982.845 69.8527,971.345 49.5,960.5C 49.5,950.167 49.5,939.833 49.5,929.5C 59.5,929.5 69.5,929.5 79.5,929.5 Z" />
    </g>
    <g>
        <path style="opacity:1" fill="#ea9d59"
            d="M 123.5,929.5 C 123.833,929.5 124.167,929.5 124.5,929.5C 124.667,953.169 124.5,976.836 124,1000.5C 123.617,999.944 123.117,999.611 122.5,999.5C 110.619,976.739 97.9519,954.406 84.5,932.5C 84.5,931.5 84.5,930.5 84.5,929.5C 97.5,929.5 110.5,929.5 123.5,929.5 Z" />
    </g>
    <g>
        <path style="opacity:1" fill="#e39957"
            d="M 130.5,928.5 C 138.752,928.184 146.919,928.518 155,929.5C 155.5,954.831 155.667,980.164 155.5,1005.5C 146.833,1005.5 138.167,1005.5 129.5,1005.5C 129.176,979.759 129.51,954.092 130.5,928.5 Z" />
    </g>
    <g>
        <path style="opacity:1" fill="#ea9f5b"
            d="M 183.5,929.5 C 184.498,954.661 184.831,979.995 184.5,1005.5C 175.651,1005.83 166.984,1005.49 158.5,1004.5C 158.333,979.831 158.5,955.164 159,930.5C 167.081,929.518 175.248,929.184 183.5,929.5 Z" />
    </g>
    <g>
        <path style="opacity:1" fill="#ea9e5a"
            d="M 187.5,929.5 C 196.085,929.183 204.585,929.517 213,930.5C 213.5,955.164 213.667,979.831 213.5,1004.5C 205.016,1005.49 196.349,1005.83 187.5,1005.5C 187.5,980.167 187.5,954.833 187.5,929.5 Z" />
    </g>
    <g>
        <path style="opacity:1" fill="#eb9e59"
            d="M 217.5,929.5 C 225.833,929.5 234.167,929.5 242.5,929.5C 242.169,953.339 242.502,977.006 243.5,1000.5C 243.5,1002.17 243.5,1003.83 243.5,1005.5C 234.833,1005.5 226.167,1005.5 217.5,1005.5C 217.5,980.167 217.5,954.833 217.5,929.5 Z" />
    </g>
    <g>
        <path style="opacity:1" fill="#ea9e5a"
            d="M 276.5,929.5 C 284.5,929.5 292.5,929.5 300.5,929.5C 300.5,954.833 300.5,980.167 300.5,1005.5C 292.167,1005.5 283.833,1005.5 275.5,1005.5C 275.169,979.995 275.502,954.661 276.5,929.5 Z" />
    </g>
    <g>
        <path style="opacity:1" fill="#fefefe"
            d="M 316.5,929.5 C 317.469,930.309 318.302,931.309 319,932.5C 652.793,930.834 986.626,929.834 1320.5,929.5C 1321.5,1038 1321.83,1146.67 1321.5,1255.5C 986.167,1255.5 650.833,1255.5 315.5,1255.5C 315.167,1146.67 315.501,1038 316.5,929.5 Z" />
    </g>
    <g>
        <path style="opacity:1" fill="#f6f6f6"
            d="M 316.5,929.5 C 651.167,929.5 985.833,929.5 1320.5,929.5C 986.626,929.834 652.793,930.834 319,932.5C 318.302,931.309 317.469,930.309 316.5,929.5 Z" />
    </g>
    <g>
        <path style="opacity:1" fill="#fefefe"
            d="M 1335.5,929.5 C 1444.17,929.5 1552.83,929.5 1661.5,929.5C 1661.5,1038.17 1661.5,1146.83 1661.5,1255.5C 1552.83,1255.5 1444.17,1255.5 1335.5,1255.5C 1335.5,1146.83 1335.5,1038.17 1335.5,929.5 Z" />
    </g>
    <g>
        <path style="opacity:1" fill="#fecc6d"
            d="M 1675.5,928.5 C 1897.5,928.5 2119.5,928.5 2341.5,928.5C 2341.5,1037.83 2341.5,1147.17 2341.5,1256.5C 2119.83,1256.67 1898.17,1256.5 1676.5,1256C 1675.5,1146.9 1675.17,1037.74 1675.5,928.5 Z" />
    </g>
    <g>
        <path style="opacity:1" fill="#fecc6e"
            d="M 2360.5,929.5 C 2580.83,929.5 2801.17,929.5 3021.5,929.5C 3021.5,1036.5 3021.5,1143.5 3021.5,1250.5C 3020.57,1251.57 3020.23,1252.9 3020.5,1254.5C 2932.67,1254.17 2845,1254.5 2757.5,1255.5C 2707.17,1255.5 2656.83,1255.5 2606.5,1255.5C 2606.22,1254.71 2605.72,1254.04 2605,1253.5C 2523.75,1254.48 2442.25,1254.82 2360.5,1254.5C 2359.31,1253.47 2358.48,1252.13 2358,1250.5C 2357.5,1144.17 2357.33,1037.83 2357.5,931.5C 2359.18,931.715 2360.18,931.048 2360.5,929.5 Z" />
    </g>
    <g>
        <path style="opacity:1" fill="#eb9f59"
            d="M 3285.5,929.5 C 3309.84,929.333 3334.17,929.5 3358.5,930C 3359.67,930.5 3360.5,931.333 3361,932.5C 3361.5,938.157 3361.67,943.824 3361.5,949.5C 3336.17,949.5 3310.83,949.5 3285.5,949.5C 3285.5,942.833 3285.5,936.167 3285.5,929.5 Z" />
    </g>
    <g>
        <path style="opacity:1" fill="#25130c"
            d="M 299.5,928.5 C 291.648,928.175 283.982,928.508 276.5,929.5C 275.502,954.661 275.169,979.995 275.5,1005.5C 283.833,1005.5 292.167,1005.5 300.5,1005.5C 300.833,1005.5 301.167,1005.5 301.5,1005.5C 292.432,1006.83 283.265,1006.83 274,1005.5C 273.075,1006.05 272.242,1006.71 271.5,1007.5C 267.5,1007.83 263.5,1008.17 259.5,1008.5C 245.485,1007.13 231.485,1006.13 217.5,1005.5C 226.167,1005.5 234.833,1005.5 243.5,1005.5C 243.5,1003.83 243.5,1002.17 243.5,1000.5C 243.5,976.5 243.5,952.5 243.5,928.5C 262.434,927.757 281.1,927.757 299.5,928.5 Z" />
    </g>
    <g>
        <path style="opacity:1" fill="#eb9f58"
            d="M 247.5,929.5 C 255.5,929.5 263.5,929.5 271.5,929.5C 271.5,954.833 271.5,980.167 271.5,1005.5C 263.5,1005.5 255.5,1005.5 247.5,1005.5C 247.5,980.167 247.5,954.833 247.5,929.5 Z" />
    </g>
    <g>
        <path style="opacity:1" fill="#c4ad91"
            d="M 3035.5,929.5 C 3087.17,929.5 3138.83,929.5 3190.5,929.5C 3190.5,1028.83 3190.5,1128.17 3190.5,1227.5C 3138.83,1227.5 3087.17,1227.5 3035.5,1227.5C 3035.5,1128.17 3035.5,1028.83 3035.5,929.5 Z" />
    </g>
    <g>
        <path style="opacity:1" fill="#c7ae8c"
            d="M 3179.5,938.5 C 3179.5,939.5 3179.5,940.5 3179.5,941.5C 3136.83,941.5 3094.17,941.5 3051.5,941.5C 3051.5,1032.17 3051.5,1122.83 3051.5,1213.5C 3094.17,1213.5 3136.83,1213.5 3179.5,1213.5C 3179.17,1123 3179.5,1032.67 3180.5,942.5C 3180.67,1034.83 3180.5,1127.17 3180,1219.5C 3179.17,1220.33 3178.33,1221.17 3177.5,1222C 3134.83,1222.67 3092.17,1222.67 3049.5,1222C 3048.54,1220.58 3047.71,1219.08 3047,1217.5C 3046.82,1152.98 3046.32,1088.48 3045.5,1024C 3045.97,995.1 3046.47,966.267 3047,937.5C 3047.9,936.299 3049.07,935.465 3050.5,935C 3092.5,934.333 3134.5,934.333 3176.5,935C 3178.06,935.72 3179.06,936.887 3179.5,938.5 Z" />
    </g>
    <g>
        <path style="opacity:1" fill="#c5ae8d"
            d="M 3179.5,938.5 C 3180.43,939.568 3180.77,940.901 3180.5,942.5C 3179.5,1032.67 3179.17,1123 3179.5,1213.5C 3136.83,1213.5 3094.17,1213.5 3051.5,1213.5C 3051.5,1122.83 3051.5,1032.17 3051.5,941.5C 3094.17,941.5 3136.83,941.5 3179.5,941.5C 3179.5,940.5 3179.5,939.5 3179.5,938.5 Z" />
    </g>
    <g>
        <path style="opacity:1" fill="#684734"
            d="M 187.5,929.5 C 196.235,928.172 205.068,928.172 214,929.5C 214.83,954.67 214.663,979.67 213.5,1004.5C 213.667,979.831 213.5,955.164 213,930.5C 204.585,929.517 196.085,929.183 187.5,929.5 Z" />
    </g>
    <g>
        <path style="opacity:1" fill="#89614c"
            d="M 3285.5,929.5 C 3309.99,928.502 3334.66,928.169 3359.5,928.5C 3360.5,928.5 3361.5,928.5 3362.5,928.5C 3363.13,936.243 3362.46,943.576 3360.5,950.5C 3335.33,950.831 3310.33,950.498 3285.5,949.5C 3310.83,949.5 3336.17,949.5 3361.5,949.5C 3361.67,943.824 3361.5,938.157 3361,932.5C 3360.5,931.333 3359.67,930.5 3358.5,930C 3334.17,929.5 3309.84,929.333 3285.5,929.5 Z" />
    </g>
    <g>
        <path style="opacity:1" fill="#bd9174"
            d="M 217.5,929.5 C 225.984,928.507 234.651,928.174 243.5,928.5C 243.5,952.5 243.5,976.5 243.5,1000.5C 242.502,977.006 242.169,953.339 242.5,929.5C 234.167,929.5 225.833,929.5 217.5,929.5 Z" />
    </g>
    <g>
        <path style="opacity:1" fill="#55331f"
            d="M 3205.5,953.5 C 3205.5,953.167 3205.5,952.833 3205.5,952.5C 3231.19,951.843 3256.52,952.509 3281.5,954.5C 3256.24,953.51 3230.91,953.177 3205.5,953.5 Z" />
    </g>
    <g>
        <path style="opacity:1" fill="#ec9f59"
            d="M 3205.5,953.5 C 3230.91,953.177 3256.24,953.51 3281.5,954.5C 3281.5,962.833 3281.5,971.167 3281.5,979.5C 3256.17,979.5 3230.83,979.5 3205.5,979.5C 3205.5,970.833 3205.5,962.167 3205.5,953.5 Z" />
    </g>
    <g>
        <path style="opacity:1" fill="#eb9f59"
            d="M 3285.5,953.5 C 3310.83,953.5 3336.17,953.5 3361.5,953.5C 3361.5,962.167 3361.5,970.833 3361.5,979.5C 3336.17,979.5 3310.83,979.5 3285.5,979.5C 3285.5,970.833 3285.5,962.167 3285.5,953.5 Z" />
    </g>
    <g>
        <path style="opacity:1" fill="#b38869"
            d="M 247.5,929.5 C 255.65,928.507 263.983,928.174 272.5,928.5C 272.831,954.339 272.498,980.005 271.5,1005.5C 271.5,980.167 271.5,954.833 271.5,929.5C 263.5,929.5 255.5,929.5 247.5,929.5 Z" />
    </g>
    <g>
        <path style="opacity:1" fill="#ea9e59"
            d="M 50.5,964.5 C 72.0126,977.09 93.6793,989.423 115.5,1001.5C 117.076,1002.14 118.41,1003.14 119.5,1004.5C 96.6727,1005.5 73.6727,1005.83 50.5,1005.5C 49.1784,991.735 49.1784,978.069 50.5,964.5 Z" />
    </g>
    <g>
        <path style="opacity:1" fill="#b38960"
            d="M 276.5,929.5 C 283.982,928.508 291.648,928.175 299.5,928.5C 301.491,953.812 302.157,979.478 301.5,1005.5C 301.167,1005.5 300.833,1005.5 300.5,1005.5C 300.5,980.167 300.5,954.833 300.5,929.5C 292.5,929.5 284.5,929.5 276.5,929.5 Z" />
    </g>
    <g>
        <path style="opacity:1" fill="#c69878"
            d="M 48.5,963.5 C 49.4916,963.328 50.1583,963.662 50.5,964.5C 49.1784,978.069 49.1784,991.735 50.5,1005.5C 49.8333,1005.5 49.1667,1005.5 48.5,1005.5C 48.5,991.5 48.5,977.5 48.5,963.5 Z" />
    </g>
    <g>
        <path style="opacity:1" fill="#714d3b"
            d="M 3285.5,953.5 C 3310.66,952.502 3335.99,952.169 3361.5,952.5C 3362.83,961.833 3362.83,971.167 3361.5,980.5C 3335.99,980.831 3310.66,980.498 3285.5,979.5C 3310.83,979.5 3336.17,979.5 3361.5,979.5C 3361.5,970.833 3361.5,962.167 3361.5,953.5C 3336.17,953.5 3310.83,953.5 3285.5,953.5 Z" />
    </g>
    <g>
        <path style="opacity:1" fill="#98705b"
            d="M 124.5,929.5 C 125.498,953.328 125.831,977.328 125.5,1001.5C 123.821,1001.71 122.821,1001.05 122.5,999.5C 123.117,999.611 123.617,999.944 124,1000.5C 124.5,976.836 124.667,953.169 124.5,929.5 Z" />
    </g>
    <g>
        <path style="opacity:1" fill="#9d7156"
            d="M 3285.5,983.5 C 3310.99,982.502 3336.66,982.169 3362.5,982.5C 3362.5,991.5 3362.5,1000.5 3362.5,1009.5C 3340.5,1009.5 3318.5,1009.5 3296.5,1009.5C 3317.99,1008.5 3339.66,1008.17 3361.5,1008.5C 3361.5,1000.17 3361.5,991.833 3361.5,983.5C 3336.17,983.5 3310.83,983.5 3285.5,983.5 Z" />
    </g>
    <g>
        <path style="opacity:1" fill="#eb9f59"
            d="M 3285.5,983.5 C 3310.83,983.5 3336.17,983.5 3361.5,983.5C 3361.5,991.833 3361.5,1000.17 3361.5,1008.5C 3339.66,1008.17 3317.99,1008.5 3296.5,1009.5C 3292.83,1009.5 3289.17,1009.5 3285.5,1009.5C 3285.5,1000.83 3285.5,992.167 3285.5,983.5 Z" />
    </g>
    <g>
        <path style="opacity:1" fill="#311610"
            d="M 79.5,929.5 C 80.5,929.5 81.5,929.5 82.5,929.5C 82.9321,930.71 83.5987,931.71 84.5,932.5C 97.9519,954.406 110.619,976.739 122.5,999.5C 120.359,999.251 118.193,998.917 116,998.5C 115.517,999.448 115.351,1000.45 115.5,1001.5C 93.6793,989.423 72.0126,977.09 50.5,964.5C 50.1583,963.662 49.4916,963.328 48.5,963.5C 49.1098,962.609 49.4431,961.609 49.5,960.5C 69.8527,971.345 89.8527,982.845 109.5,995C 111.65,996.411 113.984,997.245 116.5,997.5C 116.425,994.593 115.591,991.927 114,989.5C 102.224,969.608 90.7237,949.608 79.5,929.5 Z" />
    </g>
    <g>
        <path style="opacity:1" fill="#a67c62"
            d="M 3205.5,983.5 C 3205.5,983.167 3205.5,982.833 3205.5,982.5C 3230.83,982.5 3256.17,982.5 3281.5,982.5C 3281.83,991.682 3281.49,1000.68 3280.5,1009.5C 3280.5,1000.83 3280.5,992.167 3280.5,983.5C 3255.5,983.5 3230.5,983.5 3205.5,983.5 Z" />
    </g>
    <g>
        <path style="opacity:1" fill="#654334"
            d="M 119.5,1004.5 C 120.043,1004.56 120.376,1004.89 120.5,1005.5C 117.914,1006.48 115.247,1006.81 112.5,1006.5C 91.1667,1006.5 69.8333,1006.5 48.5,1006.5C 48.5,1006.17 48.5,1005.83 48.5,1005.5C 49.1667,1005.5 49.8333,1005.5 50.5,1005.5C 73.6727,1005.83 96.6727,1005.5 119.5,1004.5 Z" />
    </g>
    <g>
        <path style="opacity:1" fill="#210100"
            d="M 48.5,1006.5 C 69.8333,1006.5 91.1667,1006.5 112.5,1006.5C 116.5,1007.17 120.5,1007.83 124.5,1008.5C 99.3278,1008.17 74.3278,1008.5 49.5,1009.5C 49.1667,1009.5 48.8333,1009.5 48.5,1009.5C 48.5,1008.5 48.5,1007.5 48.5,1006.5 Z" />
    </g>
    <g>
        <path style="opacity:1" fill="#a17456"
            d="M 49.5,1009.5 C 74.3278,1008.5 99.3278,1008.17 124.5,1008.5C 125.494,1017.99 125.827,1027.65 125.5,1037.5C 125.167,1037.5 124.833,1037.5 124.5,1037.5C 124.5,1028.17 124.5,1018.83 124.5,1009.5C 99.5,1009.5 74.5,1009.5 49.5,1009.5 Z" />
    </g>
    <g>
        <path style="opacity:1" fill="#eb9f59"
            d="M 48.5,1009.5 C 48.8333,1009.5 49.1667,1009.5 49.5,1009.5C 74.5,1009.5 99.5,1009.5 124.5,1009.5C 124.5,1018.83 124.5,1028.17 124.5,1037.5C 124.167,1037.5 123.833,1037.5 123.5,1037.5C 99.3368,1036.67 75.0034,1036.17 50.5,1036C 49.8563,1031.07 49.1897,1026.23 48.5,1021.5C 48.5,1017.5 48.5,1013.5 48.5,1009.5 Z" />
    </g>
    <g>
        <path style="opacity:1" fill="#948779"
            d="M 3035.5,929.5 C 3087.33,928.501 3139.33,928.168 3191.5,928.5C 3191.83,1028.33 3191.5,1128 3190.5,1227.5C 3190.5,1128.17 3190.5,1028.83 3190.5,929.5C 3138.83,929.5 3087.17,929.5 3035.5,929.5 Z" />
    </g>
    <g>
        <path style="opacity:1" fill="#fef1bc"
            d="M 138.5,1019.5 C 192.833,1019.5 247.167,1019.5 301.5,1019.5C 301.5,1098.17 301.5,1176.83 301.5,1255.5C 247.167,1255.5 192.833,1255.5 138.5,1255.5C 139.339,1176.83 139.339,1098.16 138.5,1019.5 Z" />
    </g>
    <g>
        <path style="opacity:1" fill="#c0987f"
            d="M 48.5,1021.5 C 49.1897,1026.23 49.8563,1031.07 50.5,1036C 75.0034,1036.17 99.3368,1036.67 123.5,1037.5C 98.5,1037.5 73.5,1037.5 48.5,1037.5C 48.5,1032.17 48.5,1026.83 48.5,1021.5 Z" />
    </g>
    <g>
        <path style="opacity:1" fill="#93674d"
            d="M 124.5,1040.5 C 125.167,1040.5 125.5,1040.83 125.5,1041.5C 100.167,1041.5 74.8333,1041.5 49.5,1041.5C 49.5,1049.83 49.5,1058.17 49.5,1066.5C 74.8333,1066.5 100.167,1066.5 125.5,1066.5C 124.791,1067.4 123.791,1067.74 122.5,1067.5C 97.8333,1067.5 73.1667,1067.5 48.5,1067.5C 48.5,1058.5 48.5,1049.5 48.5,1040.5C 73.8333,1040.5 99.1667,1040.5 124.5,1040.5 Z" />
    </g>
    <g>
        <path style="opacity:1" fill="#eb9e59"
            d="M 125.5,1041.5 C 125.5,1049.83 125.5,1058.17 125.5,1066.5C 100.167,1066.5 74.8333,1066.5 49.5,1066.5C 49.5,1058.17 49.5,1049.83 49.5,1041.5C 74.8333,1041.5 100.167,1041.5 125.5,1041.5 Z" />
    </g>
    <g>
        <path style="opacity:1" fill="#eb9f58"
            d="M 3285.5,1042.5 C 3310.84,1042.33 3336.17,1042.5 3361.5,1043C 3361.44,1050.96 3361.44,1059.12 3361.5,1067.5C 3336.17,1067.5 3310.83,1067.5 3285.5,1067.5C 3285.5,1059.17 3285.5,1050.83 3285.5,1042.5 Z" />
    </g>
    <g>
        <path style="opacity:1" fill="#976c54"
            d="M 3205.5,1042.5 C 3230.66,1041.5 3255.99,1041.17 3281.5,1041.5C 3281.5,1050.5 3281.5,1059.5 3281.5,1068.5C 3256.17,1068.5 3230.83,1068.5 3205.5,1068.5C 3205.5,1068.17 3205.5,1067.83 3205.5,1067.5C 3230.5,1067.5 3255.5,1067.5 3280.5,1067.5C 3280.5,1059.17 3280.5,1050.83 3280.5,1042.5C 3255.5,1042.5 3230.5,1042.5 3205.5,1042.5 Z" />
    </g>
    <g>
        <path style="opacity:1" fill="#1e0802"
            d="M 48.5,1009.5 C 48.5,1013.5 48.5,1017.5 48.5,1021.5C 48.5,1026.83 48.5,1032.17 48.5,1037.5C 73.5,1037.5 98.5,1037.5 123.5,1037.5C 123.833,1037.5 124.167,1037.5 124.5,1037.5C 124.833,1037.5 125.167,1037.5 125.5,1037.5C 125.082,1038.22 124.416,1038.72 123.5,1039C 124.056,1039.38 124.389,1039.88 124.5,1040.5C 99.1667,1040.5 73.8333,1040.5 48.5,1040.5C 48.5,1049.5 48.5,1058.5 48.5,1067.5C 73.1667,1067.5 97.8333,1067.5 122.5,1067.5C 122.833,1068.17 123.167,1068.83 123.5,1069.5C 98.3278,1069.17 73.3278,1069.5 48.5,1070.5C 48.5,1075.17 48.5,1079.83 48.5,1084.5C 48.5,1088.17 48.5,1091.83 48.5,1095.5C 46.9048,1088.57 45.9048,1081.4 45.5,1074C 46.0215,1071.79 46.6882,1069.62 47.5,1067.5C 47.7102,1047.66 47.0435,1028.32 45.5,1009.5C 46.5,1009.5 47.5,1009.5 48.5,1009.5 Z" />
    </g>
    <g>
        <path style="opacity:1" fill="#80543f"
            d="M 3285.5,1042.5 C 3310.99,1041.5 3336.66,1041.17 3362.5,1041.5C 3362.83,1050.68 3362.49,1059.68 3361.5,1068.5C 3335.99,1068.83 3310.66,1068.5 3285.5,1067.5C 3310.83,1067.5 3336.17,1067.5 3361.5,1067.5C 3361.44,1059.12 3361.44,1050.96 3361.5,1043C 3336.17,1042.5 3310.84,1042.33 3285.5,1042.5 Z" />
    </g>
    <g>
        <path style="opacity:1" fill="#eb9f59"
            d="M 48.5,1070.5 C 73.8333,1070.5 99.1667,1070.5 124.5,1070.5C 124.816,1078.75 124.482,1086.92 123.5,1095C 99.1667,1095.67 74.8333,1095.67 50.5,1095C 49.8648,1091.4 49.1982,1087.9 48.5,1084.5C 48.5,1079.83 48.5,1075.17 48.5,1070.5 Z" />
    </g>
    <g>
        <path style="opacity:1" fill="#ea9f5a"
            d="M 3205.5,1071.5 C 3225.17,1071.5 3244.83,1071.5 3264.5,1071.5C 3269.64,1072.49 3274.97,1072.82 3280.5,1072.5C 3280.5,1080.83 3280.5,1089.17 3280.5,1097.5C 3255.5,1097.5 3230.5,1097.5 3205.5,1097.5C 3205.5,1088.83 3205.5,1080.17 3205.5,1071.5 Z" />
    </g>
    <g>
        <path style="opacity:1" fill="#61412e"
            d="M 3361.5,1070.5 C 3362.17,1070.5 3362.5,1070.83 3362.5,1071.5C 3362.17,1071.5 3361.83,1071.5 3361.5,1071.5C 3336.14,1071.2 3310.81,1071.54 3285.5,1072.5C 3285.5,1080.83 3285.5,1089.17 3285.5,1097.5C 3284.17,1088.76 3284.17,1079.93 3285.5,1071C 3310.83,1070.5 3336.16,1070.33 3361.5,1070.5 Z" />
    </g>
    <g>
        <path style="opacity:1" fill="#c59e82"
            d="M 3264.5,1071.5 C 3270.17,1071.5 3275.83,1071.5 3281.5,1071.5C 3281.83,1080.35 3281.49,1089.02 3280.5,1097.5C 3280.5,1089.17 3280.5,1080.83 3280.5,1072.5C 3274.97,1072.82 3269.64,1072.49 3264.5,1071.5 Z" />
    </g>
    <g>
        <path style="opacity:1" fill="#1a1f27"
            d="M 3375.5,439.5 C 3376.5,704.333 3376.83,969.333 3376.5,1234.5C 3376.17,1234.5 3375.83,1234.5 3375.5,1234.5C 3375.83,1183.35 3375.17,1132.35 3373.5,1081.5C 3373.85,1047.5 3374.18,1013.5 3374.5,979.5C 3373.91,803.001 3373.24,626.667 3372.5,450.5C 3372.49,446.536 3373.49,442.869 3375.5,439.5 Z" />
    </g>
    <g>
        <path style="opacity:1" fill="#9d7155"
            d="M 48.5,1070.5 C 73.3278,1069.5 98.3278,1069.17 123.5,1069.5C 125.471,1078.1 126.138,1087.1 125.5,1096.5C 99.6612,1096.83 73.9946,1096.5 48.5,1095.5C 48.5,1091.83 48.5,1088.17 48.5,1084.5C 49.1982,1087.9 49.8648,1091.4 50.5,1095C 74.8333,1095.67 99.1667,1095.67 123.5,1095C 124.482,1086.92 124.816,1078.75 124.5,1070.5C 99.1667,1070.5 73.8333,1070.5 48.5,1070.5 Z" />
    </g>
    <g>
        <path style="opacity:1" fill="#929293"
            d="M 316.5,929.5 C 651.666,928.5 987,928.167 1322.5,928.5C 1322.83,1037.67 1322.5,1146.67 1321.5,1255.5C 1321.83,1146.67 1321.5,1038 1320.5,929.5C 985.833,929.5 651.167,929.5 316.5,929.5 Z" />
    </g>
    <g>
        <path style="opacity:1" fill="#eb9f59"
            d="M 49.5,1099.5 C 73.8356,1099.33 98.1689,1099.5 122.5,1100C 124.462,1110.24 125.128,1120.74 124.5,1131.5C 99.661,1131.17 74.9944,1131.5 50.5,1132.5C 49.5054,1121.68 49.1721,1110.68 49.5,1099.5 Z" />
    </g>
    <g>
        <path style="opacity:1" fill="#eb9e59"
            d="M 3205.5,1101.5 C 3230.83,1101.5 3256.17,1101.5 3281.5,1101.5C 3281.5,1110.17 3281.5,1118.83 3281.5,1127.5C 3276.83,1127.5 3272.17,1127.5 3267.5,1127.5C 3247.43,1126.83 3227.26,1126.16 3207,1125.5C 3206.62,1126.06 3206.12,1126.39 3205.5,1126.5C 3205.5,1118.17 3205.5,1109.83 3205.5,1101.5 Z" />
    </g>
    <g>
        <path style="opacity:1" fill="#cb9e82"
            d="M 3267.5,1127.5 C 3246.83,1127.5 3226.17,1127.5 3205.5,1127.5C 3205.5,1127.17 3205.5,1126.83 3205.5,1126.5C 3206.12,1126.39 3206.62,1126.06 3207,1125.5C 3227.26,1126.16 3247.43,1126.83 3267.5,1127.5 Z" />
    </g>
    <g>
        <path style="opacity:1" fill="#2c160f"
            d="M 3359.5,928.5 C 3334.66,928.169 3309.99,928.502 3285.5,929.5C 3285.5,936.167 3285.5,942.833 3285.5,949.5C 3310.33,950.498 3335.33,950.831 3360.5,950.5C 3360.83,951.167 3361.17,951.833 3361.5,952.5C 3335.99,952.169 3310.66,952.502 3285.5,953.5C 3285.5,962.167 3285.5,970.833 3285.5,979.5C 3310.66,980.498 3335.99,980.831 3361.5,980.5C 3361.83,981.167 3362.17,981.833 3362.5,982.5C 3336.66,982.169 3310.99,982.502 3285.5,983.5C 3285.5,992.167 3285.5,1000.83 3285.5,1009.5C 3289.17,1009.5 3292.83,1009.5 3296.5,1009.5C 3318.5,1009.5 3340.5,1009.5 3362.5,1009.5C 3362.08,1010.22 3361.42,1010.72 3360.5,1011C 3361.77,1011.31 3362.93,1011.81 3364,1012.5C 3365.05,1022.32 3364.55,1031.99 3362.5,1041.5C 3336.66,1041.17 3310.99,1041.5 3285.5,1042.5C 3285.5,1050.83 3285.5,1059.17 3285.5,1067.5C 3310.66,1068.5 3335.99,1068.83 3361.5,1068.5C 3361.5,1069.17 3361.5,1069.83 3361.5,1070.5C 3336.16,1070.33 3310.83,1070.5 3285.5,1071C 3284.17,1079.93 3284.17,1088.76 3285.5,1097.5C 3310.83,1097.5 3336.17,1097.5 3361.5,1097.5C 3362.49,1089.02 3362.83,1080.35 3362.5,1071.5C 3363.82,1075.28 3364.49,1079.44 3364.5,1084C 3364.24,1098.13 3364.07,1112.29 3364,1126.5C 3363.62,1127.06 3363.12,1127.39 3362.5,1127.5C 3362.5,1128.5 3362.5,1129.5 3362.5,1130.5C 3361.17,1130.5 3359.83,1130.5 3358.5,1130.5C 3334.17,1130.5 3309.83,1130.5 3285.5,1130.5C 3285.5,1139.17 3285.5,1147.83 3285.5,1156.5C 3304.5,1156.5 3323.5,1156.5 3342.5,1156.5C 3348.83,1156.5 3355.17,1156.5 3361.5,1156.5C 3361.5,1157.5 3361.5,1158.5 3361.5,1159.5C 3335.99,1159.17 3310.66,1159.5 3285.5,1160.5C 3285.5,1168.83 3285.5,1177.17 3285.5,1185.5C 3310.33,1186.5 3335.33,1186.83 3360.5,1186.5C 3360.56,1187.61 3360.89,1188.61 3361.5,1189.5C 3309.5,1189.5 3257.5,1189.5 3205.5,1189.5C 3205.5,1188.5 3205.5,1187.5 3205.5,1186.5C 3230.83,1186.5 3256.17,1186.5 3281.5,1186.5C 3281.5,1184.5 3281.5,1182.5 3281.5,1180.5C 3281.5,1179.83 3281.5,1179.17 3281.5,1178.5C 3281.5,1172.17 3281.5,1165.83 3281.5,1159.5C 3256.83,1159.5 3232.17,1159.5 3207.5,1159.5C 3206.89,1158.61 3206.56,1157.61 3206.5,1156.5C 3231.5,1156.5 3256.5,1156.5 3281.5,1156.5C 3281.5,1147.83 3281.5,1139.17 3281.5,1130.5C 3256.17,1130.5 3230.83,1130.5 3205.5,1130.5C 3205.5,1129.5 3205.5,1128.5 3205.5,1127.5C 3226.17,1127.5 3246.83,1127.5 3267.5,1127.5C 3272.17,1127.5 3276.83,1127.5 3281.5,1127.5C 3281.5,1118.83 3281.5,1110.17 3281.5,1101.5C 3256.17,1101.5 3230.83,1101.5 3205.5,1101.5C 3208.42,1100.81 3211.42,1099.97 3214.5,1099C 3211.31,1098.82 3208.31,1098.32 3205.5,1097.5C 3230.5,1097.5 3255.5,1097.5 3280.5,1097.5C 3281.49,1089.02 3281.83,1080.35 3281.5,1071.5C 3275.83,1071.5 3270.17,1071.5 3264.5,1071.5C 3244.83,1071.5 3225.17,1071.5 3205.5,1071.5C 3205.5,1070.5 3205.5,1069.5 3205.5,1068.5C 3230.83,1068.5 3256.17,1068.5 3281.5,1068.5C 3281.5,1059.5 3281.5,1050.5 3281.5,1041.5C 3255.99,1041.17 3230.66,1041.5 3205.5,1042.5C 3205.5,1050.83 3205.5,1059.17 3205.5,1067.5C 3204.17,1039.5 3204.17,1011.5 3205.5,983.5C 3205.5,992.167 3205.5,1000.83 3205.5,1009.5C 3230.5,1009.5 3255.5,1009.5 3280.5,1009.5C 3281.49,1000.68 3281.83,991.682 3281.5,982.5C 3256.17,982.5 3230.83,982.5 3205.5,982.5C 3205.5,981.5 3205.5,980.5 3205.5,979.5C 3230.83,979.5 3256.17,979.5 3281.5,979.5C 3281.5,971.167 3281.5,962.833 3281.5,954.5C 3256.52,952.509 3231.19,951.843 3205.5,952.5C 3205.5,952.167 3205.5,951.833 3205.5,951.5C 3230.84,951.667 3256.17,951.5 3281.5,951C 3282.48,943.587 3282.81,936.087 3282.5,928.5C 3308.26,927.173 3333.93,927.173 3359.5,928.5 Z" />
    </g>
    <g>
        <path style="opacity:1" fill="#eb9f5a"
            d="M 3285.5,1101.5 C 3310.83,1101.5 3336.17,1101.5 3361.5,1101.5C 3361.8,1110.25 3361.47,1118.92 3360.5,1127.5C 3335.5,1127.5 3310.5,1127.5 3285.5,1127.5C 3285.5,1118.83 3285.5,1110.17 3285.5,1101.5 Z" />
    </g>
    <g>
        <path style="opacity:1" fill="#7e5640"
            d="M 3285.5,1101.5 C 3310.99,1100.5 3336.66,1100.17 3362.5,1100.5C 3362.5,1109.5 3362.5,1118.5 3362.5,1127.5C 3361.83,1127.5 3361.17,1127.5 3360.5,1127.5C 3361.47,1118.92 3361.8,1110.25 3361.5,1101.5C 3336.17,1101.5 3310.83,1101.5 3285.5,1101.5 Z" />
    </g>
    <g>
        <path style="opacity:1" fill="#a17761"
            d="M 3361.5,1071.5 C 3361.83,1071.5 3362.17,1071.5 3362.5,1071.5C 3362.83,1080.35 3362.49,1089.02 3361.5,1097.5C 3361.36,1088.67 3361.36,1080 3361.5,1071.5 Z" />
    </g>
    <g>
        <path style="opacity:1" fill="#eb9f5a"
            d="M 3361.5,1071.5 C 3361.36,1080 3361.36,1088.67 3361.5,1097.5C 3336.17,1097.5 3310.83,1097.5 3285.5,1097.5C 3285.5,1089.17 3285.5,1080.83 3285.5,1072.5C 3310.81,1071.54 3336.14,1071.2 3361.5,1071.5 Z" />
    </g>
    <g>
        <path style="opacity:1" fill="#eb9f59"
            d="M 3205.5,1042.5 C 3230.5,1042.5 3255.5,1042.5 3280.5,1042.5C 3280.5,1050.83 3280.5,1059.17 3280.5,1067.5C 3255.5,1067.5 3230.5,1067.5 3205.5,1067.5C 3205.5,1059.17 3205.5,1050.83 3205.5,1042.5 Z" />
    </g>
    <g>
        <path style="opacity:1" fill="#c09173"
            d="M 3361.5,1012.5 C 3362.49,1020.98 3362.83,1029.65 3362.5,1038.5C 3336.66,1038.83 3310.99,1038.5 3285.5,1037.5C 3310.83,1037.5 3336.17,1037.5 3361.5,1037.5C 3361.39,1028.99 3361.39,1020.65 3361.5,1012.5 Z" />
    </g>
    <g>
        <path style="opacity:1" fill="#c08f6d"
            d="M 3205.5,1033.5 C 3206.43,1034.57 3206.77,1035.9 3206.5,1037.5C 3231.57,1037.82 3256.57,1037.49 3281.5,1036.5C 3256.52,1038.49 3231.19,1039.16 3205.5,1038.5C 3205.5,1036.83 3205.5,1035.17 3205.5,1033.5 Z" />
    </g>
    <g>
        <path style="opacity:1" fill="#c89d82"
            d="M 3277.5,1012.5 C 3278.83,1012.5 3280.17,1012.5 3281.5,1012.5C 3281.5,1019.17 3281.5,1025.83 3281.5,1032.5C 3280.51,1026.36 3280.18,1020.02 3280.5,1013.5C 3279.21,1013.74 3278.21,1013.4 3277.5,1012.5 Z" />
    </g>
    <g>
        <path style="opacity:1" fill="#eb9e59"
            d="M 3361.5,1012.5 C 3361.39,1020.65 3361.39,1028.99 3361.5,1037.5C 3336.17,1037.5 3310.83,1037.5 3285.5,1037.5C 3285.5,1029.17 3285.5,1020.83 3285.5,1012.5C 3310.83,1012.5 3336.17,1012.5 3361.5,1012.5 Z" />
    </g>
    <g>
        <path style="opacity:1" fill="#eb9e59"
            d="M 3277.5,1012.5 C 3278.21,1013.4 3279.21,1013.74 3280.5,1013.5C 3280.18,1020.02 3280.51,1026.36 3281.5,1032.5C 3281.5,1033.83 3281.5,1035.17 3281.5,1036.5C 3256.57,1037.49 3231.57,1037.82 3206.5,1037.5C 3206.77,1035.9 3206.43,1034.57 3205.5,1033.5C 3205.5,1026.83 3205.5,1020.17 3205.5,1013.5C 3229.43,1012.51 3253.43,1012.18 3277.5,1012.5 Z" />
    </g>
    <g>
        <path style="opacity:1" fill="#582c14"
            d="M 3281.5,1012.5 C 3280.17,1012.5 3278.83,1012.5 3277.5,1012.5C 3253.43,1012.18 3229.43,1012.51 3205.5,1013.5C 3217.82,1012.17 3230.48,1011.5 3243.5,1011.5C 3256.34,1011.5 3269,1011.83 3281.5,1012.5 Z" />
    </g>
    <g>
        <path style="opacity:1" fill="#ea9e5a"
            d="M 3205.5,983.5 C 3230.5,983.5 3255.5,983.5 3280.5,983.5C 3280.5,992.167 3280.5,1000.83 3280.5,1009.5C 3255.5,1009.5 3230.5,1009.5 3205.5,1009.5C 3205.5,1000.83 3205.5,992.167 3205.5,983.5 Z" />
    </g>
    <g>
        <path style="opacity:1" fill="#ea9e5a"
            d="M 3358.5,1130.5 C 3359.21,1131.4 3360.21,1131.74 3361.5,1131.5C 3361.5,1139.5 3361.5,1147.5 3361.5,1155.5C 3354.98,1155.18 3348.64,1155.51 3342.5,1156.5C 3323.5,1156.5 3304.5,1156.5 3285.5,1156.5C 3285.5,1147.83 3285.5,1139.17 3285.5,1130.5C 3309.83,1130.5 3334.17,1130.5 3358.5,1130.5 Z" />
    </g>
    <g>
        <path style="opacity:1" fill="#986f51"
            d="M 49.5,1099.5 C 74.33,1098.34 99.33,1098.17 124.5,1099C 125.487,1110.09 125.821,1121.25 125.5,1132.5C 100.5,1132.5 75.5,1132.5 50.5,1132.5C 74.9944,1131.5 99.661,1131.17 124.5,1131.5C 125.128,1120.74 124.462,1110.24 122.5,1100C 98.1689,1099.5 73.8356,1099.33 49.5,1099.5 Z" />
    </g>
    <g>
        <path style="opacity:1" fill="#eb9f59"
            d="M 3205.5,1131.5 C 3230.5,1131.5 3255.5,1131.5 3280.5,1131.5C 3280.82,1139.42 3280.48,1147.25 3279.5,1155C 3254.84,1155.5 3230.17,1155.67 3205.5,1155.5C 3205.5,1147.5 3205.5,1139.5 3205.5,1131.5 Z" />
    </g>
    <g>
        <path style="opacity:0.749" fill="#e4af73"
            d="M 2355.5,929.5 C 2355.83,929.5 2356.17,929.5 2356.5,929.5C 2357.83,929.5 2359.17,929.5 2360.5,929.5C 2360.18,931.048 2359.18,931.715 2357.5,931.5C 2357.33,1037.83 2357.5,1144.17 2358,1250.5C 2358.48,1252.13 2359.31,1253.47 2360.5,1254.5C 2360.5,1254.83 2360.5,1255.17 2360.5,1255.5C 2358.83,1255.5 2357.17,1255.5 2355.5,1255.5C 2355.5,1146.83 2355.5,1038.17 2355.5,929.5 Z" />
    </g>
    <g>
        <path style="opacity:1" fill="#fefefe"
            d="M 50.5,1146.5 C 75.1667,1146.5 99.8333,1146.5 124.5,1146.5C 124.5,1182.83 124.5,1219.17 124.5,1255.5C 98.8113,1256.16 73.478,1255.49 48.5,1253.5C 49.1793,1217.96 49.846,1182.29 50.5,1146.5 Z" />
    </g>
    <g>
        <path style="opacity:1" fill="#c39373"
            d="M 3205.5,1131.5 C 3205.5,1131.17 3205.5,1130.83 3205.5,1130.5C 3230.83,1130.5 3256.17,1130.5 3281.5,1130.5C 3281.5,1139.17 3281.5,1147.83 3281.5,1156.5C 3256.5,1156.5 3231.5,1156.5 3206.5,1156.5C 3205.83,1156.5 3205.5,1156.17 3205.5,1155.5C 3230.17,1155.67 3254.84,1155.5 3279.5,1155C 3280.48,1147.25 3280.82,1139.42 3280.5,1131.5C 3255.5,1131.5 3230.5,1131.5 3205.5,1131.5 Z" />
    </g>
    <g>
        <path style="opacity:1" fill="#ba8c71"
            d="M 3358.5,1130.5 C 3359.83,1130.5 3361.17,1130.5 3362.5,1130.5C 3362.83,1139.35 3362.49,1148.02 3361.5,1156.5C 3355.17,1156.5 3348.83,1156.5 3342.5,1156.5C 3348.64,1155.51 3354.98,1155.18 3361.5,1155.5C 3361.5,1147.5 3361.5,1139.5 3361.5,1131.5C 3360.21,1131.74 3359.21,1131.4 3358.5,1130.5 Z" />
    </g>
    <g>
        <path style="opacity:1" fill="#a2704c"
            d="M 3205.5,1160.5 C 3205.84,1159.66 3206.51,1159.33 3207.5,1159.5C 3232.17,1159.5 3256.83,1159.5 3281.5,1159.5C 3281.5,1165.83 3281.5,1172.17 3281.5,1178.5C 3280.51,1172.69 3280.18,1166.69 3280.5,1160.5C 3255.5,1160.5 3230.5,1160.5 3205.5,1160.5 Z" />
    </g>
    <g>
        <path style="opacity:1" fill="#ad7c5b"
            d="M 3285.5,1160.5 C 3310.66,1159.5 3335.99,1159.17 3361.5,1159.5C 3362.17,1163.82 3362.5,1168.32 3362.5,1173C 3362.49,1177.89 3361.83,1182.39 3360.5,1186.5C 3335.33,1186.83 3310.33,1186.5 3285.5,1185.5C 3310.83,1185.5 3336.17,1185.5 3361.5,1185.5C 3361.8,1177.44 3361.47,1169.44 3360.5,1161.5C 3335.51,1160.5 3310.51,1160.17 3285.5,1160.5 Z" />
    </g>
    <g>
        <path style="opacity:1" fill="#eb9f59"
            d="M 3205.5,1160.5 C 3230.5,1160.5 3255.5,1160.5 3280.5,1160.5C 3280.18,1166.69 3280.51,1172.69 3281.5,1178.5C 3281.5,1179.17 3281.5,1179.83 3281.5,1180.5C 3280.55,1181.92 3280.22,1183.59 3280.5,1185.5C 3255.5,1185.5 3230.5,1185.5 3205.5,1185.5C 3205.5,1177.17 3205.5,1168.83 3205.5,1160.5 Z" />
    </g>
    <g>
        <path style="opacity:1" fill="#eb9f58"
            d="M 3285.5,1160.5 C 3310.51,1160.17 3335.51,1160.5 3360.5,1161.5C 3361.47,1169.44 3361.8,1177.44 3361.5,1185.5C 3336.17,1185.5 3310.83,1185.5 3285.5,1185.5C 3285.5,1177.17 3285.5,1168.83 3285.5,1160.5 Z" />
    </g>
    <g>
        <path style="opacity:1" fill="#bf9272"
            d="M 3281.5,1180.5 C 3281.5,1182.5 3281.5,1184.5 3281.5,1186.5C 3256.17,1186.5 3230.83,1186.5 3205.5,1186.5C 3205.5,1186.17 3205.5,1185.83 3205.5,1185.5C 3230.5,1185.5 3255.5,1185.5 3280.5,1185.5C 3280.22,1183.59 3280.55,1181.92 3281.5,1180.5 Z" />
    </g>
    <g>
        <path style="opacity:1" fill="#ea9e59"
            d="M 3205.5,1189.5 C 3257.5,1189.5 3309.5,1189.5 3361.5,1189.5C 3361.5,1202.17 3361.5,1214.83 3361.5,1227.5C 3309.5,1227.5 3257.5,1227.5 3205.5,1227.5C 3205.5,1214.83 3205.5,1202.17 3205.5,1189.5 Z" />
    </g>
    <g>
        <path style="opacity:1" fill="#d7d6d4"
            d="M 50.5,1146.5 C 49.846,1182.29 49.1793,1217.96 48.5,1253.5C 47.8398,1217.48 48.5065,1181.82 50.5,1146.5 Z" />
    </g>
    <g>
        <path style="opacity:0.282" fill="#b5babb"
            d="M 3375.5,1234.5 C 3375.83,1234.5 3376.17,1234.5 3376.5,1234.5C 3376.5,1237.17 3376.5,1239.83 3376.5,1242.5C 3373.29,1242.81 3370.29,1242.48 3367.5,1241.5C 3369.17,1241.5 3370.83,1241.5 3372.5,1241.5C 3373.5,1241.5 3374.5,1241.5 3375.5,1241.5C 3375.5,1239.17 3375.5,1236.83 3375.5,1234.5 Z" />
    </g>
    <g>
        <path style="opacity:0.749" fill="#f9c88a"
            d="M 2606.5,1255.5 C 2524.5,1255.5 2442.5,1255.5 2360.5,1255.5C 2360.5,1255.17 2360.5,1254.83 2360.5,1254.5C 2442.25,1254.82 2523.75,1254.48 2605,1253.5C 2605.72,1254.04 2606.22,1254.71 2606.5,1255.5 Z" />
    </g>
    <g>
        <path style="opacity:0.749" fill="#f5bf82"
            d="M 3021.5,1250.5 C 3021.5,1252.17 3021.5,1253.83 3021.5,1255.5C 2933.5,1255.5 2845.5,1255.5 2757.5,1255.5C 2845,1254.5 2932.67,1254.17 3020.5,1254.5C 3020.23,1252.9 3020.57,1251.57 3021.5,1250.5 Z" />
    </g>
    <g>
        <path style="opacity:1" fill="#896345"
            d="M 3021.5,1250.5 C 3021.83,1250.5 3022.17,1250.5 3022.5,1250.5C 3022.79,1252.74 3022.46,1254.74 3021.5,1256.5C 2799.83,1256.5 2578.17,1256.5 2356.5,1256.5C 2355.83,1256.5 2355.5,1256.17 2355.5,1255.5C 2357.17,1255.5 2358.83,1255.5 2360.5,1255.5C 2442.5,1255.5 2524.5,1255.5 2606.5,1255.5C 2656.83,1255.5 2707.17,1255.5 2757.5,1255.5C 2845.5,1255.5 2933.5,1255.5 3021.5,1255.5C 3021.5,1253.83 3021.5,1252.17 3021.5,1250.5 Z" />
    </g>
    <g>
        <path style="opacity:1" fill="#110100"
            d="M 2356.5,1256.5 C 2578.17,1256.5 2799.83,1256.5 3021.5,1256.5C 2926.34,1257.75 2831,1258.42 2735.5,1258.5C 2609,1258.2 2482.67,1257.53 2356.5,1256.5 Z" />
    </g>
</svg>