<?xml version="1.0" encoding="UTF-8"?>
<!DOCTYPE svg PUBLIC "-//W3C//DTD SVG 1.1//EN" "http://www.w3.org/Graphics/SVG/1.1/DTD/svg11.dtd">
<svg xmlns="http://www.w3.org/2000/svg" version="1.1" width="3350px" height="830px" style="shape-rendering:geometricPrecision; text-rendering:geometricPrecision; image-rendering:optimizeQuality; fill-rule:evenodd; clip-rule:evenodd" xmlns:xlink="http://www.w3.org/1999/xlink">
<g><path style="opacity:0.999" fill="#060403" d="M 3.5,-0.5 C 1117.5,-0.5 2231.5,-0.5 3345.5,-0.5C 3345.33,111.834 3345.5,224.167 3346,336.5C 3347.11,337.305 3348.28,337.972 3349.5,338.5C 3349.5,343.167 3349.5,347.833 3349.5,352.5C 3346.53,353.398 3343.7,354.731 3341,356.5C 3340.79,360.545 3341.29,364.545 3342.5,368.5C 3341.9,371.68 3341.23,374.847 3340.5,378C 3341.17,381 3341.83,384 3342.5,387C 3341.37,390.771 3340.71,394.605 3340.5,398.5C 3341.5,398.5 3342.5,398.5 3343.5,398.5C 3343.66,401.187 3343.5,403.854 3343,406.5C 3341.47,407.545 3340.64,409.045 3340.5,411C 3343.17,416 3343.17,421 3340.5,426C 3341.17,428.667 3341.83,431.333 3342.5,434C 3341.92,436.194 3341.25,438.36 3340.5,440.5C 3343.17,445.167 3343.17,449.833 3340.5,454.5C 3343.1,459.348 3343.1,464.181 3340.5,469C 3341.97,473.084 3344.97,475.251 3349.5,475.5C 3349.5,480.167 3349.5,484.833 3349.5,489.5C 3348.52,490.141 3347.52,490.807 3346.5,491.5C 3345.5,594.831 3345.17,698.165 3345.5,801.5C 3232.5,801.5 3119.5,801.5 3006.5,801.5C 3006.5,810.833 3006.5,820.167 3006.5,829.5C 2005.5,829.5 1004.5,829.5 3.5,829.5C 3.83332,716.831 3.49999,604.165 2.5,491.5C 1.48224,490.807 0.482236,490.141 -0.5,489.5C -0.5,484.833 -0.5,480.167 -0.5,475.5C 5.39228,475.236 8.72561,472.236 9.5,466.5C 8.5,466.5 7.5,466.5 6.5,466.5C 6.5,463.5 6.5,460.5 6.5,457.5C 7.5,457.5 8.5,457.5 9.5,457.5C 9.5,455.5 9.5,453.5 9.5,451.5C 8.5,451.5 7.5,451.5 6.5,451.5C 6.5,448.833 6.5,446.167 6.5,443.5C 7.5,443.5 8.5,443.5 9.5,443.5C 9.5,441.5 9.5,439.5 9.5,437.5C 8.5,437.5 7.5,437.5 6.5,437.5C 7.13283,432.386 8.13283,427.386 9.5,422.5C 8.5,422.5 7.5,422.5 6.5,422.5C 6.5,419.833 6.5,417.167 6.5,414.5C 7.5,414.5 8.5,414.5 9.5,414.5C 9.5,412.167 9.5,409.833 9.5,407.5C 8.17793,407.67 7.01127,407.337 6,406.5C 5.50258,403.854 5.33591,401.187 5.5,398.5C 6.83333,398.5 8.16667,398.5 9.5,398.5C 9.5,396.167 9.5,393.833 9.5,391.5C 8.5,391.5 7.5,391.5 6.5,391.5C 6.5,388.5 6.5,385.5 6.5,382.5C 7.5,382.5 8.5,382.5 9.5,382.5C 9.5,379.5 9.5,376.5 9.5,373.5C 8.5,373.5 7.5,373.5 6.5,373.5C 6.5,370.167 6.5,366.833 6.5,363.5C 7.5,363.5 8.5,363.5 9.5,363.5C 9.66212,361.473 9.49546,359.473 9,357.5C 6.13147,355.15 2.9648,353.484 -0.5,352.5C -0.5,347.833 -0.5,343.167 -0.5,338.5C 0.72065,337.972 1.88732,337.305 3,336.5C 3.5,224.167 3.66667,111.834 3.5,-0.5 Z"/></g>
<g><path style="opacity:1" fill="#1e0700" d="M 782.5,12.5 C 617.5,12.5 452.5,12.5 287.5,12.5C 289.681,10.9821 292.181,9.98213 295,9.5C 442.709,10.832 590.375,10.832 738,9.5C 751.758,10.3241 765.592,10.8241 779.5,11C 780.737,11.2321 781.737,11.7321 782.5,12.5 Z"/></g>
<g><path style="opacity:1" fill="#27150d" d="M 1292.5,12.5 C 1127.5,12.5 962.5,12.5 797.5,12.5C 797.5,121.5 797.5,230.5 797.5,339.5C 796.778,339.082 796.278,338.416 796,337.5C 795.167,228.832 795.333,120.165 796.5,11.5C 797.216,10.689 798.05,10.0223 799,9.5C 960.698,10.8047 1122.53,10.8047 1284.5,9.5C 1287.46,10.0088 1290.13,11.0088 1292.5,12.5 Z"/></g>
<g><path style="opacity:1" fill="#1d0600" d="M 1802.5,12.5 C 1637.5,12.5 1472.5,12.5 1307.5,12.5C 1314.68,10.8226 1322.18,9.82257 1330,9.5C 1485.63,10.7322 1640.96,10.7322 1796,9.5C 1798.53,9.94965 1800.7,10.9496 1802.5,12.5 Z"/></g>
<g><path style="opacity:1" fill="#1d0700" d="M 2311.5,12.5 C 2146.83,12.5 1982.17,12.5 1817.5,12.5C 1818.61,11.71 1819.94,11.21 1821.5,11C 1975.54,10.8318 2129.54,10.3318 2283.5,9.5C 2292.83,10.5891 2301.66,10.5891 2310,9.5C 2311.04,10.2438 2311.54,11.2438 2311.5,12.5 Z"/></g>
<g><path style="opacity:1" fill="#1d0600" d="M 2821.5,12.5 C 2656.83,12.5 2492.17,12.5 2327.5,12.5C 2327.61,11.8826 2327.94,11.3826 2328.5,11C 2333.75,10.8071 2338.92,10.3071 2344,9.5C 2502.72,9.78223 2661.88,10.7822 2821.5,12.5 Z"/></g>
<g><path style="opacity:1" fill="#1d0600" d="M 3331.5,12.5 C 3166.17,12.5 3000.83,12.5 2835.5,12.5C 2835.61,11.8826 2835.94,11.3826 2836.5,11C 2997.74,10.8326 3158.9,10.3326 3320,9.5C 3323.96,9.67436 3327.79,10.6744 3331.5,12.5 Z"/></g>
<g><path style="opacity:1" fill="#a79f93" d="M 16.5,13.5 C 101.998,12.5007 187.665,12.1673 273.5,12.5C 273.5,13.8333 273.5,15.1667 273.5,16.5C 272.596,15.791 272.263,14.791 272.5,13.5C 187.167,13.5 101.833,13.5 16.5,13.5 Z"/></g>
<g><path style="opacity:1" fill="#feae6f" d="M 287.5,12.5 C 452.5,12.5 617.5,12.5 782.5,12.5C 783.499,121.332 783.833,230.332 783.5,339.5C 618.167,339.5 452.833,339.5 287.5,339.5C 287.5,230.5 287.5,121.5 287.5,12.5 Z"/></g>
<g><path style="opacity:1" fill="#feae6f" d="M 1292.5,12.5 C 1293.5,121.332 1293.83,230.332 1293.5,339.5C 1128.17,339.5 962.833,339.5 797.5,339.5C 797.5,230.5 797.5,121.5 797.5,12.5C 962.5,12.5 1127.5,12.5 1292.5,12.5 Z"/></g>
<g><path style="opacity:1" fill="#feae6f" d="M 1307.5,12.5 C 1472.5,12.5 1637.5,12.5 1802.5,12.5C 1802.83,121.57 1802.5,230.57 1801.5,339.5C 1636.5,339.5 1471.5,339.5 1306.5,339.5C 1306.17,230.332 1306.5,121.332 1307.5,12.5 Z"/></g>
<g><path style="opacity:1" fill="#feae6f" d="M 2327.5,12.5 C 2492.17,12.5 2656.83,12.5 2821.5,12.5C 2821.83,121.668 2821.5,230.668 2820.5,339.5C 2656.17,339.667 2491.83,339.5 2327.5,339C 2326.5,230.57 2326.17,122.07 2326.5,13.5C 2326.5,12.8333 2326.83,12.5 2327.5,12.5 Z"/></g>
<g><path style="opacity:1" fill="#feae6f" d="M 2835.5,12.5 C 3000.83,12.5 3166.17,12.5 3331.5,12.5C 3331.5,121.5 3331.5,230.5 3331.5,339.5C 3166.17,339.5 3000.83,339.5 2835.5,339.5C 2835.5,230.5 2835.5,121.5 2835.5,12.5 Z"/></g>
<g><path style="opacity:1" fill="#feaf70" d="M 16.5,13.5 C 101.833,13.5 187.167,13.5 272.5,13.5C 272.263,14.791 272.596,15.791 273.5,16.5C 273.5,124.167 273.5,231.833 273.5,339.5C 187.833,339.5 102.167,339.5 16.5,339.5C 16.5,230.833 16.5,122.167 16.5,13.5 Z"/></g>
<g><path style="opacity:1" fill="#feae6f" d="M 1817.5,12.5 C 1982.17,12.5 2146.83,12.5 2311.5,12.5C 2311.83,121.404 2311.5,230.237 2310.5,339C 2145.83,339.5 1981.17,339.667 1816.5,339.5C 1816.17,230.332 1816.5,121.332 1817.5,12.5 Z"/></g>
<g><path style="opacity:1" fill="#563212" d="M 1802.5,12.5 C 1803.17,66.8323 1803.5,121.332 1803.5,176C 1803.5,230.837 1802.83,285.337 1801.5,339.5C 1802.5,230.57 1802.83,121.57 1802.5,12.5 Z"/></g>
<g><path style="opacity:1" fill="#815839" d="M 2311.5,12.5 C 2312.83,121.569 2312.83,230.736 2311.5,340C 2146.33,340.833 1981.33,340.666 1816.5,339.5C 1981.17,339.667 2145.83,339.5 2310.5,339C 2311.5,230.237 2311.83,121.404 2311.5,12.5 Z"/></g>
<g><path style="opacity:1" fill="#724c2e" d="M 2326.5,13.5 C 2326.17,122.07 2326.5,230.57 2327.5,339C 2491.83,339.5 2656.17,339.667 2820.5,339.5C 2656,340.5 2491.33,340.833 2326.5,340.5C 2325.17,231.402 2325.17,122.402 2326.5,13.5 Z"/></g>
<g><path style="opacity:1" fill="#22120a" d="M 2821.5,12.5 C 2822.31,14.631 2822.81,16.9644 2823,19.5C 2823.17,125.873 2823.67,232.207 2824.5,338.5C 2824.02,339.478 2823.36,340.311 2822.5,341C 2815.59,341.186 2808.75,341.686 2802,342.5C 2643.67,341.167 2485.33,341.167 2327,342.5C 2326.54,341.906 2326.37,341.239 2326.5,340.5C 2491.33,340.833 2656,340.5 2820.5,339.5C 2821.5,230.668 2821.83,121.668 2821.5,12.5 Z"/></g>
<g><path style="opacity:1" fill="#fdf2bc" d="M 3331.5,373.5 C 3331.94,377.179 3331.27,380.512 3329.5,383.5C 3328.53,385.948 3328.19,388.615 3328.5,391.5C 3329.5,391.5 3330.5,391.5 3331.5,391.5C 3331.81,393.924 3331.47,396.257 3330.5,398.5C 3327.49,400.357 3326.83,402.857 3328.5,406C 3329.45,406.483 3330.45,406.649 3331.5,406.5C 3331.72,410.94 3330.72,414.94 3328.5,418.5C 3330.61,421.736 3331.61,425.403 3331.5,429.5C 3328.51,429.155 3327.18,430.488 3327.5,433.5C 3327.18,436.512 3328.51,437.845 3331.5,437.5C 3331.5,439.5 3331.5,441.5 3331.5,443.5C 3326.67,443.385 3325.34,445.552 3327.5,450C 3332.02,450.382 3333.69,452.882 3332.5,457.5C 3326.69,457.062 3325.02,459.562 3327.5,465C 3328.79,465.49 3330.13,465.657 3331.5,465.5C 3331.5,468.833 3331.5,472.167 3331.5,475.5C 2312.5,475.5 1293.5,475.5 274.5,475.5C 274.832,564.071 274.498,652.571 273.5,741C 188.167,741.667 102.833,741.667 17.5,741C 16.5122,729.581 16.1789,718.081 16.5,706.5C 46.8333,706.5 77.1667,706.5 107.5,706.5C 107.5,629.5 107.5,552.5 107.5,475.5C 77.4981,475.667 47.4981,475.5 17.5,475C 16.5495,471.943 16.2161,468.777 16.5,465.5C 22.3133,465.938 23.98,463.438 21.5,458C 19.8659,457.506 18.1992,457.34 16.5,457.5C 16.5,455.167 16.5,452.833 16.5,450.5C 22.1581,451.321 23.8248,449.154 21.5,444C 19.8659,443.506 18.1992,443.34 16.5,443.5C 16.5,441.5 16.5,439.5 16.5,437.5C 19.9304,438.245 21.597,436.911 21.5,433.5C 21.597,430.089 19.9304,428.755 16.5,429.5C 16.5,427.167 16.5,424.833 16.5,422.5C 19.488,422.845 20.8213,421.512 20.5,418.5C 20.8213,415.488 19.488,414.155 16.5,414.5C 16.5,411.833 16.5,409.167 16.5,406.5C 19.5904,407.17 21.257,406.003 21.5,403C 21.2515,399.918 19.5849,398.418 16.5,398.5C 16.5,396.167 16.5,393.833 16.5,391.5C 17.8333,391.5 19.1667,391.5 20.5,391.5C 20.5,388.833 20.5,386.167 20.5,383.5C 19.1667,383.5 17.8333,383.5 16.5,383.5C 16.5,380.167 16.5,376.833 16.5,373.5C 18.1439,373.714 19.6439,373.38 21,372.5C 21.498,369.518 21.6646,366.518 21.5,363.5C 19.8333,363.5 18.1667,363.5 16.5,363.5C 16.5,359.833 16.5,356.167 16.5,352.5C 1121.5,352.333 2226.5,352.5 3331.5,353C 3332.46,356.394 3332.79,359.894 3332.5,363.5C 3330.83,363.5 3329.17,363.5 3327.5,363.5C 3327.34,366.518 3327.5,369.518 3328,372.5C 3329.01,373.337 3330.18,373.67 3331.5,373.5 Z"/></g>
<g><path style="opacity:1" fill="#75715c" d="M 3331.5,373.5 C 3332.48,376.625 3332.81,379.958 3332.5,383.5C 3331.5,383.5 3330.5,383.5 3329.5,383.5C 3331.27,380.512 3331.94,377.179 3331.5,373.5 Z"/></g>
<g><path style="opacity:1" fill="#180100" d="M 2991.5,488.5 C 2769.67,488.167 2548,488.5 2326.5,489.5C 2326.17,489.5 2325.83,489.5 2325.5,489.5C 2436.16,488.167 2547.16,487.5 2658.5,487.5C 2769.67,487.5 2880.67,487.833 2991.5,488.5 Z"/></g>
<g><path style="opacity:1" fill="#835d46" d="M 93.5,490.5 C 86.5765,489.851 79.5765,489.517 72.5,489.5C 65.4649,489.503 58.7983,490.17 52.5,491.5C 51.8333,491.5 51.5,491.167 51.5,490.5C 58.1333,489.17 65.1333,488.503 72.5,488.5C 79.8667,488.503 86.8667,489.17 93.5,490.5 Z"/></g>
<g><path style="opacity:1" fill="#fdae6f" d="M 48.5,490.5 C 60.871,512.523 73.2043,534.523 85.5,556.5C 85.1667,556.833 84.8333,557.167 84.5,557.5C 61.658,545.569 39.3247,532.902 17.5,519.5C 17.5,509.5 17.5,499.5 17.5,489.5C 27.9154,489.192 38.2487,489.525 48.5,490.5 Z"/></g>
<g><path style="opacity:1" fill="#feae6f" d="M 93.5,490.5 C 93.8331,513.843 93.4997,537.176 92.5,560.5C 91.8165,560.137 91.1499,559.804 90.5,559.5C 89.5539,555.608 88.0539,551.941 86,548.5C 74.8295,529.491 63.6628,510.491 52.5,491.5C 58.7983,490.17 65.4649,489.503 72.5,489.5C 79.5765,489.517 86.5765,489.851 93.5,490.5 Z"/></g>
<g><path style="opacity:1" fill="#fefefe" d="M 287.5,489.5 C 509.167,489.5 730.833,489.5 952.5,489.5C 952.5,598.167 952.5,706.833 952.5,815.5C 730.833,815.5 509.167,815.5 287.5,815.5C 287.5,706.833 287.5,598.167 287.5,489.5 Z"/></g>
<g><path style="opacity:1" fill="#feae70" d="M 967.5,488.5 C 1189.17,488.333 1410.83,488.5 1632.5,489C 1633.67,597.764 1633.83,706.597 1633,815.5C 1411.24,816.666 1189.4,816.833 967.5,816C 966.168,706.833 966.168,597.667 967.5,488.5 Z"/></g>
<g><path style="opacity:1" fill="#feae70" d="M 1646.5,815.5 C 1646.17,706.763 1646.5,598.096 1647.5,489.5C 1868.67,488.334 2090,488.167 2311.5,489C 2312.17,543.43 2312.5,597.93 2312.5,652.5C 2312.5,707.07 2312.17,761.57 2311.5,816C 2089.76,816.832 1868.1,816.666 1646.5,815.5 Z"/></g>
<g><path style="opacity:1" fill="#feae6f" d="M 2326.5,489.5 C 2548.17,489.5 2769.83,489.5 2991.5,489.5C 2991.17,593.668 2991.5,697.668 2992.5,801.5C 2992.8,806.43 2992.47,811.263 2991.5,816C 2769.67,816.833 2548,816.666 2326.5,815.5C 2326.34,812.472 2327.01,809.639 2328.5,807C 2327.81,701.186 2327.15,595.353 2326.5,489.5 Z"/></g>
<g><path style="opacity:1" fill="#feaf6f" d="M 3008.5,489.5 C 3008.83,489.5 3009.17,489.5 3009.5,489.5C 3054.37,490.172 3099.37,490.838 3144.5,491.5C 3149.53,491.806 3154.86,491.473 3160.5,490.5C 3160.23,492.099 3160.57,493.432 3161.5,494.5C 3160.4,549.192 3160.4,603.192 3161.5,656.5C 3160.72,693.35 3160.72,730.683 3161.5,768.5C 3160.86,774.032 3160.19,779.532 3159.5,785C 3159.83,785.333 3160.17,785.667 3160.5,786C 3159.58,786.278 3158.92,786.778 3158.5,787.5C 3157.83,787.5 3157.17,787.5 3156.5,787.5C 3154.51,786.657 3152.35,785.99 3150,785.5C 3105.25,786.469 3060.92,786.803 3017,786.5C 3013.96,786.391 3011.13,785.724 3008.5,784.5C 3007.83,693.334 3007.17,602.334 3006.5,511.5C 3006.04,504.003 3006.7,496.669 3008.5,489.5 Z"/></g>
<g><path style="opacity:1" fill="#b6a690" d="M 3009.5,489.5 C 3060.17,489.5 3110.83,489.5 3161.5,489.5C 3161.5,491.167 3161.5,492.833 3161.5,494.5C 3160.57,493.432 3160.23,492.099 3160.5,490.5C 3154.86,491.473 3149.53,491.806 3144.5,491.5C 3099.37,490.838 3054.37,490.172 3009.5,489.5 Z"/></g>
<g><path style="opacity:1" fill="#fdad6f" d="M 3252.5,489.5 C 3252.5,496.833 3252.5,504.167 3252.5,511.5C 3226.83,511.5 3201.17,511.5 3175.5,511.5C 3174.51,504.352 3174.18,497.019 3174.5,489.5C 3200.5,489.5 3226.5,489.5 3252.5,489.5 Z"/></g>
<g><path style="opacity:1" fill="#feae70" d="M 3255.5,490.5 C 3279.84,490.333 3304.17,490.5 3328.5,491C 3329.67,491.5 3330.5,492.333 3331,493.5C 3331.5,499.157 3331.67,504.824 3331.5,510.5C 3306.17,510.5 3280.83,510.5 3255.5,510.5C 3255.5,503.833 3255.5,497.167 3255.5,490.5 Z"/></g>
<g><path style="opacity:1" fill="#89614c" d="M 3255.5,490.5 C 3279.99,489.502 3304.66,489.169 3329.5,489.5C 3330.5,489.5 3331.5,489.5 3332.5,489.5C 3333.13,497.243 3332.46,504.576 3330.5,511.5C 3305.33,511.831 3280.33,511.498 3255.5,510.5C 3280.83,510.5 3306.17,510.5 3331.5,510.5C 3331.67,504.824 3331.5,499.157 3331,493.5C 3330.5,492.333 3329.67,491.5 3328.5,491C 3304.17,490.5 3279.84,490.333 3255.5,490.5 Z"/></g>
<g><path style="opacity:1" fill="#55331f" d="M 3175.5,514.5 C 3175.5,514.167 3175.5,513.833 3175.5,513.5C 3201.19,512.843 3226.52,513.509 3251.5,515.5C 3226.24,514.51 3200.91,514.177 3175.5,514.5 Z"/></g>
<g><path style="opacity:1" fill="#feaf70" d="M 3175.5,514.5 C 3200.91,514.177 3226.24,514.51 3251.5,515.5C 3251.5,523.833 3251.5,532.167 3251.5,540.5C 3226.17,540.5 3200.83,540.5 3175.5,540.5C 3175.5,531.833 3175.5,523.167 3175.5,514.5 Z"/></g>
<g><path style="opacity:1" fill="#feae70" d="M 3255.5,514.5 C 3280.83,514.5 3306.17,514.5 3331.5,514.5C 3331.5,523.167 3331.5,531.833 3331.5,540.5C 3306.17,540.5 3280.83,540.5 3255.5,540.5C 3255.5,531.833 3255.5,523.167 3255.5,514.5 Z"/></g>
<g><path style="opacity:1" fill="#feae6f" d="M 17.5,523.5 C 39.7303,536.446 62.0636,549.112 84.5,561.5C 85.9002,562.1 86.9002,563.1 87.5,564.5C 64.3393,565.498 41.006,565.831 17.5,565.5C 17.5,551.5 17.5,537.5 17.5,523.5 Z"/></g>
<g><path style="opacity:1" fill="#714d3b" d="M 3255.5,514.5 C 3280.66,513.502 3305.99,513.169 3331.5,513.5C 3332.83,522.833 3332.83,532.167 3331.5,541.5C 3305.99,541.831 3280.66,541.498 3255.5,540.5C 3280.83,540.5 3306.17,540.5 3331.5,540.5C 3331.5,531.833 3331.5,523.167 3331.5,514.5C 3306.17,514.5 3280.83,514.5 3255.5,514.5 Z"/></g>
<g><path style="opacity:1" fill="#9d7156" d="M 3255.5,544.5 C 3280.99,543.502 3306.66,543.169 3332.5,543.5C 3332.5,552.5 3332.5,561.5 3332.5,570.5C 3310.5,570.5 3288.5,570.5 3266.5,570.5C 3287.99,569.503 3309.66,569.169 3331.5,569.5C 3331.5,561.167 3331.5,552.833 3331.5,544.5C 3306.17,544.5 3280.83,544.5 3255.5,544.5 Z"/></g>
<g><path style="opacity:1" fill="#feae70" d="M 3255.5,544.5 C 3280.83,544.5 3306.17,544.5 3331.5,544.5C 3331.5,552.833 3331.5,561.167 3331.5,569.5C 3309.66,569.169 3287.99,569.503 3266.5,570.5C 3262.83,570.5 3259.17,570.5 3255.5,570.5C 3255.5,561.833 3255.5,553.167 3255.5,544.5 Z"/></g>
<g><path style="opacity:1" fill="#351913" d="M 48.5,490.5 C 49.5,490.5 50.5,490.5 51.5,490.5C 51.5,491.167 51.8333,491.5 52.5,491.5C 63.6628,510.491 74.8295,529.491 86,548.5C 88.0539,551.941 89.5539,555.608 90.5,559.5C 88.4443,560.562 86.4443,560.229 84.5,558.5C 83.4376,559.425 83.4376,560.425 84.5,561.5C 62.0636,549.112 39.7303,536.446 17.5,523.5C 17.5,522.167 17.5,520.833 17.5,519.5C 39.3247,532.902 61.658,545.569 84.5,557.5C 84.8333,557.167 85.1667,556.833 85.5,556.5C 73.2043,534.523 60.871,512.523 48.5,490.5 Z"/></g>
<g><path style="opacity:1" fill="#a67c62" d="M 3175.5,544.5 C 3175.5,544.167 3175.5,543.833 3175.5,543.5C 3200.83,543.5 3226.17,543.5 3251.5,543.5C 3251.83,552.682 3251.49,561.682 3250.5,570.5C 3250.5,561.833 3250.5,553.167 3250.5,544.5C 3225.5,544.5 3200.5,544.5 3175.5,544.5 Z"/></g>
<g><path style="opacity:1" fill="#5d3d2e" d="M 87.5,564.5 C 89.3786,564.393 89.7119,564.893 88.5,566C 64.6631,566.83 40.9964,566.663 17.5,565.5C 41.006,565.831 64.3393,565.498 87.5,564.5 Z"/></g>
<g><path style="opacity:1" fill="#f9ab6f" d="M 17.5,568.5 C 42.8333,568.5 68.1667,568.5 93.5,568.5C 93.5,578.167 93.5,587.833 93.5,597.5C 68.1667,597.5 42.8333,597.5 17.5,597.5C 17.5,587.833 17.5,578.167 17.5,568.5 Z"/></g>
<g><path style="opacity:1" fill="#a39481" d="M 3005.5,489.5 C 3006.5,489.5 3007.5,489.5 3008.5,489.5C 3006.7,496.669 3006.04,504.003 3006.5,511.5C 3006.5,603.5 3006.5,695.5 3006.5,787.5C 3005.5,688.335 3005.17,589.001 3005.5,489.5 Z"/></g>
<g><path style="opacity:1" fill="#948576" d="M 3005.5,489.5 C 3057.66,488.501 3110,488.168 3162.5,488.5C 3162.5,546.833 3162.5,605.167 3162.5,663.5C 3161.53,661.393 3161.2,659.059 3161.5,656.5C 3160.4,603.192 3160.4,549.192 3161.5,494.5C 3161.5,492.833 3161.5,491.167 3161.5,489.5C 3110.83,489.5 3060.17,489.5 3009.5,489.5C 3009.17,489.5 3008.83,489.5 3008.5,489.5C 3007.5,489.5 3006.5,489.5 3005.5,489.5 Z"/></g>
<g><path style="opacity:1" fill="#939292" d="M 287.5,489.5 C 509.333,488.5 731.333,488.167 953.5,488.5C 953.833,597.668 953.499,706.668 952.5,815.5C 952.5,706.833 952.5,598.167 952.5,489.5C 730.833,489.5 509.167,489.5 287.5,489.5 Z"/></g>
<g><path style="opacity:1" fill="#fbac6f" d="M 17.5,600.5 C 42.8333,600.5 68.1667,600.5 93.5,600.5C 93.5,609.167 93.5,617.833 93.5,626.5C 68.1667,626.5 42.8333,626.5 17.5,626.5C 17.5,617.833 17.5,609.167 17.5,600.5 Z"/></g>
<g><path style="opacity:1" fill="#feae70" d="M 3255.5,603.5 C 3280.83,603.5 3306.17,603.5 3331.5,603.5C 3331.5,611.833 3331.5,620.167 3331.5,628.5C 3306.17,628.5 3280.83,628.5 3255.5,628.5C 3255.5,620.167 3255.5,611.833 3255.5,603.5 Z"/></g>
<g><path style="opacity:1" fill="#976c54" d="M 3175.5,603.5 C 3200.66,602.502 3225.99,602.169 3251.5,602.5C 3251.5,611.5 3251.5,620.5 3251.5,629.5C 3226.17,629.5 3200.83,629.5 3175.5,629.5C 3175.5,629.167 3175.5,628.833 3175.5,628.5C 3200.5,628.5 3225.5,628.5 3250.5,628.5C 3250.5,620.167 3250.5,611.833 3250.5,603.5C 3225.5,603.5 3200.5,603.5 3175.5,603.5 Z"/></g>
<g><path style="opacity:1" fill="#80543f" d="M 3255.5,603.5 C 3280.99,602.502 3306.66,602.169 3332.5,602.5C 3332.83,611.682 3332.49,620.682 3331.5,629.5C 3305.99,629.831 3280.66,629.498 3255.5,628.5C 3280.83,628.5 3306.17,628.5 3331.5,628.5C 3331.5,620.167 3331.5,611.833 3331.5,603.5C 3306.17,603.5 3280.83,603.5 3255.5,603.5 Z"/></g>
<g><path style="opacity:1" fill="#f6a96c" d="M 17.5,629.5 C 42.8333,629.5 68.1667,629.5 93.5,629.5C 93.5,638.5 93.5,647.5 93.5,656.5C 68.1667,656.5 42.8333,656.5 17.5,656.5C 17.5,647.5 17.5,638.5 17.5,629.5 Z"/></g>
<g><path style="opacity:1" fill="#fdae70" d="M 3175.5,632.5 C 3195.17,632.5 3214.83,632.5 3234.5,632.5C 3239.64,633.488 3244.97,633.821 3250.5,633.5C 3250.5,641.833 3250.5,650.167 3250.5,658.5C 3225.5,658.5 3200.5,658.5 3175.5,658.5C 3175.5,649.833 3175.5,641.167 3175.5,632.5 Z"/></g>
<g><path style="opacity:1" fill="#c59e82" d="M 3234.5,632.5 C 3240.17,632.5 3245.83,632.5 3251.5,632.5C 3251.83,641.349 3251.49,650.016 3250.5,658.5C 3250.5,650.167 3250.5,641.833 3250.5,633.5C 3244.97,633.821 3239.64,633.488 3234.5,632.5 Z"/></g>
<g><path style="opacity:1" fill="#634130" d="M 3331.5,631.5 C 3332.17,631.5 3332.5,631.833 3332.5,632.5C 3332.5,641.5 3332.5,650.5 3332.5,659.5C 3306.66,659.831 3280.99,659.498 3255.5,658.5C 3254.17,649.765 3254.17,640.932 3255.5,632C 3280.83,631.5 3306.16,631.333 3331.5,631.5 Z"/></g>
<g><path style="opacity:1" fill="#feae6f" d="M 17.5,659.5 C 42.8333,659.5 68.1667,659.5 93.5,659.5C 93.5,670.5 93.5,681.5 93.5,692.5C 68.1667,692.5 42.8333,692.5 17.5,692.5C 17.5,681.5 17.5,670.5 17.5,659.5 Z"/></g>
<g><path style="opacity:1" fill="#fdae70" d="M 3175.5,662.5 C 3200.83,662.5 3226.17,662.5 3251.5,662.5C 3251.5,671.167 3251.5,679.833 3251.5,688.5C 3246.83,688.5 3242.17,688.5 3237.5,688.5C 3217.43,687.828 3197.26,687.161 3177,686.5C 3176.62,687.056 3176.12,687.389 3175.5,687.5C 3175.5,679.167 3175.5,670.833 3175.5,662.5 Z"/></g>
<g><path style="opacity:1" fill="#704f32" d="M 2326.5,489.5 C 2548,488.5 2769.67,488.167 2991.5,488.5C 2992.5,592.665 2992.83,696.999 2992.5,801.5C 2991.5,697.668 2991.17,593.668 2991.5,489.5C 2769.83,489.5 2548.17,489.5 2326.5,489.5 Z"/></g>
<g><path style="opacity:0.749" fill="#d59f66" d="M 2325.5,489.5 C 2325.83,489.5 2326.17,489.5 2326.5,489.5C 2327.15,595.353 2327.81,701.186 2328.5,807C 2327.01,809.639 2326.34,812.472 2326.5,815.5C 2325.5,707.001 2325.17,598.335 2325.5,489.5 Z"/></g>
<g><path style="opacity:1" fill="#cb9e82" d="M 3237.5,688.5 C 3216.83,688.5 3196.17,688.5 3175.5,688.5C 3175.5,688.167 3175.5,687.833 3175.5,687.5C 3176.12,687.389 3176.62,687.056 3177,686.5C 3197.26,687.161 3217.43,687.828 3237.5,688.5 Z"/></g>
<g><path style="opacity:1" fill="#2c160f" d="M 3329.5,489.5 C 3304.66,489.169 3279.99,489.502 3255.5,490.5C 3255.5,497.167 3255.5,503.833 3255.5,510.5C 3280.33,511.498 3305.33,511.831 3330.5,511.5C 3330.83,512.167 3331.17,512.833 3331.5,513.5C 3305.99,513.169 3280.66,513.502 3255.5,514.5C 3255.5,523.167 3255.5,531.833 3255.5,540.5C 3280.66,541.498 3305.99,541.831 3331.5,541.5C 3331.83,542.167 3332.17,542.833 3332.5,543.5C 3306.66,543.169 3280.99,543.502 3255.5,544.5C 3255.5,553.167 3255.5,561.833 3255.5,570.5C 3259.17,570.5 3262.83,570.5 3266.5,570.5C 3288.5,570.5 3310.5,570.5 3332.5,570.5C 3332.08,571.222 3331.42,571.722 3330.5,572C 3331.77,572.309 3332.93,572.809 3334,573.5C 3335.05,583.324 3334.55,592.991 3332.5,602.5C 3306.66,602.169 3280.99,602.502 3255.5,603.5C 3255.5,611.833 3255.5,620.167 3255.5,628.5C 3280.66,629.498 3305.99,629.831 3331.5,629.5C 3331.5,630.167 3331.5,630.833 3331.5,631.5C 3306.16,631.333 3280.83,631.5 3255.5,632C 3254.17,640.932 3254.17,649.765 3255.5,658.5C 3280.99,659.498 3306.66,659.831 3332.5,659.5C 3332.5,650.5 3332.5,641.5 3332.5,632.5C 3333.82,636.276 3334.49,640.443 3334.5,645C 3334.24,659.126 3334.07,673.293 3334,687.5C 3333.62,688.056 3333.12,688.389 3332.5,688.5C 3332.5,689.5 3332.5,690.5 3332.5,691.5C 3331.17,691.5 3329.83,691.5 3328.5,691.5C 3304.17,691.5 3279.83,691.5 3255.5,691.5C 3255.5,700.167 3255.5,708.833 3255.5,717.5C 3274.5,717.5 3293.5,717.5 3312.5,717.5C 3318.83,717.5 3325.17,717.5 3331.5,717.5C 3331.5,718.5 3331.5,719.5 3331.5,720.5C 3305.99,720.169 3280.66,720.502 3255.5,721.5C 3255.5,729.833 3255.5,738.167 3255.5,746.5C 3280.33,747.498 3305.33,747.831 3330.5,747.5C 3330.56,748.609 3330.89,749.609 3331.5,750.5C 3279.5,750.5 3227.5,750.5 3175.5,750.5C 3175.5,749.5 3175.5,748.5 3175.5,747.5C 3200.83,747.5 3226.17,747.5 3251.5,747.5C 3251.5,745.5 3251.5,743.5 3251.5,741.5C 3251.5,740.833 3251.5,740.167 3251.5,739.5C 3251.5,733.167 3251.5,726.833 3251.5,720.5C 3226.83,720.5 3202.17,720.5 3177.5,720.5C 3176.89,719.609 3176.56,718.609 3176.5,717.5C 3201.5,717.5 3226.5,717.5 3251.5,717.5C 3251.5,708.833 3251.5,700.167 3251.5,691.5C 3226.17,691.5 3200.83,691.5 3175.5,691.5C 3175.5,690.5 3175.5,689.5 3175.5,688.5C 3196.17,688.5 3216.83,688.5 3237.5,688.5C 3242.17,688.5 3246.83,688.5 3251.5,688.5C 3251.5,679.833 3251.5,671.167 3251.5,662.5C 3226.17,662.5 3200.83,662.5 3175.5,662.5C 3178.42,661.806 3181.42,660.973 3184.5,660C 3181.31,659.819 3178.31,659.319 3175.5,658.5C 3200.5,658.5 3225.5,658.5 3250.5,658.5C 3251.49,650.016 3251.83,641.349 3251.5,632.5C 3245.83,632.5 3240.17,632.5 3234.5,632.5C 3214.83,632.5 3195.17,632.5 3175.5,632.5C 3175.5,631.5 3175.5,630.5 3175.5,629.5C 3200.83,629.5 3226.17,629.5 3251.5,629.5C 3251.5,620.5 3251.5,611.5 3251.5,602.5C 3225.99,602.169 3200.66,602.502 3175.5,603.5C 3175.5,611.833 3175.5,620.167 3175.5,628.5C 3174.17,600.5 3174.17,572.5 3175.5,544.5C 3175.5,553.167 3175.5,561.833 3175.5,570.5C 3200.5,570.5 3225.5,570.5 3250.5,570.5C 3251.49,561.682 3251.83,552.682 3251.5,543.5C 3226.17,543.5 3200.83,543.5 3175.5,543.5C 3175.5,542.5 3175.5,541.5 3175.5,540.5C 3200.83,540.5 3226.17,540.5 3251.5,540.5C 3251.5,532.167 3251.5,523.833 3251.5,515.5C 3226.52,513.509 3201.19,512.843 3175.5,513.5C 3175.5,512.833 3175.5,512.167 3175.5,511.5C 3201.17,511.5 3226.83,511.5 3252.5,511.5C 3252.5,504.167 3252.5,496.833 3252.5,489.5C 3278.26,488.173 3303.93,488.173 3329.5,489.5 Z"/></g>
<g><path style="opacity:1" fill="#fdae70" d="M 3255.5,662.5 C 3280.83,662.5 3306.17,662.5 3331.5,662.5C 3331.8,671.251 3331.47,679.918 3330.5,688.5C 3305.5,688.5 3280.5,688.5 3255.5,688.5C 3255.5,679.833 3255.5,671.167 3255.5,662.5 Z"/></g>
<g><path style="opacity:1" fill="#7e5640" d="M 3255.5,662.5 C 3280.99,661.502 3306.66,661.169 3332.5,661.5C 3332.5,670.5 3332.5,679.5 3332.5,688.5C 3331.83,688.5 3331.17,688.5 3330.5,688.5C 3331.47,679.918 3331.8,671.251 3331.5,662.5C 3306.17,662.5 3280.83,662.5 3255.5,662.5 Z"/></g>
<g><path style="opacity:1" fill="#feae70" d="M 3255.5,658.5 C 3255.5,650.167 3255.5,641.833 3255.5,633.5C 3280.81,632.537 3306.14,632.204 3331.5,632.5C 3331.5,641.167 3331.5,649.833 3331.5,658.5C 3306.17,658.5 3280.83,658.5 3255.5,658.5 Z"/></g>
<g><path style="opacity:1" fill="#feaf70" d="M 3175.5,603.5 C 3200.5,603.5 3225.5,603.5 3250.5,603.5C 3250.5,611.833 3250.5,620.167 3250.5,628.5C 3225.5,628.5 3200.5,628.5 3175.5,628.5C 3175.5,620.167 3175.5,611.833 3175.5,603.5 Z"/></g>
<g><path style="opacity:1" fill="#c09173" d="M 3331.5,573.5 C 3332.49,581.984 3332.83,590.651 3332.5,599.5C 3306.66,599.831 3280.99,599.498 3255.5,598.5C 3280.83,598.5 3306.17,598.5 3331.5,598.5C 3331.39,589.987 3331.39,581.653 3331.5,573.5 Z"/></g>
<g><path style="opacity:1" fill="#c08f6d" d="M 3175.5,594.5 C 3176.43,595.568 3176.77,596.901 3176.5,598.5C 3201.57,598.823 3226.57,598.49 3251.5,597.5C 3226.52,599.491 3201.19,600.157 3175.5,599.5C 3175.5,597.833 3175.5,596.167 3175.5,594.5 Z"/></g>
<g><path style="opacity:1" fill="#c89d82" d="M 3247.5,573.5 C 3248.83,573.5 3250.17,573.5 3251.5,573.5C 3251.5,580.167 3251.5,586.833 3251.5,593.5C 3250.51,587.355 3250.18,581.022 3250.5,574.5C 3249.21,574.737 3248.21,574.404 3247.5,573.5 Z"/></g>
<g><path style="opacity:1" fill="#feae70" d="M 3331.5,573.5 C 3331.39,581.653 3331.39,589.987 3331.5,598.5C 3306.17,598.5 3280.83,598.5 3255.5,598.5C 3255.5,590.167 3255.5,581.833 3255.5,573.5C 3280.83,573.5 3306.17,573.5 3331.5,573.5 Z"/></g>
<g><path style="opacity:1" fill="#fdae70" d="M 3247.5,573.5 C 3248.21,574.404 3249.21,574.737 3250.5,574.5C 3250.18,581.022 3250.51,587.355 3251.5,593.5C 3251.5,594.833 3251.5,596.167 3251.5,597.5C 3226.57,598.49 3201.57,598.823 3176.5,598.5C 3176.77,596.901 3176.43,595.568 3175.5,594.5C 3175.5,587.833 3175.5,581.167 3175.5,574.5C 3199.43,573.51 3223.43,573.177 3247.5,573.5 Z"/></g>
<g><path style="opacity:1" fill="#582c14" d="M 3251.5,573.5 C 3250.17,573.5 3248.83,573.5 3247.5,573.5C 3223.43,573.177 3199.43,573.51 3175.5,574.5C 3187.82,573.168 3200.48,572.501 3213.5,572.5C 3226.34,572.5 3239,572.833 3251.5,573.5 Z"/></g>
<g><path style="opacity:1" fill="#fcad70" d="M 3175.5,544.5 C 3200.5,544.5 3225.5,544.5 3250.5,544.5C 3250.5,553.167 3250.5,561.833 3250.5,570.5C 3225.5,570.5 3200.5,570.5 3175.5,570.5C 3175.5,561.833 3175.5,553.167 3175.5,544.5 Z"/></g>
<g><path style="opacity:1" fill="#fdae70" d="M 3328.5,691.5 C 3329.21,692.404 3330.21,692.737 3331.5,692.5C 3331.5,700.5 3331.5,708.5 3331.5,716.5C 3324.98,716.177 3318.64,716.51 3312.5,717.5C 3293.5,717.5 3274.5,717.5 3255.5,717.5C 3255.5,708.833 3255.5,700.167 3255.5,691.5C 3279.83,691.5 3304.17,691.5 3328.5,691.5 Z"/></g>
<g><path style="opacity:1" fill="#feae70" d="M 3175.5,692.5 C 3200.5,692.5 3225.5,692.5 3250.5,692.5C 3250.82,700.42 3250.48,708.253 3249.5,716C 3224.84,716.5 3200.17,716.667 3175.5,716.5C 3175.5,708.5 3175.5,700.5 3175.5,692.5 Z"/></g>
<g><path style="opacity:1" fill="#c09071" d="M 3175.5,692.5 C 3175.5,692.167 3175.5,691.833 3175.5,691.5C 3200.83,691.5 3226.17,691.5 3251.5,691.5C 3251.5,700.167 3251.5,708.833 3251.5,717.5C 3226.5,717.5 3201.5,717.5 3176.5,717.5C 3175.83,717.5 3175.5,717.167 3175.5,716.5C 3200.17,716.667 3224.84,716.5 3249.5,716C 3250.48,708.253 3250.82,700.42 3250.5,692.5C 3225.5,692.5 3200.5,692.5 3175.5,692.5 Z"/></g>
<g><path style="opacity:1" fill="#ba8c71" d="M 3328.5,691.5 C 3329.83,691.5 3331.17,691.5 3332.5,691.5C 3332.83,700.349 3332.49,709.016 3331.5,717.5C 3325.17,717.5 3318.83,717.5 3312.5,717.5C 3318.64,716.51 3324.98,716.177 3331.5,716.5C 3331.5,708.5 3331.5,700.5 3331.5,692.5C 3330.21,692.737 3329.21,692.404 3328.5,691.5 Z"/></g>
<g><path style="opacity:1" fill="#a2704c" d="M 3175.5,721.5 C 3175.84,720.662 3176.51,720.328 3177.5,720.5C 3202.17,720.5 3226.83,720.5 3251.5,720.5C 3251.5,726.833 3251.5,733.167 3251.5,739.5C 3250.51,733.69 3250.18,727.69 3250.5,721.5C 3225.5,721.5 3200.5,721.5 3175.5,721.5 Z"/></g>
<g><path style="opacity:1" fill="#ad7c5a" d="M 3255.5,721.5 C 3280.66,720.502 3305.99,720.169 3331.5,720.5C 3332.17,724.82 3332.5,729.32 3332.5,734C 3332.49,738.886 3331.83,743.386 3330.5,747.5C 3305.33,747.831 3280.33,747.498 3255.5,746.5C 3280.83,746.5 3306.17,746.5 3331.5,746.5C 3331.8,738.444 3331.47,730.444 3330.5,722.5C 3305.51,721.5 3280.51,721.167 3255.5,721.5 Z"/></g>
<g><path style="opacity:1" fill="#feae70" d="M 3175.5,721.5 C 3200.5,721.5 3225.5,721.5 3250.5,721.5C 3250.18,727.69 3250.51,733.69 3251.5,739.5C 3251.5,740.167 3251.5,740.833 3251.5,741.5C 3250.55,742.919 3250.22,744.585 3250.5,746.5C 3225.5,746.5 3200.5,746.5 3175.5,746.5C 3175.5,738.167 3175.5,729.833 3175.5,721.5 Z"/></g>
<g><path style="opacity:1" fill="#feaf6f" d="M 3255.5,721.5 C 3280.51,721.167 3305.51,721.5 3330.5,722.5C 3331.47,730.444 3331.8,738.444 3331.5,746.5C 3306.17,746.5 3280.83,746.5 3255.5,746.5C 3255.5,738.167 3255.5,729.833 3255.5,721.5 Z"/></g>
<g><path style="opacity:1" fill="#1f1f21" d="M 1647.5,489.5 C 1646.5,598.096 1646.17,706.763 1646.5,815.5C 1645.83,761.334 1645.5,707.001 1645.5,652.5C 1645.5,597.829 1646.17,543.496 1647.5,489.5 Z"/></g>
<g><path style="opacity:1" fill="#bf9272" d="M 3251.5,741.5 C 3251.5,743.5 3251.5,745.5 3251.5,747.5C 3226.17,747.5 3200.83,747.5 3175.5,747.5C 3175.5,747.167 3175.5,746.833 3175.5,746.5C 3200.5,746.5 3225.5,746.5 3250.5,746.5C 3250.22,744.585 3250.55,742.919 3251.5,741.5 Z"/></g>
<g><path style="opacity:1" fill="#fcae6f" d="M 3175.5,750.5 C 3227.5,750.5 3279.5,750.5 3331.5,750.5C 3331.5,763.167 3331.5,775.833 3331.5,788.5C 3279.5,788.5 3227.5,788.5 3175.5,788.5C 3175.5,775.833 3175.5,763.167 3175.5,750.5 Z"/></g>
<g><path style="opacity:1" fill="#fefefe" d="M 16.5,754.5 C 102.167,754.5 187.833,754.5 273.5,754.5C 273.5,774.833 273.5,795.167 273.5,815.5C 187.833,815.5 102.167,815.5 16.5,815.5C 16.5,795.167 16.5,774.833 16.5,754.5 Z"/></g>
<g><path style="opacity:1" fill="#b2a28f" d="M 3161.5,656.5 C 3161.2,659.059 3161.53,661.393 3162.5,663.5C 3162.5,704.833 3162.5,746.167 3162.5,787.5C 3161.17,787.5 3159.83,787.5 3158.5,787.5C 3158.92,786.778 3159.58,786.278 3160.5,786C 3160.17,785.667 3159.83,785.333 3159.5,785C 3160.19,779.532 3160.86,774.032 3161.5,768.5C 3160.72,730.683 3160.72,693.35 3161.5,656.5 Z"/></g>
<g><path style="opacity:1" fill="#cfbfa9" d="M 3006.5,511.5 C 3007.17,602.334 3007.83,693.334 3008.5,784.5C 3011.13,785.724 3013.96,786.391 3017,786.5C 3060.92,786.803 3105.25,786.469 3150,785.5C 3152.35,785.99 3154.51,786.657 3156.5,787.5C 3106.5,787.5 3056.5,787.5 3006.5,787.5C 3006.5,695.5 3006.5,603.5 3006.5,511.5 Z"/></g>
<g><path style="opacity:0.749" fill="#f8c588" d="M 2327.5,813.5 C 2403.47,814.324 2479.47,814.824 2555.5,815C 2517.5,815.167 2479.5,815.333 2441.5,815.5C 2403.16,815.5 2365.16,814.833 2327.5,813.5 Z"/></g>
</svg>
