<?xml version="1.0" encoding="UTF-8"?>
<!DOCTYPE svg PUBLIC "-//W3C//DTD SVG 1.1//EN" "http://www.w3.org/Graphics/SVG/1.1/DTD/svg11.dtd">
<svg xmlns="http://www.w3.org/2000/svg" version="1.1" width="3350px" height="830px"
    style="shape-rendering:geometricPrecision; text-rendering:geometricPrecision; image-rendering:optimizeQuality; fill-rule:evenodd; clip-rule:evenodd"
    xmlns:xlink="http://www.w3.org/1999/xlink">
    <g>
        <path style="opacity:1" fill="#090605"
            d="M 3.5,-0.5 C 1116.83,-0.5 2230.17,-0.5 3343.5,-0.5C 3341.49,2.869 3340.49,6.53567 3340.5,10.5C 3339.07,38.0979 3338.07,65.7645 3337.5,93.5C 3337.57,172.846 3338.24,253.679 3339.5,336C 3339.04,336.414 3338.71,336.914 3338.5,337.5C 3341.08,339.438 3341.08,341.271 3338.5,343C 3339.81,349.595 3340.48,356.428 3340.5,363.5C 3340.33,370.167 3340.17,376.833 3340,383.5C 3339.67,381.5 3339.33,379.5 3339,377.5C 3338.83,379.833 3338.67,382.167 3338.5,384.5C 3339.68,395.868 3339.68,407.202 3338.5,418.5C 3339.28,423.113 3339.78,427.78 3340,432.5C 3340.17,461.739 3340.67,490.905 3341.5,520C 3340.8,568.135 3340.14,615.801 3339.5,663C 3340.21,695.77 3340.88,728.603 3341.5,761.5C 3340.67,768.226 3340.33,774.893 3340.5,781.5C 3340.29,784.454 3340.96,787.121 3342.5,789.5C 3341.83,789.833 3341.17,790.167 3340.5,790.5C 3342.46,793.568 3342.96,796.901 3342,800.5C 3340.89,799.288 3340.39,799.621 3340.5,801.5C 3338.83,801.5 3337.17,801.5 3335.5,801.5C 3224.25,802.631 3114.08,802.631 3005,801.5C 3004.31,802.025 3003.81,802.692 3003.5,803.5C 3003.3,811.89 3003.64,820.556 3004.5,829.5C 2004.17,829.5 1003.83,829.5 3.5,829.5C 3.5,552.833 3.5,276.167 3.5,-0.5 Z" />
    </g>
    <g>
        <path style="opacity:1" fill="#221209"
            d="M 1969.5,339.5 C 1969.5,230.5 1969.5,121.5 1969.5,12.5C 1860.83,12.5 1752.17,12.5 1643.5,12.5C 1647.42,10.9432 1651.59,9.9432 1656,9.5C 1759.67,10.8333 1863.33,10.8333 1967,9.5C 1968.89,10.13 1970.56,11.13 1972,12.5C 1972.5,121.499 1972.67,230.499 1972.5,339.5C 1971.5,339.5 1970.5,339.5 1969.5,339.5 Z" />
    </g>
    <g>
        <path style="opacity:1" fill="#eb9e59"
            d="M 1304.5,12.5 C 1356.17,12.5 1407.83,12.5 1459.5,12.5C 1459.5,121.5 1459.5,230.5 1459.5,339.5C 1407.5,339.5 1355.5,339.5 1303.5,339.5C 1303.17,230.43 1303.5,121.43 1304.5,12.5 Z" />
    </g>
    <g>
        <path style="opacity:1" fill="#28170d"
            d="M 2309.5,12.5 C 2310.17,66.999 2310.5,121.666 2310.5,176.5C 2310.66,231.915 2310.16,287.248 2309,342.5C 2200.57,341.668 2092.07,341.168 1983.5,341C 1981.93,339.316 1980.93,337.316 1980.5,335C 1981.49,228.506 1981.66,121.34 1981,13.5C 1982.17,12.1068 1983.67,11.2735 1985.5,11C 2093.21,10.8312 2200.87,10.3312 2308.5,9.5C 2309.39,10.325 2309.72,11.325 2309.5,12.5 Z" />
    </g>
    <g>
        <path style="opacity:1" fill="#b4835c"
            d="M 2324.5,12.5 C 2433,12.1672 2541.33,12.5005 2649.5,13.5C 2649.17,13.5 2648.83,13.5 2648.5,13.5C 2540.5,13.5 2432.5,13.5 2324.5,13.5C 2324.5,121.833 2324.5,230.167 2324.5,338.5C 2348.01,338.169 2371.34,338.502 2394.5,339.5C 2371.17,339.5 2347.83,339.5 2324.5,339.5C 2323.17,230.5 2323.17,121.5 2324.5,12.5 Z" />
    </g>
    <g>
        <path style="opacity:1" fill="#fefefe"
            d="M 16.5,13.5 C 100.833,13.5 185.167,13.5 269.5,13.5C 269.5,121.833 269.5,230.167 269.5,338.5C 185.167,338.5 100.833,338.5 16.5,338.5C 16.5,230.167 16.5,121.833 16.5,13.5 Z" />
    </g>
    <g>
        <path style="opacity:1" fill="#eb9e59"
            d="M 610.5,338.5 C 502.166,338.667 393.833,338.5 285.5,338C 286.167,337.667 286.833,337.333 287.5,337C 285.302,335.33 284.968,333.33 286.5,331C 285.834,225.736 285.168,120.569 284.5,15.5C 284.5,14.5 284.5,13.5 284.5,12.5C 393.167,12.5 501.833,12.5 610.5,12.5C 610.5,121.167 610.5,229.833 610.5,338.5 Z" />
    </g>
    <g>
        <path style="opacity:1" fill="#eb9e59"
            d="M 950.5,12.5 C 950.5,12.8333 950.5,13.1667 950.5,13.5C 949.521,121.824 949.188,230.157 949.5,338.5C 871.522,339.488 793.522,339.822 715.5,339.5C 685.671,338.502 655.671,338.169 625.5,338.5C 625.833,242.665 625.499,146.999 624.5,51.5C 624.5,38.5 624.5,25.5 624.5,12.5C 733.167,12.5 841.833,12.5 950.5,12.5 Z" />
    </g>
    <g>
        <path style="opacity:1" fill="#eb9e59"
            d="M 964.5,13.5 C 1072.83,13.5 1181.17,13.5 1289.5,13.5C 1289.5,122.167 1289.5,230.833 1289.5,339.5C 1181.17,338.676 1072.84,338.343 964.5,338.5C 964.5,230.167 964.5,121.833 964.5,13.5 Z" />
    </g>
    <g>
        <path style="opacity:1" fill="#eb9e59"
            d="M 1473.5,12.5 C 1525.5,12.5 1577.5,12.5 1629.5,12.5C 1629.5,121.5 1629.5,230.5 1629.5,339.5C 1577.5,339.5 1525.5,339.5 1473.5,339.5C 1473.5,230.5 1473.5,121.5 1473.5,12.5 Z" />
    </g>
    <g>
        <path style="opacity:1" fill="#eb9e59"
            d="M 1643.5,12.5 C 1752.17,12.5 1860.83,12.5 1969.5,12.5C 1969.5,121.5 1969.5,230.5 1969.5,339.5C 1860.49,340.165 1751.83,339.498 1643.5,337.5C 1644.24,337.631 1644.91,337.464 1645.5,337C 1644.83,251.069 1644.17,165.236 1643.5,79.5C 1643.5,57.1667 1643.5,34.8333 1643.5,12.5 Z" />
    </g>
    <g>
        <path style="opacity:1" fill="#eb9e59"
            d="M 2309.5,12.5 C 2309.5,121.5 2309.5,230.5 2309.5,339.5C 2200.83,339.5 2092.17,339.5 1983.5,339.5C 1983.5,230.5 1983.5,121.5 1983.5,12.5C 2092.17,12.5 2200.83,12.5 2309.5,12.5 Z" />
    </g>
    <g>
        <path style="opacity:1" fill="#eb9f59"
            d="M 2648.5,13.5 C 2648.5,121.833 2648.5,230.167 2648.5,338.5C 2571.66,338.167 2495,338.501 2418.5,339.5C 2410.5,339.5 2402.5,339.5 2394.5,339.5C 2371.34,338.502 2348.01,338.169 2324.5,338.5C 2324.5,230.167 2324.5,121.833 2324.5,13.5C 2432.5,13.5 2540.5,13.5 2648.5,13.5 Z" />
    </g>
    <g>
        <path style="opacity:1" fill="#eb9e59"
            d="M 2989.5,335.5 C 2988.6,336.209 2988.26,337.209 2988.5,338.5C 2910.66,338.167 2833,338.501 2755.5,339.5C 2755.17,339.5 2754.83,339.5 2754.5,339.5C 2724.67,338.502 2694.67,338.169 2664.5,338.5C 2664.83,255.998 2664.5,173.665 2663.5,91.5C 2663.5,65.1667 2663.5,38.8333 2663.5,12.5C 2772.17,12.5 2880.83,12.5 2989.5,12.5C 2989.5,120.167 2989.5,227.833 2989.5,335.5 Z" />
    </g>
    <g>
        <path style="opacity:1" fill="#eb9e59"
            d="M 3003.5,13.5 C 3103.83,13.5 3204.17,13.5 3304.5,13.5C 3310.74,14.6342 3317.08,15.1342 3323.5,15C 3325.6,16.9341 3326.6,19.4341 3326.5,22.5C 3327.15,92.3265 3327.81,161.993 3328.5,231.5C 3328.67,259.835 3328.5,288.169 3328,316.5C 3326.92,323.25 3326.42,329.916 3326.5,336.5C 3322.11,336.457 3321.77,336.957 3325.5,338C 3218.67,338.167 3112,338.667 3005.5,339.5C 3005.17,339.5 3004.83,339.5 3004.5,339.5C 3003.5,231.001 3003.17,122.335 3003.5,13.5 Z" />
    </g>
    <g>
        <path style="opacity:1" fill="#01050b"
            d="M 3340.5,10.5 C 3341.24,186.667 3341.91,363.001 3342.5,539.5C 3342.18,573.5 3341.85,607.5 3341.5,641.5C 3343.17,692.355 3343.83,743.355 3343.5,794.5C 3343.5,796.833 3343.5,799.167 3343.5,801.5C 3342.5,801.5 3341.5,801.5 3340.5,801.5C 3340.39,799.621 3340.89,799.288 3342,800.5C 3342.96,796.901 3342.46,793.568 3340.5,790.5C 3341.17,790.167 3341.83,789.833 3342.5,789.5C 3340.96,787.121 3340.29,784.454 3340.5,781.5C 3340.33,774.893 3340.67,768.226 3341.5,761.5C 3340.88,728.603 3340.21,695.77 3339.5,663C 3340.14,615.801 3340.8,568.135 3341.5,520C 3340.67,490.905 3340.17,461.739 3340,432.5C 3339.78,427.78 3339.28,423.113 3338.5,418.5C 3339.68,407.202 3339.68,395.868 3338.5,384.5C 3338.67,382.167 3338.83,379.833 3339,377.5C 3339.33,379.5 3339.67,381.5 3340,383.5C 3340.17,376.833 3340.33,370.167 3340.5,363.5C 3340.48,356.428 3339.81,349.595 3338.5,343C 3341.08,341.271 3341.08,339.438 3338.5,337.5C 3338.71,336.914 3339.04,336.414 3339.5,336C 3338.24,253.679 3337.57,172.846 3337.5,93.5C 3338.07,65.7645 3339.07,38.0979 3340.5,10.5 Z" />
    </g>
    <g>
        <path style="opacity:1" fill="#231107"
            d="M 2324.5,339.5 C 2347.83,339.5 2371.17,339.5 2394.5,339.5C 2402.5,339.5 2410.5,339.5 2418.5,339.5C 2495.5,339.5 2572.5,339.5 2649.5,339.5C 2649.5,230.833 2649.5,122.167 2649.5,13.5C 2541.33,12.5005 2433,12.1672 2324.5,12.5C 2331.34,10.8224 2338.51,9.82243 2346,9.5C 2447.27,10.4796 2548.43,10.6462 2649.5,10C 2650.13,10.7504 2650.63,11.5838 2651,12.5C 2651.98,45.4921 2652.48,78.4921 2652.5,111.5C 2651.92,187.499 2651.42,263.499 2651,339.5C 2650.5,340 2650,340.5 2649.5,341C 2542.57,341.663 2435.74,342.163 2329,342.5C 2327.12,341.947 2325.62,340.947 2324.5,339.5 Z" />
    </g>
    <g>
        <path style="opacity:1" fill="#d69862"
            d="M 3304.5,13.5 C 3312.5,13.5 3320.5,13.5 3328.5,13.5C 3328.5,86.1667 3328.5,158.833 3328.5,231.5C 3327.81,161.993 3327.15,92.3265 3326.5,22.5C 3326.6,19.4341 3325.6,16.9341 3323.5,15C 3317.08,15.1342 3310.74,14.6342 3304.5,13.5 Z" />
    </g>
    <g>
        <path style="opacity:1" fill="#966d4f"
            d="M 964.5,13.5 C 1073,12.5005 1181.67,12.1672 1290.5,12.5C 1290.83,121.668 1290.5,230.668 1289.5,339.5C 1289.5,230.833 1289.5,122.167 1289.5,13.5C 1181.17,13.5 1072.83,13.5 964.5,13.5 Z" />
    </g>
    <g>
        <path style="opacity:1" fill="#cd9b6f"
            d="M 2648.5,13.5 C 2648.83,13.5 2649.17,13.5 2649.5,13.5C 2649.5,122.167 2649.5,230.833 2649.5,339.5C 2572.5,339.5 2495.5,339.5 2418.5,339.5C 2495,338.501 2571.66,338.167 2648.5,338.5C 2648.5,230.167 2648.5,121.833 2648.5,13.5 Z" />
    </g>
    <g>
        <path style="opacity:1" fill="#271409"
            d="M 950.5,12.5 C 841.833,12.5 733.167,12.5 624.5,12.5C 624.5,25.5 624.5,38.5 624.5,51.5C 624.5,147.5 624.5,243.5 624.5,339.5C 623.167,285.171 622.5,230.504 622.5,175.5C 622.833,120.833 623.167,66.1667 623.5,11.5C 627.167,10.8333 630.833,10.1667 634.5,9.5C 739.774,10.5892 844.941,10.5892 950,9.5C 950.483,10.448 950.649,11.448 950.5,12.5 Z" />
    </g>
    <g>
        <path style="opacity:1" fill="#cda070"
            d="M 2663.5,91.5 C 2664.5,173.665 2664.83,255.998 2664.5,338.5C 2694.67,338.169 2724.67,338.502 2754.5,339.5C 2724.17,339.5 2693.83,339.5 2663.5,339.5C 2663.5,256.833 2663.5,174.167 2663.5,91.5 Z" />
    </g>
    <g>
        <path style="opacity:1" fill="#ce9b66"
            d="M 624.5,51.5 C 625.499,146.999 625.833,242.665 625.5,338.5C 655.671,338.169 685.671,338.502 715.5,339.5C 685.167,339.5 654.833,339.5 624.5,339.5C 624.5,243.5 624.5,147.5 624.5,51.5 Z" />
    </g>
    <g>
        <path style="opacity:1" fill="#d0a376"
            d="M 1643.5,79.5 C 1644.17,165.236 1644.83,251.069 1645.5,337C 1644.91,337.464 1644.24,337.631 1643.5,337.5C 1643.5,251.5 1643.5,165.5 1643.5,79.5 Z" />
    </g>
    <g>
        <path style="opacity:1" fill="#91633f"
            d="M 950.5,13.5 C 951.666,121.666 951.833,229.999 951,338.5C 950.5,339 950,339.5 949.5,340C 840.999,340.833 732.666,340.666 624.5,339.5C 654.833,339.5 685.167,339.5 715.5,339.5C 793.522,339.822 871.522,339.488 949.5,338.5C 949.188,230.157 949.521,121.824 950.5,13.5 Z" />
    </g>
    <g>
        <path style="opacity:1" fill="#bb8b5f"
            d="M 284.5,15.5 C 285.168,120.569 285.834,225.736 286.5,331C 284.968,333.33 285.302,335.33 287.5,337C 286.833,337.333 286.167,337.667 285.5,338C 393.833,338.5 502.166,338.667 610.5,338.5C 502.001,339.499 393.335,339.833 284.5,339.5C 284.5,231.5 284.5,123.5 284.5,15.5 Z" />
    </g>
    <g>
        <path style="opacity:1" fill="#e1e1e1"
            d="M 16.5,13.5 C 100.998,12.5007 185.665,12.1673 270.5,12.5C 270.5,121.5 270.5,230.5 270.5,339.5C 185.665,339.833 100.998,339.499 16.5,338.5C 100.833,338.5 185.167,338.5 269.5,338.5C 269.5,230.167 269.5,121.833 269.5,13.5C 185.167,13.5 100.833,13.5 16.5,13.5 Z" />
    </g>
    <g>
        <path style="opacity:1" fill="#926742"
            d="M 964.5,13.5 C 964.5,121.833 964.5,230.167 964.5,338.5C 1072.84,338.343 1181.17,338.676 1289.5,339.5C 1181.29,340.832 1072.96,340.832 964.5,339.5C 963.168,230.667 963.168,122.001 964.5,13.5 Z" />
    </g>
    <g>
        <path style="opacity:1" fill="#cd986a"
            d="M 2989.5,335.5 C 2989.5,336.833 2989.5,338.167 2989.5,339.5C 2911.5,339.5 2833.5,339.5 2755.5,339.5C 2833,338.501 2910.66,338.167 2988.5,338.5C 2988.26,337.209 2988.6,336.209 2989.5,335.5 Z" />
    </g>
    <g>
        <path style="opacity:1" fill="#c28e63"
            d="M 3003.5,13.5 C 3112,12.5005 3220.67,12.1672 3329.5,12.5C 3329.5,121.5 3329.5,230.5 3329.5,339.5C 3221.5,339.5 3113.5,339.5 3005.5,339.5C 3112,338.667 3218.67,338.167 3325.5,338C 3321.77,336.957 3322.11,336.457 3326.5,336.5C 3326.42,329.916 3326.92,323.25 3328,316.5C 3328.5,288.169 3328.67,259.835 3328.5,231.5C 3328.5,158.833 3328.5,86.1667 3328.5,13.5C 3320.5,13.5 3312.5,13.5 3304.5,13.5C 3204.17,13.5 3103.83,13.5 3003.5,13.5 Z" />
    </g>
    <g>
        <path style="opacity:1" fill="#63422b"
            d="M 3329.5,12.5 C 3330.5,121.665 3330.83,230.999 3330.5,340.5C 3221.67,340.833 3113,340.499 3004.5,339.5C 3004.83,339.5 3005.17,339.5 3005.5,339.5C 3113.5,339.5 3221.5,339.5 3329.5,339.5C 3329.5,230.5 3329.5,121.5 3329.5,12.5 Z" />
    </g>
    <g>
        <path style="opacity:1" fill="#fdf0bc"
            d="M 16.5,352.5 C 1120.83,352.333 2225.17,352.5 3329.5,353C 3330.5,393.761 3330.83,434.594 3330.5,475.5C 2225.83,475.5 1121.17,475.5 16.5,475.5C 16.5,434.5 16.5,393.5 16.5,352.5 Z" />
    </g>
    <g>
        <path style="opacity:1" fill="#180100"
            d="M 2988.5,488.5 C 2767,488.167 2545.67,488.5 2324.5,489.5C 2324.17,489.5 2323.83,489.5 2323.5,489.5C 2434,488.167 2544.83,487.5 2656,487.5C 2767,487.5 2877.83,487.833 2988.5,488.5 Z" />
    </g>
    <g>
        <path style="opacity:1" fill="#7c5540"
            d="M 91.5,489.5 C 78.5,489.5 65.5,489.5 52.5,489.5C 52.5,490.5 52.5,491.5 52.5,492.5C 51.5987,491.71 50.9321,490.71 50.5,489.5C 64.1667,488.167 77.8333,488.167 91.5,489.5 Z" />
    </g>
    <g>
        <path style="opacity:1" fill="#6a4530"
            d="M 151.5,489.5 C 143.248,489.184 135.081,489.518 127,490.5C 126.5,515.164 126.333,539.831 126.5,564.5C 125.337,539.67 125.17,514.67 126,489.5C 134.598,488.172 143.098,488.172 151.5,489.5 Z" />
    </g>
    <g>
        <path style="opacity:0.749" fill="#a17547"
            d="M 2324.5,489.5 C 2545.67,488.5 2767,488.167 2988.5,488.5C 2990.5,595.495 2991.16,702.828 2990.5,810.5C 2990.17,810.5 2989.83,810.5 2989.5,810.5C 2989.5,703.5 2989.5,596.5 2989.5,489.5C 2769.17,489.5 2548.83,489.5 2328.5,489.5C 2327.17,489.5 2325.83,489.5 2324.5,489.5 Z" />
    </g>
    <g>
        <path style="opacity:1" fill="#e19654"
            d="M 3250.5,488.5 C 3250.81,496.087 3250.48,503.587 3249.5,511C 3224.17,511.5 3198.84,511.667 3173.5,511.5C 3172.87,507.581 3172.53,503.581 3172.5,499.5C 3172.54,495.405 3173.21,491.571 3174.5,488C 3199.91,487.177 3225.24,487.344 3250.5,488.5 Z" />
    </g>
    <g>
        <path style="opacity:1" fill="#e89d59"
            d="M 47.5,489.5 C 58.7237,509.608 70.2237,529.608 82,549.5C 83.5914,551.927 84.4248,554.593 84.5,557.5C 81.9837,557.245 79.6504,556.411 77.5,555C 57.8527,542.845 37.8527,531.345 17.5,520.5C 17.5,510.167 17.5,499.833 17.5,489.5C 27.5,489.5 37.5,489.5 47.5,489.5 Z" />
    </g>
    <g>
        <path style="opacity:1" fill="#ea9d59"
            d="M 91.5,489.5 C 91.8333,489.5 92.1667,489.5 92.5,489.5C 92.6666,513.169 92.5,536.836 92,560.5C 91.6174,559.944 91.1174,559.611 90.5,559.5C 78.6186,536.739 65.9519,514.406 52.5,492.5C 52.5,491.5 52.5,490.5 52.5,489.5C 65.5,489.5 78.5,489.5 91.5,489.5 Z" />
    </g>
    <g>
        <path style="opacity:1" fill="#e39957"
            d="M 98.5,488.5 C 106.752,488.184 114.919,488.518 123,489.5C 123.5,514.831 123.667,540.164 123.5,565.5C 114.833,565.5 106.167,565.5 97.5,565.5C 97.1764,539.759 97.5098,514.092 98.5,488.5 Z" />
    </g>
    <g>
        <path style="opacity:1" fill="#ea9f5b"
            d="M 151.5,489.5 C 152.498,514.661 152.831,539.995 152.5,565.5C 143.651,565.826 134.984,565.493 126.5,564.5C 126.333,539.831 126.5,515.164 127,490.5C 135.081,489.518 143.248,489.184 151.5,489.5 Z" />
    </g>
    <g>
        <path style="opacity:1" fill="#ea9e5a"
            d="M 155.5,489.5 C 164.085,489.183 172.585,489.517 181,490.5C 181.5,515.164 181.667,539.831 181.5,564.5C 173.016,565.493 164.349,565.826 155.5,565.5C 155.5,540.167 155.5,514.833 155.5,489.5 Z" />
    </g>
    <g>
        <path style="opacity:1" fill="#eb9e59"
            d="M 185.5,489.5 C 193.833,489.5 202.167,489.5 210.5,489.5C 210.169,513.339 210.502,537.006 211.5,560.5C 211.5,562.167 211.5,563.833 211.5,565.5C 202.833,565.5 194.167,565.5 185.5,565.5C 185.5,540.167 185.5,514.833 185.5,489.5 Z" />
    </g>
    <g>
        <path style="opacity:1" fill="#ea9e5a"
            d="M 244.5,489.5 C 252.5,489.5 260.5,489.5 268.5,489.5C 268.5,514.833 268.5,540.167 268.5,565.5C 260.167,565.5 251.833,565.5 243.5,565.5C 243.169,539.995 243.502,514.661 244.5,489.5 Z" />
    </g>
    <g>
        <path style="opacity:1" fill="#fefefe"
            d="M 284.5,489.5 C 285.469,490.309 286.302,491.309 287,492.5C 620.793,490.834 954.626,489.834 1288.5,489.5C 1289.5,597.999 1289.83,706.665 1289.5,815.5C 954.167,815.5 618.833,815.5 283.5,815.5C 283.167,706.665 283.501,597.999 284.5,489.5 Z" />
    </g>
    <g>
        <path style="opacity:1" fill="#f6f6f6"
            d="M 284.5,489.5 C 619.167,489.5 953.833,489.5 1288.5,489.5C 954.626,489.834 620.793,490.834 287,492.5C 286.302,491.309 285.469,490.309 284.5,489.5 Z" />
    </g>
    <g>
        <path style="opacity:1" fill="#fefefe"
            d="M 1303.5,489.5 C 1412.17,489.5 1520.83,489.5 1629.5,489.5C 1629.5,598.167 1629.5,706.833 1629.5,815.5C 1520.83,815.5 1412.17,815.5 1303.5,815.5C 1303.5,706.833 1303.5,598.167 1303.5,489.5 Z" />
    </g>
    <g>
        <path style="opacity:1" fill="#fecc6d"
            d="M 1643.5,488.5 C 1865.5,488.5 2087.5,488.5 2309.5,488.5C 2309.5,597.833 2309.5,707.167 2309.5,816.5C 2087.83,816.667 1866.17,816.5 1644.5,816C 1643.5,706.904 1643.17,597.737 1643.5,488.5 Z" />
    </g>
    <g>
        <path style="opacity:1" fill="#fecc6e"
            d="M 2328.5,489.5 C 2548.83,489.5 2769.17,489.5 2989.5,489.5C 2989.5,596.5 2989.5,703.5 2989.5,810.5C 2988.57,811.568 2988.23,812.901 2988.5,814.5C 2900.67,814.167 2813,814.501 2725.5,815.5C 2675.17,815.5 2624.83,815.5 2574.5,815.5C 2574.22,814.711 2573.72,814.044 2573,813.5C 2491.75,814.484 2410.25,814.817 2328.5,814.5C 2327.31,813.466 2326.48,812.133 2326,810.5C 2325.5,704.167 2325.33,597.834 2325.5,491.5C 2327.18,491.715 2328.18,491.048 2328.5,489.5 Z" />
    </g>
    <g>
        <path style="opacity:1" fill="#eb9f59"
            d="M 3253.5,489.5 C 3277.84,489.333 3302.17,489.5 3326.5,490C 3327.67,490.5 3328.5,491.333 3329,492.5C 3329.5,498.157 3329.67,503.824 3329.5,509.5C 3304.17,509.5 3278.83,509.5 3253.5,509.5C 3253.5,502.833 3253.5,496.167 3253.5,489.5 Z" />
    </g>
    <g>
        <path style="opacity:1" fill="#25130c"
            d="M 267.5,488.5 C 259.648,488.175 251.982,488.508 244.5,489.5C 243.502,514.661 243.169,539.995 243.5,565.5C 251.833,565.5 260.167,565.5 268.5,565.5C 268.833,565.5 269.167,565.5 269.5,565.5C 260.432,566.828 251.265,566.828 242,565.5C 241.075,566.047 240.242,566.713 239.5,567.5C 235.5,567.833 231.5,568.167 227.5,568.5C 213.485,567.133 199.485,566.133 185.5,565.5C 194.167,565.5 202.833,565.5 211.5,565.5C 211.5,563.833 211.5,562.167 211.5,560.5C 211.5,536.5 211.5,512.5 211.5,488.5C 230.434,487.757 249.1,487.757 267.5,488.5 Z" />
    </g>
    <g>
        <path style="opacity:1" fill="#eb9f58"
            d="M 215.5,489.5 C 223.5,489.5 231.5,489.5 239.5,489.5C 239.5,514.833 239.5,540.167 239.5,565.5C 231.5,565.5 223.5,565.5 215.5,565.5C 215.5,540.167 215.5,514.833 215.5,489.5 Z" />
    </g>
    <g>
        <path style="opacity:1" fill="#c4ad91"
            d="M 3003.5,489.5 C 3055.17,489.5 3106.83,489.5 3158.5,489.5C 3158.5,588.833 3158.5,688.167 3158.5,787.5C 3106.83,787.5 3055.17,787.5 3003.5,787.5C 3003.5,688.167 3003.5,588.833 3003.5,489.5 Z" />
    </g>
    <g>
        <path style="opacity:1" fill="#c7ae8c"
            d="M 3147.5,498.5 C 3147.5,499.5 3147.5,500.5 3147.5,501.5C 3104.83,501.5 3062.17,501.5 3019.5,501.5C 3019.5,592.167 3019.5,682.833 3019.5,773.5C 3062.17,773.5 3104.83,773.5 3147.5,773.5C 3147.17,682.998 3147.5,592.665 3148.5,502.5C 3148.67,594.834 3148.5,687.167 3148,779.5C 3147.17,780.333 3146.33,781.167 3145.5,782C 3102.83,782.667 3060.17,782.667 3017.5,782C 3016.54,780.581 3015.71,779.081 3015,777.5C 3014.82,712.982 3014.32,648.482 3013.5,584C 3013.97,555.1 3014.47,526.267 3015,497.5C 3015.9,496.299 3017.07,495.465 3018.5,495C 3060.5,494.333 3102.5,494.333 3144.5,495C 3146.06,495.72 3147.06,496.887 3147.5,498.5 Z" />
    </g>
    <g>
        <path style="opacity:1" fill="#c5ae8d"
            d="M 3147.5,498.5 C 3148.43,499.568 3148.77,500.901 3148.5,502.5C 3147.5,592.665 3147.17,682.998 3147.5,773.5C 3104.83,773.5 3062.17,773.5 3019.5,773.5C 3019.5,682.833 3019.5,592.167 3019.5,501.5C 3062.17,501.5 3104.83,501.5 3147.5,501.5C 3147.5,500.5 3147.5,499.5 3147.5,498.5 Z" />
    </g>
    <g>
        <path style="opacity:1" fill="#684734"
            d="M 155.5,489.5 C 164.235,488.172 173.068,488.172 182,489.5C 182.83,514.67 182.663,539.67 181.5,564.5C 181.667,539.831 181.5,515.164 181,490.5C 172.585,489.517 164.085,489.183 155.5,489.5 Z" />
    </g>
    <g>
        <path style="opacity:1" fill="#89614c"
            d="M 3253.5,489.5 C 3277.99,488.502 3302.66,488.169 3327.5,488.5C 3328.5,488.5 3329.5,488.5 3330.5,488.5C 3331.13,496.243 3330.46,503.576 3328.5,510.5C 3303.33,510.831 3278.33,510.498 3253.5,509.5C 3278.83,509.5 3304.17,509.5 3329.5,509.5C 3329.67,503.824 3329.5,498.157 3329,492.5C 3328.5,491.333 3327.67,490.5 3326.5,490C 3302.17,489.5 3277.84,489.333 3253.5,489.5 Z" />
    </g>
    <g>
        <path style="opacity:1" fill="#bd9174"
            d="M 185.5,489.5 C 193.984,488.507 202.651,488.174 211.5,488.5C 211.5,512.5 211.5,536.5 211.5,560.5C 210.502,537.006 210.169,513.339 210.5,489.5C 202.167,489.5 193.833,489.5 185.5,489.5 Z" />
    </g>
    <g>
        <path style="opacity:1" fill="#55331f"
            d="M 3173.5,513.5 C 3173.5,513.167 3173.5,512.833 3173.5,512.5C 3199.19,511.843 3224.52,512.509 3249.5,514.5C 3224.24,513.51 3198.91,513.177 3173.5,513.5 Z" />
    </g>
    <g>
        <path style="opacity:1" fill="#ec9f59"
            d="M 3173.5,513.5 C 3198.91,513.177 3224.24,513.51 3249.5,514.5C 3249.5,522.833 3249.5,531.167 3249.5,539.5C 3224.17,539.5 3198.83,539.5 3173.5,539.5C 3173.5,530.833 3173.5,522.167 3173.5,513.5 Z" />
    </g>
    <g>
        <path style="opacity:1" fill="#eb9f59"
            d="M 3253.5,513.5 C 3278.83,513.5 3304.17,513.5 3329.5,513.5C 3329.5,522.167 3329.5,530.833 3329.5,539.5C 3304.17,539.5 3278.83,539.5 3253.5,539.5C 3253.5,530.833 3253.5,522.167 3253.5,513.5 Z" />
    </g>
    <g>
        <path style="opacity:1" fill="#b38869"
            d="M 215.5,489.5 C 223.65,488.507 231.983,488.174 240.5,488.5C 240.831,514.339 240.498,540.005 239.5,565.5C 239.5,540.167 239.5,514.833 239.5,489.5C 231.5,489.5 223.5,489.5 215.5,489.5 Z" />
    </g>
    <g>
        <path style="opacity:1" fill="#ea9e59"
            d="M 18.5,524.5 C 40.0126,537.09 61.6793,549.423 83.5,561.5C 85.0764,562.143 86.4097,563.143 87.5,564.5C 64.6727,565.498 41.6727,565.831 18.5,565.5C 17.1784,551.735 17.1784,538.069 18.5,524.5 Z" />
    </g>
    <g>
        <path style="opacity:1" fill="#b38960"
            d="M 244.5,489.5 C 251.982,488.508 259.648,488.175 267.5,488.5C 269.491,513.812 270.157,539.478 269.5,565.5C 269.167,565.5 268.833,565.5 268.5,565.5C 268.5,540.167 268.5,514.833 268.5,489.5C 260.5,489.5 252.5,489.5 244.5,489.5 Z" />
    </g>
    <g>
        <path style="opacity:1" fill="#c69878"
            d="M 16.5,523.5 C 17.4916,523.328 18.1583,523.662 18.5,524.5C 17.1784,538.069 17.1784,551.735 18.5,565.5C 17.8333,565.5 17.1667,565.5 16.5,565.5C 16.5,551.5 16.5,537.5 16.5,523.5 Z" />
    </g>
    <g>
        <path style="opacity:1" fill="#714d3b"
            d="M 3253.5,513.5 C 3278.66,512.502 3303.99,512.169 3329.5,512.5C 3330.83,521.833 3330.83,531.167 3329.5,540.5C 3303.99,540.831 3278.66,540.498 3253.5,539.5C 3278.83,539.5 3304.17,539.5 3329.5,539.5C 3329.5,530.833 3329.5,522.167 3329.5,513.5C 3304.17,513.5 3278.83,513.5 3253.5,513.5 Z" />
    </g>
    <g>
        <path style="opacity:1" fill="#98705b"
            d="M 92.5,489.5 C 93.4976,513.328 93.8309,537.328 93.5,561.5C 91.8212,561.715 90.8212,561.048 90.5,559.5C 91.1174,559.611 91.6174,559.944 92,560.5C 92.5,536.836 92.6666,513.169 92.5,489.5 Z" />
    </g>
    <g>
        <path style="opacity:1" fill="#9d7156"
            d="M 3253.5,543.5 C 3278.99,542.502 3304.66,542.169 3330.5,542.5C 3330.5,551.5 3330.5,560.5 3330.5,569.5C 3308.5,569.5 3286.5,569.5 3264.5,569.5C 3285.99,568.503 3307.66,568.169 3329.5,568.5C 3329.5,560.167 3329.5,551.833 3329.5,543.5C 3304.17,543.5 3278.83,543.5 3253.5,543.5 Z" />
    </g>
    <g>
        <path style="opacity:1" fill="#eb9f59"
            d="M 3253.5,543.5 C 3278.83,543.5 3304.17,543.5 3329.5,543.5C 3329.5,551.833 3329.5,560.167 3329.5,568.5C 3307.66,568.169 3285.99,568.503 3264.5,569.5C 3260.83,569.5 3257.17,569.5 3253.5,569.5C 3253.5,560.833 3253.5,552.167 3253.5,543.5 Z" />
    </g>
    <g>
        <path style="opacity:1" fill="#311610"
            d="M 47.5,489.5 C 48.5,489.5 49.5,489.5 50.5,489.5C 50.9321,490.71 51.5987,491.71 52.5,492.5C 65.9519,514.406 78.6186,536.739 90.5,559.5C 88.3592,559.251 86.1926,558.917 84,558.5C 83.5172,559.448 83.3505,560.448 83.5,561.5C 61.6793,549.423 40.0126,537.09 18.5,524.5C 18.1583,523.662 17.4916,523.328 16.5,523.5C 17.1098,522.609 17.4431,521.609 17.5,520.5C 37.8527,531.345 57.8527,542.845 77.5,555C 79.6504,556.411 81.9837,557.245 84.5,557.5C 84.4248,554.593 83.5914,551.927 82,549.5C 70.2237,529.608 58.7237,509.608 47.5,489.5 Z" />
    </g>
    <g>
        <path style="opacity:1" fill="#a67c62"
            d="M 3173.5,543.5 C 3173.5,543.167 3173.5,542.833 3173.5,542.5C 3198.83,542.5 3224.17,542.5 3249.5,542.5C 3249.83,551.682 3249.49,560.682 3248.5,569.5C 3248.5,560.833 3248.5,552.167 3248.5,543.5C 3223.5,543.5 3198.5,543.5 3173.5,543.5 Z" />
    </g>
    <g>
        <path style="opacity:1" fill="#654334"
            d="M 87.5,564.5 C 88.0431,564.56 88.3764,564.893 88.5,565.5C 85.9135,566.48 83.2469,566.813 80.5,566.5C 59.1667,566.5 37.8333,566.5 16.5,566.5C 16.5,566.167 16.5,565.833 16.5,565.5C 17.1667,565.5 17.8333,565.5 18.5,565.5C 41.6727,565.831 64.6727,565.498 87.5,564.5 Z" />
    </g>
    <g>
        <path style="opacity:1" fill="#210100"
            d="M 16.5,566.5 C 37.8333,566.5 59.1667,566.5 80.5,566.5C 84.5,567.167 88.5,567.833 92.5,568.5C 67.3278,568.169 42.3278,568.502 17.5,569.5C 17.1667,569.5 16.8333,569.5 16.5,569.5C 16.5,568.5 16.5,567.5 16.5,566.5 Z" />
    </g>
    <g>
        <path style="opacity:1" fill="#a17456"
            d="M 17.5,569.5 C 42.3278,568.502 67.3278,568.169 92.5,568.5C 93.4938,577.986 93.8271,587.652 93.5,597.5C 93.1667,597.5 92.8333,597.5 92.5,597.5C 92.5,588.167 92.5,578.833 92.5,569.5C 67.5,569.5 42.5,569.5 17.5,569.5 Z" />
    </g>
    <g>
        <path style="opacity:1" fill="#eb9f59"
            d="M 16.5,569.5 C 16.8333,569.5 17.1667,569.5 17.5,569.5C 42.5,569.5 67.5,569.5 92.5,569.5C 92.5,578.833 92.5,588.167 92.5,597.5C 92.1667,597.5 91.8333,597.5 91.5,597.5C 67.3368,596.668 43.0034,596.168 18.5,596C 17.8563,591.066 17.1897,586.233 16.5,581.5C 16.5,577.5 16.5,573.5 16.5,569.5 Z" />
    </g>
    <g>
        <path style="opacity:1" fill="#948779"
            d="M 3003.5,489.5 C 3055.33,488.501 3107.33,488.168 3159.5,488.5C 3159.83,588.335 3159.5,688.001 3158.5,787.5C 3158.5,688.167 3158.5,588.833 3158.5,489.5C 3106.83,489.5 3055.17,489.5 3003.5,489.5 Z" />
    </g>
    <g>
        <path style="opacity:1" fill="#fef1bc"
            d="M 106.5,579.5 C 160.833,579.5 215.167,579.5 269.5,579.5C 269.5,658.167 269.5,736.833 269.5,815.5C 215.167,815.5 160.833,815.5 106.5,815.5C 107.339,736.831 107.339,658.164 106.5,579.5 Z" />
    </g>
    <g>
        <path style="opacity:1" fill="#c0987f"
            d="M 16.5,581.5 C 17.1897,586.233 17.8563,591.066 18.5,596C 43.0034,596.168 67.3368,596.668 91.5,597.5C 66.5,597.5 41.5,597.5 16.5,597.5C 16.5,592.167 16.5,586.833 16.5,581.5 Z" />
    </g>
    <g>
        <path style="opacity:1" fill="#93674d"
            d="M 92.5,600.5 C 93.1667,600.5 93.5,600.833 93.5,601.5C 68.1667,601.5 42.8333,601.5 17.5,601.5C 17.5,609.833 17.5,618.167 17.5,626.5C 42.8333,626.5 68.1667,626.5 93.5,626.5C 92.791,627.404 91.791,627.737 90.5,627.5C 65.8333,627.5 41.1667,627.5 16.5,627.5C 16.5,618.5 16.5,609.5 16.5,600.5C 41.8333,600.5 67.1667,600.5 92.5,600.5 Z" />
    </g>
    <g>
        <path style="opacity:1" fill="#eb9e59"
            d="M 93.5,601.5 C 93.5,609.833 93.5,618.167 93.5,626.5C 68.1667,626.5 42.8333,626.5 17.5,626.5C 17.5,618.167 17.5,609.833 17.5,601.5C 42.8333,601.5 68.1667,601.5 93.5,601.5 Z" />
    </g>
    <g>
        <path style="opacity:1" fill="#eb9f58"
            d="M 3253.5,602.5 C 3278.84,602.333 3304.17,602.5 3329.5,603C 3329.44,610.957 3329.44,619.123 3329.5,627.5C 3304.17,627.5 3278.83,627.5 3253.5,627.5C 3253.5,619.167 3253.5,610.833 3253.5,602.5 Z" />
    </g>
    <g>
        <path style="opacity:1" fill="#976c54"
            d="M 3173.5,602.5 C 3198.66,601.502 3223.99,601.169 3249.5,601.5C 3249.5,610.5 3249.5,619.5 3249.5,628.5C 3224.17,628.5 3198.83,628.5 3173.5,628.5C 3173.5,628.167 3173.5,627.833 3173.5,627.5C 3198.5,627.5 3223.5,627.5 3248.5,627.5C 3248.5,619.167 3248.5,610.833 3248.5,602.5C 3223.5,602.5 3198.5,602.5 3173.5,602.5 Z" />
    </g>
    <g>
        <path style="opacity:1" fill="#1e0802"
            d="M 16.5,569.5 C 16.5,573.5 16.5,577.5 16.5,581.5C 16.5,586.833 16.5,592.167 16.5,597.5C 41.5,597.5 66.5,597.5 91.5,597.5C 91.8333,597.5 92.1667,597.5 92.5,597.5C 92.8333,597.5 93.1667,597.5 93.5,597.5C 93.0825,598.222 92.4158,598.722 91.5,599C 92.056,599.383 92.3893,599.883 92.5,600.5C 67.1667,600.5 41.8333,600.5 16.5,600.5C 16.5,609.5 16.5,618.5 16.5,627.5C 41.1667,627.5 65.8333,627.5 90.5,627.5C 90.8333,628.167 91.1667,628.833 91.5,629.5C 66.3278,629.169 41.3278,629.502 16.5,630.5C 16.5,635.167 16.5,639.833 16.5,644.5C 16.5,648.167 16.5,651.833 16.5,655.5C 14.9048,648.566 13.9048,641.4 13.5,634C 14.0215,631.79 14.6882,629.623 15.5,627.5C 15.7102,607.656 15.0435,588.323 13.5,569.5C 14.5,569.5 15.5,569.5 16.5,569.5 Z" />
    </g>
    <g>
        <path style="opacity:1" fill="#80543f"
            d="M 3253.5,602.5 C 3278.99,601.502 3304.66,601.169 3330.5,601.5C 3330.83,610.682 3330.49,619.682 3329.5,628.5C 3303.99,628.831 3278.66,628.498 3253.5,627.5C 3278.83,627.5 3304.17,627.5 3329.5,627.5C 3329.44,619.123 3329.44,610.957 3329.5,603C 3304.17,602.5 3278.84,602.333 3253.5,602.5 Z" />
    </g>
    <g>
        <path style="opacity:1" fill="#eb9f59"
            d="M 16.5,630.5 C 41.8333,630.5 67.1667,630.5 92.5,630.5C 92.8158,638.752 92.4825,646.919 91.5,655C 67.1667,655.667 42.8333,655.667 18.5,655C 17.8648,651.397 17.1982,647.897 16.5,644.5C 16.5,639.833 16.5,635.167 16.5,630.5 Z" />
    </g>
    <g>
        <path style="opacity:1" fill="#ea9f5a"
            d="M 3173.5,631.5 C 3193.17,631.5 3212.83,631.5 3232.5,631.5C 3237.64,632.488 3242.97,632.821 3248.5,632.5C 3248.5,640.833 3248.5,649.167 3248.5,657.5C 3223.5,657.5 3198.5,657.5 3173.5,657.5C 3173.5,648.833 3173.5,640.167 3173.5,631.5 Z" />
    </g>
    <g>
        <path style="opacity:1" fill="#61412e"
            d="M 3329.5,630.5 C 3330.17,630.5 3330.5,630.833 3330.5,631.5C 3330.17,631.5 3329.83,631.5 3329.5,631.5C 3304.14,631.204 3278.81,631.537 3253.5,632.5C 3253.5,640.833 3253.5,649.167 3253.5,657.5C 3252.17,648.765 3252.17,639.932 3253.5,631C 3278.83,630.5 3304.16,630.333 3329.5,630.5 Z" />
    </g>
    <g>
        <path style="opacity:1" fill="#c59e82"
            d="M 3232.5,631.5 C 3238.17,631.5 3243.83,631.5 3249.5,631.5C 3249.83,640.349 3249.49,649.016 3248.5,657.5C 3248.5,649.167 3248.5,640.833 3248.5,632.5C 3242.97,632.821 3237.64,632.488 3232.5,631.5 Z" />
    </g>
    <g>
        <path style="opacity:1" fill="#1a1f27"
            d="M 3343.5,-0.5 C 3343.83,-0.5 3344.17,-0.5 3344.5,-0.5C 3344.5,264.5 3344.5,529.5 3344.5,794.5C 3344.17,794.5 3343.83,794.5 3343.5,794.5C 3343.83,743.355 3343.17,692.355 3341.5,641.5C 3341.85,607.5 3342.18,573.5 3342.5,539.5C 3341.91,363.001 3341.24,186.667 3340.5,10.5C 3340.49,6.53567 3341.49,2.869 3343.5,-0.5 Z" />
    </g>
    <g>
        <path style="opacity:1" fill="#9d7155"
            d="M 16.5,630.5 C 41.3278,629.502 66.3278,629.169 91.5,629.5C 93.4711,638.105 94.1377,647.105 93.5,656.5C 67.6612,656.831 41.9946,656.498 16.5,655.5C 16.5,651.833 16.5,648.167 16.5,644.5C 17.1982,647.897 17.8648,651.397 18.5,655C 42.8333,655.667 67.1667,655.667 91.5,655C 92.4825,646.919 92.8158,638.752 92.5,630.5C 67.1667,630.5 41.8333,630.5 16.5,630.5 Z" />
    </g>
    <g>
        <path style="opacity:1" fill="#929293"
            d="M 284.5,489.5 C 619.666,488.5 955,488.167 1290.5,488.5C 1290.83,597.668 1290.5,706.668 1289.5,815.5C 1289.83,706.665 1289.5,597.999 1288.5,489.5C 953.833,489.5 619.167,489.5 284.5,489.5 Z" />
    </g>
    <g>
        <path style="opacity:1" fill="#eb9f59"
            d="M 17.5,659.5 C 41.8356,659.333 66.1689,659.5 90.5,660C 92.4618,670.242 93.1284,680.742 92.5,691.5C 67.661,691.169 42.9944,691.502 18.5,692.5C 17.5054,681.679 17.1721,670.679 17.5,659.5 Z" />
    </g>
    <g>
        <path style="opacity:1" fill="#eb9e59"
            d="M 3173.5,661.5 C 3198.83,661.5 3224.17,661.5 3249.5,661.5C 3249.5,670.167 3249.5,678.833 3249.5,687.5C 3244.83,687.5 3240.17,687.5 3235.5,687.5C 3215.43,686.828 3195.26,686.161 3175,685.5C 3174.62,686.056 3174.12,686.389 3173.5,686.5C 3173.5,678.167 3173.5,669.833 3173.5,661.5 Z" />
    </g>
    <g>
        <path style="opacity:1" fill="#cb9e82"
            d="M 3235.5,687.5 C 3214.83,687.5 3194.17,687.5 3173.5,687.5C 3173.5,687.167 3173.5,686.833 3173.5,686.5C 3174.12,686.389 3174.62,686.056 3175,685.5C 3195.26,686.161 3215.43,686.828 3235.5,687.5 Z" />
    </g>
    <g>
        <path style="opacity:1" fill="#2c160f"
            d="M 3327.5,488.5 C 3302.66,488.169 3277.99,488.502 3253.5,489.5C 3253.5,496.167 3253.5,502.833 3253.5,509.5C 3278.33,510.498 3303.33,510.831 3328.5,510.5C 3328.83,511.167 3329.17,511.833 3329.5,512.5C 3303.99,512.169 3278.66,512.502 3253.5,513.5C 3253.5,522.167 3253.5,530.833 3253.5,539.5C 3278.66,540.498 3303.99,540.831 3329.5,540.5C 3329.83,541.167 3330.17,541.833 3330.5,542.5C 3304.66,542.169 3278.99,542.502 3253.5,543.5C 3253.5,552.167 3253.5,560.833 3253.5,569.5C 3257.17,569.5 3260.83,569.5 3264.5,569.5C 3286.5,569.5 3308.5,569.5 3330.5,569.5C 3330.08,570.222 3329.42,570.722 3328.5,571C 3329.77,571.309 3330.93,571.809 3332,572.5C 3333.05,582.324 3332.55,591.991 3330.5,601.5C 3304.66,601.169 3278.99,601.502 3253.5,602.5C 3253.5,610.833 3253.5,619.167 3253.5,627.5C 3278.66,628.498 3303.99,628.831 3329.5,628.5C 3329.5,629.167 3329.5,629.833 3329.5,630.5C 3304.16,630.333 3278.83,630.5 3253.5,631C 3252.17,639.932 3252.17,648.765 3253.5,657.5C 3278.83,657.5 3304.17,657.5 3329.5,657.5C 3330.49,649.016 3330.83,640.349 3330.5,631.5C 3331.82,635.276 3332.49,639.443 3332.5,644C 3332.24,658.126 3332.07,672.293 3332,686.5C 3331.62,687.056 3331.12,687.389 3330.5,687.5C 3330.5,688.5 3330.5,689.5 3330.5,690.5C 3329.17,690.5 3327.83,690.5 3326.5,690.5C 3302.17,690.5 3277.83,690.5 3253.5,690.5C 3253.5,699.167 3253.5,707.833 3253.5,716.5C 3272.5,716.5 3291.5,716.5 3310.5,716.5C 3316.83,716.5 3323.17,716.5 3329.5,716.5C 3329.5,717.5 3329.5,718.5 3329.5,719.5C 3303.99,719.169 3278.66,719.502 3253.5,720.5C 3253.5,728.833 3253.5,737.167 3253.5,745.5C 3278.33,746.498 3303.33,746.831 3328.5,746.5C 3328.56,747.609 3328.89,748.609 3329.5,749.5C 3277.5,749.5 3225.5,749.5 3173.5,749.5C 3173.5,748.5 3173.5,747.5 3173.5,746.5C 3198.83,746.5 3224.17,746.5 3249.5,746.5C 3249.5,744.5 3249.5,742.5 3249.5,740.5C 3249.5,739.833 3249.5,739.167 3249.5,738.5C 3249.5,732.167 3249.5,725.833 3249.5,719.5C 3224.83,719.5 3200.17,719.5 3175.5,719.5C 3174.89,718.609 3174.56,717.609 3174.5,716.5C 3199.5,716.5 3224.5,716.5 3249.5,716.5C 3249.5,707.833 3249.5,699.167 3249.5,690.5C 3224.17,690.5 3198.83,690.5 3173.5,690.5C 3173.5,689.5 3173.5,688.5 3173.5,687.5C 3194.17,687.5 3214.83,687.5 3235.5,687.5C 3240.17,687.5 3244.83,687.5 3249.5,687.5C 3249.5,678.833 3249.5,670.167 3249.5,661.5C 3224.17,661.5 3198.83,661.5 3173.5,661.5C 3176.42,660.806 3179.42,659.973 3182.5,659C 3179.31,658.819 3176.31,658.319 3173.5,657.5C 3198.5,657.5 3223.5,657.5 3248.5,657.5C 3249.49,649.016 3249.83,640.349 3249.5,631.5C 3243.83,631.5 3238.17,631.5 3232.5,631.5C 3212.83,631.5 3193.17,631.5 3173.5,631.5C 3173.5,630.5 3173.5,629.5 3173.5,628.5C 3198.83,628.5 3224.17,628.5 3249.5,628.5C 3249.5,619.5 3249.5,610.5 3249.5,601.5C 3223.99,601.169 3198.66,601.502 3173.5,602.5C 3173.5,610.833 3173.5,619.167 3173.5,627.5C 3172.17,599.5 3172.17,571.5 3173.5,543.5C 3173.5,552.167 3173.5,560.833 3173.5,569.5C 3198.5,569.5 3223.5,569.5 3248.5,569.5C 3249.49,560.682 3249.83,551.682 3249.5,542.5C 3224.17,542.5 3198.83,542.5 3173.5,542.5C 3173.5,541.5 3173.5,540.5 3173.5,539.5C 3198.83,539.5 3224.17,539.5 3249.5,539.5C 3249.5,531.167 3249.5,522.833 3249.5,514.5C 3224.52,512.509 3199.19,511.843 3173.5,512.5C 3173.5,512.167 3173.5,511.833 3173.5,511.5C 3198.84,511.667 3224.17,511.5 3249.5,511C 3250.48,503.587 3250.81,496.087 3250.5,488.5C 3276.26,487.173 3301.93,487.173 3327.5,488.5 Z" />
    </g>
    <g>
        <path style="opacity:1" fill="#eb9f5a"
            d="M 3253.5,661.5 C 3278.83,661.5 3304.17,661.5 3329.5,661.5C 3329.8,670.251 3329.47,678.918 3328.5,687.5C 3303.5,687.5 3278.5,687.5 3253.5,687.5C 3253.5,678.833 3253.5,670.167 3253.5,661.5 Z" />
    </g>
    <g>
        <path style="opacity:1" fill="#7e5640"
            d="M 3253.5,661.5 C 3278.99,660.502 3304.66,660.169 3330.5,660.5C 3330.5,669.5 3330.5,678.5 3330.5,687.5C 3329.83,687.5 3329.17,687.5 3328.5,687.5C 3329.47,678.918 3329.8,670.251 3329.5,661.5C 3304.17,661.5 3278.83,661.5 3253.5,661.5 Z" />
    </g>
    <g>
        <path style="opacity:1" fill="#a17761"
            d="M 3329.5,631.5 C 3329.83,631.5 3330.17,631.5 3330.5,631.5C 3330.83,640.349 3330.49,649.016 3329.5,657.5C 3329.36,648.666 3329.36,639.999 3329.5,631.5 Z" />
    </g>
    <g>
        <path style="opacity:1" fill="#eb9f5a"
            d="M 3329.5,631.5 C 3329.36,639.999 3329.36,648.666 3329.5,657.5C 3304.17,657.5 3278.83,657.5 3253.5,657.5C 3253.5,649.167 3253.5,640.833 3253.5,632.5C 3278.81,631.537 3304.14,631.204 3329.5,631.5 Z" />
    </g>
    <g>
        <path style="opacity:1" fill="#eb9f59"
            d="M 3173.5,602.5 C 3198.5,602.5 3223.5,602.5 3248.5,602.5C 3248.5,610.833 3248.5,619.167 3248.5,627.5C 3223.5,627.5 3198.5,627.5 3173.5,627.5C 3173.5,619.167 3173.5,610.833 3173.5,602.5 Z" />
    </g>
    <g>
        <path style="opacity:1" fill="#c09173"
            d="M 3329.5,572.5 C 3330.49,580.984 3330.83,589.651 3330.5,598.5C 3304.66,598.831 3278.99,598.498 3253.5,597.5C 3278.83,597.5 3304.17,597.5 3329.5,597.5C 3329.39,588.987 3329.39,580.653 3329.5,572.5 Z" />
    </g>
    <g>
        <path style="opacity:1" fill="#c08f6d"
            d="M 3173.5,593.5 C 3174.43,594.568 3174.77,595.901 3174.5,597.5C 3199.57,597.823 3224.57,597.49 3249.5,596.5C 3224.52,598.491 3199.19,599.157 3173.5,598.5C 3173.5,596.833 3173.5,595.167 3173.5,593.5 Z" />
    </g>
    <g>
        <path style="opacity:1" fill="#c89d82"
            d="M 3245.5,572.5 C 3246.83,572.5 3248.17,572.5 3249.5,572.5C 3249.5,579.167 3249.5,585.833 3249.5,592.5C 3248.51,586.355 3248.18,580.022 3248.5,573.5C 3247.21,573.737 3246.21,573.404 3245.5,572.5 Z" />
    </g>
    <g>
        <path style="opacity:1" fill="#eb9e59"
            d="M 3329.5,572.5 C 3329.39,580.653 3329.39,588.987 3329.5,597.5C 3304.17,597.5 3278.83,597.5 3253.5,597.5C 3253.5,589.167 3253.5,580.833 3253.5,572.5C 3278.83,572.5 3304.17,572.5 3329.5,572.5 Z" />
    </g>
    <g>
        <path style="opacity:1" fill="#eb9e59"
            d="M 3245.5,572.5 C 3246.21,573.404 3247.21,573.737 3248.5,573.5C 3248.18,580.022 3248.51,586.355 3249.5,592.5C 3249.5,593.833 3249.5,595.167 3249.5,596.5C 3224.57,597.49 3199.57,597.823 3174.5,597.5C 3174.77,595.901 3174.43,594.568 3173.5,593.5C 3173.5,586.833 3173.5,580.167 3173.5,573.5C 3197.43,572.51 3221.43,572.177 3245.5,572.5 Z" />
    </g>
    <g>
        <path style="opacity:1" fill="#582c14"
            d="M 3249.5,572.5 C 3248.17,572.5 3246.83,572.5 3245.5,572.5C 3221.43,572.177 3197.43,572.51 3173.5,573.5C 3185.82,572.168 3198.48,571.501 3211.5,571.5C 3224.34,571.5 3237,571.833 3249.5,572.5 Z" />
    </g>
    <g>
        <path style="opacity:1" fill="#ea9e5a"
            d="M 3173.5,543.5 C 3198.5,543.5 3223.5,543.5 3248.5,543.5C 3248.5,552.167 3248.5,560.833 3248.5,569.5C 3223.5,569.5 3198.5,569.5 3173.5,569.5C 3173.5,560.833 3173.5,552.167 3173.5,543.5 Z" />
    </g>
    <g>
        <path style="opacity:1" fill="#ea9e5a"
            d="M 3326.5,690.5 C 3327.21,691.404 3328.21,691.737 3329.5,691.5C 3329.5,699.5 3329.5,707.5 3329.5,715.5C 3322.98,715.177 3316.64,715.51 3310.5,716.5C 3291.5,716.5 3272.5,716.5 3253.5,716.5C 3253.5,707.833 3253.5,699.167 3253.5,690.5C 3277.83,690.5 3302.17,690.5 3326.5,690.5 Z" />
    </g>
    <g>
        <path style="opacity:1" fill="#986f51"
            d="M 17.5,659.5 C 42.33,658.337 67.33,658.17 92.5,659C 93.4874,670.085 93.8207,681.252 93.5,692.5C 68.5,692.5 43.5,692.5 18.5,692.5C 42.9944,691.502 67.661,691.169 92.5,691.5C 93.1284,680.742 92.4618,670.242 90.5,660C 66.1689,659.5 41.8356,659.333 17.5,659.5 Z" />
    </g>
    <g>
        <path style="opacity:1" fill="#eb9f59"
            d="M 3173.5,691.5 C 3198.5,691.5 3223.5,691.5 3248.5,691.5C 3248.82,699.42 3248.48,707.253 3247.5,715C 3222.84,715.5 3198.17,715.667 3173.5,715.5C 3173.5,707.5 3173.5,699.5 3173.5,691.5 Z" />
    </g>
    <g>
        <path style="opacity:0.749" fill="#e4af73"
            d="M 2323.5,489.5 C 2323.83,489.5 2324.17,489.5 2324.5,489.5C 2325.83,489.5 2327.17,489.5 2328.5,489.5C 2328.18,491.048 2327.18,491.715 2325.5,491.5C 2325.33,597.834 2325.5,704.167 2326,810.5C 2326.48,812.133 2327.31,813.466 2328.5,814.5C 2328.5,814.833 2328.5,815.167 2328.5,815.5C 2326.83,815.5 2325.17,815.5 2323.5,815.5C 2323.5,706.833 2323.5,598.167 2323.5,489.5 Z" />
    </g>
    <g>
        <path style="opacity:1" fill="#fefefe"
            d="M 18.5,706.5 C 43.1667,706.5 67.8333,706.5 92.5,706.5C 92.5,742.833 92.5,779.167 92.5,815.5C 66.8113,816.157 41.478,815.491 16.5,813.5C 17.1793,777.961 17.846,742.294 18.5,706.5 Z" />
    </g>
    <g>
        <path style="opacity:1" fill="#c39373"
            d="M 3173.5,691.5 C 3173.5,691.167 3173.5,690.833 3173.5,690.5C 3198.83,690.5 3224.17,690.5 3249.5,690.5C 3249.5,699.167 3249.5,707.833 3249.5,716.5C 3224.5,716.5 3199.5,716.5 3174.5,716.5C 3173.83,716.5 3173.5,716.167 3173.5,715.5C 3198.17,715.667 3222.84,715.5 3247.5,715C 3248.48,707.253 3248.82,699.42 3248.5,691.5C 3223.5,691.5 3198.5,691.5 3173.5,691.5 Z" />
    </g>
    <g>
        <path style="opacity:1" fill="#ba8c71"
            d="M 3326.5,690.5 C 3327.83,690.5 3329.17,690.5 3330.5,690.5C 3330.83,699.349 3330.49,708.016 3329.5,716.5C 3323.17,716.5 3316.83,716.5 3310.5,716.5C 3316.64,715.51 3322.98,715.177 3329.5,715.5C 3329.5,707.5 3329.5,699.5 3329.5,691.5C 3328.21,691.737 3327.21,691.404 3326.5,690.5 Z" />
    </g>
    <g>
        <path style="opacity:1" fill="#a2704c"
            d="M 3173.5,720.5 C 3173.84,719.662 3174.51,719.328 3175.5,719.5C 3200.17,719.5 3224.83,719.5 3249.5,719.5C 3249.5,725.833 3249.5,732.167 3249.5,738.5C 3248.51,732.69 3248.18,726.69 3248.5,720.5C 3223.5,720.5 3198.5,720.5 3173.5,720.5 Z" />
    </g>
    <g>
        <path style="opacity:1" fill="#ad7c5b"
            d="M 3253.5,720.5 C 3278.66,719.502 3303.99,719.169 3329.5,719.5C 3330.17,723.82 3330.5,728.32 3330.5,733C 3330.49,737.886 3329.83,742.386 3328.5,746.5C 3303.33,746.831 3278.33,746.498 3253.5,745.5C 3278.83,745.5 3304.17,745.5 3329.5,745.5C 3329.8,737.444 3329.47,729.444 3328.5,721.5C 3303.51,720.5 3278.51,720.167 3253.5,720.5 Z" />
    </g>
    <g>
        <path style="opacity:1" fill="#eb9f59"
            d="M 3173.5,720.5 C 3198.5,720.5 3223.5,720.5 3248.5,720.5C 3248.18,726.69 3248.51,732.69 3249.5,738.5C 3249.5,739.167 3249.5,739.833 3249.5,740.5C 3248.55,741.919 3248.22,743.585 3248.5,745.5C 3223.5,745.5 3198.5,745.5 3173.5,745.5C 3173.5,737.167 3173.5,728.833 3173.5,720.5 Z" />
    </g>
    <g>
        <path style="opacity:1" fill="#eb9f58"
            d="M 3253.5,720.5 C 3278.51,720.167 3303.51,720.5 3328.5,721.5C 3329.47,729.444 3329.8,737.444 3329.5,745.5C 3304.17,745.5 3278.83,745.5 3253.5,745.5C 3253.5,737.167 3253.5,728.833 3253.5,720.5 Z" />
    </g>
    <g>
        <path style="opacity:1" fill="#bf9272"
            d="M 3249.5,740.5 C 3249.5,742.5 3249.5,744.5 3249.5,746.5C 3224.17,746.5 3198.83,746.5 3173.5,746.5C 3173.5,746.167 3173.5,745.833 3173.5,745.5C 3198.5,745.5 3223.5,745.5 3248.5,745.5C 3248.22,743.585 3248.55,741.919 3249.5,740.5 Z" />
    </g>
    <g>
        <path style="opacity:1" fill="#ea9e59"
            d="M 3173.5,749.5 C 3225.5,749.5 3277.5,749.5 3329.5,749.5C 3329.5,762.167 3329.5,774.833 3329.5,787.5C 3277.5,787.5 3225.5,787.5 3173.5,787.5C 3173.5,774.833 3173.5,762.167 3173.5,749.5 Z" />
    </g>
    <g>
        <path style="opacity:1" fill="#d7d6d4"
            d="M 18.5,706.5 C 17.846,742.294 17.1793,777.961 16.5,813.5C 15.8398,777.484 16.5065,741.818 18.5,706.5 Z" />
    </g>
    <g>
        <path style="opacity:0.282" fill="#b5babb"
            d="M 3343.5,794.5 C 3343.83,794.5 3344.17,794.5 3344.5,794.5C 3344.5,797.167 3344.5,799.833 3344.5,802.5C 3341.29,802.81 3338.29,802.477 3335.5,801.5C 3337.17,801.5 3338.83,801.5 3340.5,801.5C 3341.5,801.5 3342.5,801.5 3343.5,801.5C 3343.5,799.167 3343.5,796.833 3343.5,794.5 Z" />
    </g>
    <g>
        <path style="opacity:0.749" fill="#f9c88a"
            d="M 2574.5,815.5 C 2492.5,815.5 2410.5,815.5 2328.5,815.5C 2328.5,815.167 2328.5,814.833 2328.5,814.5C 2410.25,814.817 2491.75,814.484 2573,813.5C 2573.72,814.044 2574.22,814.711 2574.5,815.5 Z" />
    </g>
    <g>
        <path style="opacity:0.749" fill="#f5bf82"
            d="M 2989.5,810.5 C 2989.5,812.167 2989.5,813.833 2989.5,815.5C 2901.5,815.5 2813.5,815.5 2725.5,815.5C 2813,814.501 2900.67,814.167 2988.5,814.5C 2988.23,812.901 2988.57,811.568 2989.5,810.5 Z" />
    </g>
    <g>
        <path style="opacity:1" fill="#896345"
            d="M 2989.5,810.5 C 2989.83,810.5 2990.17,810.5 2990.5,810.5C 2990.79,812.735 2990.46,814.735 2989.5,816.5C 2767.83,816.5 2546.17,816.5 2324.5,816.5C 2323.83,816.5 2323.5,816.167 2323.5,815.5C 2325.17,815.5 2326.83,815.5 2328.5,815.5C 2410.5,815.5 2492.5,815.5 2574.5,815.5C 2624.83,815.5 2675.17,815.5 2725.5,815.5C 2813.5,815.5 2901.5,815.5 2989.5,815.5C 2989.5,813.833 2989.5,812.167 2989.5,810.5 Z" />
    </g>
    <g>
        <path style="opacity:1" fill="#110100"
            d="M 2324.5,816.5 C 2546.17,816.5 2767.83,816.5 2989.5,816.5C 2894.34,817.753 2799,818.42 2703.5,818.5C 2577,818.197 2450.67,817.531 2324.5,816.5 Z" />
    </g>
</svg>