<svg version="1.1" id="Layer_1" xmlns="http://www.w3.org/2000/svg" xmlns:xlink="http://www.w3.org/1999/xlink" x="0px" y="0px"
	 width="100%" viewBox="0 0 460 460" enable-background="new 0 0 460 460" xml:space="preserve">
<path fill="#5BBA4F" opacity="1.000000" stroke="none" 
	d="
M228.000000,461.000000 
	C152.020508,461.000000 76.541023,461.000000 1.030768,461.000000 
	C1.030768,307.728851 1.030768,154.457672 1.030768,1.093253 
	C154.229446,1.093253 307.458984,1.093253 460.844238,1.093253 
	C460.844238,154.333206 460.844238,307.666595 460.844238,461.000000 
	C383.457733,461.000000 305.978851,461.000000 228.000000,461.000000 
M211.951416,256.548981 
	C193.361740,238.204376 176.571381,218.475525 163.395615,194.460541 
	C183.008972,194.460541 201.402496,194.460541 219.789154,194.460541 
	C219.789154,185.625961 219.789154,177.358154 219.789154,168.637299 
	C217.541870,168.637299 215.566071,168.637314 213.590271,168.637299 
	C193.928452,168.637100 174.265518,168.527756 154.605682,168.724808 
	C150.460342,168.766357 149.086136,167.563522 149.255554,163.391083 
	C149.557434,155.955582 149.340454,148.499023 149.340454,141.007507 
	C138.804779,141.007507 128.928162,141.007507 118.659630,141.007507 
	C118.659630,148.732697 118.448479,156.051926 118.741966,163.350876 
	C118.907486,167.467545 117.633759,168.769852 113.434624,168.726990 
	C93.608238,168.524536 73.778641,168.637100 53.950188,168.637329 
	C52.038452,168.637360 50.126720,168.637344 48.226944,168.637344 
	C48.226944,177.701660 48.226944,185.965332 48.226944,194.802643 
	C66.875755,194.802643 85.245255,194.802643 104.454109,194.802643 
	C87.597504,225.211456 64.641510,249.314041 39.820969,271.855988 
	C45.206360,280.827759 50.293224,289.302185 56.135368,299.034882 
	C64.682259,290.200653 72.589378,282.027710 81.214249,273.112885 
	C81.214249,279.769104 81.214249,285.501740 81.214249,291.734558 
	C93.834106,291.734558 105.929008,291.734558 118.734482,291.734558 
	C118.734482,301.450409 118.734482,310.665863 118.734482,319.782898 
	C129.339767,319.782898 139.215790,319.782898 149.637024,319.782898 
	C149.637024,310.264526 149.637024,301.192596 149.637024,291.593262 
	C162.274521,291.593262 174.362015,291.593262 186.994980,291.593262 
	C186.994980,285.353455 186.994980,279.647522 186.994980,272.716003 
	C195.808975,281.842896 203.733246,290.048431 212.108276,298.720764 
	C217.839111,289.101715 222.983597,280.466827 228.100525,271.878235 
	C222.602646,266.664124 217.530121,261.853424 211.951416,256.548981 
M374.395203,297.435272 
	C380.149872,297.623688 385.916443,298.141449 391.656769,297.933685 
	C404.670990,297.462738 412.425751,290.891510 414.949310,278.149017 
	C419.147308,256.951721 413.826843,238.172852 399.594574,222.046310 
	C397.041656,219.153671 397.082489,217.117950 398.432434,213.773651 
	C403.472839,201.286713 408.991364,188.876434 412.549713,175.947281 
	C415.041382,166.893951 414.637085,157.043594 415.556549,147.224487 
	C389.253448,147.224487 364.364105,147.224487 339.414001,147.224487 
	C339.414001,204.232880 339.414001,260.938416 339.414001,317.628845 
	C349.047760,317.628845 358.297638,317.628845 368.121338,317.628845 
	C368.121338,285.809784 368.121338,254.302704 368.121338,222.795639 
	C368.635864,222.595947 369.150360,222.396255 369.664886,222.196564 
	C374.160889,229.495789 379.461121,236.440048 382.890503,244.210052 
	C385.487122,250.093353 386.330597,256.986359 386.780609,263.510956 
	C387.183990,269.359344 384.656494,271.528534 378.852020,272.415222 
	C375.647675,272.904724 372.385315,273.014374 368.877045,273.318878 
	C370.686279,281.357178 372.401489,288.977661 374.395203,297.435272 
M282.499878,232.781876 
	C299.423920,232.781876 316.347961,232.781876 333.470551,232.781876 
	C333.470551,224.039825 333.470551,215.985703 333.470551,207.160202 
	C328.174591,207.160202 323.179535,207.160202 317.888458,207.160202 
	C319.659546,199.907974 321.457153,193.506256 322.735168,187.002441 
	C323.710358,182.039703 324.042419,176.963013 331.453857,179.269073 
	C331.453857,170.887497 331.453857,163.171783 331.453857,154.979645 
	C320.511353,154.979645 309.928650,154.979645 298.776123,154.979645 
	C298.776123,149.622971 298.776123,144.729080 298.776123,139.650452 
	C288.293274,139.650452 278.394897,139.650452 267.957367,139.650452 
	C267.957367,144.878250 267.957367,149.786667 267.957367,155.189545 
	C257.189697,155.189545 246.954987,155.189545 236.627106,155.189545 
	C236.627106,163.411026 236.627106,171.105362 236.627106,178.185349 
	C239.696228,179.151672 243.972610,179.370255 244.454269,180.835907 
	C247.228653,189.278168 249.105209,198.015503 251.504959,207.519806 
	C245.297791,207.519806 239.910828,207.519806 234.662323,207.519806 
	C234.662323,216.309479 234.662323,224.370224 234.662323,232.781876 
	C250.562469,232.781876 266.031158,232.781876 282.499878,232.781876 
M285.500122,242.207825 
	C270.734650,242.207825 255.969193,242.207825 241.261261,242.207825 
	C241.261261,267.852081 241.261261,292.746094 241.261261,317.621765 
	C251.239365,317.621765 260.819672,317.621765 270.589264,317.621765 
	C270.788055,315.560242 270.957428,313.803467 271.131775,311.995300 
	C280.977020,311.995300 290.495789,311.995300 299.937927,311.995300 
	C300.254852,314.220093 300.504791,315.974487 300.746643,317.672241 
	C310.263031,317.672241 319.364960,317.672241 328.666443,317.672241 
	C328.666443,292.505798 328.666443,267.617554 328.666443,242.207489 
	C314.411652,242.207489 300.455902,242.207489 285.500122,242.207825 
z"/>
<path fill="#FEFEFD" opacity="1.000000" stroke="none" 
	d="
M212.204498,256.795837 
	C217.530121,261.853424 222.602646,266.664124 228.100525,271.878235 
	C222.983597,280.466827 217.839111,289.101715 212.108276,298.720764 
	C203.733246,290.048431 195.808975,281.842896 186.994980,272.716003 
	C186.994980,279.647522 186.994980,285.353455 186.994980,291.593262 
	C174.362015,291.593262 162.274521,291.593262 149.637024,291.593262 
	C149.637024,301.192596 149.637024,310.264526 149.637024,319.782898 
	C139.215790,319.782898 129.339767,319.782898 118.734482,319.782898 
	C118.734482,310.665863 118.734482,301.450409 118.734482,291.734558 
	C105.929008,291.734558 93.834106,291.734558 81.214249,291.734558 
	C81.214249,285.501740 81.214249,279.769104 81.214249,273.112885 
	C72.589378,282.027710 64.682259,290.200653 56.135368,299.034882 
	C50.293224,289.302185 45.206360,280.827759 39.820969,271.855988 
	C64.641510,249.314041 87.597504,225.211456 104.454109,194.802643 
	C85.245255,194.802643 66.875755,194.802643 48.226944,194.802643 
	C48.226944,185.965332 48.226944,177.701660 48.226944,168.637344 
	C50.126720,168.637344 52.038452,168.637360 53.950188,168.637329 
	C73.778641,168.637100 93.608238,168.524536 113.434624,168.726990 
	C117.633759,168.769852 118.907486,167.467545 118.741966,163.350876 
	C118.448479,156.051926 118.659630,148.732697 118.659630,141.007507 
	C128.928162,141.007507 138.804779,141.007507 149.340454,141.007507 
	C149.340454,148.499023 149.557434,155.955582 149.255554,163.391083 
	C149.086136,167.563522 150.460342,168.766357 154.605682,168.724808 
	C174.265518,168.527756 193.928452,168.637100 213.590271,168.637299 
	C215.566071,168.637314 217.541870,168.637299 219.789154,168.637299 
	C219.789154,177.358154 219.789154,185.625961 219.789154,194.460541 
	C201.402496,194.460541 183.008972,194.460541 163.395615,194.460541 
	C176.571381,218.475525 193.361740,238.204376 212.204498,256.795837 
M93.310661,257.782837 
	C91.263527,260.357483 89.216393,262.932098 86.857864,265.898376 
	C97.768883,265.898376 108.079323,265.898376 118.373314,265.898376 
	C118.373314,251.441925 118.373314,237.441025 118.373314,223.001144 
	C109.961823,234.708405 101.867844,245.973740 93.310661,257.782837 
M177.818634,261.650848 
	C168.460571,248.936020 159.102493,236.221176 149.741364,223.502197 
	C149.741364,237.705063 149.741364,251.845627 149.741364,265.899506 
	C160.290390,265.899506 170.404007,265.899506 181.102097,265.899506 
	C179.853561,264.288025 179.048447,263.248871 177.818634,261.650848 
z"/>
<path fill="#FEFFFE" opacity="1.000000" stroke="none" 
	d="
M374.255920,297.016693 
	C372.401489,288.977661 370.686279,281.357178 368.877045,273.318878 
	C372.385315,273.014374 375.647675,272.904724 378.852020,272.415222 
	C384.656494,271.528534 387.183990,269.359344 386.780609,263.510956 
	C386.330597,256.986359 385.487122,250.093353 382.890503,244.210052 
	C379.461121,236.440048 374.160889,229.495789 369.664886,222.196564 
	C369.150360,222.396255 368.635864,222.595947 368.121338,222.795639 
	C368.121338,254.302704 368.121338,285.809784 368.121338,317.628845 
	C358.297638,317.628845 349.047760,317.628845 339.414001,317.628845 
	C339.414001,260.938416 339.414001,204.232880 339.414001,147.224487 
	C364.364105,147.224487 389.253448,147.224487 415.556549,147.224487 
	C414.637085,157.043594 415.041382,166.893951 412.549713,175.947281 
	C408.991364,188.876434 403.472839,201.286713 398.432434,213.773651 
	C397.082489,217.117950 397.041656,219.153671 399.594574,222.046310 
	C413.826843,238.172852 419.147308,256.951721 414.949310,278.149017 
	C412.425751,290.891510 404.670990,297.462738 391.656769,297.933685 
	C385.916443,298.141449 380.149872,297.623688 374.255920,297.016693 
M384.085266,173.029770 
	C383.694763,172.142838 383.332123,170.500046 382.909485,170.484467 
	C378.009399,170.303802 373.100220,170.369003 368.199097,170.369003 
	C368.199097,185.416565 368.199097,199.647690 368.199097,213.878815 
	C375.479614,201.233063 380.038605,187.633209 384.085266,173.029770 
z"/>
<path fill="#FCFEFC" opacity="1.000000" stroke="none" 
	d="
M281.999878,232.781876 
	C266.031158,232.781876 250.562469,232.781876 234.662323,232.781876 
	C234.662323,224.370224 234.662323,216.309479 234.662323,207.519806 
	C239.910828,207.519806 245.297791,207.519806 251.504959,207.519806 
	C249.105209,198.015503 247.228653,189.278168 244.454269,180.835907 
	C243.972610,179.370255 239.696228,179.151672 236.627106,178.185349 
	C236.627106,171.105362 236.627106,163.411026 236.627106,155.189545 
	C246.954987,155.189545 257.189697,155.189545 267.957367,155.189545 
	C267.957367,149.786667 267.957367,144.878250 267.957367,139.650452 
	C278.394897,139.650452 288.293274,139.650452 298.776123,139.650452 
	C298.776123,144.729080 298.776123,149.622971 298.776123,154.979645 
	C309.928650,154.979645 320.511353,154.979645 331.453857,154.979645 
	C331.453857,163.171783 331.453857,170.887497 331.453857,179.269073 
	C324.042419,176.963013 323.710358,182.039703 322.735168,187.002441 
	C321.457153,193.506256 319.659546,199.907974 317.888458,207.160202 
	C323.179535,207.160202 328.174591,207.160202 333.470551,207.160202 
	C333.470551,215.985703 333.470551,224.039825 333.470551,232.781876 
	C316.347961,232.781876 299.423920,232.781876 281.999878,232.781876 
M293.110901,199.612198 
	C294.640350,192.929810 296.169800,186.247437 297.721069,179.469681 
	C288.719513,179.469681 280.549805,179.469681 272.142761,179.469681 
	C274.141083,188.104019 276.007385,196.348282 278.005280,204.560516 
	C278.241547,205.531677 279.151123,207.039413 279.829834,207.084854 
	C283.290802,207.316528 286.992493,207.824692 290.161377,206.820541 
	C291.623169,206.357315 292.061493,202.664368 293.110901,199.612198 
z"/>
<path fill="#FDFEFD" opacity="1.000000" stroke="none" 
	d="
M286.000122,242.207657 
	C300.455902,242.207489 314.411652,242.207489 328.666443,242.207489 
	C328.666443,267.617554 328.666443,292.505798 328.666443,317.672241 
	C319.364960,317.672241 310.263031,317.672241 300.746643,317.672241 
	C300.504791,315.974487 300.254852,314.220093 299.937927,311.995300 
	C290.495789,311.995300 280.977020,311.995300 271.131775,311.995300 
	C270.957428,313.803467 270.788055,315.560242 270.589264,317.621765 
	C260.819672,317.621765 251.239365,317.621765 241.261261,317.621765 
	C241.261261,292.746094 241.261261,267.852081 241.261261,242.207825 
	C255.969193,242.207825 270.734650,242.207825 286.000122,242.207657 
M270.855988,283.367981 
	C270.961273,284.802185 271.066559,286.236389 271.177490,287.747498 
	C280.944763,287.747498 290.351593,287.747498 299.836243,287.747498 
	C299.836243,280.627747 299.836243,273.785004 299.836243,267.086212 
	C289.981903,267.086212 280.590118,267.086212 270.855682,267.086212 
	C270.855682,272.454315 270.855682,277.423035 270.855988,283.367981 
z"/>
<path fill="#61BC55" opacity="1.000000" stroke="none" 
	d="
M93.542267,257.510956 
	C101.867844,245.973740 109.961823,234.708405 118.373314,223.001144 
	C118.373314,237.441025 118.373314,251.441925 118.373314,265.898376 
	C108.079323,265.898376 97.768883,265.898376 86.857864,265.898376 
	C89.216393,262.932098 91.263527,260.357483 93.542267,257.510956 
z"/>
<path fill="#61BC55" opacity="1.000000" stroke="none" 
	d="
M178.030975,261.930267 
	C179.048447,263.248871 179.853561,264.288025 181.102097,265.899506 
	C170.404007,265.899506 160.290390,265.899506 149.741364,265.899506 
	C149.741364,251.845627 149.741364,237.705063 149.741364,223.502197 
	C159.102493,236.221176 168.460571,248.936020 178.030975,261.930267 
z"/>
<path fill="#5FBC54" opacity="1.000000" stroke="none" 
	d="
M384.013550,173.404846 
	C380.038605,187.633209 375.479614,201.233063 368.199097,213.878815 
	C368.199097,199.647690 368.199097,185.416565 368.199097,170.369003 
	C373.100220,170.369003 378.009399,170.303802 382.909485,170.484467 
	C383.332123,170.500046 383.694763,172.142838 384.013550,173.404846 
z"/>
<path fill="#5EBB53" opacity="1.000000" stroke="none" 
	d="
M293.037384,200.023987 
	C292.061493,202.664368 291.623169,206.357315 290.161377,206.820541 
	C286.992493,207.824692 283.290802,207.316528 279.829834,207.084854 
	C279.151123,207.039413 278.241547,205.531677 278.005280,204.560516 
	C276.007385,196.348282 274.141083,188.104019 272.142761,179.469681 
	C280.549805,179.469681 288.719513,179.469681 297.721069,179.469681 
	C296.169800,186.247437 294.640350,192.929810 293.037384,200.023987 
z"/>
<path fill="#5BBA4F" opacity="1.000000" stroke="none" 
	d="
M270.855835,282.879883 
	C270.855682,277.423035 270.855682,272.454315 270.855682,267.086212 
	C280.590118,267.086212 289.981903,267.086212 299.836243,267.086212 
	C299.836243,273.785004 299.836243,280.627747 299.836243,287.747498 
	C290.351593,287.747498 280.944763,287.747498 271.177490,287.747498 
	C271.066559,286.236389 270.961273,284.802185 270.855835,282.879883 
z"/>
</svg>