<?xml version="1.0" encoding="UTF-8" standalone="no"?>
<svg
  xmlns:dc="http://purl.org/dc/elements/1.1/"
  xmlns:cc="http://creativecommons.org/ns#"
  xmlns:rdf="http://www.w3.org/1999/02/22-rdf-syntax-ns#"
  xmlns:svg="http://www.w3.org/2000/svg"
  xmlns="http://www.w3.org/2000/svg"
  viewBox="0 500 4500 1600"
  height="2500"
  width="4500"
  xml:space="preserve"
  id="svg2"
  version="1.1"><metadata
     id="metadata8"><rdf:RDF><cc:Work
         rdf:about=""><dc:format>image/svg+xml</dc:format><dc:type
           rdf:resource="http://purl.org/dc/dcmitype/StillImage" /></cc:Work></rdf:RDF></metadata><defs
     id="defs6"><clipPath
       id="clipPath18"
       clipPathUnits="userSpaceOnUse"><path
         id="path16"
         d="M 0,0 H 1931 V 1086 H 0 Z" /></clipPath></defs><g
     transform="matrix(2.3436399,0,0,2.3440533,0,-0.30323636)"
     id="g10"><g
       id="g12"><g
         clip-path="url(#clipPath18)"
         id="g14"><path
           id="path20"
           style="fill:none;stroke:#ffe6a1;stroke-width:0.42664906;stroke-linecap:butt;stroke-linejoin:miter;stroke-miterlimit:10;stroke-dasharray:none;stroke-opacity:1"
           d="m 464.15,725.61 c 0.34,0.11 0.35,0.59 0.01,0.7 -10.96,3.72 -17.71,8.27 -28.22,16.88 -15.64,12.8 -24.5,34.07 -32.65,52.86 -4.88,11.23 -14.2,23.23 -28.39,19.44 -3.86,-1.03 -7.71,-2.08 -11.55,-3.16 -24.5,-6.9 -51.49,6.49 -52.19,34.17 -0.41,16.37 18.27,17.43 29.09,18.48 25.88,2.53 51.74,5.24 77.57,8.13 13.14,1.47 26.26,3.32 39.66,1.1 11.61,-1.92 14.74,-7.47 21.09,-18.03 4.49,-7.47 8.86,-15.62 13.88,-22.11 14.63,-18.88 31.64,-36.62 47.84,-51.52 5.12,-4.7 9.2,-4.84 15.77,-5.48 23.93,-2.31 48.76,-8.61 70.11,-19.79 56.51,-29.58 90.25,-86.35 92.52,-149.78 1.1,-30.84 -4.4,-61.4 -12.1,-88.06 -7.79,-26.95 -18.17,-55.18 -31.12,-84.67 -8.09,-18.41 -16.77,-34.64 -26.05,-48.7 -2.79,-4.22 -8.77,-14.06 -17.96,-29.52 -9.29,-15.65 -21.32,-32.37 -36.08,-50.16 -21.79,-26.27 -46.79,-49.03 -74.99,-68.26 -22.73,-15.5 -50.89,-21.62 -77.6,-13.87 -17.21,5 -30.82,9.18 -44.54,15.74 -44.53,21.26 -84.13,53.82 -115.66,90.59 -5.15,5.99 -14.06,16.98 -26.73,32.96 -9.1,11.47 -20,21.87 -28.43,33.32 -18.28,24.83 -32.59,51.87 -42.94,81.1 -7.73,21.85 -13.16,46.33 -11.88,69.47 0.6,10.81 1.59,22.52 2.97,35.12 1.43,13.04 3.62,22.08 7.92,33.73 7.64,20.67 16.36,39.65 26.16,56.94 6.49,11.45 12.12,22.11 16.93,29.44 20.49,31.23 51.88,62.46 85.98,76.75 10.3,4.31 20.65,8.5 31.06,12.55 8.28,3.23 15.76,5.55 22.45,6.98 6.58,1.41 12.96,0.34 19.15,-3.2 0.28,-0.15 0.49,-0.37 0.63,-0.66 6.46,-12.48 13.08,-24.88 19.86,-37.19 11.79,-21.38 31.42,-40.98 58.43,-32.29" /><path
           id="path22"
           style="fill:none;stroke:#ffc5a2;stroke-width:0.42664906;stroke-linecap:butt;stroke-linejoin:miter;stroke-miterlimit:10;stroke-dasharray:none;stroke-opacity:1"
           d="m 1203.66,452.68 c -3.23,0.14 -8.06,0.19 -14.48,0.16 -13.16,-0.06 -13.93,-11.19 -14.19,-21.09 -0.82,-32.23 -1.56,-64.46 -2.22,-96.69 -0.21,-10.23 -0.2,-16.67 0.02,-19.3 0.67,-8.06 5.08,-12.32 13.23,-12.78 27.98,-1.59 58.41,-2.33 85.99,5.18 0.6,0.17 0.89,-0.06 0.88,-0.68 l -1.3,-63.93 c -0.01,-0.34 -0.18,-0.51 -0.53,-0.5 -33.83,0.67 -67.67,1.36 -101.5,2.07 -9.81,0.2 -19.57,0.94 -29.29,2.22 -14.13,1.86 -25.87,7.21 -31.72,20.4 -6.26,14.1 -6.9,34.37 -7.03,49.57 -0.39,48.36 1.73,100.55 3.59,151.94 0.31,8.55 1.71,16.11 4.2,22.68 6.47,17.08 27.65,19.8 43.69,19.54 33.65,-0.55 57.98,-1.07 72.99,-1.58 17.99,-0.61 39.49,-1.93 47,-20.29 4.35,-10.65 3.09,-26.36 2.86,-39.41 -0.55,-30.91 -1.2,-61.82 -1.95,-92.73 0,-0.15 -0.13,-0.28 -0.28,-0.27 l -75.57,1.64 c -0.38,0.01 -0.63,0.38 -0.51,0.73 4.23,11.88 5.92,22.21 6.13,35.79 0.27,17.22 0.54,34.44 0.79,51.66 0.02,1.58 -0.3,3.27 -0.19,5 0.03,0.43 -0.18,0.66 -0.61,0.67" /><path
           id="path24"
           style="fill:none;stroke:#ffe6a1;stroke-width:0.42664906;stroke-linecap:butt;stroke-linejoin:miter;stroke-miterlimit:10;stroke-dasharray:none;stroke-opacity:1"
           d="m 1366.86,454.94 c 0.01,-0.24 0.21,-0.44 0.45,-0.44 h 28.63 c 0.41,0 0.75,0.34 0.74,0.75 l -0.8,54.55 c -0.01,0.52 0.4,0.95 0.92,0.96 l 69.87,1.39 c 0.35,0.01 0.52,-0.17 0.53,-0.52 1.21,-54.33 2.39,-108.72 3.02,-163.06 0.22,-19.43 1.28,-41.85 0.71,-58.51 -0.57,-16.69 -4.56,-33.57 -21.35,-39.91 -7.38,-2.79 -18.04,-3.86 -25.98,-4.29 -24.7,-1.33 -49.42,-1.72 -74.16,-1.18 -17.5,0.38 -36.53,1.29 -45.02,18.62 -5.54,11.3 -5.77,29.27 -5.93,43.2 -0.56,47.01 -1.79,114.28 -3.68,201.81 -0.01,0.47 0.22,0.71 0.69,0.72 l 69.33,1.17 c 0.71,0.01 1.07,-0.33 1.08,-1.03 l 0.95,-54.23" /><path
           id="path26"
           style="fill:none;stroke:#ffe6a1;stroke-width:0.42664906;stroke-linecap:butt;stroke-linejoin:miter;stroke-miterlimit:10;stroke-dasharray:none;stroke-opacity:1"
           d="m 1574.53,284.33 c -0.45,-0.37 -0.86,-0.92 -0.87,-1.55 -0.15,-10.48 -1.54,-20.79 -4.17,-30.93 -0.11,-0.42 -0.38,-0.65 -0.81,-0.68 l -70.12,-4.69 c -0.47,-0.03 -0.84,0.39 -0.76,0.85 3.67,20.4 3.95,43.23 2.61,62.37 -4.69,67.03 -9.27,134.11 -13.73,201.22 -0.03,0.45 0.18,0.69 0.63,0.72 l 69.14,4.95 c 0.43,0.03 0.67,-0.16 0.72,-0.59 0.69,-5.43 1.33,-12.66 1.91,-21.69 2.19,-34.06 6.83,-90.41 10.49,-155.24 0.44,-7.79 1.6,-22.2 11.14,-25.33 9.85,-3.23 18.5,5.19 18.43,14.76 -0.06,7.07 -0.82,20.92 -2.27,41.57 -3.23,45.8 -6.38,92.02 -9.44,138.65 -0.05,0.78 0.28,1.02 1,0.72 10.95,-4.61 21.75,-9.93 32.38,-15.94 7.01,-3.97 11.66,-6.27 13.96,-6.91 7.76,-2.17 17.74,-1.49 24.28,3.95 0.33,0.27 0.82,0.06 0.85,-0.36 3.01,-46.31 6.2,-92.61 9.56,-138.9 0.72,-9.95 1.01,-27.41 11.94,-30.81 2.86,-0.89 5.73,-0.78 8.6,0.35 11.15,4.37 9.28,18.88 8.65,28.36 -3.89,58.27 -7.86,116.53 -11.9,174.78 -0.06,0.75 0.51,1.4 1.26,1.45 l 69.44,4.96 c 0.36,0.03 0.55,-0.14 0.58,-0.5 3.11,-43.77 6.09,-87.54 8.92,-131.32 2.09,-32.42 5.19,-65.49 5.78,-85.61 0.23,-7.77 0.08,-14.91 -0.46,-21.43 -1.74,-21.05 -19.13,-27.34 -37.27,-28.73 -13.52,-1.05 -27.98,-3.07 -39.12,2.47 -9.68,4.81 -16.67,15.33 -20.82,25.15 -0.15,0.35 -0.62,0.43 -0.87,0.14 -1.48,-1.65 -3.23,-10.59 -4.15,-13.3 -7.75,-22.83 -34.68,-22.01 -53.69,-22.24 -8.01,-0.09 -14.12,0.6 -18.35,2.08 -12.18,4.27 -19.24,14.67 -22.94,27.09 -0.07,0.23 -0.35,0.31 -0.53,0.16" /><path
           id="path28"
           style="fill:none;stroke:#ffc5a2;stroke-width:0.42664906;stroke-linecap:butt;stroke-linejoin:miter;stroke-miterlimit:10;stroke-dasharray:none;stroke-opacity:1"
           d="m 983.68,463.28 28.44,-1.63 c 0.29,-0.02 0.53,0.2 0.55,0.49 l 3.22,54.51 c 0.02,0.39 0.23,0.59 0.62,0.6 1.45,0.05 3.62,-0.01 6.51,-0.18 31.84,-1.79 52.96,-3.04 63.37,-3.73 0.43,-0.03 0.64,-0.25 0.63,-0.68 -0.17,-6.47 -0.57,-14.79 -1.19,-24.97 -3.79,-62.46 -7.64,-124.92 -11.56,-187.37 -1.08,-17.28 -4.11,-37.2 -20.71,-44.97 -9.9,-4.64 -26.33,-4.48 -38,-3.98 -19.35,0.83 -40.62,2.2 -63.79,4.13 -11.21,0.93 -20.47,2.59 -27.78,4.98 -22.8,7.45 -22.6,33.02 -21.39,53.21 3.69,61.45 7.32,122.92 10.88,184.39 0.49,8.31 1.08,16.69 1.78,25.16 0.03,0.39 0.25,0.58 0.64,0.56 l 69.59,-4.39 c 0.4,-0.03 0.59,-0.24 0.56,-0.63 l -3.09,-54.69 c -0.03,-0.51 0.21,-0.78 0.72,-0.81" /><path
           id="path30"
           style="fill:none;stroke:#ffaea4;stroke-width:0.42664906;stroke-linecap:butt;stroke-linejoin:miter;stroke-miterlimit:10;stroke-dasharray:none;stroke-opacity:1"
           d="m 803.21,414.66 c -13.03,-9.3 -16.38,-24.11 -18,-39.68 -3.61,-34.71 -7.15,-69.28 -10.61,-103.7 -0.07,-0.65 -0.64,-1.12 -1.29,-1.05 l -68.63,7 c -0.41,0.04 -0.71,0.41 -0.67,0.81 3.05,31.83 6.15,63.63 9.32,95.4 1.78,17.83 4.61,33.54 14.03,49.45 11.07,18.7 25.63,33.39 43.66,44.08 0.46,0.28 1.15,1 1.55,1.38 0.29,0.27 0.45,0.61 0.49,1.01 l 6.57,66.39 c 0.08,0.84 0.54,1.22 1.37,1.13 l 68.95,-6.87 c 0.49,-0.05 0.85,-0.48 0.8,-0.97 -0.69,-7.06 -7.23,-67.13 -5.69,-68.51 19.55,-17.57 32.21,-39.25 37.98,-65.04 2.95,-13.2 1.46,-28.91 0.11,-43.03 -2.92,-30.58 -5.96,-61.17 -9.11,-91.77 -0.03,-0.33 -0.21,-0.48 -0.54,-0.45 l -69.05,7.14 c -0.43,0.04 -0.64,0.28 -0.62,0.71 0.2,4.79 0.53,9.58 1,14.35 2.59,26.65 5.15,53.31 7.68,79.98 1.78,18.68 3.87,36.33 -8.6,52.14 -0.2,0.25 -0.43,0.29 -0.7,0.1" /><path
           id="path32"
           style="fill:none;stroke:#ffe6a1;stroke-width:0.42664906;stroke-linecap:butt;stroke-linejoin:miter;stroke-miterlimit:10;stroke-dasharray:none;stroke-opacity:1"
           d="m 1877.0042,278.128 c 0.046,-0.398 -0.2442,-0.758 -0.6469,-0.8045 l -69.5111,-7.5514 c -0.3962,-0.0421 -0.7562,0.2479 -0.8045,0.6469 l -28.5659,262.953 c -0.046,0.398 0.2442,0.758 0.6469,0.8045 l 69.5111,7.5514 c 0.3962,0.0421 0.7562,-0.2479 0.8045,-0.6469 l 28.5659,-262.953" /><path
           id="path34"
           style="fill:none;stroke:#ffe6a1;stroke-width:0.42664906;stroke-linecap:butt;stroke-linejoin:miter;stroke-miterlimit:10;stroke-dasharray:none;stroke-opacity:1"
           d="m 108.22,357.13 c -0.07,0.28 -0.43,0.35 -0.6,0.12 -2.99,-3.97 -7.02,-9.08 -11.31,-10.97 -7.95,-3.49 -12.35,3.11 -14.36,9.92 -4.09,13.86 -0.01,31.75 11.86,40.76 6.47,4.91 13.88,9.01 22.23,12.28 6.82,2.68 9.74,6.8 12.37,13.58 4.6,11.84 12.37,28.3 18.26,43.01 4.63,11.57 9.47,23.05 14.54,34.46 0.17,0.39 0.75,0.33 0.83,-0.09 4.75,-23.76 13.85,-46.51 24.89,-68.02 1.67,-3.25 3.24,-6.58 4.69,-9.97 0.13,-0.31 0.13,-0.62 -0.02,-0.93 -1.07,-2.22 -1.86,-3.72 -2.35,-4.51 -14.09,-22.57 -24.98,-42.82 -31.74,-64.79 -7.26,-23.64 -18.8,-46.06 -32.78,-66.21 -5.69,-8.21 -22.08,-22.78 -30.38,-8.25 -4.83,8.45 -5.52,14.98 -3.79,25.07 3.21,18.77 9.06,36.68 17.54,53.74 0.14,0.28 0.18,0.55 0.12,0.8" /><path
           id="path36"
           style="fill:none;stroke:#ffaea4;stroke-width:0.42664906;stroke-linecap:butt;stroke-linejoin:miter;stroke-miterlimit:10;stroke-dasharray:none;stroke-opacity:1"
           d="m 1638.24,503.71 c -29.85,15.81 -57.37,28.91 -88.7,42.56 -1.13,0.49 -1.81,1.32 -2.04,2.47 -6.92,34.78 -16.76,68.71 -29.51,101.8 -0.59,1.54 -1,2.89 -1.25,4.05 -0.09,0.41 0.06,0.54 0.45,0.39 29.53,-11.49 58.69,-23.85 87.49,-37.08 3.01,-1.38 7.71,-3.76 14.11,-7.15 3.89,-2.05 4.33,-4.57 5.36,-8.57 6.8,-26.34 13.41,-52.73 19.84,-79.16 1.12,-4.6 3.04,-9.96 4.24,-15.02 0.72,-3.01 -2.52,-5.8 -5.15,-5.89 -1.15,-0.03 -2.76,0.5 -4.84,1.6" /><path
           id="path38"
           style="fill:none;stroke:#acabab;stroke-width:0.42664906;stroke-linecap:butt;stroke-linejoin:miter;stroke-miterlimit:10;stroke-dasharray:none;stroke-opacity:1"
           d="m 1270.9134,546.4377 c 0.01,-0.2077 -0.1634,-0.3677 -0.3655,-0.3745 l -21.2384,-0.2595 c -0.1995,-0.004 -0.3695,0.1563 -0.3745,0.3655 l -1.1284,92.3531 c -0.01,0.2077 0.1634,0.3677 0.3655,0.3745 l 21.2384,0.2595 c 0.1995,0.004 0.3695,-0.1563 0.3745,-0.3655 l 1.1284,-92.3531" /><path
           id="path40"
           style="fill:none;stroke:#acabab;stroke-width:0.42664906;stroke-linecap:butt;stroke-linejoin:miter;stroke-miterlimit:10;stroke-dasharray:none;stroke-opacity:1"
           d="m 1051.7119,549.0245 c -0.012,-0.1845 -0.1619,-0.3245 -0.3441,-0.3153 l -21.4395,0.9361 c -0.1783,0.005 -0.3183,0.1647 -0.3153,0.3441 l 0.6351,14.5461 c 0.012,0.1845 0.1619,0.3245 0.3441,0.3153 l 21.4395,-0.9361 c 0.1783,-0.005 0.3183,-0.1647 0.3153,-0.3441 l -0.6351,-14.5461" /><path
           id="path42"
           style="fill:none;stroke:#ffaea4;stroke-width:0.42664906;stroke-linecap:butt;stroke-linejoin:miter;stroke-miterlimit:10;stroke-dasharray:none;stroke-opacity:1"
           d="m 1496.16,567.53 c -54.32,20.92 -109.62,38.85 -165.89,53.8 -1.17,0.31 -2.11,0.62 -2.84,0.91 -2.63,1.06 -4.47,7.52 -5.14,10.07 -5.89,22.23 -11.92,44.43 -18.09,66.58 -1.4,5.01 -6.02,19.16 -3.35,23.43 0.19,0.31 0.47,0.44 0.82,0.41 14.49,-1.32 30.46,-6.29 46.5,-10.84 45.16,-12.81 88.29,-26.76 129.38,-41.85 8.73,-3.2 13.61,-4.07 17.41,-13.1 13.65,-32.47 24.13,-65.93 31.46,-100.38 0.04,-0.21 -0.16,-0.39 -0.37,-0.32 -10,3.7 -19.96,7.46 -29.89,11.29" /><path
           id="path44"
           style="fill:none;stroke:#acabab;stroke-width:0.42664906;stroke-linecap:butt;stroke-linejoin:miter;stroke-miterlimit:10;stroke-dasharray:none;stroke-opacity:1"
           d="m 971.45,594.34 c 0.77,10.89 1.42,21.79 1.94,32.7 0.36,7.49 1.63,17.44 10.62,17.97 3.35,0.19 10.9,-0.21 22.63,-1.2 0.33,-0.03 0.49,-0.22 0.47,-0.55 l -0.94,-15.31 c -0.03,-0.43 -0.25,-0.66 -0.68,-0.67 -3.05,-0.1 -9.58,1.39 -9.95,-3.04 -0.85,-10.37 -1.52,-20.76 -1.99,-31.19 -0.01,-0.24 0.18,-0.45 0.42,-0.47 l 9.7,-0.63 c 0.31,-0.02 0.45,-0.18 0.43,-0.49 l -0.95,-15.76 c -0.02,-0.28 -0.17,-0.42 -0.45,-0.41 l -9.43,0.34 c -0.49,0.02 -0.91,-0.37 -0.93,-0.86 l -0.61,-15.28 c -0.01,-0.35 -0.2,-0.52 -0.55,-0.5 l -21.16,1.23 c -0.32,0.01 -0.47,0.18 -0.46,0.51 l 0.87,15.92 c 0.02,0.4 -0.17,0.6 -0.57,0.6 h -4.68 c -0.38,0 -0.56,0.19 -0.54,0.57 l 0.78,15.97 c 0.01,0.4 0.22,0.58 0.62,0.53 l 4.78,-0.51 c 0.39,-0.04 0.6,0.14 0.63,0.53" /><path
           id="path46"
           style="fill:none;stroke:#acabab;stroke-width:0.42664906;stroke-linecap:butt;stroke-linejoin:miter;stroke-miterlimit:10;stroke-dasharray:none;stroke-opacity:1"
           d="m 1195.36,632.43 c 0.27,-0.62 1.2,-0.4 1.16,0.28 l -0.25,4.37 c -0.06,1.04 0.77,1.91 1.81,1.89 l 19.71,-0.28 c 0.35,-0.01 0.53,-0.19 0.52,-0.54 l -0.22,-69.73 c 0,-0.41 -0.2,-0.62 -0.61,-0.63 l -20.34,-0.37 c -0.84,-0.01 -1.24,0.4 -1.2,1.25 l 0.22,4.67 c 0.03,0.63 -0.77,0.93 -1.16,0.43 -2.89,-3.69 -5.58,-5.79 -10.42,-6.56 -9.14,-1.45 -20.58,-0.22 -20.61,11.55 -0.05,16.92 -1.3,35.43 1.2,52.1 1.02,6.78 4.33,8.1 10.95,8.19 7.65,0.09 15.53,1.98 19.24,-6.62" /><path
           id="path48"
           style="fill:none;stroke:#acabab;stroke-width:0.42664906;stroke-linecap:butt;stroke-linejoin:miter;stroke-miterlimit:10;stroke-dasharray:none;stroke-opacity:1"
           d="m 1109.5,621.05 c -2.78,-5.23 -4.34,-10.86 -4.69,-16.88 -0.67,-11.61 -1.09,-23.27 -1.26,-34.98 -0.01,-0.37 -0.19,-0.55 -0.56,-0.54 l -20.95,0.75 c -0.33,0.01 -0.5,0.19 -0.5,0.52 0.13,14.93 0.48,25.61 1.04,32.02 1.23,14.2 7.57,27.15 16.44,38.14 0.19,0.24 0.45,0.36 0.76,0.35 l 21.18,-0.72 c 0.31,-0.01 0.56,-0.14 0.75,-0.39 7.75,-10.29 12.46,-21.67 14.12,-34.13 1.39,-10.42 0.18,-24.69 -0.16,-36.7 -0.01,-0.39 -0.21,-0.57 -0.6,-0.56 l -21.09,0.68 c -0.27,0.01 -0.4,0.15 -0.39,0.43 0.73,14.96 0.92,27.42 0.58,37.39 -0.17,4.74 -1.49,9.61 -3.98,14.62 -0.23,0.44 -0.46,0.44 -0.69,0" /><path
           id="path50"
           style="fill:none;stroke:#acabab;stroke-width:0.42664906;stroke-linecap:butt;stroke-linejoin:miter;stroke-miterlimit:10;stroke-dasharray:none;stroke-opacity:1"
           d="m 777.66,592.92 0.36,-5.32 c 0.03,-0.47 0.27,-0.76 0.72,-0.87 l 6.03,-1.55 c 0.23,-0.06 0.34,-0.21 0.31,-0.45 l -1.74,-15.76 c -0.03,-0.32 -0.21,-0.46 -0.54,-0.43 -6.36,0.77 -19.24,1.19 -23.76,4.51 -6.18,4.53 -3.78,16.18 -3.05,22.54 0.05,0.43 -0.14,0.66 -0.57,0.69 l -4.33,0.31 c -0.56,0.04 -0.97,0.53 -0.91,1.09 l 1.73,15.41 c 0.04,0.34 0.35,0.57 0.68,0.52 l 4.39,-0.7 c 0.59,-0.1 0.92,0.15 0.99,0.75 l 5.74,50.23 c 0.05,0.43 0.28,0.61 0.7,0.56 L 785.18,662 c 0.41,-0.05 0.59,-0.27 0.54,-0.68 l -5.6,-49.93 c -0.07,-0.62 0.38,-1.17 1,-1.22 l 6.24,-0.5 c 0.35,-0.03 0.51,-0.22 0.47,-0.57 l -1.72,-15.83 c -0.03,-0.36 -0.23,-0.52 -0.6,-0.48 l -7.07,0.87 c -0.56,0.07 -0.82,-0.18 -0.78,-0.74" /><path
           id="path52"
           style="fill:none;stroke:#acabab;stroke-width:0.42664906;stroke-linecap:butt;stroke-linejoin:miter;stroke-miterlimit:10;stroke-dasharray:none;stroke-opacity:1"
           d="m 1052.5332,570.7144 c 0,-0.1444 -0.1232,-0.2544 -0.2711,-0.2484 l -21.4395,0.936 c -0.1426,0.008 -0.2526,0.128 -0.2484,0.2711 l 3.0926,70.8325 c 0,0.1444 0.1232,0.2544 0.2711,0.2484 l 21.4395,-0.936 c 0.1426,-0.008 0.2526,-0.128 0.2484,-0.2711 l -3.0926,-70.8325" /><path
           id="path54"
           style="fill:none;stroke:#ffc5a2;stroke-width:0.42664906;stroke-linecap:butt;stroke-linejoin:miter;stroke-miterlimit:10;stroke-dasharray:none;stroke-opacity:1"
           d="m 1661,574.18 c -2.87,0.56 -12.17,4.19 -16.8,7.31 -0.29,0.19 -0.47,0.46 -0.56,0.8 l -7.58,30.19 c -0.09,0.35 0.02,0.64 0.31,0.86 l 17.04,12.58 c 0.54,0.4 1.26,0.47 1.86,0.18 5.23,-2.54 20.46,-9.17 22.87,-13.84 4.42,-8.57 -2.99,-24.56 -7.89,-31.75 -2.53,-3.73 -4.9,-7.18 -9.25,-6.33" /><path
           id="path56"
           style="fill:none;stroke:#acabab;stroke-width:0.42664906;stroke-linecap:butt;stroke-linejoin:miter;stroke-miterlimit:10;stroke-dasharray:none;stroke-opacity:1"
           d="m 918.96,595.15 18.84,-1.39 c 0.35,-0.03 0.51,-0.21 0.5,-0.56 l -0.83,-15.96 c -0.01,-0.35 -0.2,-0.52 -0.56,-0.49 -9.4,0.87 -18.81,1.64 -28.23,2.31 -8.5,0.6 -12.58,2.81 -12.43,11.74 0.15,8.34 0.83,17.32 2.05,26.93 0.84,6.63 4.77,7.4 10.86,6.87 3.53,-0.3 7.12,-0.61 10.75,-0.92 0.45,-0.04 0.68,0.16 0.7,0.61 l 0.28,7.68 c 0.03,0.6 -0.26,0.92 -0.86,0.97 l -20.27,1.52 c -0.33,0.02 -0.49,0.2 -0.47,0.53 l 1.04,15.78 c 0.02,0.3 0.28,0.53 0.58,0.51 10.9,-0.69 21.74,-1.59 32.53,-2.68 6.35,-0.64 9.85,-4.57 10.13,-10.93 0.32,-7.24 -0.03,-14.44 -1.06,-21.59 -1.25,-8.71 -1.7,-12.29 -11.26,-13.15 -3.78,-0.34 -7.86,0.41 -11.66,0.61 -0.4,0.03 -0.61,-0.16 -0.64,-0.56 l -0.54,-7.18 c -0.03,-0.4 0.15,-0.62 0.55,-0.65" /><path
           id="path58"
           style="fill:none;stroke:#acabab;stroke-width:0.42664906;stroke-linecap:butt;stroke-linejoin:miter;stroke-miterlimit:10;stroke-dasharray:none;stroke-opacity:1"
           d="m 839.22,630.08 c -0.01,-0.19 0.09,-0.3 0.28,-0.32 l 31.24,-3.23 c 0.33,-0.03 0.48,-0.21 0.44,-0.54 -1.15,-11.33 -2.35,-22.66 -3.59,-33.97 -1.14,-10.37 -14.35,-8.39 -21.34,-7.81 -4.65,0.38 -11.33,1.07 -20.02,2.07 -14.05,1.61 -12.29,10.23 -11.25,21.99 1.04,11.85 2.33,23.67 3.33,35.52 1,11.96 4.95,14.1 16.63,13.13 12.79,-1.05 25.48,-2.23 38.05,-3.52 0.41,-0.05 0.6,-0.28 0.56,-0.69 l -1.34,-15.48 c -0.03,-0.44 -0.27,-0.64 -0.7,-0.59 -8,0.81 -16,1.58 -24.01,2.33 -7.03,0.65 -8.16,-2.82 -8.28,-8.89" /><path
           id="path60"
           style="fill:none;stroke:#ffaea4;stroke-width:0.42664906;stroke-linecap:butt;stroke-linejoin:miter;stroke-miterlimit:10;stroke-dasharray:none;stroke-opacity:1"
           d="m 1582.47,713.95 c 7.35,-6.68 11.94,-9 21.75,-10.07 7.84,-0.85 16.7,-0.3 24.98,-0.53 1.67,-0.05 3.28,-0.44 4.81,-1.16 19.79,-9.41 37.5,-18.66 53.12,-27.76 2.27,-1.33 4.32,-3.38 6.15,-6.16 0.19,-0.29 0.15,-0.55 -0.11,-0.78 -6.35,-5.64 -13.7,-9.65 -20.95,-13.96 -13.92,-8.27 -27.81,-17.91 -39.78,-25.23 -8.75,-5.35 -15.15,0.17 -24.27,4.35 -23.51,10.76 -51.39,22.39 -83.62,34.89 -0.93,0.36 -1.83,0.84 -2.7,1.44 -0.35,0.25 -0.35,0.5 0,0.75 11.99,8.61 23.65,17.66 34.98,27.14 8.16,6.83 18.61,7.61 24.89,16.98 0.21,0.33 0.46,0.36 0.75,0.1" /><path
           id="path62"
           style="fill:none;stroke:#ffaea4;stroke-width:0.42664906;stroke-linecap:butt;stroke-linejoin:miter;stroke-miterlimit:10;stroke-dasharray:none;stroke-opacity:1"
           d="m 1481.65,720.94 c 3.41,-15.19 16.3,-23.08 31.38,-23.33 4.19,-0.07 8.4,-0.12 12.63,-0.13 0.45,0 0.49,-0.14 0.14,-0.42 -8.55,-6.73 -17.41,-13.03 -26.58,-18.88 -0.31,-0.19 -0.64,-0.27 -1.01,-0.22 -0.67,0.09 -1.33,0.26 -1.97,0.5 -62.73,23.76 -126.48,44.33 -191.26,61.72 -3.11,0.84 -5.11,3.05 -5.99,6.63 -0.08,0.33 -0.04,0.64 0.11,0.93 1.05,2.07 2.58,3.76 4.59,5.07 19.1,12.44 38.26,24.78 57.49,37.01 4.91,3.12 10.02,5.97 15.31,8.56 0.5,0.25 1.08,0.3 1.62,0.16 31.82,-8.48 63.24,-18.34 94.27,-29.59 2.15,-0.78 4.4,-0.9 4.59,-3.69 1,-14.66 1.46,-29.97 4.68,-44.32" /><path
           id="path64"
           style="fill:none;stroke:#ffaea4;stroke-width:0.42664906;stroke-linecap:butt;stroke-linejoin:miter;stroke-miterlimit:10;stroke-dasharray:none;stroke-opacity:1"
           d="m 140.92,753.68 c -0.26,-0.29 -0.03,-0.76 0.36,-0.72 l 26.29,2.51 c 0.34,0.03 0.64,-0.06 0.89,-0.28 11.19,-9.81 22.42,-19.57 33.69,-29.3 2.63,-2.27 5.08,-4.65 7.33,-7.14 0.61,-0.67 0.41,-1.73 -0.4,-2.13 -2.98,-1.49 -5.55,-1.86 -8.74,-2.36 C 126.85,702.56 76.9,694.64 50.5,690.51 c -9.77,-1.54 -12.87,0.16 -5.87,8.82 36.19,44.75 72.36,89.53 108.5,134.32 0.86,1.07 2,2.07 2.99,3.11 0.23,0.24 0.49,0.26 0.76,0.07 l 2.99,-2.19 c 0.25,-0.18 0.37,-0.42 0.37,-0.73 0.02,-16.9 0.02,-33.8 0,-50.69 -0.01,-4.92 -0.95,-8.25 -3.94,-11.76 -5.15,-6.04 -10.27,-11.97 -15.38,-17.78" /><path
           id="path66"
           style="fill:none;stroke:#ffc5a2;stroke-width:0.42664906;stroke-linecap:butt;stroke-linejoin:miter;stroke-miterlimit:10;stroke-dasharray:none;stroke-opacity:1"
           d="m 1285.37,760.95 c -3.92,-11.1 -11.06,-19.67 -6.7,-32.28 1.81,-5.24 3.86,-10.47 6.17,-15.7 0.23,-0.52 -0.21,-1.09 -0.77,-1 -1.31,0.21 -2.74,0.49 -4.3,0.85 -27.32,6.29 -54.62,13.05 -82.05,18.77 -39.53,8.25 -79.18,15.8 -118.97,22.63 -1.63,0.28 -2.92,1.14 -3.87,2.57 -5.41,8.16 -7.87,16.22 -6.67,26.15 0.88,7.23 2.03,15.25 6.17,21.51 0.2,0.31 0.48,0.44 0.84,0.39 4.74,-0.64 10.52,-1.56 17.35,-2.76 65.23,-11.48 129.56,-24.22 192.46,-40.49 0.35,-0.09 0.46,-0.3 0.34,-0.64" /><path
           id="path68"
           style="fill:none;stroke:#acabab;stroke-width:0.42664906;stroke-linecap:butt;stroke-linejoin:miter;stroke-miterlimit:10;stroke-dasharray:none;stroke-opacity:1"
           d="m 1535.01,811.48 c -0.61,-0.05 -0.88,-0.8 -0.42,-1.22 15.98,-14.44 29.34,-28.2 34.53,-49.8 2.33,-9.72 3.56,-21.05 2.41,-31 -0.81,-6.98 -4.64,-11.17 -11.5,-12.57 -12.13,-2.47 -27.66,-3.15 -41.21,-4.09 -9.68,-0.68 -20,1.49 -22.14,12.71 -1.24,6.51 -2.24,18.3 -3.01,35.39 -0.01,0.27 0.11,0.41 0.38,0.43 l 29.46,2.15 c 0.49,0.04 0.74,-0.19 0.75,-0.68 0.01,-5.67 0.08,-18.85 3.2,-23.38 3.5,-5.11 10.32,-3.24 12.08,2.31 3.19,10.02 -3.65,25.16 -9.95,32.83 -11.14,13.56 -24.17,24.92 -39.09,34.07 -0.33,0.21 -0.54,0.56 -0.57,0.94 l -1.99,24 c -0.03,0.27 0.09,0.41 0.36,0.43 l 75.46,5.67 c 0.31,0.02 0.47,-0.12 0.49,-0.43 l 1.62,-24.98 c 0.01,-0.26 -0.11,-0.4 -0.36,-0.42 l -30.5,-2.36" /><path
           id="path70"
           style="fill:none;stroke:#acabab;stroke-width:0.42664906;stroke-linecap:butt;stroke-linejoin:miter;stroke-miterlimit:10;stroke-dasharray:none;stroke-opacity:1"
           d="m 1843.86,774.12 c 8.01,-2.85 14.45,-6.31 14.11,-15.87 -0.31,-8.73 -1.02,-18.1 -2.11,-28.11 -0.84,-7.66 -2.83,-13.81 -10.34,-15.91 -4.52,-1.26 -10.01,-1.65 -16.46,-1.17 -9.17,0.69 -18.34,1.45 -27.5,2.28 -14.52,1.33 -20.81,4.5 -21.08,20.15 -0.11,6.51 0.31,13.01 1.24,19.51 0.04,0.29 0.21,0.42 0.5,0.4 l 29.59,-2.33 c 0.37,-0.03 0.55,-0.23 0.54,-0.61 -0.19,-4.8 -1.78,-14.48 5.42,-15.94 7.21,-1.47 8.7,9.32 9.24,14.22 1.01,9.22 -2.74,15.41 -12.95,14.98 -0.38,-0.02 -0.56,0.16 -0.53,0.55 l 1.61,19.45 c 0.03,0.32 0.33,0.53 0.64,0.46 6.98,-1.6 11.6,0.96 13.86,7.68 1.28,3.79 1.93,13.86 -0.79,17.79 -2.27,3.26 -7.19,4.19 -9.9,0.7 -2.45,-3.18 -2.81,-8.78 -2.99,-12.72 -0.01,-0.33 -0.18,-0.48 -0.51,-0.45 l -29.68,2.28 c -0.34,0.03 -0.51,0.21 -0.5,0.56 0.19,6.82 0.98,14.34 2.37,22.55 2.16,12.8 13.23,13.94 24.45,13.23 9.06,-0.57 18.12,-1.24 27.17,-1.99 4.4,-0.36 8.73,-1.14 12.99,-2.34 12.48,-3.51 10.11,-18 9.49,-27.59 -0.4,-6.2 -0.54,-17.95 -3.29,-23.34 -3.38,-6.62 -8.58,-5.87 -14.57,-7.62 -0.82,-0.24 -0.83,-0.51 -0.02,-0.8" /><path
           id="path72"
           style="fill:none;stroke:#acabab;stroke-width:0.42664906;stroke-linecap:butt;stroke-linejoin:miter;stroke-miterlimit:10;stroke-dasharray:none;stroke-opacity:1"
           d="m 1732.27,815.5 c -0.35,0.05 -0.57,-0.36 -0.33,-0.62 7.71,-8.5 16.24,-18.25 21.28,-27.65 8.85,-16.53 11.13,-36.12 8.14,-54.51 -2.07,-12.68 -10.47,-14.18 -21.61,-14.17 -11.32,0.01 -22.63,0.27 -33.93,0.8 -14.73,0.69 -20.56,6.5 -20.2,21.4 0.23,9.61 0.48,19.21 0.76,28.81 0.01,0.24 0.2,0.42 0.44,0.41 l 29.9,-0.96 c 0.29,-0.01 0.43,-0.16 0.41,-0.46 -0.37,-6.22 -0.49,-12.44 -0.36,-18.67 0.12,-5.47 4.39,-10.67 9.78,-8.07 10.73,5.17 2.7,28.67 -1.52,35.43 -10.33,16.53 -22.91,27.75 -37.05,40.72 -0.25,0.23 -0.37,0.51 -0.36,0.85 l 0.6,23.46 c 0.01,0.37 0.19,0.54 0.55,0.53 l 75.07,-1.95 c 0.45,-0.01 0.68,-0.25 0.67,-0.7 l -0.6,-24.68 c -0.01,-0.41 -0.22,-0.61 -0.63,-0.6 l -30.03,0.83 c -0.2,0 -0.39,-0.05 -0.56,-0.14 -0.13,-0.07 -0.27,-0.09 -0.42,-0.06" /><path
           id="path74"
           style="fill:none;stroke:#acabab;stroke-width:0.42664906;stroke-linecap:butt;stroke-linejoin:miter;stroke-miterlimit:10;stroke-dasharray:none;stroke-opacity:1"
           d="m 1666.43,759.84 c 0.12,-7.65 0.66,-16.98 -0.17,-25.63 -0.66,-6.74 -2.84,-11.84 -9.76,-13.02 -16,-2.73 -33.01,-3.33 -51.02,-1.81 -13.38,1.13 -14.37,11.31 -14.66,22.12 -0.6,22.52 -1.18,45.04 -1.75,67.56 -0.12,4.74 -0.14,9.48 -0.05,14.21 0.19,10.56 3.43,15.59 14.24,16.91 11.39,1.39 22.83,1.93 34.3,1.63 20.29,-0.53 26.77,-2.06 27.44,-23.31 0.72,-22.89 1.2,-42.45 1.43,-58.66" /><path
           id="path76"
           style="fill:none;stroke:#ffc5a2;stroke-width:0.42664906;stroke-linecap:butt;stroke-linejoin:miter;stroke-miterlimit:10;stroke-dasharray:none;stroke-opacity:1"
           d="m 298.82,826.42 c 5.08,-11.19 13.14,-19.64 23.72,-25.75 0.3,-0.18 0.26,-0.63 -0.07,-0.74 -8,-2.74 -15.89,-5.86 -23.68,-9.37 -9.49,-4.28 -18.45,-10.41 -27.38,-16.2 -2.84,-1.84 -4.81,-2.87 -5.92,-3.1 -22.36,-4.69 -44.62,-9.88 -66.77,-15.58 -0.33,-0.09 -0.64,-0.06 -0.94,0.09 -5.32,2.63 -10.21,5.9 -14.68,9.83 -8.34,7.34 -4.78,23.27 -2.21,32.74 0.11,0.39 0.39,0.7 0.77,0.83 12.39,4.3 25,8.03 37.82,11.2 25.98,6.43 52.19,11.91 78.64,16.42 0.33,0.06 0.56,-0.06 0.7,-0.37" /><path
           id="path78"
           style="fill:none;stroke:#ffaea4;stroke-width:0.42664906;stroke-linecap:butt;stroke-linejoin:miter;stroke-miterlimit:10;stroke-dasharray:none;stroke-opacity:1"
           d="m 1045.13,809.49 c 1.03,-0.19 2.57,-0.1 3.77,-0.41 0.43,-0.12 0.53,-0.37 0.29,-0.74 -8.74,-13.68 -7.9,-32.31 -3.64,-47.04 0.32,-1.11 -0.09,-1.58 -1.23,-1.41 -44.65,6.77 -89.39,12.83 -134.22,18.17 -0.33,0.04 -0.59,0.2 -0.78,0.47 -10.74,15.21 -17.12,32.42 -5.82,49.66 0.2,0.31 0.55,0.47 0.92,0.43 37.42,-4.09 74.61,-8.88 111.58,-14.37 12.69,-1.89 22.4,-3.47 29.13,-4.76" /><path
           id="path80"
           style="fill:none;stroke:#ffc5a2;stroke-width:0.42664906;stroke-linecap:butt;stroke-linejoin:miter;stroke-miterlimit:10;stroke-dasharray:none;stroke-opacity:1"
           d="m 874.59,830.91 c -7,-15.31 -7.02,-33.32 0.56,-48.56 0.22,-0.45 0.08,-0.67 -0.42,-0.66 -1.66,0.03 -4.15,0.21 -7.48,0.56 -74.84,7.69 -152.59,12.43 -233.26,14.21 -27.78,0.62 -55.64,0.46 -83.46,0.59 -0.35,0 -0.66,0.1 -0.93,0.31 -17.16,12.9 -31.52,30.88 -45.33,47.08 -0.42,0.49 -0.08,1.25 0.56,1.27 123.25,4.06 246.71,-1.31 369.26,-13.93 0.42,-0.04 0.68,-0.48 0.5,-0.87" /><path
           id="path82"
           style="fill:none;stroke:#ffe6a1;stroke-width:0.42664906;stroke-linecap:butt;stroke-linejoin:miter;stroke-miterlimit:10;stroke-dasharray:none;stroke-opacity:1"
           d="M 309.2204,360.0029 C 316.23,363.74 325.8,359.48 330.605,350.4832 335.41,341.48 333.63,331.16 326.6196,327.4171 319.61,323.68 310.04,327.94 305.235,336.9368 c -4.805,9.0032 -3.025,19.3232 3.9854,23.0661" /><path
           id="path84"
           style="fill:none;stroke:#ffe6a1;stroke-width:0.42664906;stroke-linecap:butt;stroke-linejoin:miter;stroke-miterlimit:10;stroke-dasharray:none;stroke-opacity:1"
           d="M 377.2842,376.4994 C 384.99,378.48 393.29,372.07 395.8276,362.1811 398.37,352.3 394.18,342.68 386.4758,340.7006 378.77,338.72 370.47,345.13 367.9324,355.0189 365.39,364.9 369.58,374.52 377.2842,376.4994" /><path
           id="path86"
           style="fill:none;stroke:#ffe6a1;stroke-width:0.42664906;stroke-linecap:butt;stroke-linejoin:miter;stroke-miterlimit:10;stroke-dasharray:none;stroke-opacity:1"
           d="m 351.31,467.82 c 17.29,-9.79 25.79,-28.03 29.79,-45.76 1.64,-7.27 5.17,-32.35 -9.88,-28.5 -16.1,4.11 -31.77,10.68 -49.65,16.26 -10.07,3.15 -9.99,13.27 -6.07,21.2 4.72,9.56 21.56,44.87 35.81,36.8" /><path
           id="path88"
           style="fill:none;stroke:#ffe6a1;stroke-width:0.42664906;stroke-linecap:butt;stroke-linejoin:miter;stroke-miterlimit:10;stroke-dasharray:none;stroke-opacity:1"
           d="m 432.51,590.63 c -1.39,-0.25 -1.61,-0.9 -0.66,-1.95 3.26,-3.59 6.44,-6.92 9.55,-9.99 11.34,-11.2 14.74,-27.77 18,-42.72 3.65,-16.76 5.59,-36.51 1.02,-53.17 -0.91,-3.31 -5.67,-18.92 -8.66,-19.95 -0.35,-0.13 -0.57,-0.01 -0.64,0.36 -0.22,1.1 -0.57,2.62 -0.48,3.74 1.44,17.85 1.31,35.94 -1.61,53.68 -2.29,13.89 -5.57,34.13 -14.35,45.05 -3.62,4.49 -10.39,10.02 -13.8,16.74 -4.62,9.07 2.4,18.32 11.37,20.13 7.32,1.47 13.87,3 19.66,4.57 6.97,1.89 9.83,8.12 14.35,15.38 7.87,12.63 17.93,25.03 35.18,22.4 2.51,-0.38 4.2,-1.53 5.09,-3.44 5.27,-11.41 5.98,-23.49 2.15,-36.22 -1.63,-5.42 -3.89,-11.43 -4.74,-16.83 -1.25,-7.92 2.44,-17.41 6.53,-25.13 6.66,-12.54 7.8,-28.09 8.05,-42.01 0.33,-18.65 -3.76,-38.63 -15.49,-53.56 -0.25,-0.32 -0.77,-0.15 -0.77,0.26 -0.02,14.16 3.75,27.8 4.61,41.52 1.05,16.88 -1.75,38.28 -10.21,54.53 -4.15,7.98 -10.25,15.05 -6.84,25.2 4.21,12.54 8.45,23.01 7.81,37.02 -0.21,4.75 -4.23,10.17 -9.18,5.53 -8.37,-7.83 -15.06,-20.45 -21.29,-30.26 -4.79,-7.54 -10.21,-13.84 -15.97,-20.41 -0.36,-0.41 -0.54,-0.34 -0.55,0.2 l -0.15,11.87 c -0.01,0.37 -0.34,0.64 -0.7,0.58 l -17.28,-3.12" /><path
           id="path90"
           style="fill:none;stroke:#ffe6a1;stroke-width:0.42664906;stroke-linecap:butt;stroke-linejoin:miter;stroke-miterlimit:10;stroke-dasharray:none;stroke-opacity:1"
           d="m 1369.54,395.11 26.76,0.56 c 0.87,0.02 1.59,-0.67 1.61,-1.55 l 1.52,-72.54 c 0.24,-11.34 -5.78,-20.67 -13.43,-20.83 l -2.2,-0.04 c -7.65,-0.16 -14.05,8.9 -14.29,20.24 l -1.52,72.55 c -0.01,0.87 0.68,1.59 1.55,1.61" /><path
           id="path92"
           style="fill:none;stroke:#ffc5a2;stroke-width:0.42664906;stroke-linecap:butt;stroke-linejoin:miter;stroke-miterlimit:10;stroke-dasharray:none;stroke-opacity:1"
           d="m 980.6,404.26 26.88,-1.55 c 0.79,-0.05 1.41,-0.74 1.36,-1.53 l -4.19,-72.62 c -0.66,-11.54 -7.67,-20.53 -15.66,-20.07 l -0.86,0.05 c -7.98,0.46 -13.91,10.19 -13.25,21.73 l 4.19,72.62 c 0.05,0.8 0.73,1.41 1.53,1.37" /><path
           id="path94"
           style="fill:none;stroke:#ffe6a1;stroke-width:0.42664906;stroke-linecap:butt;stroke-linejoin:miter;stroke-miterlimit:10;stroke-dasharray:none;stroke-opacity:1"
           d="m 373.6,404.28 c -0.08,-0.9 0.06,-2.81 -0.17,-4.06 -0.07,-0.39 -0.3,-0.53 -0.68,-0.42 -9.63,2.85 -16.36,5.1 -20.19,6.77 -10.06,4.37 -17.13,19.71 -20.48,29.47 -0.67,1.94 -1.73,3.55 -0.77,5.67 1.65,3.65 7.65,14.93 11.65,16.96 1.71,0.87 3.57,0.72 5.57,-0.44 17.55,-10.18 26.82,-34.3 25.07,-53.95" /><path
           id="path96"
           style="fill:none;stroke:#ffe6a1;stroke-width:0.42664906;stroke-linecap:butt;stroke-linejoin:miter;stroke-miterlimit:10;stroke-dasharray:none;stroke-opacity:1"
           d="m 325.8,432.54 c 2.82,-8.55 5.27,-13.43 8.03,-19.23 0.16,-0.34 -0.17,-0.71 -0.52,-0.58 -3.71,1.32 -16.66,4.31 -13.99,9.98 0.71,1.51 2.69,4.81 5.93,9.9 0.23,0.36 0.42,0.34 0.55,-0.07" /><path
           id="path98"
           style="fill:none;stroke:#acabab;stroke-width:0.42664906;stroke-linecap:butt;stroke-linejoin:miter;stroke-miterlimit:10;stroke-dasharray:none;stroke-opacity:1"
           d="m 1195.8355,588.5549 c -0.015,-2.5849 -2.1155,-4.6649 -4.7044,-4.6555 l -0.32,0.002 c -2.5811,0.009 -4.6711,2.1189 -4.6554,4.7044 l 0.1488,28.4196 c 0.015,2.5849 2.1155,4.6649 4.7044,4.6555 l 0.32,-0.002 c 2.5811,-0.009 4.6711,-2.1189 4.6554,-4.7044 l -0.1488,-28.4196" /><path
           id="path100"
           style="fill:none;stroke:#acabab;stroke-width:0.42664906;stroke-linecap:butt;stroke-linejoin:miter;stroke-miterlimit:10;stroke-dasharray:none;stroke-opacity:1"
           d="m 838.49,616.03 8.79,-0.89 c 0.33,-0.04 0.57,-0.33 0.54,-0.66 l -0.56,-5.5 c -0.45,-4.41 -2.99,-7.77 -5.68,-7.5 l -0.25,0.03 c -2.69,0.27 -4.51,4.07 -4.06,8.48 l 0.56,5.5 c 0.03,0.33 0.33,0.57 0.66,0.54" /><path
           id="path102"
           style="fill:none;stroke:#acabab;stroke-width:0.42664906;stroke-linecap:butt;stroke-linejoin:miter;stroke-miterlimit:10;stroke-dasharray:none;stroke-opacity:1"
           d="m 1635.5773,748.3876 c 0.1027,-3.8076 -2.9073,-6.9676 -6.7073,-7.068 l -0.4798,-0.0125 c -3.8002,-0.0971 -6.9702,2.9029 -7.068,6.7073 l -1.6795,64.138 c -0.1027,3.8076 2.9073,6.9676 6.7073,7.068 l 0.4798,0.0125 c 3.8002,0.0971 6.9702,-2.9029 7.068,-6.7073 l 1.6795,-64.138" /></g></g><path
       id="path104"
       style="fill:#ffffff;fill-opacity:0;fill-rule:nonzero;stroke:none"
       d="M 0,0 H 1931 V 1086 H 0 V 0 m 464.15,725.61 c 0.34,0.11 0.35,0.59 0.01,0.7 -10.96,3.72 -17.71,8.27 -28.22,16.88 -15.64,12.8 -24.5,34.07 -32.65,52.86 -4.88,11.23 -14.2,23.23 -28.39,19.44 -3.86,-1.03 -7.71,-2.08 -11.55,-3.16 -24.5,-6.9 -51.49,6.49 -52.19,34.17 -0.41,16.37 18.27,17.43 29.09,18.48 25.88,2.53 51.74,5.24 77.57,8.13 13.14,1.47 26.26,3.32 39.66,1.1 11.61,-1.92 14.74,-7.47 21.09,-18.03 4.49,-7.47 8.86,-15.62 13.88,-22.11 14.63,-18.88 31.64,-36.62 47.84,-51.52 5.12,-4.7 9.2,-4.84 15.77,-5.48 23.93,-2.31 48.76,-8.61 70.11,-19.79 56.51,-29.58 90.25,-86.35 92.52,-149.78 1.1,-30.84 -4.4,-61.4 -12.1,-88.06 -7.79,-26.95 -18.17,-55.18 -31.12,-84.67 -8.09,-18.41 -16.77,-34.64 -26.05,-48.7 -2.79,-4.22 -8.77,-14.06 -17.96,-29.52 -9.29,-15.65 -21.32,-32.37 -36.08,-50.16 -21.79,-26.27 -46.79,-49.03 -74.99,-68.26 -22.73,-15.5 -50.89,-21.62 -77.6,-13.87 -17.21,5 -30.82,9.18 -44.54,15.74 -44.53,21.26 -84.13,53.82 -115.66,90.59 -5.15,5.99 -14.06,16.98 -26.73,32.96 -9.1,11.47 -20,21.87 -28.43,33.32 -18.28,24.83 -32.59,51.87 -42.94,81.1 -7.73,21.85 -13.16,46.33 -11.88,69.47 0.6,10.81 1.59,22.52 2.97,35.12 1.43,13.04 3.62,22.08 7.92,33.73 7.64,20.67 16.36,39.65 26.16,56.94 6.49,11.45 12.12,22.11 16.93,29.44 20.49,31.23 51.88,62.46 85.98,76.75 10.3,4.31 20.65,8.5 31.06,12.55 8.28,3.23 15.76,5.55 22.45,6.98 6.58,1.41 12.96,0.34 19.15,-3.2 0.28,-0.15 0.49,-0.37 0.63,-0.66 6.46,-12.48 13.08,-24.88 19.86,-37.19 11.79,-21.38 31.42,-40.98 58.43,-32.29 m 739.51,-272.93 c -3.23,0.14 -8.06,0.19 -14.48,0.16 -13.16,-0.06 -13.93,-11.19 -14.19,-21.09 -0.82,-32.23 -1.56,-64.46 -2.22,-96.69 -0.21,-10.23 -0.2,-16.67 0.02,-19.3 0.67,-8.06 5.08,-12.32 13.23,-12.78 27.98,-1.59 58.41,-2.33 85.99,5.18 0.6,0.17 0.89,-0.06 0.88,-0.68 l -1.3,-63.93 c -0.01,-0.34 -0.18,-0.51 -0.53,-0.5 -33.83,0.67 -67.67,1.36 -101.5,2.07 -9.81,0.2 -19.57,0.94 -29.29,2.22 -14.13,1.86 -25.87,7.21 -31.72,20.4 -6.26,14.1 -6.9,34.37 -7.03,49.57 -0.39,48.36 1.73,100.55 3.59,151.94 0.31,8.55 1.71,16.11 4.2,22.68 6.47,17.08 27.65,19.8 43.69,19.54 33.65,-0.55 57.98,-1.07 72.99,-1.58 17.99,-0.61 39.49,-1.93 47,-20.29 4.35,-10.65 3.09,-26.36 2.86,-39.41 -0.55,-30.91 -1.2,-61.82 -1.95,-92.73 0,-0.15 -0.13,-0.28 -0.28,-0.27 l -75.57,1.64 c -0.38,0.01 -0.63,0.38 -0.51,0.73 4.23,11.88 5.92,22.21 6.13,35.79 0.27,17.22 0.54,34.44 0.79,51.66 0.02,1.58 -0.3,3.27 -0.19,5 0.03,0.43 -0.18,0.66 -0.61,0.67 m 163.2,2.26 c 0.01,-0.24 0.21,-0.44 0.45,-0.44 h 28.63 c 0.41,0 0.75,0.34 0.74,0.75 l -0.8,54.55 c -0.01,0.52 0.4,0.95 0.92,0.96 l 69.87,1.39 c 0.35,0.01 0.52,-0.17 0.53,-0.52 1.21,-54.33 2.39,-108.72 3.02,-163.06 0.22,-19.43 1.28,-41.85 0.71,-58.51 -0.57,-16.69 -4.56,-33.57 -21.35,-39.91 -7.38,-2.79 -18.04,-3.86 -25.98,-4.29 -24.7,-1.33 -49.42,-1.72 -74.16,-1.18 -17.5,0.38 -36.53,1.29 -45.02,18.62 -5.54,11.3 -5.77,29.27 -5.93,43.2 -0.56,47.01 -1.79,114.28 -3.68,201.81 -0.01,0.47 0.22,0.71 0.69,0.72 l 69.33,1.17 c 0.71,0.01 1.07,-0.33 1.08,-1.03 l 0.95,-54.23 m 207.67,-170.61 c -0.45,-0.37 -0.86,-0.92 -0.87,-1.55 -0.15,-10.48 -1.54,-20.79 -4.17,-30.93 -0.11,-0.42 -0.38,-0.65 -0.81,-0.68 l -70.12,-4.69 c -0.47,-0.03 -0.84,0.39 -0.76,0.85 3.67,20.4 3.95,43.23 2.61,62.37 -4.69,67.03 -9.27,134.11 -13.73,201.22 -0.03,0.45 0.18,0.69 0.63,0.72 l 69.14,4.95 c 0.43,0.03 0.67,-0.16 0.72,-0.59 0.69,-5.43 1.33,-12.66 1.91,-21.69 2.19,-34.06 6.83,-90.41 10.49,-155.24 0.44,-7.79 1.6,-22.2 11.14,-25.33 9.85,-3.23 18.5,5.19 18.43,14.76 -0.06,7.07 -0.82,20.92 -2.27,41.57 -3.23,45.8 -6.38,92.02 -9.44,138.65 -0.05,0.78 0.28,1.02 1,0.72 10.95,-4.61 21.75,-9.93 32.38,-15.94 7.01,-3.97 11.66,-6.27 13.96,-6.91 7.76,-2.17 17.74,-1.49 24.28,3.95 0.33,0.27 0.82,0.06 0.85,-0.36 3.01,-46.31 6.2,-92.61 9.56,-138.9 0.72,-9.95 1.01,-27.41 11.94,-30.81 2.86,-0.89 5.73,-0.78 8.6,0.35 11.15,4.37 9.28,18.88 8.65,28.36 -3.89,58.27 -7.86,116.53 -11.9,174.78 -0.06,0.75 0.51,1.4 1.26,1.45 l 69.44,4.96 c 0.36,0.03 0.55,-0.14 0.58,-0.5 3.11,-43.77 6.09,-87.54 8.92,-131.32 2.09,-32.42 5.19,-65.49 5.78,-85.61 0.23,-7.77 0.08,-14.91 -0.46,-21.43 -1.74,-21.05 -19.13,-27.34 -37.27,-28.73 -13.52,-1.05 -27.98,-3.07 -39.12,2.47 -9.68,4.81 -16.67,15.33 -20.82,25.15 -0.15,0.35 -0.62,0.43 -0.87,0.14 -1.48,-1.65 -3.23,-10.59 -4.15,-13.3 -7.75,-22.83 -34.68,-22.01 -53.69,-22.24 -8.01,-0.09 -14.12,0.6 -18.35,2.08 -12.18,4.27 -19.24,14.67 -22.94,27.09 -0.07,0.23 -0.35,0.31 -0.53,0.16 m -590.85,178.95 28.44,-1.63 c 0.29,-0.02 0.53,0.2 0.55,0.49 l 3.22,54.51 c 0.02,0.39 0.23,0.59 0.62,0.6 1.45,0.05 3.62,-0.01 6.51,-0.18 31.84,-1.79 52.96,-3.04 63.37,-3.73 0.43,-0.03 0.64,-0.25 0.63,-0.68 -0.17,-6.47 -0.57,-14.79 -1.19,-24.97 -3.79,-62.46 -7.64,-124.92 -11.56,-187.37 -1.08,-17.28 -4.11,-37.2 -20.71,-44.97 -9.9,-4.64 -26.33,-4.48 -38,-3.98 -19.35,0.83 -40.62,2.2 -63.79,4.13 -11.21,0.93 -20.47,2.59 -27.78,4.98 -22.8,7.45 -22.6,33.02 -21.39,53.21 3.69,61.45 7.32,122.92 10.88,184.39 0.49,8.31 1.08,16.69 1.78,25.16 0.03,0.39 0.25,0.58 0.64,0.56 l 69.59,-4.39 c 0.4,-0.03 0.59,-0.24 0.56,-0.63 l -3.09,-54.69 c -0.03,-0.51 0.21,-0.78 0.72,-0.81 M 803.21,414.66 c -13.03,-9.3 -16.38,-24.11 -18,-39.68 -3.61,-34.71 -7.15,-69.28 -10.61,-103.7 -0.07,-0.65 -0.64,-1.12 -1.29,-1.05 l -68.63,7 c -0.41,0.04 -0.71,0.41 -0.67,0.81 3.05,31.83 6.15,63.63 9.32,95.4 1.78,17.83 4.61,33.54 14.03,49.45 11.07,18.7 25.63,33.39 43.66,44.08 0.46,0.28 1.15,1 1.55,1.38 0.29,0.27 0.45,0.61 0.49,1.01 l 6.57,66.39 c 0.08,0.84 0.54,1.22 1.37,1.13 l 68.95,-6.87 c 0.49,-0.05 0.85,-0.48 0.8,-0.97 -0.69,-7.06 -7.23,-67.13 -5.69,-68.51 19.55,-17.57 32.21,-39.25 37.98,-65.04 2.95,-13.2 1.46,-28.91 0.11,-43.03 -2.92,-30.58 -5.96,-61.17 -9.11,-91.77 -0.03,-0.33 -0.21,-0.48 -0.54,-0.45 l -69.05,7.14 c -0.43,0.04 -0.64,0.28 -0.62,0.71 0.2,4.79 0.53,9.58 1,14.35 2.59,26.65 5.15,53.31 7.68,79.98 1.78,18.68 3.87,36.33 -8.6,52.14 -0.2,0.25 -0.43,0.29 -0.7,0.1 M 1877.0042,278.128 c 0.046,-0.398 -0.2442,-0.758 -0.6469,-0.8045 l -69.5111,-7.5514 c -0.3962,-0.0421 -0.7562,0.2479 -0.8045,0.6469 l -28.5659,262.953 c -0.046,0.398 0.2442,0.758 0.6469,0.8045 l 69.5111,7.5514 c 0.3962,0.0421 0.7562,-0.2479 0.8045,-0.6469 l 28.5659,-262.953 M 108.22,357.13 c -0.07,0.28 -0.43,0.35 -0.6,0.12 -2.99,-3.97 -7.02,-9.08 -11.31,-10.97 -7.95,-3.49 -12.35,3.11 -14.36,9.92 -4.09,13.86 -0.01,31.75 11.86,40.76 6.47,4.91 13.88,9.01 22.23,12.28 6.82,2.68 9.74,6.8 12.37,13.58 4.6,11.84 12.37,28.3 18.26,43.01 4.63,11.57 9.47,23.05 14.54,34.46 0.17,0.39 0.75,0.33 0.83,-0.09 4.75,-23.76 13.85,-46.51 24.89,-68.02 1.67,-3.25 3.24,-6.58 4.69,-9.97 0.13,-0.31 0.13,-0.62 -0.02,-0.93 -1.07,-2.22 -1.86,-3.72 -2.35,-4.51 -14.09,-22.57 -24.98,-42.82 -31.74,-64.79 -7.26,-23.64 -18.8,-46.06 -32.78,-66.21 -5.69,-8.21 -22.08,-22.78 -30.38,-8.25 -4.83,8.45 -5.52,14.98 -3.79,25.07 3.21,18.77 9.06,36.68 17.54,53.74 0.14,0.28 0.18,0.55 0.12,0.8 m 1530.02,146.58 c -29.85,15.81 -57.37,28.91 -88.7,42.56 -1.13,0.49 -1.81,1.32 -2.04,2.47 -6.92,34.78 -16.76,68.71 -29.51,101.8 -0.59,1.54 -1,2.89 -1.25,4.05 -0.09,0.41 0.06,0.54 0.45,0.39 29.53,-11.49 58.69,-23.85 87.49,-37.08 3.01,-1.38 7.71,-3.76 14.11,-7.15 3.89,-2.05 4.33,-4.57 5.36,-8.57 6.8,-26.34 13.41,-52.73 19.84,-79.16 1.12,-4.6 3.04,-9.96 4.24,-15.02 0.72,-3.01 -2.52,-5.8 -5.15,-5.89 -1.15,-0.03 -2.76,0.5 -4.84,1.6 m -367.3266,42.7277 c 0.01,-0.2077 -0.1634,-0.3677 -0.3655,-0.3745 l -21.2384,-0.2595 c -0.1995,-0.004 -0.3695,0.1563 -0.3745,0.3655 l -1.1284,92.3531 c -0.01,0.2077 0.1634,0.3677 0.3655,0.3745 l 21.2384,0.2595 c 0.1995,0.004 0.3695,-0.1563 0.3745,-0.3655 l 1.1284,-92.3531 m -219.2015,2.5868 c -0.012,-0.1845 -0.1619,-0.3245 -0.3441,-0.3153 l -21.4395,0.9361 c -0.1783,0.005 -0.3183,0.1647 -0.3153,0.3441 l 0.6351,14.5461 c 0.012,0.1845 0.1619,0.3245 0.3441,0.3153 l 21.4395,-0.9361 c 0.1783,-0.005 0.3183,-0.1647 0.3153,-0.3441 l -0.6351,-14.5461 M 1496.16,567.53 c -54.32,20.92 -109.62,38.85 -165.89,53.8 -1.17,0.31 -2.11,0.62 -2.84,0.91 -2.63,1.06 -4.47,7.52 -5.14,10.07 -5.89,22.23 -11.92,44.43 -18.09,66.58 -1.4,5.01 -6.02,19.16 -3.35,23.43 0.19,0.31 0.47,0.44 0.82,0.41 14.49,-1.32 30.46,-6.29 46.5,-10.84 45.16,-12.81 88.29,-26.76 129.38,-41.85 8.73,-3.2 13.61,-4.07 17.41,-13.1 13.65,-32.47 24.13,-65.93 31.46,-100.38 0.04,-0.21 -0.16,-0.39 -0.37,-0.32 -10,3.7 -19.96,7.46 -29.89,11.29 m -524.71,26.81 c 0.77,10.89 1.42,21.79 1.94,32.7 0.36,7.49 1.63,17.44 10.62,17.97 3.35,0.19 10.9,-0.21 22.63,-1.2 0.33,-0.03 0.49,-0.22 0.47,-0.55 l -0.94,-15.31 c -0.03,-0.43 -0.25,-0.66 -0.68,-0.67 -3.05,-0.1 -9.58,1.39 -9.95,-3.04 -0.85,-10.37 -1.52,-20.76 -1.99,-31.19 -0.01,-0.24 0.18,-0.45 0.42,-0.47 l 9.7,-0.63 c 0.31,-0.02 0.45,-0.18 0.43,-0.49 l -0.95,-15.76 c -0.02,-0.28 -0.17,-0.42 -0.45,-0.41 l -9.43,0.34 c -0.49,0.02 -0.91,-0.37 -0.93,-0.86 l -0.61,-15.28 c -0.01,-0.35 -0.2,-0.52 -0.55,-0.5 l -21.16,1.23 c -0.32,0.01 -0.47,0.18 -0.46,0.51 l 0.87,15.92 c 0.02,0.4 -0.17,0.6 -0.57,0.6 h -4.68 c -0.38,0 -0.56,0.19 -0.54,0.57 l 0.78,15.97 c 0.01,0.4 0.22,0.58 0.62,0.53 l 4.78,-0.51 c 0.39,-0.04 0.6,0.14 0.63,0.53 m 223.91,38.09 c 0.27,-0.62 1.2,-0.4 1.16,0.28 l -0.25,4.37 c -0.06,1.04 0.77,1.91 1.81,1.89 l 19.71,-0.28 c 0.35,-0.01 0.53,-0.19 0.52,-0.54 l -0.22,-69.73 c 0,-0.41 -0.2,-0.62 -0.61,-0.63 l -20.34,-0.37 c -0.84,-0.01 -1.24,0.4 -1.2,1.25 l 0.22,4.67 c 0.03,0.63 -0.77,0.93 -1.16,0.43 -2.89,-3.69 -5.58,-5.79 -10.42,-6.56 -9.14,-1.45 -20.58,-0.22 -20.61,11.55 -0.05,16.92 -1.3,35.43 1.2,52.1 1.02,6.78 4.33,8.1 10.95,8.19 7.65,0.09 15.53,1.98 19.24,-6.62 m -85.86,-11.38 c -2.78,-5.23 -4.34,-10.86 -4.69,-16.88 -0.67,-11.61 -1.09,-23.27 -1.26,-34.98 -0.01,-0.37 -0.19,-0.55 -0.56,-0.54 l -20.95,0.75 c -0.33,0.01 -0.5,0.19 -0.5,0.52 0.13,14.93 0.48,25.61 1.04,32.02 1.23,14.2 7.57,27.15 16.44,38.14 0.19,0.24 0.45,0.36 0.76,0.35 l 21.18,-0.72 c 0.31,-0.01 0.56,-0.14 0.75,-0.39 7.75,-10.29 12.46,-21.67 14.12,-34.13 1.39,-10.42 0.18,-24.69 -0.16,-36.7 -0.01,-0.39 -0.21,-0.57 -0.6,-0.56 l -21.09,0.68 c -0.27,0.01 -0.4,0.15 -0.39,0.43 0.73,14.96 0.92,27.42 0.58,37.39 -0.17,4.74 -1.49,9.61 -3.98,14.62 -0.23,0.44 -0.46,0.44 -0.69,0 m -331.84,-28.13 0.36,-5.32 c 0.03,-0.47 0.27,-0.76 0.72,-0.87 l 6.03,-1.55 c 0.23,-0.06 0.34,-0.21 0.31,-0.45 l -1.74,-15.76 c -0.03,-0.32 -0.21,-0.46 -0.54,-0.43 -6.36,0.77 -19.24,1.19 -23.76,4.51 -6.18,4.53 -3.78,16.18 -3.05,22.54 0.05,0.43 -0.14,0.66 -0.57,0.69 l -4.33,0.31 c -0.56,0.04 -0.97,0.53 -0.91,1.09 l 1.73,15.41 c 0.04,0.34 0.35,0.57 0.68,0.52 l 4.39,-0.7 c 0.59,-0.1 0.92,0.15 0.99,0.75 l 5.74,50.23 c 0.05,0.43 0.28,0.61 0.7,0.56 L 785.18,662 c 0.41,-0.05 0.59,-0.27 0.54,-0.68 l -5.6,-49.93 c -0.07,-0.62 0.38,-1.17 1,-1.22 l 6.24,-0.5 c 0.35,-0.03 0.51,-0.22 0.47,-0.57 l -1.72,-15.83 c -0.03,-0.36 -0.23,-0.52 -0.6,-0.48 l -7.07,0.87 c -0.56,0.07 -0.82,-0.18 -0.78,-0.74 m 274.8732,-22.2056 c 0,-0.1444 -0.1232,-0.2544 -0.2711,-0.2484 l -21.4395,0.936 c -0.1426,0.008 -0.2526,0.128 -0.2484,0.2711 l 3.0926,70.8325 c 0,0.1444 0.1232,0.2544 0.2711,0.2484 l 21.4395,-0.936 c 0.1426,-0.008 0.2526,-0.128 0.2484,-0.2711 l -3.0926,-70.8325 M 1661,574.18 c -2.87,0.56 -12.17,4.19 -16.8,7.31 -0.29,0.19 -0.47,0.46 -0.56,0.8 l -7.58,30.19 c -0.09,0.35 0.02,0.64 0.31,0.86 l 17.04,12.58 c 0.54,0.4 1.26,0.47 1.86,0.18 5.23,-2.54 20.46,-9.17 22.87,-13.84 4.42,-8.57 -2.99,-24.56 -7.89,-31.75 -2.53,-3.73 -4.9,-7.18 -9.25,-6.33 m -742.04,20.97 18.84,-1.39 c 0.35,-0.03 0.51,-0.21 0.5,-0.56 l -0.83,-15.96 c -0.01,-0.35 -0.2,-0.52 -0.56,-0.49 -9.4,0.87 -18.81,1.64 -28.23,2.31 -8.5,0.6 -12.58,2.81 -12.43,11.74 0.15,8.34 0.83,17.32 2.05,26.93 0.84,6.63 4.77,7.4 10.86,6.87 3.53,-0.3 7.12,-0.61 10.75,-0.92 0.45,-0.04 0.68,0.16 0.7,0.61 l 0.28,7.68 c 0.03,0.6 -0.26,0.92 -0.86,0.97 l -20.27,1.52 c -0.33,0.02 -0.49,0.2 -0.47,0.53 l 1.04,15.78 c 0.02,0.3 0.28,0.53 0.58,0.51 10.9,-0.69 21.74,-1.59 32.53,-2.68 6.35,-0.64 9.85,-4.57 10.13,-10.93 0.32,-7.24 -0.03,-14.44 -1.06,-21.59 -1.25,-8.71 -1.7,-12.29 -11.26,-13.15 -3.78,-0.34 -7.86,0.41 -11.66,0.61 -0.4,0.03 -0.61,-0.16 -0.64,-0.56 l -0.54,-7.18 c -0.03,-0.4 0.15,-0.62 0.55,-0.65 m -79.74,34.93 c -0.01,-0.19 0.09,-0.3 0.28,-0.32 l 31.24,-3.23 c 0.33,-0.03 0.48,-0.21 0.44,-0.54 -1.15,-11.33 -2.35,-22.66 -3.59,-33.97 -1.14,-10.37 -14.35,-8.39 -21.34,-7.81 -4.65,0.38 -11.33,1.07 -20.02,2.07 -14.05,1.61 -12.29,10.23 -11.25,21.99 1.04,11.85 2.33,23.67 3.33,35.52 1,11.96 4.95,14.1 16.63,13.13 12.79,-1.05 25.48,-2.23 38.05,-3.52 0.41,-0.05 0.6,-0.28 0.56,-0.69 l -1.34,-15.48 c -0.03,-0.44 -0.27,-0.64 -0.7,-0.59 -8,0.81 -16,1.58 -24.01,2.33 -7.03,0.65 -8.16,-2.82 -8.28,-8.89 m 743.25,83.87 c 7.35,-6.68 11.94,-9 21.75,-10.07 7.84,-0.85 16.7,-0.3 24.98,-0.53 1.67,-0.05 3.28,-0.44 4.81,-1.16 19.79,-9.41 37.5,-18.66 53.12,-27.76 2.27,-1.33 4.32,-3.38 6.15,-6.16 0.19,-0.29 0.15,-0.55 -0.11,-0.78 -6.35,-5.64 -13.7,-9.65 -20.95,-13.96 -13.92,-8.27 -27.81,-17.91 -39.78,-25.23 -8.75,-5.35 -15.15,0.17 -24.27,4.35 -23.51,10.76 -51.39,22.39 -83.62,34.89 -0.93,0.36 -1.83,0.84 -2.7,1.44 -0.35,0.25 -0.35,0.5 0,0.75 11.99,8.61 23.65,17.66 34.98,27.14 8.16,6.83 18.61,7.61 24.89,16.98 0.21,0.33 0.46,0.36 0.75,0.1 m -100.82,6.99 c 3.41,-15.19 16.3,-23.08 31.38,-23.33 4.19,-0.07 8.4,-0.12 12.63,-0.13 0.45,0 0.49,-0.14 0.14,-0.42 -8.55,-6.73 -17.41,-13.03 -26.58,-18.88 -0.31,-0.19 -0.64,-0.27 -1.01,-0.22 -0.67,0.09 -1.33,0.26 -1.97,0.5 -62.73,23.76 -126.48,44.33 -191.26,61.72 -3.11,0.84 -5.11,3.05 -5.99,6.63 -0.08,0.33 -0.04,0.64 0.11,0.93 1.05,2.07 2.58,3.76 4.59,5.07 19.1,12.44 38.26,24.78 57.49,37.01 4.91,3.12 10.02,5.97 15.31,8.56 0.5,0.25 1.08,0.3 1.62,0.16 31.82,-8.48 63.24,-18.34 94.27,-29.59 2.15,-0.78 4.4,-0.9 4.59,-3.69 1,-14.66 1.46,-29.97 4.68,-44.32 M 140.92,753.68 c -0.26,-0.29 -0.03,-0.76 0.36,-0.72 l 26.29,2.51 c 0.34,0.03 0.64,-0.06 0.89,-0.28 11.19,-9.81 22.42,-19.57 33.69,-29.3 2.63,-2.27 5.08,-4.65 7.33,-7.14 0.61,-0.67 0.41,-1.73 -0.4,-2.13 -2.98,-1.49 -5.55,-1.86 -8.74,-2.36 C 126.85,702.56 76.9,694.64 50.5,690.51 c -9.77,-1.54 -12.87,0.16 -5.87,8.82 36.19,44.75 72.36,89.53 108.5,134.32 0.86,1.07 2,2.07 2.99,3.11 0.23,0.24 0.49,0.26 0.76,0.07 l 2.99,-2.19 c 0.25,-0.18 0.37,-0.42 0.37,-0.73 0.02,-16.9 0.02,-33.8 0,-50.69 -0.01,-4.92 -0.95,-8.25 -3.94,-11.76 -5.15,-6.04 -10.27,-11.97 -15.38,-17.78 m 1144.45,7.27 c -3.92,-11.1 -11.06,-19.67 -6.7,-32.28 1.81,-5.24 3.86,-10.47 6.17,-15.7 0.23,-0.52 -0.21,-1.09 -0.77,-1 -1.31,0.21 -2.74,0.49 -4.3,0.85 -27.32,6.29 -54.62,13.05 -82.05,18.77 -39.53,8.25 -79.18,15.8 -118.97,22.63 -1.63,0.28 -2.92,1.14 -3.87,2.57 -5.41,8.16 -7.87,16.22 -6.67,26.15 0.88,7.23 2.03,15.25 6.17,21.51 0.2,0.31 0.48,0.44 0.84,0.39 4.74,-0.64 10.52,-1.56 17.35,-2.76 65.23,-11.48 129.56,-24.22 192.46,-40.49 0.35,-0.09 0.46,-0.3 0.34,-0.64 m 249.64,50.53 c -0.61,-0.05 -0.88,-0.8 -0.42,-1.22 15.98,-14.44 29.34,-28.2 34.53,-49.8 2.33,-9.72 3.56,-21.05 2.41,-31 -0.81,-6.98 -4.64,-11.17 -11.5,-12.57 -12.13,-2.47 -27.66,-3.15 -41.21,-4.09 -9.68,-0.68 -20,1.49 -22.14,12.71 -1.24,6.51 -2.24,18.3 -3.01,35.39 -0.01,0.27 0.11,0.41 0.38,0.43 l 29.46,2.15 c 0.49,0.04 0.74,-0.19 0.75,-0.68 0.01,-5.67 0.08,-18.85 3.2,-23.38 3.5,-5.11 10.32,-3.24 12.08,2.31 3.19,10.02 -3.65,25.16 -9.95,32.83 -11.14,13.56 -24.17,24.92 -39.09,34.07 -0.33,0.21 -0.54,0.56 -0.57,0.94 l -1.99,24 c -0.03,0.27 0.09,0.41 0.36,0.43 l 75.46,5.67 c 0.31,0.02 0.47,-0.12 0.49,-0.43 l 1.62,-24.98 c 0.01,-0.26 -0.11,-0.4 -0.36,-0.42 l -30.5,-2.36 m 308.85,-37.36 c 8.01,-2.85 14.45,-6.31 14.11,-15.87 -0.31,-8.73 -1.02,-18.1 -2.11,-28.11 -0.84,-7.66 -2.83,-13.81 -10.34,-15.91 -4.52,-1.26 -10.01,-1.65 -16.46,-1.17 -9.17,0.69 -18.34,1.45 -27.5,2.28 -14.52,1.33 -20.81,4.5 -21.08,20.15 -0.11,6.51 0.31,13.01 1.24,19.51 0.04,0.29 0.21,0.42 0.5,0.4 l 29.59,-2.33 c 0.37,-0.03 0.55,-0.23 0.54,-0.61 -0.19,-4.8 -1.78,-14.48 5.42,-15.94 7.21,-1.47 8.7,9.32 9.24,14.22 1.01,9.22 -2.74,15.41 -12.95,14.98 -0.38,-0.02 -0.56,0.16 -0.53,0.55 l 1.61,19.45 c 0.03,0.32 0.33,0.53 0.64,0.46 6.98,-1.6 11.6,0.96 13.86,7.68 1.28,3.79 1.93,13.86 -0.79,17.79 -2.27,3.26 -7.19,4.19 -9.9,0.7 -2.45,-3.18 -2.81,-8.78 -2.99,-12.72 -0.01,-0.33 -0.18,-0.48 -0.51,-0.45 l -29.68,2.28 c -0.34,0.03 -0.51,0.21 -0.5,0.56 0.19,6.82 0.98,14.34 2.37,22.55 2.16,12.8 13.23,13.94 24.45,13.23 9.06,-0.57 18.12,-1.24 27.17,-1.99 4.4,-0.36 8.73,-1.14 12.99,-2.34 12.48,-3.51 10.11,-18 9.49,-27.59 -0.4,-6.2 -0.54,-17.95 -3.29,-23.34 -3.38,-6.62 -8.58,-5.87 -14.57,-7.62 -0.82,-0.24 -0.83,-0.51 -0.02,-0.8 m -111.59,41.38 c -0.35,0.05 -0.57,-0.36 -0.33,-0.62 7.71,-8.5 16.24,-18.25 21.28,-27.65 8.85,-16.53 11.13,-36.12 8.14,-54.51 -2.07,-12.68 -10.47,-14.18 -21.61,-14.17 -11.32,0.01 -22.63,0.27 -33.93,0.8 -14.73,0.69 -20.56,6.5 -20.2,21.4 0.23,9.61 0.48,19.21 0.76,28.81 0.01,0.24 0.2,0.42 0.44,0.41 l 29.9,-0.96 c 0.29,-0.01 0.43,-0.16 0.41,-0.46 -0.37,-6.22 -0.49,-12.44 -0.36,-18.67 0.12,-5.47 4.39,-10.67 9.78,-8.07 10.73,5.17 2.7,28.67 -1.52,35.43 -10.33,16.53 -22.91,27.75 -37.05,40.72 -0.25,0.23 -0.37,0.51 -0.36,0.85 l 0.6,23.46 c 0.01,0.37 0.19,0.54 0.55,0.53 l 75.07,-1.95 c 0.45,-0.01 0.68,-0.25 0.67,-0.7 l -0.6,-24.68 c -0.01,-0.41 -0.22,-0.61 -0.63,-0.6 l -30.03,0.83 c -0.2,0 -0.39,-0.05 -0.56,-0.14 -0.13,-0.07 -0.27,-0.09 -0.42,-0.06 m -65.84,-55.66 c 0.12,-7.65 0.66,-16.98 -0.17,-25.63 -0.66,-6.74 -2.84,-11.84 -9.76,-13.02 -16,-2.73 -33.01,-3.33 -51.02,-1.81 -13.38,1.13 -14.37,11.31 -14.66,22.12 -0.6,22.52 -1.18,45.04 -1.75,67.56 -0.12,4.74 -0.14,9.48 -0.05,14.21 0.19,10.56 3.43,15.59 14.24,16.91 11.39,1.39 22.83,1.93 34.3,1.63 20.29,-0.53 26.77,-2.06 27.44,-23.31 0.72,-22.89 1.2,-42.45 1.43,-58.66 M 298.82,826.42 c 5.08,-11.19 13.14,-19.64 23.72,-25.75 0.3,-0.18 0.26,-0.63 -0.07,-0.74 -8,-2.74 -15.89,-5.86 -23.68,-9.37 -9.49,-4.28 -18.45,-10.41 -27.38,-16.2 -2.84,-1.84 -4.81,-2.87 -5.92,-3.1 -22.36,-4.69 -44.62,-9.88 -66.77,-15.58 -0.33,-0.09 -0.64,-0.06 -0.94,0.09 -5.32,2.63 -10.21,5.9 -14.68,9.83 -8.34,7.34 -4.78,23.27 -2.21,32.74 0.11,0.39 0.39,0.7 0.77,0.83 12.39,4.3 25,8.03 37.82,11.2 25.98,6.43 52.19,11.91 78.64,16.42 0.33,0.06 0.56,-0.06 0.7,-0.37 m 746.31,-16.93 c 1.03,-0.19 2.57,-0.1 3.77,-0.41 0.43,-0.12 0.53,-0.37 0.29,-0.74 -8.74,-13.68 -7.9,-32.31 -3.64,-47.04 0.32,-1.11 -0.09,-1.58 -1.23,-1.41 -44.65,6.77 -89.39,12.83 -134.22,18.17 -0.33,0.04 -0.59,0.2 -0.78,0.47 -10.74,15.21 -17.12,32.42 -5.82,49.66 0.2,0.31 0.55,0.47 0.92,0.43 37.42,-4.09 74.61,-8.88 111.58,-14.37 12.69,-1.89 22.4,-3.47 29.13,-4.76 m -170.54,21.42 c -7,-15.31 -7.02,-33.32 0.56,-48.56 0.22,-0.45 0.08,-0.67 -0.42,-0.66 -1.66,0.03 -4.15,0.21 -7.48,0.56 -74.84,7.69 -152.59,12.43 -233.26,14.21 -27.78,0.62 -55.64,0.46 -83.46,0.59 -0.35,0 -0.66,0.1 -0.93,0.31 -17.16,12.9 -31.52,30.88 -45.33,47.08 -0.42,0.49 -0.08,1.25 0.56,1.27 123.25,4.06 246.71,-1.31 369.26,-13.93 0.42,-0.04 0.68,-0.48 0.5,-0.87 z" /><path
       id="path106"
       style="fill:#ffcc42;fill-opacity:1;fill-rule:nonzero;stroke:none"
       d="m 464.15,725.61 c -27.01,-8.69 -46.64,10.91 -58.43,32.29 -6.78,12.31 -13.4,24.71 -19.86,37.19 -0.14,0.29 -0.35,0.51 -0.63,0.66 -6.19,3.54 -12.57,4.61 -19.15,3.2 -6.69,-1.43 -14.17,-3.75 -22.45,-6.98 -10.41,-4.05 -20.76,-8.24 -31.06,-12.55 -34.1,-14.29 -65.49,-45.52 -85.98,-76.75 -4.81,-7.33 -10.44,-17.99 -16.93,-29.44 -9.8,-17.29 -18.52,-36.27 -26.16,-56.94 -4.3,-11.65 -6.49,-20.69 -7.92,-33.73 -1.38,-12.6 -2.37,-24.31 -2.97,-35.12 -1.28,-23.14 4.15,-47.62 11.88,-69.47 10.35,-29.23 24.66,-56.27 42.94,-81.1 8.43,-11.45 19.33,-21.85 28.43,-33.32 12.67,-15.98 21.58,-26.97 26.73,-32.96 31.53,-36.77 71.13,-69.33 115.66,-90.59 13.72,-6.56 27.33,-10.74 44.54,-15.74 26.71,-7.75 54.87,-1.63 77.6,13.87 28.2,19.23 53.2,41.99 74.99,68.26 14.76,17.79 26.79,34.51 36.08,50.16 9.19,15.46 15.17,25.3 17.96,29.52 9.28,14.06 17.96,30.29 26.05,48.7 12.95,29.49 23.33,57.72 31.12,84.67 7.7,26.66 13.2,57.22 12.1,88.06 -2.27,63.43 -36.01,120.2 -92.52,149.78 -21.35,11.18 -46.18,17.48 -70.11,19.79 -6.57,0.64 -10.65,0.78 -15.77,5.48 -16.2,14.9 -33.21,32.64 -47.84,51.52 -5.02,6.49 -9.39,14.64 -13.88,22.11 -6.35,10.56 -9.48,16.11 -21.09,18.03 -13.4,2.22 -26.52,0.37 -39.66,-1.1 -25.83,-2.89 -51.69,-5.6 -77.57,-8.13 -10.82,-1.05 -29.5,-2.11 -29.09,-18.48 0.7,-27.68 27.69,-41.07 52.19,-34.17 3.84,1.08 7.69,2.13 11.55,3.16 14.19,3.79 23.51,-8.21 28.39,-19.44 8.15,-18.79 17.01,-40.06 32.65,-52.86 10.51,-8.61 17.26,-13.16 28.22,-16.88 0.34,-0.11 0.33,-0.59 -0.01,-0.7 M 309.2204,360.0029 C 316.23,363.74 325.8,359.48 330.605,350.4832 335.41,341.48 333.63,331.16 326.6196,327.4171 319.61,323.68 310.04,327.94 305.235,336.9368 c -4.805,9.0032 -3.025,19.3232 3.9854,23.0661 m 68.0638,16.4965 C 384.99,378.48 393.29,372.07 395.8276,362.1811 398.37,352.3 394.18,342.68 386.4758,340.7006 378.77,338.72 370.47,345.13 367.9324,355.0189 365.39,364.9 369.58,374.52 377.2842,376.4994 M 351.31,467.82 c 17.29,-9.79 25.79,-28.03 29.79,-45.76 1.64,-7.27 5.17,-32.35 -9.88,-28.5 -16.1,4.11 -31.77,10.68 -49.65,16.26 -10.07,3.15 -9.99,13.27 -6.07,21.2 4.72,9.56 21.56,44.87 35.81,36.8 m 81.2,122.81 c -1.39,-0.25 -1.61,-0.9 -0.66,-1.95 3.26,-3.59 6.44,-6.92 9.55,-9.99 11.34,-11.2 14.74,-27.77 18,-42.72 3.65,-16.76 5.59,-36.51 1.02,-53.17 -0.91,-3.31 -5.67,-18.92 -8.66,-19.95 -0.35,-0.13 -0.57,-0.01 -0.64,0.36 -0.22,1.1 -0.57,2.62 -0.48,3.74 1.44,17.85 1.31,35.94 -1.61,53.68 -2.29,13.89 -5.57,34.13 -14.35,45.05 -3.62,4.49 -10.39,10.02 -13.8,16.74 -4.62,9.07 2.4,18.32 11.37,20.13 7.32,1.47 13.87,3 19.66,4.57 6.97,1.89 9.83,8.12 14.35,15.38 7.87,12.63 17.93,25.03 35.18,22.4 2.51,-0.38 4.2,-1.53 5.09,-3.44 5.27,-11.41 5.98,-23.49 2.15,-36.22 -1.63,-5.42 -3.89,-11.43 -4.74,-16.83 -1.25,-7.92 2.44,-17.41 6.53,-25.13 6.66,-12.54 7.8,-28.09 8.05,-42.01 0.33,-18.65 -3.76,-38.63 -15.49,-53.56 -0.25,-0.32 -0.77,-0.15 -0.77,0.26 -0.02,14.16 3.75,27.8 4.61,41.52 1.05,16.88 -1.75,38.28 -10.21,54.53 -4.15,7.98 -10.25,15.05 -6.84,25.2 4.21,12.54 8.45,23.01 7.81,37.02 -0.21,4.75 -4.23,10.17 -9.18,5.53 -8.37,-7.83 -15.06,-20.45 -21.29,-30.26 -4.79,-7.54 -10.21,-13.84 -15.97,-20.41 -0.36,-0.41 -0.54,-0.34 -0.55,0.2 l -0.15,11.87 c -0.01,0.37 -0.34,0.64 -0.7,0.58 z" /><path
       id="path108"
       style="fill:#ff8b45;fill-opacity:1;fill-rule:nonzero;stroke:none"
       d="m 1204.27,452.01 c -0.11,-1.73 0.21,-3.42 0.19,-5 -0.25,-17.22 -0.52,-34.44 -0.79,-51.66 -0.21,-13.58 -1.9,-23.91 -6.13,-35.79 -0.12,-0.35 0.13,-0.72 0.51,-0.73 l 75.57,-1.64 c 0.15,-0.01 0.28,0.12 0.28,0.27 0.75,30.91 1.4,61.82 1.95,92.73 0.23,13.05 1.49,28.76 -2.86,39.41 -7.51,18.36 -29.01,19.68 -47,20.29 -15.01,0.51 -39.34,1.03 -72.99,1.58 -16.04,0.26 -37.22,-2.46 -43.69,-19.54 -2.49,-6.57 -3.89,-14.13 -4.2,-22.68 -1.86,-51.39 -3.98,-103.58 -3.59,-151.94 0.13,-15.2 0.77,-35.47 7.03,-49.57 5.85,-13.19 17.59,-18.54 31.72,-20.4 9.72,-1.28 19.48,-2.02 29.29,-2.22 33.83,-0.71 67.67,-1.4 101.5,-2.07 0.35,-0.01 0.52,0.16 0.53,0.5 l 1.3,63.93 c 0.01,0.62 -0.28,0.85 -0.88,0.68 -27.58,-7.51 -58.01,-6.77 -85.99,-5.18 -8.15,0.46 -12.56,4.72 -13.23,12.78 -0.22,2.63 -0.23,9.07 -0.02,19.3 0.66,32.23 1.4,64.46 2.22,96.69 0.26,9.9 1.03,21.03 14.19,21.09 6.42,0.03 11.25,-0.02 14.48,-0.16 0.43,-0.01 0.64,-0.24 0.61,-0.67 z" /><path
       id="path110"
       style="fill:#ffcc42;fill-opacity:1;fill-rule:nonzero;stroke:none"
       d="m 1366.86,454.94 -0.95,54.23 c -0.01,0.7 -0.37,1.04 -1.08,1.03 l -69.33,-1.17 c -0.47,-0.01 -0.7,-0.25 -0.69,-0.72 1.89,-87.53 3.12,-154.8 3.68,-201.81 0.16,-13.93 0.39,-31.9 5.93,-43.2 8.49,-17.33 27.52,-18.24 45.02,-18.62 24.74,-0.54 49.46,-0.15 74.16,1.18 7.94,0.43 18.6,1.5 25.98,4.29 16.79,6.34 20.78,23.22 21.35,39.91 0.57,16.66 -0.49,39.08 -0.71,58.51 -0.63,54.34 -1.81,108.73 -3.02,163.06 -0.01,0.35 -0.18,0.53 -0.53,0.52 l -69.87,-1.39 c -0.52,-0.01 -0.93,-0.44 -0.92,-0.96 l 0.8,-54.55 c 0.01,-0.41 -0.33,-0.75 -0.74,-0.75 h -28.63 c -0.24,0 -0.44,0.2 -0.45,0.44 m 2.68,-59.83 26.76,0.56 c 0.87,0.02 1.59,-0.67 1.61,-1.55 l 1.52,-72.54 c 0.24,-11.34 -5.78,-20.67 -13.43,-20.83 l -2.2,-0.04 c -7.65,-0.16 -14.05,8.9 -14.29,20.24 l -1.52,72.55 c -0.01,0.87 0.68,1.59 1.55,1.61 z" /><path
       id="path112"
       style="fill:#ffcc42;fill-opacity:1;fill-rule:nonzero;stroke:none"
       d="m 1574.53,284.33 c 0.18,0.15 0.46,0.07 0.53,-0.16 3.7,-12.42 10.76,-22.82 22.94,-27.09 4.23,-1.48 10.34,-2.17 18.35,-2.08 19.01,0.23 45.94,-0.59 53.69,22.24 0.92,2.71 2.67,11.65 4.15,13.3 0.25,0.29 0.72,0.21 0.87,-0.14 4.15,-9.82 11.14,-20.34 20.82,-25.15 11.14,-5.54 25.6,-3.52 39.12,-2.47 18.14,1.39 35.53,7.68 37.27,28.73 0.54,6.52 0.69,13.66 0.46,21.43 -0.59,20.12 -3.69,53.19 -5.78,85.61 -2.83,43.78 -5.81,87.55 -8.92,131.32 -0.03,0.36 -0.22,0.53 -0.58,0.5 l -69.44,-4.96 c -0.75,-0.05 -1.32,-0.7 -1.26,-1.45 4.04,-58.25 8.01,-116.51 11.9,-174.78 0.63,-9.48 2.5,-23.99 -8.65,-28.36 -2.87,-1.13 -5.74,-1.24 -8.6,-0.35 -10.93,3.4 -11.22,20.86 -11.94,30.81 -3.36,46.29 -6.55,92.59 -9.56,138.9 -0.03,0.42 -0.52,0.63 -0.85,0.36 -6.54,-5.44 -16.52,-6.12 -24.28,-3.95 -2.3,0.64 -6.95,2.94 -13.96,6.91 -10.63,6.01 -21.43,11.33 -32.38,15.94 -0.72,0.3 -1.05,0.06 -1,-0.72 3.06,-46.63 6.21,-92.85 9.44,-138.65 1.45,-20.65 2.21,-34.5 2.27,-41.57 0.07,-9.57 -8.58,-17.99 -18.43,-14.76 -9.54,3.13 -10.7,17.54 -11.14,25.33 -3.66,64.83 -8.3,121.18 -10.49,155.24 -0.58,9.03 -1.22,16.26 -1.91,21.69 -0.05,0.43 -0.29,0.62 -0.72,0.59 l -69.14,-4.95 c -0.45,-0.03 -0.66,-0.27 -0.63,-0.72 4.46,-67.11 9.04,-134.19 13.73,-201.22 1.34,-19.14 1.06,-41.97 -2.61,-62.37 -0.08,-0.46 0.29,-0.88 0.76,-0.85 l 70.12,4.69 c 0.43,0.03 0.7,0.26 0.81,0.68 2.63,10.14 4.02,20.45 4.17,30.93 0.01,0.63 0.42,1.18 0.87,1.55 z" /><path
       id="path114"
       style="fill:#ff8b45;fill-opacity:1;fill-rule:nonzero;stroke:none"
       d="m 982.96,464.09 3.09,54.69 c 0.03,0.39 -0.16,0.6 -0.56,0.63 l -69.59,4.39 c -0.39,0.02 -0.61,-0.17 -0.64,-0.56 -0.7,-8.47 -1.29,-16.85 -1.78,-25.16 -3.56,-61.47 -7.19,-122.94 -10.88,-184.39 -1.21,-20.19 -1.41,-45.76 21.39,-53.21 7.31,-2.39 16.57,-4.05 27.78,-4.98 23.17,-1.93 44.44,-3.3 63.79,-4.13 11.67,-0.5 28.1,-0.66 38,3.98 16.6,7.77 19.63,27.69 20.71,44.97 3.92,62.45 7.77,124.91 11.56,187.37 0.62,10.18 1.02,18.5 1.19,24.97 0.01,0.43 -0.2,0.65 -0.63,0.68 -10.41,0.69 -31.53,1.94 -63.37,3.73 -2.89,0.17 -5.06,0.23 -6.51,0.18 -0.39,-0.01 -0.6,-0.21 -0.62,-0.6 l -3.22,-54.51 c -0.02,-0.29 -0.26,-0.51 -0.55,-0.49 l -28.44,1.63 c -0.51,0.03 -0.75,0.3 -0.72,0.81 m -2.36,-59.83 26.88,-1.55 c 0.79,-0.05 1.41,-0.74 1.36,-1.53 l -4.19,-72.62 c -0.66,-11.54 -7.67,-20.53 -15.66,-20.07 l -0.86,0.05 c -7.98,0.46 -13.91,10.19 -13.25,21.73 l 4.19,72.62 c 0.05,0.8 0.73,1.41 1.53,1.37 z" /><path
       id="path116"
       style="fill:#ff5d48;fill-opacity:1;fill-rule:nonzero;stroke:none"
       d="m 803.91,414.56 c 12.47,-15.81 10.38,-33.46 8.6,-52.14 -2.53,-26.67 -5.09,-53.33 -7.68,-79.98 -0.47,-4.77 -0.8,-9.56 -1,-14.35 -0.02,-0.43 0.19,-0.67 0.62,-0.71 l 69.05,-7.14 c 0.33,-0.03 0.51,0.12 0.54,0.45 3.15,30.6 6.19,61.19 9.11,91.77 1.35,14.12 2.84,29.83 -0.11,43.03 -5.77,25.79 -18.43,47.47 -37.98,65.04 -1.54,1.38 5,61.45 5.69,68.51 0.05,0.49 -0.31,0.92 -0.8,0.97 L 781,536.88 c -0.83,0.09 -1.29,-0.29 -1.37,-1.13 l -6.57,-66.39 c -0.04,-0.4 -0.2,-0.74 -0.49,-1.01 -0.4,-0.38 -1.09,-1.1 -1.55,-1.38 -18.03,-10.69 -32.59,-25.38 -43.66,-44.08 -9.42,-15.91 -12.25,-31.62 -14.03,-49.45 -3.17,-31.77 -6.27,-63.57 -9.32,-95.4 -0.04,-0.4 0.26,-0.77 0.67,-0.81 l 68.63,-7 c 0.65,-0.07 1.22,0.4 1.29,1.05 3.46,34.42 7,68.99 10.61,103.7 1.62,15.57 4.97,30.38 18,39.68 0.27,0.19 0.5,0.15 0.7,-0.1 z" /><path
       id="path118"
       style="fill:#ffcc42;fill-opacity:1;fill-rule:nonzero;stroke:none"
       d="m 1848.4383,541.081 c -0.048,0.399 -0.4083,0.689 -0.8045,0.6469 l -69.5111,-7.5514 c -0.4027,-0.0465 -0.6927,-0.4065 -0.6469,-0.8045 l 28.5659,-262.953 c 0.048,-0.399 0.4083,-0.689 0.8045,-0.6469 l 69.5111,7.5514 c 0.4027,0.0465 0.6927,0.4065 0.6469,0.8045 z" /><path
       id="path120"
       style="fill:#ffcc42;fill-opacity:1;fill-rule:nonzero;stroke:none"
       d="m 108.22,357.13 c 0.06,-0.25 0.02,-0.52 -0.12,-0.8 -8.48,-17.06 -14.33,-34.97 -17.54,-53.74 -1.73,-10.09 -1.04,-16.62 3.79,-25.07 8.3,-14.53 24.69,0.04 30.38,8.25 13.98,20.15 25.52,42.57 32.78,66.21 6.76,21.97 17.65,42.22 31.74,64.79 0.49,0.79 1.28,2.29 2.35,4.51 0.15,0.31 0.15,0.62 0.02,0.93 -1.45,3.39 -3.02,6.72 -4.69,9.97 -11.04,21.51 -20.14,44.26 -24.89,68.02 -0.08,0.42 -0.66,0.48 -0.83,0.09 -5.07,-11.41 -9.91,-22.89 -14.54,-34.46 -5.89,-14.71 -13.66,-31.17 -18.26,-43.01 -2.63,-6.78 -5.55,-10.9 -12.37,-13.58 -8.35,-3.27 -15.76,-7.37 -22.23,-12.28 -11.87,-9.01 -15.95,-26.9 -11.86,-40.76 2.01,-6.81 6.41,-13.41 14.36,-9.92 4.29,1.89 8.32,7 11.31,10.97 0.17,0.23 0.53,0.16 0.6,-0.12 z" /><path
       id="path122"
       style="fill:#ffffff;fill-opacity:1;fill-rule:nonzero;stroke:none"
       d="m 1369.54,395.11 c -0.87,-0.02 -1.56,-0.74 -1.55,-1.61 l 1.52,-72.55 c 0.24,-11.34 6.64,-20.4 14.29,-20.24 l 2.2,0.04 c 7.65,0.16 13.67,9.49 13.43,20.83 l -1.52,72.54 c -0.02,0.88 -0.74,1.57 -1.61,1.55 z" /><path
       id="path124"
       style="fill:#ffffff;fill-opacity:1;fill-rule:nonzero;stroke:none"
       d="m 980.6,404.26 c -0.8,0.04 -1.48,-0.57 -1.53,-1.37 l -4.19,-72.62 c -0.66,-11.54 5.27,-21.27 13.25,-21.73 l 0.86,-0.05 c 7.99,-0.46 15,8.53 15.66,20.07 l 4.19,72.62 c 0.05,0.79 -0.57,1.48 -1.36,1.53 z" /><path
       id="path126"
       style="fill:#ffffff;fill-opacity:1;fill-rule:nonzero;stroke:none"
       d="M 309.2204,360.0029 C 302.21,356.26 300.43,345.94 305.235,336.9368 310.04,327.94 319.61,323.68 326.6196,327.4171 333.63,331.16 335.41,341.48 330.605,350.4832 325.8,359.48 316.23,363.74 309.2204,360.0029 Z" /><path
       id="path128"
       style="fill:#ffffff;fill-opacity:1;fill-rule:nonzero;stroke:none"
       d="M 377.2842,376.4994 C 369.58,374.52 365.39,364.9 367.9324,355.0189 370.47,345.13 378.77,338.72 386.4758,340.7006 394.18,342.68 398.37,352.3 395.8276,362.1811 393.29,372.07 384.99,378.48 377.2842,376.4994 Z" /><path
       id="path130"
       style="fill:#ffffff;fill-opacity:1;fill-rule:nonzero;stroke:none"
       d="m 381.1,422.06 c -4,17.73 -12.5,35.97 -29.79,45.76 -14.25,8.07 -31.09,-27.24 -35.81,-36.8 -3.92,-7.93 -4,-18.05 6.07,-21.2 17.88,-5.58 33.55,-12.15 49.65,-16.26 15.05,-3.85 11.52,21.23 9.88,28.5 m -7.5,-17.78 c -0.08,-0.9 0.06,-2.81 -0.17,-4.06 -0.07,-0.39 -0.3,-0.53 -0.68,-0.42 -9.63,2.85 -16.36,5.1 -20.19,6.77 -10.06,4.37 -17.13,19.71 -20.48,29.47 -0.67,1.94 -1.73,3.55 -0.77,5.67 1.65,3.65 7.65,14.93 11.65,16.96 1.71,0.87 3.57,0.72 5.57,-0.44 17.55,-10.18 26.82,-34.3 25.07,-53.95 m -47.8,28.26 c 2.82,-8.55 5.27,-13.43 8.03,-19.23 0.16,-0.34 -0.17,-0.71 -0.52,-0.58 -3.71,1.32 -16.66,4.31 -13.99,9.98 0.71,1.51 2.69,4.81 5.93,9.9 0.23,0.36 0.42,0.34 0.55,-0.07 z" /><path
       id="path132"
       style="fill:#ffcc42;fill-opacity:1;fill-rule:nonzero;stroke:none"
       d="m 373.6,404.28 c 1.75,19.65 -7.52,43.77 -25.07,53.95 -2,1.16 -3.86,1.31 -5.57,0.44 -4,-2.03 -10,-13.31 -11.65,-16.96 -0.96,-2.12 0.1,-3.73 0.77,-5.67 3.35,-9.76 10.42,-25.1 20.48,-29.47 3.83,-1.67 10.56,-3.92 20.19,-6.77 0.38,-0.11 0.61,0.03 0.68,0.42 0.23,1.25 0.09,3.16 0.17,4.06 z" /><path
       id="path134"
       style="fill:#ffcc42;fill-opacity:1;fill-rule:nonzero;stroke:none"
       d="m 333.83,413.31 c -2.76,5.8 -5.21,10.68 -8.03,19.23 -0.13,0.41 -0.32,0.43 -0.55,0.07 -3.24,-5.09 -5.22,-8.39 -5.93,-9.9 -2.67,-5.67 10.28,-8.66 13.99,-9.98 0.35,-0.13 0.68,0.24 0.52,0.58 z" /><path
       id="path136"
       style="fill:#ffffff;fill-opacity:1;fill-rule:nonzero;stroke:none"
       d="m 432.51,590.63 17.28,3.12 c 0.36,0.06 0.69,-0.21 0.7,-0.58 l 0.15,-11.87 c 0.01,-0.54 0.19,-0.61 0.55,-0.2 5.76,6.57 11.18,12.87 15.97,20.41 6.23,9.81 12.92,22.43 21.29,30.26 4.95,4.64 8.97,-0.78 9.18,-5.53 0.64,-14.01 -3.6,-24.48 -7.81,-37.02 -3.41,-10.15 2.69,-17.22 6.84,-25.2 8.46,-16.25 11.26,-37.65 10.21,-54.53 -0.86,-13.72 -4.63,-27.36 -4.61,-41.52 0,-0.41 0.52,-0.58 0.77,-0.26 11.73,14.93 15.82,34.91 15.49,53.56 -0.25,13.92 -1.39,29.47 -8.05,42.01 -4.09,7.72 -7.78,17.21 -6.53,25.13 0.85,5.4 3.11,11.41 4.74,16.83 3.83,12.73 3.12,24.81 -2.15,36.22 -0.89,1.91 -2.58,3.06 -5.09,3.44 -17.25,2.63 -27.31,-9.77 -35.18,-22.4 -4.52,-7.26 -7.38,-13.49 -14.35,-15.38 -5.79,-1.57 -12.34,-3.1 -19.66,-4.57 -8.97,-1.81 -15.99,-11.06 -11.37,-20.13 3.41,-6.72 10.18,-12.25 13.8,-16.74 8.78,-10.92 12.06,-31.16 14.35,-45.05 2.92,-17.74 3.05,-35.83 1.61,-53.68 -0.09,-1.12 0.26,-2.64 0.48,-3.74 0.07,-0.37 0.29,-0.49 0.64,-0.36 2.99,1.03 7.75,16.64 8.66,19.95 4.57,16.66 2.63,36.41 -1.02,53.17 -3.26,14.95 -6.66,31.52 -18,42.72 -3.11,3.07 -6.29,6.4 -9.55,9.99 -0.95,1.05 -0.73,1.7 0.66,1.95 z" /><path
       id="path138"
       style="fill:#ff5d48;fill-opacity:1;fill-rule:nonzero;stroke:none"
       d="m 1549.54,546.27 c 31.33,-13.65 58.85,-26.75 88.7,-42.56 2.08,-1.1 3.69,-1.63 4.84,-1.6 2.63,0.09 5.87,2.88 5.15,5.89 -1.2,5.06 -3.12,10.42 -4.24,15.02 -6.43,26.43 -13.04,52.82 -19.84,79.16 -1.03,4 -1.47,6.52 -5.36,8.57 -6.4,3.39 -11.1,5.77 -14.11,7.15 -28.8,13.23 -57.96,25.59 -87.49,37.08 -0.39,0.15 -0.54,0.02 -0.45,-0.39 0.25,-1.16 0.66,-2.51 1.25,-4.05 12.75,-33.09 22.59,-67.02 29.51,-101.8 0.23,-1.15 0.91,-1.98 2.04,-2.47 z" /><path
       id="path140"
       style="fill:#585757;fill-opacity:1;fill-rule:nonzero;stroke:none"
       d="m 1269.785,638.7908 c -0.01,0.2092 -0.175,0.3692 -0.3745,0.3655 l -21.2384,-0.2595 c -0.2021,-0.007 -0.3721,-0.1668 -0.3655,-0.3745 l 1.1284,-92.3531 c 0.01,-0.2092 0.175,-0.3692 0.3745,-0.3655 l 21.2384,0.2595 c 0.2021,0.007 0.3721,0.1668 0.3655,0.3745 z" /><path
       id="path142"
       style="fill:#585757;fill-opacity:1;fill-rule:nonzero;stroke:none"
       d="m 1052.347,563.5706 c 0,0.1794 -0.137,0.3394 -0.3153,0.3441 l -21.4395,0.9361 c -0.1822,0.009 -0.3322,-0.1308 -0.3441,-0.3153 l -0.6351,-14.5461 c 0,-0.1794 0.137,-0.3394 0.3153,-0.3441 l 21.4395,-0.9361 c 0.1822,-0.009 0.3322,0.1308 0.3441,0.3153 z" /><path
       id="path144"
       style="fill:#ff5d48;fill-opacity:1;fill-rule:nonzero;stroke:none"
       d="m 1496.16,567.53 c 9.93,-3.83 19.89,-7.59 29.89,-11.29 0.21,-0.07 0.41,0.11 0.37,0.32 -7.33,34.45 -17.81,67.91 -31.46,100.38 -3.8,9.03 -8.68,9.9 -17.41,13.1 -41.09,15.09 -84.22,29.04 -129.38,41.85 -16.04,4.55 -32.01,9.52 -46.5,10.84 -0.35,0.03 -0.63,-0.1 -0.82,-0.41 -2.67,-4.27 1.95,-18.42 3.35,-23.43 6.17,-22.15 12.2,-44.35 18.09,-66.58 0.67,-2.55 2.51,-9.01 5.14,-10.07 0.73,-0.29 1.67,-0.6 2.84,-0.91 56.27,-14.95 111.57,-32.88 165.89,-53.8 z" /><path
       id="path146"
       style="fill:#585757;fill-opacity:1;fill-rule:nonzero;stroke:none"
       d="m 970.82,593.81 -4.78,0.51 c -0.4,0.05 -0.61,-0.13 -0.62,-0.53 l -0.78,-15.97 c -0.02,-0.38 0.16,-0.57 0.54,-0.57 h 4.68 c 0.4,0 0.59,-0.2 0.57,-0.6 l -0.87,-15.92 c -0.01,-0.33 0.14,-0.5 0.46,-0.51 l 21.16,-1.23 c 0.35,-0.02 0.54,0.15 0.55,0.5 l 0.61,15.28 c 0.02,0.49 0.44,0.88 0.93,0.86 l 9.43,-0.34 c 0.28,-0.01 0.43,0.13 0.45,0.41 l 0.95,15.76 c 0.02,0.31 -0.12,0.47 -0.43,0.49 l -9.7,0.63 c -0.24,0.02 -0.43,0.23 -0.42,0.47 0.47,10.43 1.14,20.82 1.99,31.19 0.37,4.43 6.9,2.94 9.95,3.04 0.43,0.01 0.65,0.24 0.68,0.67 l 0.94,15.31 c 0.02,0.33 -0.14,0.52 -0.47,0.55 -11.73,0.99 -19.28,1.39 -22.63,1.2 -8.99,-0.53 -10.26,-10.48 -10.62,-17.97 -0.52,-10.91 -1.17,-21.81 -1.94,-32.7 -0.03,-0.39 -0.24,-0.57 -0.63,-0.53 z" /><path
       id="path148"
       style="fill:#585757;fill-opacity:1;fill-rule:nonzero;stroke:none"
       d="m 1195.36,632.43 c -3.71,8.6 -11.59,6.71 -19.24,6.62 -6.62,-0.09 -9.93,-1.41 -10.95,-8.19 -2.5,-16.67 -1.25,-35.18 -1.2,-52.1 0.03,-11.77 11.47,-13 20.61,-11.55 4.84,0.77 7.53,2.87 10.42,6.56 0.39,0.5 1.19,0.2 1.16,-0.43 l -0.22,-4.67 c -0.04,-0.85 0.36,-1.26 1.2,-1.25 l 20.34,0.37 c 0.41,0.01 0.61,0.22 0.61,0.63 l 0.22,69.73 c 0.01,0.35 -0.17,0.53 -0.52,0.54 l -19.71,0.28 c -1.04,0.02 -1.87,-0.85 -1.81,-1.89 l 0.25,-4.37 c 0.04,-0.68 -0.89,-0.9 -1.16,-0.28 m 0.4755,-43.8751 c -0.015,-2.5849 -2.1155,-4.6649 -4.7044,-4.6555 l -0.32,0.002 c -2.5811,0.009 -4.6711,2.1189 -4.6554,4.7044 l 0.1488,28.4196 c 0.015,2.5849 2.1155,4.6649 4.7044,4.6555 l 0.32,-0.002 c 2.5811,-0.009 4.6711,-2.1189 4.6554,-4.7044 z" /><path
       id="path150"
       style="fill:#585757;fill-opacity:1;fill-rule:nonzero;stroke:none"
       d="m 1110.19,621.05 c 2.49,-5.01 3.81,-9.88 3.98,-14.62 0.34,-9.97 0.15,-22.43 -0.58,-37.39 -0.01,-0.28 0.12,-0.42 0.39,-0.43 l 21.09,-0.68 c 0.39,-0.01 0.59,0.17 0.6,0.56 0.34,12.01 1.55,26.28 0.16,36.7 -1.66,12.46 -6.37,23.84 -14.12,34.13 -0.19,0.25 -0.44,0.38 -0.75,0.39 l -21.18,0.72 c -0.31,0.01 -0.57,-0.11 -0.76,-0.35 -8.87,-10.99 -15.21,-23.94 -16.44,-38.14 -0.56,-6.41 -0.91,-17.09 -1.04,-32.02 0,-0.33 0.17,-0.51 0.5,-0.52 l 20.95,-0.75 c 0.37,-0.01 0.55,0.17 0.56,0.54 0.17,11.71 0.59,23.37 1.26,34.98 0.35,6.02 1.91,11.65 4.69,16.88 0.23,0.44 0.46,0.44 0.69,0 z" /><path
       id="path152"
       style="fill:#585757;fill-opacity:1;fill-rule:nonzero;stroke:none"
       d="m 778.44,593.66 7.07,-0.87 c 0.37,-0.04 0.57,0.12 0.6,0.48 l 1.72,15.83 c 0.04,0.35 -0.12,0.54 -0.47,0.57 l -6.24,0.5 c -0.62,0.05 -1.07,0.6 -1,1.22 l 5.6,49.93 c 0.05,0.41 -0.13,0.63 -0.54,0.68 l -20.77,2.45 c -0.42,0.05 -0.65,-0.13 -0.7,-0.56 l -5.74,-50.23 c -0.07,-0.6 -0.4,-0.85 -0.99,-0.75 l -4.39,0.7 c -0.33,0.05 -0.64,-0.18 -0.68,-0.52 l -1.73,-15.41 c -0.06,-0.56 0.35,-1.05 0.91,-1.09 l 4.33,-0.31 c 0.43,-0.03 0.62,-0.26 0.57,-0.69 -0.73,-6.36 -3.13,-18.01 3.05,-22.54 4.52,-3.32 17.4,-3.74 23.76,-4.51 0.33,-0.03 0.51,0.11 0.54,0.43 l 1.74,15.76 c 0.03,0.24 -0.08,0.39 -0.31,0.45 l -6.03,1.55 c -0.45,0.11 -0.69,0.4 -0.72,0.87 l -0.36,5.32 c -0.04,0.56 0.22,0.81 0.78,0.74 z" /><path
       id="path154"
       style="fill:#585757;fill-opacity:1;fill-rule:nonzero;stroke:none"
       d="m 1055.6258,641.5469 c 0,0.1431 -0.1058,0.2631 -0.2484,0.2711 l -21.4395,0.936 c -0.1479,0.006 -0.2679,-0.104 -0.2711,-0.2484 l -3.0926,-70.8325 c 0,-0.1431 0.1058,-0.2631 0.2484,-0.2711 l 21.4395,-0.936 c 0.1479,-0.006 0.2679,0.104 0.2711,0.2484 z" /><path
       id="path156"
       style="fill:#ff8b45;fill-opacity:1;fill-rule:nonzero;stroke:none"
       d="m 1644.2,581.49 c 4.63,-3.12 13.93,-6.75 16.8,-7.31 4.35,-0.85 6.72,2.6 9.25,6.33 4.9,7.19 12.31,23.18 7.89,31.75 -2.41,4.67 -17.64,11.3 -22.87,13.84 -0.6,0.29 -1.32,0.22 -1.86,-0.18 l -17.04,-12.58 c -0.29,-0.22 -0.4,-0.51 -0.31,-0.86 l 7.58,-30.19 c 0.09,-0.34 0.27,-0.61 0.56,-0.8 z" /><path
       id="path158"
       style="fill:#585757;fill-opacity:1;fill-rule:nonzero;stroke:none"
       d="m 918.41,595.8 0.54,7.18 c 0.03,0.4 0.24,0.59 0.64,0.56 3.8,-0.2 7.88,-0.95 11.66,-0.61 9.56,0.86 10.01,4.44 11.26,13.15 1.03,7.15 1.38,14.35 1.06,21.59 -0.28,6.36 -3.78,10.29 -10.13,10.93 -10.79,1.09 -21.63,1.99 -32.53,2.68 -0.3,0.02 -0.56,-0.21 -0.58,-0.51 l -1.04,-15.78 c -0.02,-0.33 0.14,-0.51 0.47,-0.53 l 20.27,-1.52 c 0.6,-0.05 0.89,-0.37 0.86,-0.97 l -0.28,-7.68 c -0.02,-0.45 -0.25,-0.65 -0.7,-0.61 -3.63,0.31 -7.22,0.62 -10.75,0.92 -6.09,0.53 -10.02,-0.24 -10.86,-6.87 -1.22,-9.61 -1.9,-18.59 -2.05,-26.93 -0.15,-8.93 3.93,-11.14 12.43,-11.74 9.42,-0.67 18.83,-1.44 28.23,-2.31 0.36,-0.03 0.55,0.14 0.56,0.49 l 0.83,15.96 c 0.01,0.35 -0.15,0.53 -0.5,0.56 l -18.84,1.39 c -0.4,0.03 -0.58,0.25 -0.55,0.65 z" /><path
       id="path160"
       style="fill:#585757;fill-opacity:1;fill-rule:nonzero;stroke:none"
       d="m 839.22,630.08 c 0.12,6.07 1.25,9.54 8.28,8.89 8.01,-0.75 16.01,-1.52 24.01,-2.33 0.43,-0.05 0.67,0.15 0.7,0.59 l 1.34,15.48 c 0.04,0.41 -0.15,0.64 -0.56,0.69 -12.57,1.29 -25.26,2.47 -38.05,3.52 -11.68,0.97 -15.63,-1.17 -16.63,-13.13 -1,-11.85 -2.29,-23.67 -3.33,-35.52 -1.04,-11.76 -2.8,-20.38 11.25,-21.99 8.69,-1 15.37,-1.69 20.02,-2.07 6.99,-0.58 20.2,-2.56 21.34,7.81 1.24,11.31 2.44,22.64 3.59,33.97 0.04,0.33 -0.11,0.51 -0.44,0.54 l -31.24,3.23 c -0.19,0.02 -0.29,0.13 -0.28,0.32 m -0.73,-14.05 8.79,-0.89 c 0.33,-0.04 0.57,-0.33 0.54,-0.66 l -0.56,-5.5 c -0.45,-4.41 -2.99,-7.77 -5.68,-7.5 l -0.25,0.03 c -2.69,0.27 -4.51,4.07 -4.06,8.48 l 0.56,5.5 c 0.03,0.33 0.33,0.57 0.66,0.54 z" /><path
       id="path162"
       style="fill:#ffffff;fill-opacity:1;fill-rule:nonzero;stroke:none"
       d="m 1195.9843,616.9745 c 0.016,2.5855 -2.0743,4.6955 -4.6554,4.7044 l -0.32,0.002 c -2.5889,0.009 -4.6889,-2.0706 -4.7044,-4.6555 l -0.1488,-28.4196 c -0.016,-2.5855 2.0743,-4.6955 4.6554,-4.7044 l 0.32,-0.002 c 2.5889,-0.009 4.6889,2.0706 4.7044,4.6555 z" /><path
       id="path164"
       style="fill:#ffffff;fill-opacity:1;fill-rule:nonzero;stroke:none"
       d="m 838.49,616.03 c -0.33,0.03 -0.63,-0.21 -0.66,-0.54 l -0.56,-5.5 c -0.45,-4.41 1.37,-8.21 4.06,-8.48 l 0.25,-0.03 c 2.69,-0.27 5.23,3.09 5.68,7.5 l 0.56,5.5 c 0.03,0.33 -0.21,0.62 -0.54,0.66 z" /><path
       id="path166"
       style="fill:#ff5d48;fill-opacity:1;fill-rule:nonzero;stroke:none"
       d="m 1604.22,703.88 c -9.81,1.07 -14.4,3.39 -21.75,10.07 -0.29,0.26 -0.54,0.23 -0.75,-0.1 -6.28,-9.37 -16.73,-10.15 -24.89,-16.98 -11.33,-9.48 -22.99,-18.53 -34.98,-27.14 -0.35,-0.25 -0.35,-0.5 0,-0.75 0.87,-0.6 1.77,-1.08 2.7,-1.44 32.23,-12.5 60.11,-24.13 83.62,-34.89 9.12,-4.18 15.52,-9.7 24.27,-4.35 11.97,7.32 25.86,16.96 39.78,25.23 7.25,4.31 14.6,8.32 20.95,13.96 0.26,0.23 0.3,0.49 0.11,0.78 -1.83,2.78 -3.88,4.83 -6.15,6.16 -15.62,9.1 -33.33,18.35 -53.12,27.76 -1.53,0.72 -3.14,1.11 -4.81,1.16 -8.28,0.23 -17.14,-0.32 -24.98,0.53 z" /><path
       id="path168"
       style="fill:#ff5d48;fill-opacity:1;fill-rule:nonzero;stroke:none"
       d="m 1513.03,697.61 c -15.08,0.25 -27.97,8.14 -31.38,23.33 -3.22,14.35 -3.68,29.66 -4.68,44.32 -0.19,2.79 -2.44,2.91 -4.59,3.69 -31.03,11.25 -62.45,21.11 -94.27,29.59 -0.54,0.14 -1.12,0.09 -1.62,-0.16 -5.29,-2.59 -10.4,-5.44 -15.31,-8.56 -19.23,-12.23 -38.39,-24.57 -57.49,-37.01 -2.01,-1.31 -3.54,-3 -4.59,-5.07 -0.15,-0.29 -0.19,-0.6 -0.11,-0.93 0.88,-3.58 2.88,-5.79 5.99,-6.63 64.78,-17.39 128.53,-37.96 191.26,-61.72 0.64,-0.24 1.3,-0.41 1.97,-0.5 0.37,-0.05 0.7,0.03 1.01,0.22 9.17,5.85 18.03,12.15 26.58,18.88 0.35,0.28 0.31,0.42 -0.14,0.42 -4.23,0.01 -8.44,0.06 -12.63,0.13 z" /><path
       id="path170"
       style="fill:#ff5d48;fill-opacity:1;fill-rule:nonzero;stroke:none"
       d="m 140.92,753.68 c 5.11,5.81 10.23,11.74 15.38,17.78 2.99,3.51 3.93,6.84 3.94,11.76 0.02,16.89 0.02,33.79 0,50.69 0,0.31 -0.12,0.55 -0.37,0.73 l -2.99,2.19 c -0.27,0.19 -0.53,0.17 -0.76,-0.07 -0.99,-1.04 -2.13,-2.04 -2.99,-3.11 -36.14,-44.79 -72.31,-89.57 -108.5,-134.32 -7,-8.66 -3.9,-10.36 5.87,-8.82 26.4,4.13 76.35,12.05 149.84,23.75 3.19,0.5 5.76,0.87 8.74,2.36 0.81,0.4 1.01,1.46 0.4,2.13 -2.25,2.49 -4.7,4.87 -7.33,7.14 -11.27,9.73 -22.5,19.49 -33.69,29.3 -0.25,0.22 -0.55,0.31 -0.89,0.28 l -26.29,-2.51 c -0.39,-0.04 -0.62,0.43 -0.36,0.72 z" /><path
       id="path172"
       style="fill:#ff8b45;fill-opacity:1;fill-rule:nonzero;stroke:none"
       d="m 1278.67,728.67 c -4.36,12.61 2.78,21.18 6.7,32.28 0.12,0.34 0.01,0.55 -0.34,0.64 -62.9,16.27 -127.23,29.01 -192.46,40.49 -6.83,1.2 -12.61,2.12 -17.35,2.76 -0.36,0.05 -0.64,-0.08 -0.84,-0.39 -4.14,-6.26 -5.29,-14.28 -6.17,-21.51 -1.2,-9.93 1.26,-17.99 6.67,-26.15 0.95,-1.43 2.24,-2.29 3.87,-2.57 39.79,-6.83 79.44,-14.38 118.97,-22.63 27.43,-5.72 54.73,-12.48 82.05,-18.77 1.56,-0.36 2.99,-0.64 4.3,-0.85 0.56,-0.09 1,0.48 0.77,1 -2.31,5.23 -4.36,10.46 -6.17,15.7 z" /><path
       id="path174"
       style="fill:#585757;fill-opacity:1;fill-rule:nonzero;stroke:none"
       d="m 1535.01,811.48 30.5,2.36 c 0.25,0.02 0.37,0.16 0.36,0.42 l -1.62,24.98 c -0.02,0.31 -0.18,0.45 -0.49,0.43 L 1488.3,834 c -0.27,-0.02 -0.39,-0.16 -0.36,-0.43 l 1.99,-24 c 0.03,-0.38 0.24,-0.73 0.57,-0.94 14.92,-9.15 27.95,-20.51 39.09,-34.07 6.3,-7.67 13.14,-22.81 9.95,-32.83 -1.76,-5.55 -8.58,-7.42 -12.08,-2.31 -3.12,4.53 -3.19,17.71 -3.2,23.38 -0.01,0.49 -0.26,0.72 -0.75,0.68 l -29.46,-2.15 c -0.27,-0.02 -0.39,-0.16 -0.38,-0.43 0.77,-17.09 1.77,-28.88 3.01,-35.39 2.14,-11.22 12.46,-13.39 22.14,-12.71 13.55,0.94 29.08,1.62 41.21,4.09 6.86,1.4 10.69,5.59 11.5,12.57 1.15,9.95 -0.08,21.28 -2.41,31 -5.19,21.6 -18.55,35.36 -34.53,49.8 -0.46,0.42 -0.19,1.17 0.42,1.22 z" /><path
       id="path176"
       style="fill:#585757;fill-opacity:1;fill-rule:nonzero;stroke:none"
       d="m 1843.88,774.92 c 5.99,1.75 11.19,1 14.57,7.62 2.75,5.39 2.89,17.14 3.29,23.34 0.62,9.59 2.99,24.08 -9.49,27.59 -4.26,1.2 -8.59,1.98 -12.99,2.34 -9.05,0.75 -18.11,1.42 -27.17,1.99 -11.22,0.71 -22.29,-0.43 -24.45,-13.23 -1.39,-8.21 -2.18,-15.73 -2.37,-22.55 -0.01,-0.35 0.16,-0.53 0.5,-0.56 l 29.68,-2.28 c 0.33,-0.03 0.5,0.12 0.51,0.45 0.18,3.94 0.54,9.54 2.99,12.72 2.71,3.49 7.63,2.56 9.9,-0.7 2.72,-3.93 2.07,-14 0.79,-17.79 -2.26,-6.72 -6.88,-9.28 -13.86,-7.68 -0.31,0.07 -0.61,-0.14 -0.64,-0.46 l -1.61,-19.45 c -0.03,-0.39 0.15,-0.57 0.53,-0.55 10.21,0.43 13.96,-5.76 12.95,-14.98 -0.54,-4.9 -2.03,-15.69 -9.24,-14.22 -7.2,1.46 -5.61,11.14 -5.42,15.94 0.01,0.38 -0.17,0.58 -0.54,0.61 l -29.59,2.33 c -0.29,0.02 -0.46,-0.11 -0.5,-0.4 -0.93,-6.5 -1.35,-13 -1.24,-19.51 0.27,-15.65 6.56,-18.82 21.08,-20.15 9.16,-0.83 18.33,-1.59 27.5,-2.28 6.45,-0.48 11.94,-0.09 16.46,1.17 7.51,2.1 9.5,8.25 10.34,15.91 1.09,10.01 1.8,19.38 2.11,28.11 0.34,9.56 -6.1,13.02 -14.11,15.87 -0.81,0.29 -0.8,0.56 0.02,0.8 z" /><path
       id="path178"
       style="fill:#585757;fill-opacity:1;fill-rule:nonzero;stroke:none"
       d="m 1732.27,815.5 c 0.15,-0.03 0.29,-0.01 0.42,0.06 0.17,0.09 0.36,0.14 0.56,0.14 l 30.03,-0.83 c 0.41,-0.01 0.62,0.19 0.63,0.6 l 0.6,24.68 c 0.01,0.45 -0.22,0.69 -0.67,0.7 l -75.07,1.95 c -0.36,0.01 -0.54,-0.16 -0.55,-0.53 l -0.6,-23.46 c -0.01,-0.34 0.11,-0.62 0.36,-0.85 14.14,-12.97 26.72,-24.19 37.05,-40.72 4.22,-6.76 12.25,-30.26 1.52,-35.43 -5.39,-2.6 -9.66,2.6 -9.78,8.07 -0.13,6.23 -0.01,12.45 0.36,18.67 0.02,0.3 -0.12,0.45 -0.41,0.46 l -29.9,0.96 c -0.24,0.01 -0.43,-0.17 -0.44,-0.41 -0.28,-9.6 -0.53,-19.2 -0.76,-28.81 -0.36,-14.9 5.47,-20.71 20.2,-21.4 11.3,-0.53 22.61,-0.79 33.93,-0.8 11.14,-0.01 19.54,1.49 21.61,14.17 2.99,18.39 0.71,37.98 -8.14,54.51 -5.04,9.4 -13.57,19.15 -21.28,27.65 -0.24,0.26 -0.02,0.67 0.33,0.62 z" /><path
       id="path180"
       style="fill:#585757;fill-opacity:1;fill-rule:nonzero;stroke:none"
       d="m 1666.43,759.84 c -0.23,16.21 -0.71,35.77 -1.43,58.66 -0.67,21.25 -7.15,22.78 -27.44,23.31 -11.47,0.3 -22.91,-0.24 -34.3,-1.63 -10.81,-1.32 -14.05,-6.35 -14.24,-16.91 -0.09,-4.73 -0.07,-9.47 0.05,-14.21 0.57,-22.52 1.15,-45.04 1.75,-67.56 0.29,-10.81 1.28,-20.99 14.66,-22.12 18.01,-1.52 35.02,-0.92 51.02,1.81 6.92,1.18 9.1,6.28 9.76,13.02 0.83,8.65 0.29,17.98 0.17,25.63 m -30.8527,-11.4524 c 0.1027,-3.8076 -2.9073,-6.9676 -6.7073,-7.068 l -0.4798,-0.0125 c -3.8002,-0.0971 -6.9702,2.9029 -7.068,6.7073 l -1.6795,64.138 c -0.1027,3.8076 2.9073,6.9676 6.7073,7.068 l 0.4798,0.0125 c 3.8002,0.0971 6.9702,-2.9029 7.068,-6.7073 z" /><path
       id="path182"
       style="fill:#ffffff;fill-opacity:1;fill-rule:nonzero;stroke:none"
       d="m 1633.8978,812.5256 c -0.098,3.8044 -3.2678,6.8044 -7.068,6.7073 l -0.4798,-0.0125 c -3.8,-0.1004 -6.81,-3.2604 -6.7073,-7.068 l 1.6795,-64.138 c 0.098,-3.8044 3.2678,-6.8044 7.068,-6.7073 l 0.4798,0.0125 c 3.8,0.1004 6.81,3.2604 6.7073,7.068 z" /><path
       id="path184"
       style="fill:#ff8b45;fill-opacity:1;fill-rule:nonzero;stroke:none"
       d="m 322.54,800.67 c -10.58,6.11 -18.64,14.56 -23.72,25.75 -0.14,0.31 -0.37,0.43 -0.7,0.37 -26.45,-4.51 -52.66,-9.99 -78.64,-16.42 -12.82,-3.17 -25.43,-6.9 -37.82,-11.2 -0.38,-0.13 -0.66,-0.44 -0.77,-0.83 -2.57,-9.47 -6.13,-25.4 2.21,-32.74 4.47,-3.93 9.36,-7.2 14.68,-9.83 0.3,-0.15 0.61,-0.18 0.94,-0.09 22.15,5.7 44.41,10.89 66.77,15.58 1.11,0.23 3.08,1.26 5.92,3.1 8.93,5.79 17.89,11.92 27.38,16.2 7.79,3.51 15.68,6.63 23.68,9.37 0.33,0.11 0.37,0.56 0.07,0.74 z" /><path
       id="path186"
       style="fill:#ff5d48;fill-opacity:1;fill-rule:nonzero;stroke:none"
       d="m 1045.13,809.49 c -6.73,1.29 -16.44,2.87 -29.13,4.76 -36.97,5.49 -74.16,10.28 -111.58,14.37 -0.37,0.04 -0.72,-0.12 -0.92,-0.43 -11.3,-17.24 -4.92,-34.45 5.82,-49.66 0.19,-0.27 0.45,-0.43 0.78,-0.47 44.83,-5.34 89.57,-11.4 134.22,-18.17 1.14,-0.17 1.55,0.3 1.23,1.41 -4.26,14.73 -5.1,33.36 3.64,47.04 0.24,0.37 0.14,0.62 -0.29,0.74 -1.2,0.31 -2.74,0.22 -3.77,0.41 z" /><path
       id="path188"
       style="fill:#ff8b45;fill-opacity:1;fill-rule:nonzero;stroke:none"
       d="m 875.15,782.35 c -7.58,15.24 -7.56,33.25 -0.56,48.56 0.18,0.39 -0.08,0.83 -0.5,0.87 -122.55,12.62 -246.01,17.99 -369.26,13.93 -0.64,-0.02 -0.98,-0.78 -0.56,-1.27 13.81,-16.2 28.17,-34.18 45.33,-47.08 0.27,-0.21 0.58,-0.31 0.93,-0.31 27.82,-0.13 55.68,0.03 83.46,-0.59 80.67,-1.78 158.42,-6.52 233.26,-14.21 3.33,-0.35 5.82,-0.53 7.48,-0.56 0.5,-0.01 0.64,0.21 0.42,0.66 z" /></g></svg>